<svg width="678" height="41" viewBox="0 0 678 41" fill="none" xmlns="http://www.w3.org/2000/svg">
<path d="M12.2955 1.45455V16H10.5909L2.66477 4.57955H2.52273V16H0.761364V1.45455H2.46591L10.4205 12.9034H10.5625V1.45455H12.2955ZM18.8029 16.2557C18.1116 16.2557 17.4843 16.1255 16.9208 15.8651C16.3574 15.5999 15.9099 15.2188 15.5785 14.7216C15.247 14.2197 15.0813 13.6136 15.0813 12.9034C15.0813 12.2784 15.2044 11.7718 15.4506 11.3835C15.6969 10.9905 16.0259 10.6828 16.4379 10.4602C16.8498 10.2377 17.3043 10.072 17.8015 9.96307C18.3034 9.84943 18.8076 9.75947 19.3143 9.69318C19.9772 9.60795 20.5146 9.54403 20.9265 9.50142C21.3432 9.45407 21.6462 9.37595 21.8356 9.26705C22.0297 9.15814 22.1268 8.96875 22.1268 8.69886V8.64205C22.1268 7.94129 21.935 7.39678 21.5515 7.00852C21.1727 6.62027 20.5974 6.42614 19.8256 6.42614C19.0254 6.42614 18.3981 6.60133 17.9435 6.9517C17.489 7.30208 17.1694 7.67614 16.9847 8.07386L15.3938 7.50568C15.6779 6.8428 16.0567 6.3267 16.5302 5.95739C17.0084 5.58333 17.5292 5.32292 18.0927 5.17614C18.6609 5.02462 19.2196 4.94886 19.7688 4.94886C20.1192 4.94886 20.5217 4.99148 20.9762 5.0767C21.4355 5.1572 21.8782 5.32528 22.3043 5.58097C22.7352 5.83665 23.0927 6.22254 23.3768 6.73864C23.6609 7.25473 23.8029 7.94602 23.8029 8.8125V16H22.1268V14.5227H22.0415C21.9279 14.7595 21.7385 15.0128 21.4734 15.2827C21.2082 15.5526 20.8555 15.7822 20.4151 15.9716C19.9748 16.161 19.4374 16.2557 18.8029 16.2557ZM19.0586 14.75C19.7215 14.75 20.2802 14.6198 20.7347 14.3594C21.194 14.099 21.5397 13.7628 21.7717 13.3509C22.0084 12.9389 22.1268 12.5057 22.1268 12.0511V10.517C22.0558 10.6023 21.8995 10.6804 21.658 10.7514C21.4213 10.8177 21.1467 10.8769 20.8342 10.929C20.5264 10.9763 20.2257 11.0189 19.9322 11.0568C19.6433 11.09 19.409 11.1184 19.229 11.142C18.7934 11.1989 18.3862 11.2912 18.0075 11.419C17.6334 11.5421 17.3304 11.7292 17.0984 11.9801C16.8711 12.2263 16.7575 12.5625 16.7575 12.9886C16.7575 13.571 16.9729 14.0114 17.4038 14.3097C17.8394 14.6032 18.391 14.75 19.0586 14.75ZM17.695 3.78409L16.3881 3.72727C16.3881 3.00284 16.5941 2.41098 17.006 1.9517C17.4227 1.48769 17.9364 1.25568 18.5472 1.25568C18.8171 1.25568 19.0562 1.30303 19.2646 1.39773C19.4729 1.48769 19.6718 1.59186 19.8612 1.71023C20.0505 1.8286 20.2447 1.93513 20.4435 2.02983C20.6471 2.11979 20.8768 2.16477 21.1325 2.16477C21.4023 2.16477 21.6296 2.06061 21.8143 1.85227C22.0037 1.6392 22.0984 1.38352 22.0984 1.08523L23.3768 1.19886C23.3768 1.9375 23.1684 2.52462 22.7518 2.96023C22.3398 3.39583 21.8285 3.61364 21.2177 3.61364C20.891 3.61364 20.6211 3.56866 20.408 3.47869C20.195 3.384 20.0056 3.27746 19.8398 3.15909C19.6741 3.04072 19.4989 2.93655 19.3143 2.84659C19.1296 2.75189 18.9023 2.70455 18.6325 2.70455C18.3626 2.70455 18.1377 2.81108 17.9577 3.02415C17.7826 3.23248 17.695 3.4858 17.695 3.78409ZM31.294 16.2273C30.3092 16.2273 29.4451 15.9929 28.7017 15.5241C27.9631 15.0554 27.3854 14.3996 26.9688 13.5568C26.5568 12.714 26.3509 11.7292 26.3509 10.6023C26.3509 9.46591 26.5568 8.47396 26.9688 7.62642C27.3854 6.77888 27.9631 6.12074 28.7017 5.65199C29.4451 5.18324 30.3092 4.94886 31.294 4.94886C32.2789 4.94886 33.1406 5.18324 33.8793 5.65199C34.6226 6.12074 35.2003 6.77888 35.6122 7.62642C36.0289 8.47396 36.2372 9.46591 36.2372 10.6023C36.2372 11.7292 36.0289 12.714 35.6122 13.5568C35.2003 14.3996 34.6226 15.0554 33.8793 15.5241C33.1406 15.9929 32.2789 16.2273 31.294 16.2273ZM31.294 14.7216C32.0421 14.7216 32.6577 14.5298 33.1406 14.1463C33.6236 13.7628 33.9811 13.2585 34.2131 12.6335C34.4451 12.0085 34.5611 11.3314 34.5611 10.6023C34.5611 9.87311 34.4451 9.19366 34.2131 8.56392C33.9811 7.93419 33.6236 7.42519 33.1406 7.03693C32.6577 6.64867 32.0421 6.45455 31.294 6.45455C30.5459 6.45455 29.9304 6.64867 29.4474 7.03693C28.9645 7.42519 28.607 7.93419 28.375 8.56392C28.143 9.19366 28.027 9.87311 28.027 10.6023C28.027 11.3314 28.143 12.0085 28.375 12.6335C28.607 13.2585 28.9645 13.7628 29.4474 14.1463C29.9304 14.5298 30.5459 14.7216 31.294 14.7216ZM53.984 16.2273C53.0749 16.2273 52.2724 15.9976 51.5764 15.5384C50.8803 15.0743 50.3358 14.4209 49.9428 13.5781C49.5498 12.7306 49.3533 11.7292 49.3533 10.5739C49.3533 9.42803 49.5498 8.43371 49.9428 7.59091C50.3358 6.74811 50.8827 6.09706 51.5835 5.63778C52.2842 5.1785 53.0939 4.94886 54.0124 4.94886C54.7227 4.94886 55.2837 5.06723 55.6957 5.30398C56.1123 5.53598 56.4296 5.80114 56.6474 6.09943C56.8699 6.39299 57.0427 6.63447 57.1658 6.82386H57.3079V1.45455H58.984V16H57.3647V14.3239H57.1658C57.0427 14.5227 56.8675 14.7737 56.6403 15.0767C56.413 15.375 56.0887 15.6425 55.6673 15.8793C55.2459 16.1113 54.6848 16.2273 53.984 16.2273ZM54.2113 14.7216C54.8836 14.7216 55.4518 14.5464 55.9158 14.196C56.3799 13.8409 56.7326 13.3509 56.9741 12.7259C57.2156 12.0961 57.3363 11.3693 57.3363 10.5455C57.3363 9.73106 57.2179 9.01847 56.9812 8.40767C56.7444 7.79214 56.3941 7.31392 55.93 6.97301C55.466 6.62737 54.8931 6.45455 54.2113 6.45455C53.5011 6.45455 52.9092 6.63684 52.4357 7.00142C51.967 7.36127 51.6142 7.85133 51.3775 8.47159C51.1455 9.08712 51.0295 9.77841 51.0295 10.5455C51.0295 11.322 51.1478 12.0275 51.3846 12.6619C51.6261 13.2917 51.9812 13.7936 52.4499 14.1676C52.9234 14.5369 53.5105 14.7216 54.2113 14.7216ZM66.8604 16.2273C65.8093 16.2273 64.9026 15.9953 64.1403 15.5312C63.3827 15.0625 62.7979 14.4091 62.386 13.571C61.9788 12.7282 61.7752 11.7481 61.7752 10.6307C61.7752 9.51326 61.9788 8.52841 62.386 7.67614C62.7979 6.81913 63.3709 6.15152 64.1048 5.6733C64.8434 5.19034 65.7051 4.94886 66.69 4.94886C67.2582 4.94886 67.8192 5.04356 68.3732 5.23295C68.9272 5.42235 69.4315 5.73011 69.886 6.15625C70.3406 6.57765 70.7028 7.13636 70.9727 7.83239C71.2425 8.52841 71.3775 9.38542 71.3775 10.4034V11.1136H62.9684V9.66477H69.6729C69.6729 9.04924 69.5498 8.5 69.3036 8.01705C69.0621 7.53409 68.7165 7.15294 68.2667 6.87358C67.8216 6.59422 67.296 6.45455 66.69 6.45455C66.0224 6.45455 65.4447 6.62026 64.957 6.9517C64.4741 7.27841 64.1024 7.70455 63.842 8.23011C63.5816 8.75568 63.4514 9.31913 63.4514 9.92045V10.8864C63.4514 11.7102 63.5934 12.4086 63.8775 12.9815C64.1663 13.5497 64.5664 13.983 65.0778 14.2812C65.5891 14.5748 66.1834 14.7216 66.8604 14.7216C67.3008 14.7216 67.6985 14.66 68.0536 14.5369C68.4135 14.4091 68.7236 14.2197 68.984 13.9688C69.2444 13.7131 69.4457 13.3958 69.5877 13.017L71.207 13.4716C71.0366 14.0208 70.7501 14.5038 70.3477 14.9205C69.9452 15.3324 69.448 15.6544 68.8562 15.8864C68.2643 16.1136 67.5991 16.2273 66.8604 16.2273ZM73.9272 16V5.09091H75.6033V16H73.9272ZM74.7795 3.27273C74.4528 3.27273 74.171 3.16146 73.9343 2.93892C73.7023 2.71638 73.5863 2.44886 73.5863 2.13636C73.5863 1.82386 73.7023 1.55634 73.9343 1.33381C74.171 1.11127 74.4528 1 74.7795 1C75.1062 1 75.3855 1.11127 75.6175 1.33381C75.8543 1.55634 75.9727 1.82386 75.9727 2.13636C75.9727 2.44886 75.8543 2.71638 75.6175 2.93892C75.3855 3.16146 75.1062 3.27273 74.7795 3.27273ZM79.9233 5.09091L82.5369 9.55114L85.1506 5.09091H87.0824L83.5597 10.5455L87.0824 16H85.1506L82.5369 11.767L79.9233 16H77.9915L81.4574 10.5455L77.9915 5.09091H79.9233ZM93.5987 16.2273C92.5476 16.2273 91.6409 15.9953 90.8786 15.5312C90.121 15.0625 89.5362 14.4091 89.1243 13.571C88.7171 12.7282 88.5135 11.7481 88.5135 10.6307C88.5135 9.51326 88.7171 8.52841 89.1243 7.67614C89.5362 6.81913 90.1091 6.15152 90.843 5.6733C91.5817 5.19034 92.4434 4.94886 93.4283 4.94886C93.9965 4.94886 94.5575 5.04356 95.1115 5.23295C95.6655 5.42235 96.1697 5.73011 96.6243 6.15625C97.0788 6.57765 97.4411 7.13636 97.7109 7.83239C97.9808 8.52841 98.1158 9.38542 98.1158 10.4034V11.1136H89.7067V9.66477H96.4112C96.4112 9.04924 96.2881 8.5 96.0419 8.01705C95.8004 7.53409 95.4548 7.15294 95.005 6.87358C94.5599 6.59422 94.0343 6.45455 93.4283 6.45455C92.7607 6.45455 92.183 6.62026 91.6953 6.9517C91.2124 7.27841 90.8407 7.70455 90.5803 8.23011C90.3198 8.75568 90.1896 9.31913 90.1896 9.92045V10.8864C90.1896 11.7102 90.3317 12.4086 90.6158 12.9815C90.9046 13.5497 91.3047 13.983 91.8161 14.2812C92.3274 14.5748 92.9216 14.7216 93.5987 14.7216C94.0391 14.7216 94.4368 14.66 94.7919 14.5369C95.1518 14.4091 95.4619 14.2197 95.7223 13.9688C95.9827 13.7131 96.184 13.3958 96.326 13.017L97.9453 13.4716C97.7749 14.0208 97.4884 14.5038 97.0859 14.9205C96.6835 15.3324 96.1863 15.6544 95.5945 15.8864C95.0026 16.1136 94.3374 16.2273 93.5987 16.2273ZM114.945 16.2557C114.253 16.2557 113.626 16.1255 113.063 15.8651C112.499 15.5999 112.052 15.2188 111.72 14.7216C111.389 14.2197 111.223 13.6136 111.223 12.9034C111.223 12.2784 111.346 11.7718 111.592 11.3835C111.839 10.9905 112.168 10.6828 112.58 10.4602C112.991 10.2377 113.446 10.072 113.943 9.96307C114.445 9.84943 114.949 9.75947 115.456 9.69318C116.119 9.60795 116.656 9.54403 117.068 9.50142C117.485 9.45407 117.788 9.37595 117.977 9.26705C118.171 9.15814 118.268 8.96875 118.268 8.69886V8.64205C118.268 7.94129 118.077 7.39678 117.693 7.00852C117.314 6.62027 116.739 6.42614 115.967 6.42614C115.167 6.42614 114.54 6.60133 114.085 6.9517C113.631 7.30208 113.311 7.67614 113.126 8.07386L111.536 7.50568C111.82 6.8428 112.198 6.3267 112.672 5.95739C113.15 5.58333 113.671 5.32292 114.234 5.17614C114.803 5.02462 115.361 4.94886 115.911 4.94886C116.261 4.94886 116.663 4.99148 117.118 5.0767C117.577 5.1572 118.02 5.32528 118.446 5.58097C118.877 5.83665 119.234 6.22254 119.518 6.73864C119.803 7.25473 119.945 7.94602 119.945 8.8125V16H118.268V14.5227H118.183C118.07 14.7595 117.88 15.0128 117.615 15.2827C117.35 15.5526 116.997 15.7822 116.557 15.9716C116.116 16.161 115.579 16.2557 114.945 16.2557ZM115.2 14.75C115.863 14.75 116.422 14.6198 116.876 14.3594C117.336 14.099 117.681 13.7628 117.913 13.3509C118.15 12.9389 118.268 12.5057 118.268 12.0511V10.517C118.197 10.6023 118.041 10.6804 117.8 10.7514C117.563 10.8177 117.288 10.8769 116.976 10.929C116.668 10.9763 116.367 11.0189 116.074 11.0568C115.785 11.09 115.551 11.1184 115.371 11.142C114.935 11.1989 114.528 11.2912 114.149 11.419C113.775 11.5421 113.472 11.7292 113.24 11.9801C113.013 12.2263 112.899 12.5625 112.899 12.9886C112.899 13.571 113.115 14.0114 113.545 14.3097C113.981 14.6032 114.533 14.75 115.2 14.75ZM115.257 3.61364L116.99 0.318181H118.95L116.734 3.61364H115.257ZM127.407 20.3182C126.598 20.3182 125.902 20.214 125.319 20.0057C124.737 19.8021 124.252 19.5322 123.863 19.196C123.48 18.8646 123.174 18.5095 122.947 18.1307L124.282 17.1932C124.434 17.392 124.626 17.6193 124.858 17.875C125.09 18.1354 125.407 18.3603 125.809 18.5497C126.217 18.7438 126.749 18.8409 127.407 18.8409C128.288 18.8409 129.015 18.6278 129.588 18.2017C130.161 17.7756 130.447 17.108 130.447 16.1989V13.983H130.305C130.182 14.1818 130.007 14.428 129.779 14.7216C129.557 15.0104 129.235 15.2685 128.814 15.4957C128.397 15.7183 127.833 15.8295 127.123 15.8295C126.243 15.8295 125.452 15.6212 124.751 15.2045C124.055 14.7879 123.503 14.1818 123.096 13.3864C122.694 12.5909 122.493 11.625 122.493 10.4886C122.493 9.37121 122.689 8.3982 123.082 7.5696C123.475 6.73627 124.022 6.09233 124.723 5.63778C125.423 5.1785 126.233 4.94886 127.152 4.94886C127.862 4.94886 128.425 5.06723 128.842 5.30398C129.263 5.53598 129.585 5.80114 129.808 6.09943C130.035 6.39299 130.21 6.63447 130.333 6.82386H130.504V5.09091H132.123V16.3125C132.123 17.25 131.91 18.0123 131.484 18.5994C131.063 19.1913 130.494 19.6245 129.779 19.8991C129.069 20.1785 128.279 20.3182 127.407 20.3182ZM127.35 14.3239C128.023 14.3239 128.591 14.17 129.055 13.8622C129.519 13.5545 129.872 13.1117 130.113 12.5341C130.355 11.9564 130.475 11.2652 130.475 10.4602C130.475 9.67424 130.357 8.98059 130.12 8.37926C129.884 7.77794 129.533 7.30682 129.069 6.96591C128.605 6.625 128.032 6.45455 127.35 6.45455C126.64 6.45455 126.048 6.63447 125.575 6.99432C125.106 7.35417 124.753 7.83712 124.517 8.44318C124.285 9.04924 124.169 9.72159 124.169 10.4602C124.169 11.2178 124.287 11.8878 124.524 12.4702C124.765 13.0478 125.12 13.5024 125.589 13.8338C126.063 14.1605 126.65 14.3239 127.35 14.3239ZM142.066 11.5398V5.09091H143.743V16H142.066V14.1534H141.953C141.697 14.7074 141.299 15.1785 140.76 15.5668C140.22 15.9503 139.538 16.142 138.714 16.142C138.032 16.142 137.426 15.9929 136.896 15.6946C136.366 15.3916 135.949 14.937 135.646 14.331C135.343 13.7202 135.191 12.9508 135.191 12.0227V5.09091H136.868V11.9091C136.868 12.7045 137.09 13.339 137.535 13.8125C137.985 14.286 138.558 14.5227 139.254 14.5227C139.671 14.5227 140.094 14.4162 140.525 14.2031C140.961 13.9901 141.325 13.6634 141.619 13.223C141.917 12.7827 142.066 12.2216 142.066 11.5398ZM150.023 16.2557C149.331 16.2557 148.704 16.1255 148.141 15.8651C147.577 15.5999 147.13 15.2188 146.798 14.7216C146.467 14.2197 146.301 13.6136 146.301 12.9034C146.301 12.2784 146.424 11.7718 146.67 11.3835C146.917 10.9905 147.246 10.6828 147.658 10.4602C148.07 10.2377 148.524 10.072 149.021 9.96307C149.523 9.84943 150.027 9.75947 150.534 9.69318C151.197 9.60795 151.734 9.54403 152.146 9.50142C152.563 9.45407 152.866 9.37595 153.055 9.26705C153.25 9.15814 153.347 8.96875 153.347 8.69886V8.64205C153.347 7.94129 153.155 7.39678 152.771 7.00852C152.393 6.62027 151.817 6.42614 151.045 6.42614C150.245 6.42614 149.618 6.60133 149.163 6.9517C148.709 7.30208 148.389 7.67614 148.205 8.07386L146.614 7.50568C146.898 6.8428 147.277 6.3267 147.75 5.95739C148.228 5.58333 148.749 5.32292 149.313 5.17614C149.881 5.02462 150.439 4.94886 150.989 4.94886C151.339 4.94886 151.741 4.99148 152.196 5.0767C152.655 5.1572 153.098 5.32528 153.524 5.58097C153.955 5.83665 154.313 6.22254 154.597 6.73864C154.881 7.25473 155.023 7.94602 155.023 8.8125V16H153.347V14.5227H153.261C153.148 14.7595 152.958 15.0128 152.693 15.2827C152.428 15.5526 152.075 15.7822 151.635 15.9716C151.195 16.161 150.657 16.2557 150.023 16.2557ZM150.278 14.75C150.941 14.75 151.5 14.6198 151.955 14.3594C152.414 14.099 152.759 13.7628 152.991 13.3509C153.228 12.9389 153.347 12.5057 153.347 12.0511V10.517C153.276 10.6023 153.119 10.6804 152.878 10.7514C152.641 10.8177 152.366 10.8769 152.054 10.929C151.746 10.9763 151.446 11.0189 151.152 11.0568C150.863 11.09 150.629 11.1184 150.449 11.142C150.013 11.1989 149.606 11.2912 149.227 11.419C148.853 11.5421 148.55 11.7292 148.318 11.9801C148.091 12.2263 147.977 12.5625 147.977 12.9886C147.977 13.571 148.193 14.0114 148.624 14.3097C149.059 14.6032 149.611 14.75 150.278 14.75ZM169.151 20.0909V5.09091H170.77V6.82386H170.969C171.092 6.63447 171.263 6.39299 171.48 6.09943C171.703 5.80114 172.02 5.53598 172.432 5.30398C172.849 5.06723 173.412 4.94886 174.123 4.94886C175.041 4.94886 175.851 5.1785 176.551 5.63778C177.252 6.09706 177.799 6.74811 178.192 7.59091C178.585 8.43371 178.782 9.42803 178.782 10.5739C178.782 11.7292 178.585 12.7306 178.192 13.5781C177.799 14.4209 177.255 15.0743 176.559 15.5384C175.863 15.9976 175.06 16.2273 174.151 16.2273C173.45 16.2273 172.889 16.1113 172.468 15.8793C172.046 15.6425 171.722 15.375 171.495 15.0767C171.267 14.7737 171.092 14.5227 170.969 14.3239H170.827V20.0909H169.151ZM170.799 10.5455C170.799 11.3693 170.919 12.0961 171.161 12.7259C171.402 13.3509 171.755 13.8409 172.219 14.196C172.683 14.5464 173.251 14.7216 173.924 14.7216C174.624 14.7216 175.209 14.5369 175.678 14.1676C176.151 13.7936 176.507 13.2917 176.743 12.6619C176.985 12.0275 177.105 11.322 177.105 10.5455C177.105 9.77841 176.987 9.08712 176.75 8.47159C176.518 7.85133 176.166 7.36127 175.692 7.00142C175.223 6.63684 174.634 6.45455 173.924 6.45455C173.242 6.45455 172.669 6.62737 172.205 6.97301C171.741 7.31392 171.391 7.79214 171.154 8.40767C170.917 9.01847 170.799 9.73106 170.799 10.5455ZM184.549 16.2557C183.857 16.2557 183.23 16.1255 182.667 15.8651C182.103 15.5999 181.656 15.2188 181.324 14.7216C180.993 14.2197 180.827 13.6136 180.827 12.9034C180.827 12.2784 180.95 11.7718 181.196 11.3835C181.443 10.9905 181.772 10.6828 182.184 10.4602C182.596 10.2377 183.05 10.072 183.547 9.96307C184.049 9.84943 184.553 9.75947 185.06 9.69318C185.723 9.60795 186.26 9.54403 186.672 9.50142C187.089 9.45407 187.392 9.37595 187.581 9.26705C187.775 9.15814 187.873 8.96875 187.873 8.69886V8.64205C187.873 7.94129 187.681 7.39678 187.297 7.00852C186.918 6.62027 186.343 6.42614 185.571 6.42614C184.771 6.42614 184.144 6.60133 183.689 6.9517C183.235 7.30208 182.915 7.67614 182.73 8.07386L181.14 7.50568C181.424 6.8428 181.802 6.3267 182.276 5.95739C182.754 5.58333 183.275 5.32292 183.838 5.17614C184.407 5.02462 184.965 4.94886 185.515 4.94886C185.865 4.94886 186.267 4.99148 186.722 5.0767C187.181 5.1572 187.624 5.32528 188.05 5.58097C188.481 5.83665 188.838 6.22254 189.123 6.73864C189.407 7.25473 189.549 7.94602 189.549 8.8125V16H187.873V14.5227H187.787C187.674 14.7595 187.484 15.0128 187.219 15.2827C186.954 15.5526 186.601 15.7822 186.161 15.9716C185.721 16.161 185.183 16.2557 184.549 16.2557ZM184.804 14.75C185.467 14.75 186.026 14.6198 186.48 14.3594C186.94 14.099 187.285 13.7628 187.517 13.3509C187.754 12.9389 187.873 12.5057 187.873 12.0511V10.517C187.801 10.6023 187.645 10.6804 187.404 10.7514C187.167 10.8177 186.892 10.8769 186.58 10.929C186.272 10.9763 185.971 11.0189 185.678 11.0568C185.389 11.09 185.155 11.1184 184.975 11.142C184.539 11.1989 184.132 11.2912 183.753 11.419C183.379 11.5421 183.076 11.7292 182.844 11.9801C182.617 12.2263 182.503 12.5625 182.503 12.9886C182.503 13.571 182.719 14.0114 183.15 14.3097C183.585 14.6032 184.137 14.75 184.804 14.75ZM192.608 16V5.09091H194.227V6.73864H194.341C194.54 6.19886 194.9 5.76089 195.42 5.42472C195.941 5.08854 196.528 4.92045 197.182 4.92045C197.305 4.92045 197.459 4.92282 197.643 4.92756C197.828 4.93229 197.968 4.93939 198.063 4.94886V6.65341C198.006 6.6392 197.875 6.6179 197.672 6.58949C197.473 6.55634 197.262 6.53977 197.04 6.53977C196.509 6.53977 196.036 6.65104 195.619 6.87358C195.207 7.09138 194.881 7.39441 194.639 7.78267C194.402 8.16619 194.284 8.60417 194.284 9.09659V16H192.608ZM203.26 16.2557C202.568 16.2557 201.941 16.1255 201.377 15.8651C200.814 15.5999 200.367 15.2188 200.035 14.7216C199.704 14.2197 199.538 13.6136 199.538 12.9034C199.538 12.2784 199.661 11.7718 199.907 11.3835C200.154 10.9905 200.483 10.6828 200.895 10.4602C201.306 10.2377 201.761 10.072 202.258 9.96307C202.76 9.84943 203.264 9.75947 203.771 9.69318C204.434 9.60795 204.971 9.54403 205.383 9.50142C205.8 9.45407 206.103 9.37595 206.292 9.26705C206.486 9.15814 206.583 8.96875 206.583 8.69886V8.64205C206.583 7.94129 206.392 7.39678 206.008 7.00852C205.629 6.62027 205.054 6.42614 204.282 6.42614C203.482 6.42614 202.855 6.60133 202.4 6.9517C201.946 7.30208 201.626 7.67614 201.441 8.07386L199.851 7.50568C200.135 6.8428 200.513 6.3267 200.987 5.95739C201.465 5.58333 201.986 5.32292 202.549 5.17614C203.118 5.02462 203.676 4.94886 204.226 4.94886C204.576 4.94886 204.978 4.99148 205.433 5.0767C205.892 5.1572 206.335 5.32528 206.761 5.58097C207.192 5.83665 207.549 6.22254 207.833 6.73864C208.118 7.25473 208.26 7.94602 208.26 8.8125V16H206.583V14.5227H206.498C206.385 14.7595 206.195 15.0128 205.93 15.2827C205.665 15.5526 205.312 15.7822 204.872 15.9716C204.431 16.161 203.894 16.2557 203.26 16.2557ZM203.515 14.75C204.178 14.75 204.737 14.6198 205.191 14.3594C205.651 14.099 205.996 13.7628 206.228 13.3509C206.465 12.9389 206.583 12.5057 206.583 12.0511V10.517C206.512 10.6023 206.356 10.6804 206.115 10.7514C205.878 10.8177 205.603 10.8769 205.291 10.929C204.983 10.9763 204.682 11.0189 204.389 11.0568C204.1 11.09 203.866 11.1184 203.686 11.142C203.25 11.1989 202.843 11.2912 202.464 11.419C202.09 11.5421 201.787 11.7292 201.555 11.9801C201.328 12.2263 201.214 12.5625 201.214 12.9886C201.214 13.571 201.43 14.0114 201.86 14.3097C202.296 14.6032 202.848 14.75 203.515 14.75ZM215.438 16.2273C214.529 16.2273 213.727 15.9976 213.031 15.5384C212.335 15.0743 211.79 14.4209 211.397 13.5781C211.004 12.7306 210.808 11.7292 210.808 10.5739C210.808 9.42803 211.004 8.43371 211.397 7.59091C211.79 6.74811 212.337 6.09706 213.038 5.63778C213.738 5.1785 214.548 4.94886 215.467 4.94886C216.177 4.94886 216.738 5.06723 217.15 5.30398C217.567 5.53598 217.884 5.80114 218.102 6.09943C218.324 6.39299 218.497 6.63447 218.62 6.82386H218.762V1.45455H220.438V16H218.819V14.3239H218.62C218.497 14.5227 218.322 14.7737 218.094 15.0767C217.867 15.375 217.543 15.6425 217.121 15.8793C216.7 16.1113 216.139 16.2273 215.438 16.2273ZM215.665 14.7216C216.338 14.7216 216.906 14.5464 217.37 14.196C217.834 13.8409 218.187 13.3509 218.428 12.7259C218.67 12.0961 218.79 11.3693 218.79 10.5455C218.79 9.73106 218.672 9.01847 218.435 8.40767C218.199 7.79214 217.848 7.31392 217.384 6.97301C216.92 6.62737 216.347 6.45455 215.665 6.45455C214.955 6.45455 214.363 6.63684 213.89 7.00142C213.421 7.36127 213.068 7.85133 212.832 8.47159C212.6 9.08712 212.484 9.77841 212.484 10.5455C212.484 11.322 212.602 12.0275 212.839 12.6619C213.08 13.2917 213.435 13.7936 213.904 14.1676C214.378 14.5369 214.965 14.7216 215.665 14.7216ZM226.951 16.2557C226.26 16.2557 225.632 16.1255 225.069 15.8651C224.505 15.5999 224.058 15.2188 223.727 14.7216C223.395 14.2197 223.229 13.6136 223.229 12.9034C223.229 12.2784 223.353 11.7718 223.599 11.3835C223.845 10.9905 224.174 10.6828 224.586 10.4602C224.998 10.2377 225.452 10.072 225.95 9.96307C226.451 9.84943 226.956 9.75947 227.462 9.69318C228.125 9.60795 228.663 9.54403 229.075 9.50142C229.491 9.45407 229.794 9.37595 229.984 9.26705C230.178 9.15814 230.275 8.96875 230.275 8.69886V8.64205C230.275 7.94129 230.083 7.39678 229.7 7.00852C229.321 6.62027 228.746 6.42614 227.974 6.42614C227.174 6.42614 226.546 6.60133 226.092 6.9517C225.637 7.30208 225.317 7.67614 225.133 8.07386L223.542 7.50568C223.826 6.8428 224.205 6.3267 224.678 5.95739C225.156 5.58333 225.677 5.32292 226.241 5.17614C226.809 5.02462 227.368 4.94886 227.917 4.94886C228.267 4.94886 228.67 4.99148 229.124 5.0767C229.584 5.1572 230.026 5.32528 230.452 5.58097C230.883 5.83665 231.241 6.22254 231.525 6.73864C231.809 7.25473 231.951 7.94602 231.951 8.8125V16H230.275V14.5227H230.19C230.076 14.7595 229.887 15.0128 229.621 15.2827C229.356 15.5526 229.004 15.7822 228.563 15.9716C228.123 16.161 227.585 16.2557 226.951 16.2557ZM227.207 14.75C227.87 14.75 228.428 14.6198 228.883 14.3594C229.342 14.099 229.688 13.7628 229.92 13.3509C230.156 12.9389 230.275 12.5057 230.275 12.0511V10.517C230.204 10.6023 230.048 10.6804 229.806 10.7514C229.569 10.8177 229.295 10.8769 228.982 10.929C228.674 10.9763 228.374 11.0189 228.08 11.0568C227.791 11.09 227.557 11.1184 227.377 11.142C226.942 11.1989 226.534 11.2912 226.156 11.419C225.781 11.5421 225.478 11.7292 225.246 11.9801C225.019 12.2263 224.906 12.5625 224.906 12.9886C224.906 13.571 225.121 14.0114 225.552 14.3097C225.987 14.6032 226.539 14.75 227.207 14.75ZM253.522 20.0909V14.3239H253.38C253.257 14.5227 253.082 14.7737 252.855 15.0767C252.627 15.375 252.303 15.6425 251.882 15.8793C251.46 16.1113 250.899 16.2273 250.199 16.2273C249.289 16.2273 248.487 15.9976 247.791 15.5384C247.095 15.0743 246.55 14.4209 246.157 13.5781C245.764 12.7306 245.568 11.7292 245.568 10.5739C245.568 9.42803 245.764 8.43371 246.157 7.59091C246.55 6.74811 247.097 6.09706 247.798 5.63778C248.499 5.1785 249.308 4.94886 250.227 4.94886C250.937 4.94886 251.498 5.06723 251.91 5.30398C252.327 5.53598 252.644 5.80114 252.862 6.09943C253.084 6.39299 253.257 6.63447 253.38 6.82386H253.579V5.09091H255.199V20.0909H253.522ZM250.426 14.7216C251.098 14.7216 251.666 14.5464 252.13 14.196C252.594 13.8409 252.947 13.3509 253.189 12.7259C253.43 12.0961 253.551 11.3693 253.551 10.5455C253.551 9.73106 253.432 9.01847 253.196 8.40767C252.959 7.79214 252.609 7.31392 252.145 6.97301C251.681 6.62737 251.108 6.45455 250.426 6.45455C249.716 6.45455 249.124 6.63684 248.65 7.00142C248.181 7.36127 247.829 7.85133 247.592 8.47159C247.36 9.08712 247.244 9.77841 247.244 10.5455C247.244 11.322 247.362 12.0275 247.599 12.6619C247.841 13.2917 248.196 13.7936 248.664 14.1676C249.138 14.5369 249.725 14.7216 250.426 14.7216ZM265.142 11.5398V5.09091H266.818V16H265.142V14.1534H265.028C264.772 14.7074 264.375 15.1785 263.835 15.5668C263.295 15.9503 262.613 16.142 261.789 16.142C261.108 16.142 260.502 15.9929 259.971 15.6946C259.441 15.3916 259.024 14.937 258.721 14.331C258.418 13.7202 258.267 12.9508 258.267 12.0227V5.09091H259.943V11.9091C259.943 12.7045 260.165 13.339 260.61 13.8125C261.06 14.286 261.633 14.5227 262.329 14.5227C262.746 14.5227 263.17 14.4162 263.601 14.2031C264.036 13.9901 264.401 13.6634 264.694 13.223C264.993 12.7827 265.142 12.2216 265.142 11.5398ZM274.462 16.2273C273.411 16.2273 272.504 15.9953 271.741 15.5312C270.984 15.0625 270.399 14.4091 269.987 13.571C269.58 12.7282 269.376 11.7481 269.376 10.6307C269.376 9.51326 269.58 8.52841 269.987 7.67614C270.399 6.81913 270.972 6.15152 271.706 5.6733C272.445 5.19034 273.306 4.94886 274.291 4.94886C274.859 4.94886 275.42 5.04356 275.974 5.23295C276.528 5.42235 277.033 5.73011 277.487 6.15625C277.942 6.57765 278.304 7.13636 278.574 7.83239C278.844 8.52841 278.979 9.38542 278.979 10.4034V11.1136H270.57V9.66477H277.274C277.274 9.04924 277.151 8.5 276.905 8.01705C276.663 7.53409 276.318 7.15294 275.868 6.87358C275.423 6.59422 274.897 6.45455 274.291 6.45455C273.624 6.45455 273.046 6.62026 272.558 6.9517C272.075 7.27841 271.704 7.70455 271.443 8.23011C271.183 8.75568 271.053 9.31913 271.053 9.92045V10.8864C271.053 11.7102 271.195 12.4086 271.479 12.9815C271.768 13.5497 272.168 13.983 272.679 14.2812C273.19 14.5748 273.785 14.7216 274.462 14.7216C274.902 14.7216 275.3 14.66 275.655 14.5369C276.015 14.4091 276.325 14.2197 276.585 13.9688C276.846 13.7131 277.047 13.3958 277.189 13.017L278.808 13.4716C278.638 14.0208 278.351 14.5038 277.949 14.9205C277.546 15.3324 277.049 15.6544 276.457 15.8864C275.866 16.1136 275.2 16.2273 274.462 16.2273ZM292.597 20.0909V5.09091H294.217V6.82386H294.415C294.539 6.63447 294.709 6.39299 294.927 6.09943C295.149 5.80114 295.467 5.53598 295.879 5.30398C296.295 5.06723 296.859 4.94886 297.569 4.94886C298.487 4.94886 299.297 5.1785 299.998 5.63778C300.699 6.09706 301.245 6.74811 301.638 7.59091C302.031 8.43371 302.228 9.42803 302.228 10.5739C302.228 11.7292 302.031 12.7306 301.638 13.5781C301.245 14.4209 300.701 15.0743 300.005 15.5384C299.309 15.9976 298.506 16.2273 297.597 16.2273C296.897 16.2273 296.335 16.1113 295.914 15.8793C295.493 15.6425 295.168 15.375 294.941 15.0767C294.714 14.7737 294.539 14.5227 294.415 14.3239H294.273V20.0909H292.597ZM294.245 10.5455C294.245 11.3693 294.366 12.0961 294.607 12.7259C294.849 13.3509 295.201 13.8409 295.665 14.196C296.129 14.5464 296.698 14.7216 297.37 14.7216C298.071 14.7216 298.656 14.5369 299.124 14.1676C299.598 13.7936 299.953 13.2917 300.19 12.6619C300.431 12.0275 300.552 11.322 300.552 10.5455C300.552 9.77841 300.433 9.08712 300.197 8.47159C299.965 7.85133 299.612 7.36127 299.138 7.00142C298.67 6.63684 298.08 6.45455 297.37 6.45455C296.688 6.45455 296.115 6.62737 295.651 6.97301C295.187 7.31392 294.837 7.79214 294.6 8.40767C294.363 9.01847 294.245 9.73106 294.245 10.5455ZM309.217 16.2273C308.232 16.2273 307.368 15.9929 306.624 15.5241C305.886 15.0554 305.308 14.3996 304.891 13.5568C304.479 12.714 304.273 11.7292 304.273 10.6023C304.273 9.46591 304.479 8.47396 304.891 7.62642C305.308 6.77888 305.886 6.12074 306.624 5.65199C307.368 5.18324 308.232 4.94886 309.217 4.94886C310.201 4.94886 311.063 5.18324 311.802 5.65199C312.545 6.12074 313.123 6.77888 313.535 7.62642C313.951 8.47396 314.16 9.46591 314.16 10.6023C314.16 11.7292 313.951 12.714 313.535 13.5568C313.123 14.3996 312.545 15.0554 311.802 15.5241C311.063 15.9929 310.201 16.2273 309.217 16.2273ZM309.217 14.7216C309.965 14.7216 310.58 14.5298 311.063 14.1463C311.546 13.7628 311.904 13.2585 312.136 12.6335C312.368 12.0085 312.484 11.3314 312.484 10.6023C312.484 9.87311 312.368 9.19366 312.136 8.56392C311.904 7.93419 311.546 7.42519 311.063 7.03693C310.58 6.64867 309.965 6.45455 309.217 6.45455C308.469 6.45455 307.853 6.64867 307.37 7.03693C306.887 7.42519 306.53 7.93419 306.298 8.56392C306.066 9.19366 305.95 9.87311 305.95 10.6023C305.95 11.3314 306.066 12.0085 306.298 12.6335C306.53 13.2585 306.887 13.7628 307.37 14.1463C307.853 14.5298 308.469 14.7216 309.217 14.7216ZM324.446 7.53409L322.94 7.96023C322.845 7.70928 322.706 7.46544 322.521 7.22869C322.341 6.98722 322.095 6.78835 321.782 6.6321C321.47 6.47585 321.07 6.39773 320.582 6.39773C319.914 6.39773 319.358 6.55161 318.913 6.85938C318.473 7.16241 318.252 7.5483 318.252 8.01705C318.252 8.43371 318.404 8.76278 318.707 9.00426C319.01 9.24574 319.484 9.44697 320.127 9.60795L321.747 10.0057C322.722 10.2424 323.449 10.6046 323.927 11.0923C324.405 11.5753 324.645 12.1979 324.645 12.9602C324.645 13.5852 324.465 14.1439 324.105 14.6364C323.75 15.1288 323.252 15.517 322.613 15.8011C321.974 16.0852 321.231 16.2273 320.383 16.2273C319.27 16.2273 318.35 15.9858 317.62 15.5028C316.891 15.0199 316.43 14.3144 316.235 13.3864L317.826 12.9886C317.978 13.5758 318.264 14.0161 318.686 14.3097C319.112 14.6032 319.668 14.75 320.355 14.75C321.136 14.75 321.756 14.5843 322.216 14.2528C322.68 13.9167 322.912 13.5142 322.912 13.0455C322.912 12.6667 322.779 12.3494 322.514 12.0938C322.249 11.8333 321.841 11.6392 321.292 11.5114L319.474 11.0852C318.475 10.8485 317.741 10.4815 317.272 9.98438C316.808 9.48248 316.576 8.85511 316.576 8.10227C316.576 7.48674 316.749 6.94223 317.095 6.46875C317.445 5.99527 317.921 5.62358 318.522 5.35369C319.128 5.08381 319.815 4.94886 320.582 4.94886C321.662 4.94886 322.509 5.18561 323.125 5.65909C323.745 6.13258 324.185 6.75758 324.446 7.53409ZM334.895 7.53409L333.389 7.96023C333.294 7.70928 333.155 7.46544 332.97 7.22869C332.79 6.98722 332.544 6.78835 332.232 6.6321C331.919 6.47585 331.519 6.39773 331.031 6.39773C330.364 6.39773 329.807 6.55161 329.362 6.85938C328.922 7.16241 328.702 7.5483 328.702 8.01705C328.702 8.43371 328.853 8.76278 329.156 9.00426C329.459 9.24574 329.933 9.44697 330.577 9.60795L332.196 10.0057C333.171 10.2424 333.898 10.6046 334.376 11.0923C334.855 11.5753 335.094 12.1979 335.094 12.9602C335.094 13.5852 334.914 14.1439 334.554 14.6364C334.199 15.1288 333.702 15.517 333.062 15.8011C332.423 16.0852 331.68 16.2273 330.832 16.2273C329.72 16.2273 328.799 15.9858 328.07 15.5028C327.34 15.0199 326.879 14.3144 326.685 13.3864L328.276 12.9886C328.427 13.5758 328.714 14.0161 329.135 14.3097C329.561 14.6032 330.117 14.75 330.804 14.75C331.585 14.75 332.205 14.5843 332.665 14.2528C333.129 13.9167 333.361 13.5142 333.361 13.0455C333.361 12.6667 333.228 12.3494 332.963 12.0938C332.698 11.8333 332.291 11.6392 331.741 11.5114L329.923 11.0852C328.924 10.8485 328.19 10.4815 327.722 9.98438C327.258 9.48248 327.026 8.85511 327.026 8.10227C327.026 7.48674 327.198 6.94223 327.544 6.46875C327.894 5.99527 328.37 5.62358 328.972 5.35369C329.578 5.08381 330.264 4.94886 331.031 4.94886C332.111 4.94886 332.958 5.18561 333.574 5.65909C334.194 6.13258 334.634 6.75758 334.895 7.53409ZM340.827 16.2557C340.136 16.2557 339.508 16.1255 338.945 15.8651C338.382 15.5999 337.934 15.2188 337.603 14.7216C337.271 14.2197 337.105 13.6136 337.105 12.9034C337.105 12.2784 337.229 11.7718 337.475 11.3835C337.721 10.9905 338.05 10.6828 338.462 10.4602C338.874 10.2377 339.328 10.072 339.826 9.96307C340.328 9.84943 340.832 9.75947 341.338 9.69318C342.001 9.60795 342.539 9.54403 342.951 9.50142C343.367 9.45407 343.67 9.37595 343.86 9.26705C344.054 9.15814 344.151 8.96875 344.151 8.69886V8.64205C344.151 7.94129 343.959 7.39678 343.576 7.00852C343.197 6.62027 342.622 6.42614 341.85 6.42614C341.05 6.42614 340.422 6.60133 339.968 6.9517C339.513 7.30208 339.194 7.67614 339.009 8.07386L337.418 7.50568C337.702 6.8428 338.081 6.3267 338.554 5.95739C339.033 5.58333 339.553 5.32292 340.117 5.17614C340.685 5.02462 341.244 4.94886 341.793 4.94886C342.143 4.94886 342.546 4.99148 343 5.0767C343.46 5.1572 343.902 5.32528 344.328 5.58097C344.759 5.83665 345.117 6.22254 345.401 6.73864C345.685 7.25473 345.827 7.94602 345.827 8.8125V16H344.151V14.5227H344.066C343.952 14.7595 343.763 15.0128 343.498 15.2827C343.232 15.5526 342.88 15.7822 342.439 15.9716C341.999 16.161 341.462 16.2557 340.827 16.2557ZM341.083 14.75C341.746 14.75 342.304 14.6198 342.759 14.3594C343.218 14.099 343.564 13.7628 343.796 13.3509C344.033 12.9389 344.151 12.5057 344.151 12.0511V10.517C344.08 10.6023 343.924 10.6804 343.682 10.7514C343.445 10.8177 343.171 10.8769 342.858 10.929C342.551 10.9763 342.25 11.0189 341.956 11.0568C341.667 11.09 341.433 11.1184 341.253 11.142C340.818 11.1989 340.41 11.2912 340.032 11.419C339.658 11.5421 339.355 11.7292 339.123 11.9801C338.895 12.2263 338.782 12.5625 338.782 12.9886C338.782 13.571 338.997 14.0114 339.428 14.3097C339.864 14.6032 340.415 14.75 341.083 14.75ZM367.683 7.53409L366.177 7.96023C366.082 7.70928 365.942 7.46544 365.758 7.22869C365.578 6.98722 365.332 6.78835 365.019 6.6321C364.707 6.47585 364.307 6.39773 363.819 6.39773C363.151 6.39773 362.595 6.55161 362.15 6.85938C361.71 7.16241 361.489 7.5483 361.489 8.01705C361.489 8.43371 361.641 8.76278 361.944 9.00426C362.247 9.24574 362.72 9.44697 363.364 9.60795L364.984 10.0057C365.959 10.2424 366.686 10.6046 367.164 11.0923C367.642 11.5753 367.881 12.1979 367.881 12.9602C367.881 13.5852 367.701 14.1439 367.342 14.6364C366.987 15.1288 366.489 15.517 365.85 15.8011C365.211 16.0852 364.468 16.2273 363.62 16.2273C362.507 16.2273 361.586 15.9858 360.857 15.5028C360.128 15.0199 359.666 14.3144 359.472 13.3864L361.063 12.9886C361.215 13.5758 361.501 14.0161 361.923 14.3097C362.349 14.6032 362.905 14.75 363.592 14.75C364.373 14.75 364.993 14.5843 365.452 14.2528C365.916 13.9167 366.148 13.5142 366.148 13.0455C366.148 12.6667 366.016 12.3494 365.751 12.0938C365.486 11.8333 365.078 11.6392 364.529 11.5114L362.711 11.0852C361.712 10.8485 360.978 10.4815 360.509 9.98438C360.045 9.48248 359.813 8.85511 359.813 8.10227C359.813 7.48674 359.986 6.94223 360.332 6.46875C360.682 5.99527 361.158 5.62358 361.759 5.35369C362.365 5.08381 363.052 4.94886 363.819 4.94886C364.898 4.94886 365.746 5.18561 366.362 5.65909C366.982 6.13258 367.422 6.75758 367.683 7.53409ZM374.978 16.2273C373.927 16.2273 373.02 15.9953 372.258 15.5312C371.501 15.0625 370.916 14.4091 370.504 13.571C370.097 12.7282 369.893 11.7481 369.893 10.6307C369.893 9.51326 370.097 8.52841 370.504 7.67614C370.916 6.81913 371.489 6.15152 372.223 5.6733C372.961 5.19034 373.823 4.94886 374.808 4.94886C375.376 4.94886 375.937 5.04356 376.491 5.23295C377.045 5.42235 377.549 5.73011 378.004 6.15625C378.458 6.57765 378.821 7.13636 379.091 7.83239C379.36 8.52841 379.495 9.38542 379.495 10.4034V11.1136H371.086V9.66477H377.791C377.791 9.04924 377.668 8.5 377.422 8.01705C377.18 7.53409 376.834 7.15294 376.385 6.87358C375.94 6.59422 375.414 6.45455 374.808 6.45455C374.14 6.45455 373.563 6.62026 373.075 6.9517C372.592 7.27841 372.22 7.70455 371.96 8.23011C371.699 8.75568 371.569 9.31913 371.569 9.92045V10.8864C371.569 11.7102 371.711 12.4086 371.995 12.9815C372.284 13.5497 372.684 13.983 373.196 14.2812C373.707 14.5748 374.301 14.7216 374.978 14.7216C375.419 14.7216 375.816 14.66 376.172 14.5369C376.531 14.4091 376.842 14.2197 377.102 13.9688C377.362 13.7131 377.564 13.3958 377.706 13.017L379.325 13.4716C379.154 14.0208 378.868 14.5038 378.466 14.9205C378.063 15.3324 377.566 15.6544 376.974 15.8864C376.382 16.1136 375.717 16.2273 374.978 16.2273ZM382.045 16V5.09091H383.664V6.73864H383.778C383.977 6.19886 384.337 5.76089 384.858 5.42472C385.378 5.08854 385.966 4.92045 386.619 4.92045C386.742 4.92045 386.896 4.92282 387.081 4.92756C387.265 4.93229 387.405 4.93939 387.5 4.94886V6.65341C387.443 6.6392 387.313 6.6179 387.109 6.58949C386.91 6.55634 386.699 6.53977 386.477 6.53977C385.947 6.53977 385.473 6.65104 385.056 6.87358C384.645 7.09138 384.318 7.39441 384.076 7.78267C383.84 8.16619 383.721 8.60417 383.721 9.09659V16H382.045ZM405.413 5.09091V6.51136H399.533V5.09091H405.413ZM401.294 16V3.58523C401.294 2.96023 401.441 2.43939 401.734 2.02273C402.028 1.60606 402.409 1.29356 402.878 1.08523C403.347 0.876893 403.841 0.772726 404.362 0.772726C404.774 0.772726 405.11 0.80587 405.371 0.872159C405.631 0.938446 405.825 0.999999 405.953 1.05682L405.47 2.50568C405.385 2.47727 405.267 2.44176 405.115 2.39915C404.968 2.35653 404.774 2.33523 404.533 2.33523C403.979 2.33523 403.579 2.4749 403.332 2.75426C403.091 3.03362 402.97 3.44318 402.97 3.98295V16H401.294ZM411.745 16.2273C410.76 16.2273 409.896 15.9929 409.153 15.5241C408.414 15.0554 407.836 14.3996 407.42 13.5568C407.008 12.714 406.802 11.7292 406.802 10.6023C406.802 9.46591 407.008 8.47396 407.42 7.62642C407.836 6.77888 408.414 6.12074 409.153 5.65199C409.896 5.18324 410.76 4.94886 411.745 4.94886C412.73 4.94886 413.592 5.18324 414.33 5.65199C415.074 6.12074 415.651 6.77888 416.063 7.62642C416.48 8.47396 416.688 9.46591 416.688 10.6023C416.688 11.7292 416.48 12.714 416.063 13.5568C415.651 14.3996 415.074 15.0554 414.33 15.5241C413.592 15.9929 412.73 16.2273 411.745 16.2273ZM411.745 14.7216C412.493 14.7216 413.109 14.5298 413.592 14.1463C414.075 13.7628 414.432 13.2585 414.664 12.6335C414.896 12.0085 415.012 11.3314 415.012 10.6023C415.012 9.87311 414.896 9.19366 414.664 8.56392C414.432 7.93419 414.075 7.42519 413.592 7.03693C413.109 6.64867 412.493 6.45455 411.745 6.45455C410.997 6.45455 410.381 6.64867 409.898 7.03693C409.415 7.42519 409.058 7.93419 408.826 8.56392C408.594 9.19366 408.478 9.87311 408.478 10.6023C408.478 11.3314 408.594 12.0085 408.826 12.6335C409.058 13.2585 409.415 13.7628 409.898 14.1463C410.381 14.5298 410.997 14.7216 411.745 14.7216ZM420.923 9.4375V16H419.247V5.09091H420.866V6.79545H421.008C421.264 6.24148 421.652 5.7964 422.173 5.46023C422.694 5.11932 423.366 4.94886 424.19 4.94886C424.929 4.94886 425.575 5.10038 426.129 5.40341C426.683 5.7017 427.114 6.15625 427.422 6.76705C427.729 7.37311 427.883 8.14015 427.883 9.06818V16H426.207V9.18182C426.207 8.32481 425.984 7.6572 425.539 7.17898C425.094 6.69602 424.484 6.45455 423.707 6.45455C423.172 6.45455 422.694 6.57055 422.272 6.80256C421.856 7.03456 421.527 7.37311 421.285 7.81818C421.044 8.26326 420.923 8.80303 420.923 9.4375ZM435.69 5.09091V6.51136H430.037V5.09091H435.69ZM431.685 2.47727H433.361V12.875C433.361 13.3485 433.429 13.7036 433.567 13.9403C433.709 14.1723 433.889 14.3286 434.107 14.4091C434.329 14.4848 434.563 14.5227 434.81 14.5227C434.994 14.5227 435.146 14.5133 435.264 14.4943C435.383 14.4706 435.477 14.4517 435.548 14.4375L435.889 15.9432C435.776 15.9858 435.617 16.0284 435.413 16.071C435.21 16.1184 434.952 16.142 434.639 16.142C434.166 16.142 433.702 16.0402 433.247 15.8366C432.797 15.633 432.423 15.3229 432.125 14.9062C431.831 14.4896 431.685 13.964 431.685 13.3295V2.47727ZM442.668 16.2273C441.617 16.2273 440.71 15.9953 439.948 15.5312C439.191 15.0625 438.606 14.4091 438.194 13.571C437.787 12.7282 437.583 11.7481 437.583 10.6307C437.583 9.51326 437.787 8.52841 438.194 7.67614C438.606 6.81913 439.179 6.15152 439.913 5.6733C440.651 5.19034 441.513 4.94886 442.498 4.94886C443.066 4.94886 443.627 5.04356 444.181 5.23295C444.735 5.42235 445.239 5.73011 445.694 6.15625C446.148 6.57765 446.511 7.13636 446.781 7.83239C447.05 8.52841 447.185 9.38542 447.185 10.4034V11.1136H438.776V9.66477H445.481C445.481 9.04924 445.358 8.5 445.112 8.01705C444.87 7.53409 444.524 7.15294 444.075 6.87358C443.629 6.59422 443.104 6.45455 442.498 6.45455C441.83 6.45455 441.253 6.62026 440.765 6.9517C440.282 7.27841 439.91 7.70455 439.65 8.23011C439.389 8.75568 439.259 9.31913 439.259 9.92045V10.8864C439.259 11.7102 439.401 12.4086 439.685 12.9815C439.974 13.5497 440.374 13.983 440.886 14.2812C441.397 14.5748 441.991 14.7216 442.668 14.7216C443.109 14.7216 443.506 14.66 443.862 14.5369C444.221 14.4091 444.531 14.2197 444.792 13.9688C445.052 13.7131 445.254 13.3958 445.396 13.017L447.015 13.4716C446.844 14.0208 446.558 14.5038 446.156 14.9205C445.753 15.3324 445.256 15.6544 444.664 15.8864C444.072 16.1136 443.407 16.2273 442.668 16.2273ZM464.923 16.2273C464.014 16.2273 463.212 15.9976 462.516 15.5384C461.82 15.0743 461.275 14.4209 460.882 13.5781C460.489 12.7306 460.293 11.7292 460.293 10.5739C460.293 9.42803 460.489 8.43371 460.882 7.59091C461.275 6.74811 461.822 6.09706 462.523 5.63778C463.223 5.1785 464.033 4.94886 464.952 4.94886C465.662 4.94886 466.223 5.06723 466.635 5.30398C467.052 5.53598 467.369 5.80114 467.587 6.09943C467.809 6.39299 467.982 6.63447 468.105 6.82386H468.247V1.45455H469.923V16H468.304V14.3239H468.105C467.982 14.5227 467.807 14.7737 467.58 15.0767C467.352 15.375 467.028 15.6425 466.607 15.8793C466.185 16.1113 465.624 16.2273 464.923 16.2273ZM465.151 14.7216C465.823 14.7216 466.391 14.5464 466.855 14.196C467.319 13.8409 467.672 13.3509 467.913 12.7259C468.155 12.0961 468.276 11.3693 468.276 10.5455C468.276 9.73106 468.157 9.01847 467.92 8.40767C467.684 7.79214 467.333 7.31392 466.869 6.97301C466.405 6.62737 465.832 6.45455 465.151 6.45455C464.44 6.45455 463.848 6.63684 463.375 7.00142C462.906 7.36127 462.554 7.85133 462.317 8.47159C462.085 9.08712 461.969 9.77841 461.969 10.5455C461.969 11.322 462.087 12.0275 462.324 12.6619C462.565 13.2917 462.92 13.7936 463.389 14.1676C463.863 14.5369 464.45 14.7216 465.151 14.7216ZM477.8 16.2273C476.749 16.2273 475.842 15.9953 475.08 15.5312C474.322 15.0625 473.737 14.4091 473.325 13.571C472.918 12.7282 472.714 11.7481 472.714 10.6307C472.714 9.51326 472.918 8.52841 473.325 7.67614C473.737 6.81913 474.31 6.15152 475.044 5.6733C475.783 5.19034 476.644 4.94886 477.629 4.94886C478.197 4.94886 478.759 5.04356 479.313 5.23295C479.866 5.42235 480.371 5.73011 480.825 6.15625C481.28 6.57765 481.642 7.13636 481.912 7.83239C482.182 8.52841 482.317 9.38542 482.317 10.4034V11.1136H473.908V9.66477H480.612C480.612 9.04924 480.489 8.5 480.243 8.01705C480.001 7.53409 479.656 7.15294 479.206 6.87358C478.761 6.59422 478.235 6.45455 477.629 6.45455C476.962 6.45455 476.384 6.62026 475.896 6.9517C475.413 7.27841 475.042 7.70455 474.781 8.23011C474.521 8.75568 474.391 9.31913 474.391 9.92045V10.8864C474.391 11.7102 474.533 12.4086 474.817 12.9815C475.106 13.5497 475.506 13.983 476.017 14.2812C476.528 14.5748 477.123 14.7216 477.8 14.7216C478.24 14.7216 478.638 14.66 478.993 14.5369C479.353 14.4091 479.663 14.2197 479.923 13.9688C480.184 13.7131 480.385 13.3958 480.527 13.017L482.146 13.4716C481.976 14.0208 481.689 14.5038 481.287 14.9205C480.884 15.3324 480.387 15.6544 479.795 15.8864C479.204 16.1136 478.538 16.2273 477.8 16.2273ZM500.367 16.2273C499.344 16.2273 498.464 15.9858 497.725 15.5028C496.987 15.0199 496.418 14.3546 496.021 13.5071C495.623 12.6596 495.424 11.6913 495.424 10.6023C495.424 9.49432 495.628 8.51657 496.035 7.66903C496.447 6.81676 497.02 6.15152 497.754 5.6733C498.492 5.19034 499.354 4.94886 500.339 4.94886C501.106 4.94886 501.797 5.09091 502.413 5.375C503.028 5.65909 503.532 6.05682 503.925 6.56818C504.318 7.07955 504.562 7.67614 504.657 8.35795H502.981C502.853 7.8608 502.569 7.42045 502.129 7.03693C501.693 6.64867 501.106 6.45455 500.367 6.45455C499.714 6.45455 499.141 6.625 498.648 6.96591C498.161 7.30208 497.78 7.77794 497.505 8.39347C497.235 9.00426 497.1 9.72159 497.1 10.5455C497.1 11.3883 497.233 12.1222 497.498 12.7472C497.768 13.3722 498.147 13.8575 498.634 14.2031C499.127 14.5488 499.704 14.7216 500.367 14.7216C500.803 14.7216 501.198 14.6458 501.553 14.4943C501.908 14.3428 502.209 14.125 502.455 13.8409C502.701 13.5568 502.877 13.2159 502.981 12.8182H504.657C504.562 13.4621 504.328 14.0421 503.954 14.5582C503.585 15.0696 503.094 15.4768 502.484 15.7798C501.878 16.0781 501.172 16.2273 500.367 16.2273ZM507.107 16V5.09091H508.727V6.73864H508.84C509.039 6.19886 509.399 5.76089 509.92 5.42472C510.441 5.08854 511.028 4.92045 511.681 4.92045C511.804 4.92045 511.958 4.92282 512.143 4.92756C512.327 4.93229 512.467 4.93939 512.562 4.94886V6.65341C512.505 6.6392 512.375 6.6179 512.171 6.58949C511.972 6.55634 511.762 6.53977 511.539 6.53977C511.009 6.53977 510.535 6.65104 510.119 6.87358C509.707 7.09138 509.38 7.39441 509.138 7.78267C508.902 8.16619 508.783 8.60417 508.783 9.09659V16H507.107ZM514.549 16V5.09091H516.225V16H514.549ZM515.401 3.27273C515.074 3.27273 514.793 3.16146 514.556 2.93892C514.324 2.71638 514.208 2.44886 514.208 2.13636C514.208 1.82386 514.324 1.55634 514.556 1.33381C514.793 1.11127 515.074 1 515.401 1C515.728 1 516.007 1.11127 516.239 1.33381C516.476 1.55634 516.594 1.82386 516.594 2.13636C516.594 2.44886 516.476 2.71638 516.239 2.93892C516.007 3.16146 515.728 3.27273 515.401 3.27273ZM522.505 16.2557C521.814 16.2557 521.186 16.1255 520.623 15.8651C520.059 15.5999 519.612 15.2188 519.281 14.7216C518.949 14.2197 518.783 13.6136 518.783 12.9034C518.783 12.2784 518.907 11.7718 519.153 11.3835C519.399 10.9905 519.728 10.6828 520.14 10.4602C520.552 10.2377 521.006 10.072 521.504 9.96307C522.005 9.84943 522.51 9.75947 523.016 9.69318C523.679 9.60795 524.217 9.54403 524.629 9.50142C525.045 9.45407 525.348 9.37595 525.538 9.26705C525.732 9.15814 525.829 8.96875 525.829 8.69886V8.64205C525.829 7.94129 525.637 7.39678 525.254 7.00852C524.875 6.62027 524.3 6.42614 523.528 6.42614C522.728 6.42614 522.1 6.60133 521.646 6.9517C521.191 7.30208 520.871 7.67614 520.687 8.07386L519.096 7.50568C519.38 6.8428 519.759 6.3267 520.232 5.95739C520.71 5.58333 521.231 5.32292 521.795 5.17614C522.363 5.02462 522.922 4.94886 523.471 4.94886C523.821 4.94886 524.224 4.99148 524.678 5.0767C525.138 5.1572 525.58 5.32528 526.006 5.58097C526.437 5.83665 526.795 6.22254 527.079 6.73864C527.363 7.25473 527.505 7.94602 527.505 8.8125V16H525.829V14.5227H525.744C525.63 14.7595 525.441 15.0128 525.175 15.2827C524.91 15.5526 524.558 15.7822 524.117 15.9716C523.677 16.161 523.139 16.2557 522.505 16.2557ZM522.761 14.75C523.424 14.75 523.982 14.6198 524.437 14.3594C524.896 14.099 525.242 13.7628 525.474 13.3509C525.71 12.9389 525.829 12.5057 525.829 12.0511V10.517C525.758 10.6023 525.602 10.6804 525.36 10.7514C525.123 10.8177 524.849 10.8769 524.536 10.929C524.228 10.9763 523.928 11.0189 523.634 11.0568C523.345 11.09 523.111 11.1184 522.931 11.142C522.496 11.1989 522.088 11.2912 521.71 11.419C521.335 11.5421 521.032 11.7292 520.8 11.9801C520.573 12.2263 520.46 12.5625 520.46 12.9886C520.46 13.571 520.675 14.0114 521.106 14.3097C521.541 14.6032 522.093 14.75 522.761 14.75ZM534.684 16.2273C533.775 16.2273 532.972 15.9976 532.276 15.5384C531.58 15.0743 531.035 14.4209 530.642 13.5781C530.249 12.7306 530.053 11.7292 530.053 10.5739C530.053 9.42803 530.249 8.43371 530.642 7.59091C531.035 6.74811 531.582 6.09706 532.283 5.63778C532.984 5.1785 533.793 4.94886 534.712 4.94886C535.422 4.94886 535.983 5.06723 536.395 5.30398C536.812 5.53598 537.129 5.80114 537.347 6.09943C537.57 6.39299 537.742 6.63447 537.865 6.82386H538.007V1.45455H539.684V16H538.064V14.3239H537.865C537.742 14.5227 537.567 14.7737 537.34 15.0767C537.113 15.375 536.788 15.6425 536.367 15.8793C535.945 16.1113 535.384 16.2273 534.684 16.2273ZM534.911 14.7216C535.583 14.7216 536.151 14.5464 536.615 14.196C537.079 13.8409 537.432 13.3509 537.674 12.7259C537.915 12.0961 538.036 11.3693 538.036 10.5455C538.036 9.73106 537.918 9.01847 537.681 8.40767C537.444 7.79214 537.094 7.31392 536.63 6.97301C536.166 6.62737 535.593 6.45455 534.911 6.45455C534.201 6.45455 533.609 6.63684 533.135 7.00142C532.667 7.36127 532.314 7.85133 532.077 8.47159C531.845 9.08712 531.729 9.77841 531.729 10.5455C531.729 11.322 531.847 12.0275 532.084 12.6619C532.326 13.2917 532.681 13.7936 533.15 14.1676C533.623 14.5369 534.21 14.7216 534.911 14.7216ZM547.418 16.2273C546.433 16.2273 545.569 15.9929 544.826 15.5241C544.087 15.0554 543.509 14.3996 543.093 13.5568C542.681 12.714 542.475 11.7292 542.475 10.6023C542.475 9.46591 542.681 8.47396 543.093 7.62642C543.509 6.77888 544.087 6.12074 544.826 5.65199C545.569 5.18324 546.433 4.94886 547.418 4.94886C548.403 4.94886 549.265 5.18324 550.003 5.65199C550.747 6.12074 551.324 6.77888 551.736 7.62642C552.153 8.47396 552.361 9.46591 552.361 10.6023C552.361 11.7292 552.153 12.714 551.736 13.5568C551.324 14.3996 550.747 15.0554 550.003 15.5241C549.265 15.9929 548.403 16.2273 547.418 16.2273ZM547.418 14.7216C548.166 14.7216 548.782 14.5298 549.265 14.1463C549.748 13.7628 550.105 13.2585 550.337 12.6335C550.569 12.0085 550.685 11.3314 550.685 10.6023C550.685 9.87311 550.569 9.19366 550.337 8.56392C550.105 7.93419 549.748 7.42519 549.265 7.03693C548.782 6.64867 548.166 6.45455 547.418 6.45455C546.67 6.45455 546.054 6.64867 545.571 7.03693C545.088 7.42519 544.731 7.93419 544.499 8.56392C544.267 9.19366 544.151 9.87311 544.151 10.6023C544.151 11.3314 544.267 12.0085 544.499 12.6335C544.731 13.2585 545.088 13.7628 545.571 14.1463C546.054 14.5298 546.67 14.7216 547.418 14.7216ZM561.795 11.5398V5.09091H563.471V16H561.795V14.1534H561.681C561.425 14.7074 561.028 15.1785 560.488 15.5668C559.948 15.9503 559.266 16.142 558.442 16.142C557.761 16.142 557.155 15.9929 556.624 15.6946C556.094 15.3916 555.677 14.937 555.374 14.331C555.071 13.7202 554.92 12.9508 554.92 12.0227V5.09091H556.596V11.9091C556.596 12.7045 556.818 13.339 557.264 13.8125C557.713 14.286 558.286 14.5227 558.982 14.5227C559.399 14.5227 559.823 14.4162 560.254 14.2031C560.689 13.9901 561.054 13.6634 561.347 13.223C561.646 12.7827 561.795 12.2216 561.795 11.5398ZM566.541 16V5.09091H568.16V6.73864H568.274C568.473 6.19886 568.833 5.76089 569.353 5.42472C569.874 5.08854 570.461 4.92045 571.115 4.92045C571.238 4.92045 571.392 4.92282 571.576 4.92756C571.761 4.93229 571.901 4.93939 571.995 4.94886V6.65341C571.939 6.6392 571.808 6.6179 571.605 6.58949C571.406 6.55634 571.195 6.53977 570.973 6.53977C570.442 6.53977 569.969 6.65104 569.552 6.87358C569.14 7.09138 568.814 7.39441 568.572 7.78267C568.335 8.16619 568.217 8.60417 568.217 9.09659V16H566.541ZM578.082 16.2273C577.097 16.2273 576.233 15.9929 575.49 15.5241C574.751 15.0554 574.173 14.3996 573.757 13.5568C573.345 12.714 573.139 11.7292 573.139 10.6023C573.139 9.46591 573.345 8.47396 573.757 7.62642C574.173 6.77888 574.751 6.12074 575.49 5.65199C576.233 5.18324 577.097 4.94886 578.082 4.94886C579.067 4.94886 579.929 5.18324 580.667 5.65199C581.411 6.12074 581.988 6.77888 582.4 7.62642C582.817 8.47396 583.025 9.46591 583.025 10.6023C583.025 11.7292 582.817 12.714 582.4 13.5568C581.988 14.3996 581.411 15.0554 580.667 15.5241C579.929 15.9929 579.067 16.2273 578.082 16.2273ZM578.082 14.7216C578.83 14.7216 579.446 14.5298 579.929 14.1463C580.412 13.7628 580.769 13.2585 581.001 12.6335C581.233 12.0085 581.349 11.3314 581.349 10.6023C581.349 9.87311 581.233 9.19366 581.001 8.56392C580.769 7.93419 580.412 7.42519 579.929 7.03693C579.446 6.64867 578.83 6.45455 578.082 6.45455C577.334 6.45455 576.718 6.64867 576.235 7.03693C575.753 7.42519 575.395 7.93419 575.163 8.56392C574.931 9.19366 574.815 9.87311 574.815 10.6023C574.815 11.3314 574.931 12.0085 575.163 12.6335C575.395 13.2585 575.753 13.7628 576.235 14.1463C576.718 14.5298 577.334 14.7216 578.082 14.7216ZM593.311 7.53409L591.805 7.96023C591.711 7.70928 591.571 7.46544 591.386 7.22869C591.206 6.98722 590.96 6.78835 590.648 6.6321C590.335 6.47585 589.935 6.39773 589.447 6.39773C588.78 6.39773 588.224 6.55161 587.778 6.85938C587.338 7.16241 587.118 7.5483 587.118 8.01705C587.118 8.43371 587.269 8.76278 587.572 9.00426C587.876 9.24574 588.349 9.44697 588.993 9.60795L590.612 10.0057C591.588 10.2424 592.314 10.6046 592.793 11.0923C593.271 11.5753 593.51 12.1979 593.51 12.9602C593.51 13.5852 593.33 14.1439 592.97 14.6364C592.615 15.1288 592.118 15.517 591.479 15.8011C590.84 16.0852 590.096 16.2273 589.249 16.2273C588.136 16.2273 587.215 15.9858 586.486 15.5028C585.757 15.0199 585.295 14.3144 585.101 13.3864L586.692 12.9886C586.843 13.5758 587.13 14.0161 587.551 14.3097C587.977 14.6032 588.534 14.75 589.22 14.75C590.001 14.75 590.622 14.5843 591.081 14.2528C591.545 13.9167 591.777 13.5142 591.777 13.0455C591.777 12.6667 591.644 12.3494 591.379 12.0938C591.114 11.8333 590.707 11.6392 590.158 11.5114L588.34 11.0852C587.34 10.8485 586.607 10.4815 586.138 9.98438C585.674 9.48248 585.442 8.85511 585.442 8.10227C585.442 7.48674 585.615 6.94223 585.96 6.46875C586.311 5.99527 586.786 5.62358 587.388 5.35369C587.994 5.08381 588.68 4.94886 589.447 4.94886C590.527 4.94886 591.375 5.18561 591.99 5.65909C592.61 6.13258 593.051 6.75758 593.311 7.53409ZM611.676 16.2273C610.625 16.2273 609.718 15.9953 608.956 15.5312C608.198 15.0625 607.613 14.4091 607.201 13.571C606.794 12.7282 606.591 11.7481 606.591 10.6307C606.591 9.51326 606.794 8.52841 607.201 7.67614C607.613 6.81913 608.186 6.15152 608.92 5.6733C609.659 5.19034 610.52 4.94886 611.505 4.94886C612.073 4.94886 612.635 5.04356 613.189 5.23295C613.743 5.42235 614.247 5.73011 614.701 6.15625C615.156 6.57765 615.518 7.13636 615.788 7.83239C616.058 8.52841 616.193 9.38542 616.193 10.4034V11.1136H607.784V9.66477H614.488C614.488 9.04924 614.365 8.5 614.119 8.01705C613.877 7.53409 613.532 7.15294 613.082 6.87358C612.637 6.59422 612.111 6.45455 611.505 6.45455C610.838 6.45455 610.26 6.62026 609.772 6.9517C609.289 7.27841 608.918 7.70455 608.657 8.23011C608.397 8.75568 608.267 9.31913 608.267 9.92045V10.8864C608.267 11.7102 608.409 12.4086 608.693 12.9815C608.982 13.5497 609.382 13.983 609.893 14.2812C610.404 14.5748 610.999 14.7216 611.676 14.7216C612.116 14.7216 612.514 14.66 612.869 14.5369C613.229 14.4091 613.539 14.2197 613.799 13.9688C614.06 13.7131 614.261 13.3958 614.403 13.017L616.022 13.4716C615.852 14.0208 615.565 14.5038 615.163 14.9205C614.761 15.3324 614.263 15.6544 613.672 15.8864C613.08 16.1136 612.414 16.2273 611.676 16.2273ZM618.743 16V5.09091H620.362V6.79545H620.504C620.731 6.21307 621.098 5.76089 621.605 5.43892C622.111 5.11222 622.72 4.94886 623.43 4.94886C624.15 4.94886 624.749 5.11222 625.227 5.43892C625.71 5.76089 626.086 6.21307 626.356 6.79545H626.47C626.749 6.23201 627.168 5.78456 627.727 5.45312C628.286 5.11695 628.956 4.94886 629.737 4.94886C630.712 4.94886 631.51 5.25426 632.13 5.86506C632.751 6.47112 633.061 7.41572 633.061 8.69886V16H631.385V8.69886C631.385 7.89394 631.164 7.31866 630.724 6.97301C630.284 6.62737 629.765 6.45455 629.169 6.45455C628.402 6.45455 627.807 6.68655 627.386 7.15057C626.965 7.60985 626.754 8.19223 626.754 8.89773V16H625.049V8.52841C625.049 7.90814 624.848 7.40862 624.446 7.02983C624.043 6.64631 623.525 6.45455 622.89 6.45455C622.455 6.45455 622.047 6.57055 621.669 6.80256C621.295 7.03456 620.992 7.35653 620.76 7.76847C620.532 8.17566 620.419 8.64678 620.419 9.18182V16H618.743ZM654.922 7.53409L653.416 7.96023C653.321 7.70928 653.181 7.46544 652.997 7.22869C652.817 6.98722 652.571 6.78835 652.258 6.6321C651.946 6.47585 651.546 6.39773 651.058 6.39773C650.39 6.39773 649.834 6.55161 649.389 6.85938C648.949 7.16241 648.728 7.5483 648.728 8.01705C648.728 8.43371 648.88 8.76278 649.183 9.00426C649.486 9.24574 649.959 9.44697 650.603 9.60795L652.223 10.0057C653.198 10.2424 653.925 10.6046 654.403 11.0923C654.881 11.5753 655.12 12.1979 655.12 12.9602C655.12 13.5852 654.94 14.1439 654.581 14.6364C654.225 15.1288 653.728 15.517 653.089 15.8011C652.45 16.0852 651.707 16.2273 650.859 16.2273C649.746 16.2273 648.825 15.9858 648.096 15.5028C647.367 15.0199 646.905 14.3144 646.711 13.3864L648.302 12.9886C648.454 13.5758 648.74 14.0161 649.162 14.3097C649.588 14.6032 650.144 14.75 650.831 14.75C651.612 14.75 652.232 14.5843 652.691 14.2528C653.155 13.9167 653.387 13.5142 653.387 13.0455C653.387 12.6667 653.255 12.3494 652.99 12.0938C652.725 11.8333 652.317 11.6392 651.768 11.5114L649.95 11.0852C648.951 10.8485 648.217 10.4815 647.748 9.98438C647.284 9.48248 647.052 8.85511 647.052 8.10227C647.052 7.48674 647.225 6.94223 647.571 6.46875C647.921 5.99527 648.397 5.62358 648.998 5.35369C649.604 5.08381 650.291 4.94886 651.058 4.94886C652.137 4.94886 652.985 5.18561 653.6 5.65909C654.221 6.13258 654.661 6.75758 654.922 7.53409ZM664.518 11.5398V5.09091H666.195V16H664.518V14.1534H664.405C664.149 14.7074 663.751 15.1785 663.212 15.5668C662.672 15.9503 661.99 16.142 661.166 16.142C660.484 16.142 659.878 15.9929 659.348 15.6946C658.818 15.3916 658.401 14.937 658.098 14.331C657.795 13.7202 657.643 12.9508 657.643 12.0227V5.09091H659.32V11.9091C659.32 12.7045 659.542 13.339 659.987 13.8125C660.437 14.286 661.01 14.5227 661.706 14.5227C662.123 14.5227 662.546 14.4162 662.977 14.2031C663.413 13.9901 663.777 13.6634 664.071 13.223C664.369 12.7827 664.518 12.2216 664.518 11.5398ZM672.475 16.2557C671.783 16.2557 671.156 16.1255 670.593 15.8651C670.029 15.5999 669.582 15.2188 669.25 14.7216C668.919 14.2197 668.753 13.6136 668.753 12.9034C668.753 12.2784 668.876 11.7718 669.123 11.3835C669.369 10.9905 669.698 10.6828 670.11 10.4602C670.522 10.2377 670.976 10.072 671.473 9.96307C671.975 9.84943 672.48 9.75947 672.986 9.69318C673.649 9.60795 674.186 9.54403 674.598 9.50142C675.015 9.45407 675.318 9.37595 675.507 9.26705C675.702 9.15814 675.799 8.96875 675.799 8.69886V8.64205C675.799 7.94129 675.607 7.39678 675.223 7.00852C674.845 6.62027 674.269 6.42614 673.498 6.42614C672.697 6.42614 672.07 6.60133 671.615 6.9517C671.161 7.30208 670.841 7.67614 670.657 8.07386L669.066 7.50568C669.35 6.8428 669.729 6.3267 670.202 5.95739C670.68 5.58333 671.201 5.32292 671.765 5.17614C672.333 5.02462 672.891 4.94886 673.441 4.94886C673.791 4.94886 674.194 4.99148 674.648 5.0767C675.107 5.1572 675.55 5.32528 675.976 5.58097C676.407 5.83665 676.765 6.22254 677.049 6.73864C677.333 7.25473 677.475 7.94602 677.475 8.8125V16H675.799V14.5227H675.713C675.6 14.7595 675.41 15.0128 675.145 15.2827C674.88 15.5526 674.527 15.7822 674.087 15.9716C673.647 16.161 673.109 16.2557 672.475 16.2557ZM672.73 14.75C673.393 14.75 673.952 14.6198 674.407 14.3594C674.866 14.099 675.212 13.7628 675.444 13.3509C675.68 12.9389 675.799 12.5057 675.799 12.0511V10.517C675.728 10.6023 675.571 10.6804 675.33 10.7514C675.093 10.8177 674.819 10.8769 674.506 10.929C674.198 10.9763 673.898 11.0189 673.604 11.0568C673.315 11.09 673.081 11.1184 672.901 11.142C672.465 11.1989 672.058 11.2912 671.679 11.419C671.305 11.5421 671.002 11.7292 670.77 11.9801C670.543 12.2263 670.429 12.5625 670.429 12.9886C670.429 13.571 670.645 14.0114 671.076 14.3097C671.511 14.6032 672.063 14.75 672.73 14.75ZM4.96591 40.2273C3.94318 40.2273 3.0625 39.9858 2.32386 39.5028C1.58523 39.0199 1.01705 38.3546 0.619318 37.5071C0.221591 36.6596 0.0227273 35.6913 0.0227273 34.6023C0.0227273 33.4943 0.226326 32.5166 0.633523 31.669C1.04545 30.8168 1.61837 30.1515 2.35227 29.6733C3.09091 29.1903 3.95265 28.9489 4.9375 28.9489C5.70455 28.9489 6.39583 29.0909 7.01136 29.375C7.62689 29.6591 8.13116 30.0568 8.52415 30.5682C8.91714 31.0795 9.16098 31.6761 9.25568 32.358H7.57955C7.4517 31.8608 7.16761 31.4205 6.72727 31.0369C6.29167 30.6487 5.70455 30.4545 4.96591 30.4545C4.3125 30.4545 3.73958 30.625 3.24716 30.9659C2.75947 31.3021 2.37831 31.7779 2.10369 32.3935C1.83381 33.0043 1.69886 33.7216 1.69886 34.5455C1.69886 35.3883 1.83144 36.1222 2.09659 36.7472C2.36648 37.3722 2.74527 37.8575 3.23295 38.2031C3.72538 38.5488 4.30303 38.7216 4.96591 38.7216C5.40152 38.7216 5.79688 38.6458 6.15199 38.4943C6.5071 38.3428 6.80777 38.125 7.05398 37.8409C7.30019 37.5568 7.47538 37.2159 7.57955 36.8182H9.25568C9.16098 37.4621 8.92661 38.0421 8.55256 38.5582C8.18324 39.0696 7.69318 39.4768 7.08239 39.7798C6.47633 40.0781 5.77083 40.2273 4.96591 40.2273ZM14.9162 40.2557C14.2249 40.2557 13.5975 40.1255 13.0341 39.8651C12.4706 39.5999 12.0232 39.2188 11.6918 38.7216C11.3603 38.2197 11.1946 37.6136 11.1946 36.9034C11.1946 36.2784 11.3177 35.7718 11.5639 35.3835C11.8101 34.9905 12.1392 34.6828 12.5511 34.4602C12.9631 34.2377 13.4176 34.072 13.9148 33.9631C14.4167 33.8494 14.9209 33.7595 15.4276 33.6932C16.0904 33.608 16.6278 33.544 17.0398 33.5014C17.4564 33.4541 17.7595 33.3759 17.9489 33.267C18.143 33.1581 18.2401 32.9687 18.2401 32.6989V32.642C18.2401 31.9413 18.0483 31.3968 17.6648 31.0085C17.286 30.6203 16.7107 30.4261 15.9389 30.4261C15.1387 30.4261 14.5114 30.6013 14.0568 30.9517C13.6023 31.3021 13.2827 31.6761 13.098 32.0739L11.5071 31.5057C11.7912 30.8428 12.17 30.3267 12.6435 29.9574C13.1217 29.5833 13.6425 29.3229 14.206 29.1761C14.7741 29.0246 15.3329 28.9489 15.8821 28.9489C16.2325 28.9489 16.6349 28.9915 17.0895 29.0767C17.5488 29.1572 17.9915 29.3253 18.4176 29.581C18.8485 29.8366 19.206 30.2225 19.4901 30.7386C19.7741 31.2547 19.9162 31.946 19.9162 32.8125V40H18.2401V38.5227H18.1548C18.0412 38.7595 17.8518 39.0128 17.5866 39.2827C17.3215 39.5526 16.9688 39.7822 16.5284 39.9716C16.0881 40.161 15.5507 40.2557 14.9162 40.2557ZM15.1719 38.75C15.8348 38.75 16.3935 38.6198 16.848 38.3594C17.3073 38.099 17.6529 37.7628 17.8849 37.3509C18.1217 36.9389 18.2401 36.5057 18.2401 36.0511V34.517C18.169 34.6023 18.0128 34.6804 17.7713 34.7514C17.5346 34.8177 17.2599 34.8769 16.9474 34.929C16.6397 34.9763 16.339 35.0189 16.0455 35.0568C15.7566 35.09 15.5223 35.1184 15.3423 35.142C14.9067 35.1989 14.4995 35.2912 14.1207 35.419C13.7467 35.5421 13.4437 35.7292 13.2116 35.9801C12.9844 36.2263 12.8707 36.5625 12.8707 36.9886C12.8707 37.571 13.0862 38.0114 13.517 38.3097C13.9527 38.6032 14.5043 38.75 15.1719 38.75ZM30.7028 31.5341L29.1971 31.9602C29.1024 31.7093 28.9627 31.4654 28.7781 31.2287C28.5981 30.9872 28.3519 30.7884 28.0394 30.6321C27.7269 30.4759 27.3268 30.3977 26.8391 30.3977C26.1715 30.3977 25.6152 30.5516 25.1701 30.8594C24.7298 31.1624 24.5096 31.5483 24.5096 32.017C24.5096 32.4337 24.6611 32.7628 24.9641 33.0043C25.2672 33.2457 25.7406 33.447 26.3846 33.608L28.0039 34.0057C28.9793 34.2424 29.7061 34.6046 30.1843 35.0923C30.6625 35.5753 30.9016 36.1979 30.9016 36.9602C30.9016 37.5852 30.7217 38.1439 30.3619 38.6364C30.0067 39.1288 29.5096 39.517 28.8704 39.8011C28.2312 40.0852 27.4878 40.2273 26.6403 40.2273C25.5276 40.2273 24.6067 39.9858 23.8775 39.5028C23.1483 39.0199 22.6867 38.3144 22.4925 37.3864L24.0835 36.9886C24.235 37.5758 24.5214 38.0161 24.9428 38.3097C25.369 38.6032 25.9253 38.75 26.6119 38.75C27.3931 38.75 28.0134 38.5843 28.4727 38.2528C28.9367 37.9167 29.1687 37.5142 29.1687 37.0455C29.1687 36.6667 29.0361 36.3494 28.771 36.0938C28.5058 35.8333 28.0986 35.6392 27.5494 35.5114L25.7312 35.0852C24.7321 34.8485 23.9982 34.4815 23.5295 33.9844C23.0655 33.4825 22.8335 32.8551 22.8335 32.1023C22.8335 31.4867 23.0063 30.9422 23.3519 30.4688C23.7023 29.9953 24.1781 29.6236 24.7795 29.3537C25.3855 29.0838 26.0721 28.9489 26.8391 28.9489C27.9187 28.9489 28.7662 29.1856 29.3817 29.6591C30.002 30.1326 30.4424 30.7576 30.7028 31.5341ZM36.6349 40.2557C35.9437 40.2557 35.3163 40.1255 34.7528 39.8651C34.1894 39.5999 33.742 39.2188 33.4105 38.7216C33.0791 38.2197 32.9134 37.6136 32.9134 36.9034C32.9134 36.2784 33.0365 35.7718 33.2827 35.3835C33.5289 34.9905 33.858 34.6828 34.2699 34.4602C34.6818 34.2377 35.1364 34.072 35.6335 33.9631C36.1354 33.8494 36.6397 33.7595 37.1463 33.6932C37.8092 33.608 38.3466 33.544 38.7585 33.5014C39.1752 33.4541 39.4782 33.3759 39.6676 33.267C39.8617 33.1581 39.9588 32.9687 39.9588 32.6989V32.642C39.9588 31.9413 39.767 31.3968 39.3835 31.0085C39.0047 30.6203 38.4295 30.4261 37.6577 30.4261C36.8575 30.4261 36.2301 30.6013 35.7756 30.9517C35.321 31.3021 35.0014 31.6761 34.8168 32.0739L33.2259 31.5057C33.5099 30.8428 33.8887 30.3267 34.3622 29.9574C34.8404 29.5833 35.3613 29.3229 35.9247 29.1761C36.4929 29.0246 37.0516 28.9489 37.6009 28.9489C37.9512 28.9489 38.3537 28.9915 38.8082 29.0767C39.2675 29.1572 39.7102 29.3253 40.1364 29.581C40.5672 29.8366 40.9247 30.2225 41.2088 30.7386C41.4929 31.2547 41.6349 31.946 41.6349 32.8125V40H39.9588V38.5227H39.8736C39.7599 38.7595 39.5705 39.0128 39.3054 39.2827C39.0402 39.5526 38.6875 39.7822 38.2472 39.9716C37.8068 40.161 37.2694 40.2557 36.6349 40.2557ZM36.8906 38.75C37.5535 38.75 38.1122 38.6198 38.5668 38.3594C39.026 38.099 39.3717 37.7628 39.6037 37.3509C39.8404 36.9389 39.9588 36.5057 39.9588 36.0511V34.517C39.8878 34.6023 39.7315 34.6804 39.4901 34.7514C39.2533 34.8177 38.9787 34.8769 38.6662 34.929C38.3584 34.9763 38.0578 35.0189 37.7642 35.0568C37.4754 35.09 37.241 35.1184 37.0611 35.142C36.6255 35.1989 36.2183 35.2912 35.8395 35.419C35.4654 35.5421 35.1624 35.7292 34.9304 35.9801C34.7031 36.2263 34.5895 36.5625 34.5895 36.9886C34.5895 37.571 34.8049 38.0114 35.2358 38.3097C35.6714 38.6032 36.223 38.75 36.8906 38.75ZM45.9158 40.1136C45.5655 40.1136 45.2648 39.9882 45.0138 39.7372C44.7629 39.4863 44.6374 39.1856 44.6374 38.8352C44.6374 38.4848 44.7629 38.1842 45.0138 37.9332C45.2648 37.6823 45.5655 37.5568 45.9158 37.5568C46.2662 37.5568 46.5669 37.6823 46.8178 37.9332C47.0688 38.1842 47.1942 38.4848 47.1942 38.8352C47.1942 39.0672 47.1351 39.2803 47.0167 39.4744C46.9031 39.6686 46.7492 39.8248 46.555 39.9432C46.3656 40.0568 46.1526 40.1136 45.9158 40.1136Z" fill="white"/>
</svg>
