<svg xmlns="http://www.w3.org/2000/svg" viewBox="0 0 1376.79 1374.21"><defs><style>.a{fill:#e95a59;}</style></defs><path class="a" d="M2502.08,873.13V959c-2,16.36-3.7,32.76-6,49.06-23.57,164.06-95.87,303-218.08,415.1-98.33,90.23-213.9,146.84-345.69,169.63-25,4.32-50.37,7-75.56,10.4h-86c-3-.72-6-1.89-9-2.12-119.93-9-230.56-46-329.88-113.54-161-109.5-260.2-260.15-295.81-451.73-4.72-25.38-7.19-51.19-10.69-76.8V873.13c.8-4.33,1.72-8.65,2.4-13,5.11-33.09,7.92-66.71,15.6-99.19,90.25-381.61,472-609,851.56-507.94C2250,321,2448.78,538.76,2491.6,797.61,2495.75,822.67,2498.62,848,2502.08,873.13ZM2270.14,1316.2C2360,1211.27,2409.59,1093,2420,956.34h-15.85c-27.34,0-54.68.36-82-.17-21-.41-37.37-16.11-39.64-36.68-2.1-19,11.72-38,31.55-42.51,5.58-1.27,11.55-1.1,17.35-1.12,29-.1,58,0,86.91,0,6.88-97.39-80.55-306.91-148.28-357.07a3.89,3.89,0,0,0-1.18.55c-12.45,12.23-24.23,25.27-37.57,36.42-7.54,6.29-17.22,11.73-26.72,13.6-16.67,3.3-32.33-6.36-39.79-21.23-7.75-15.43-5.79-33,6.9-45.91,13.67-13.93,28.48-26.75,43.81-41C2109.46,370.72,1991,321.11,1854,310.91c0,22.26,0,43.16,0,64.06-.07,27.9-16.84,46.93-40.87,46.5-23.71-.42-39.71-19-39.78-46.23-.06-20.92,0-41.83,0-64.39-137.1,10.5-255.83,59.9-360.53,149.71,14.35,13.73,28.09,25.35,39.84,38.72,6.44,7.33,11.74,17.17,13.63,26.66,3.29,16.53-6.51,32.43-21.24,39.79-15.64,7.82-33.61,5.3-47.07-7.82-13.65-13.31-26.49-27.45-40.59-42.16-90.13,105.11-139.69,223.4-150,360.07,23.73,0,46.13-1.34,68.24.58,10.74.93,22.8,5.79,31,12.73,12.54,10.66,14.82,26.28,8.36,41.83-6.62,15.92-19.17,24.76-36.41,25.19-23.18.58-46.37.14-71.18.14,10.43,137,60.06,255.42,150,359.89,13.77-14.31,25.44-28,38.84-39.72,7.35-6.42,17.18-11.77,26.67-13.63,16.82-3.28,32.3,6.27,39.79,21.2,7.74,15.43,5.86,32.86-6.87,45.92-13.62,14-28.48,26.73-43.8,41,106,90.59,224.56,139.95,361.41,150.37,0-23.29-.72-45.12.35-66.87.43-9,3-18.73,7.6-26.34,8.92-14.82,27.09-20.3,43.57-15.48a39.65,39.65,0,0,1,29,37.72c.47,23.14.11,46.28.11,70.94,137.25-10.32,255.92-59.93,358.63-147.92-1-2.19-1.09-2.68-1.38-3-12.26-12.42-24.62-24.75-36.8-37.25-18-18.48-18.75-43.46-2-59.72,16.43-15.9,40.84-15,58.84,2.68C2244.05,1288.6,2256.2,1301.74,2270.14,1316.2Z" transform="translate(-1125.29 -229)"/><path class="a" d="M1854,875.82h26.5c61.81,0,123.63-.17,185.45.08,29.09.11,48.33,24.63,40.81,51.14-4.75,16.76-19.54,29.05-37.63,29.12q-128.33.45-256.67,0c-22-.11-38.94-17.61-39-39.83q-.4-187.14,0-374.26c0-23,18-39.82,40.31-39.75,23.41.07,40.12,17.48,40.15,42.69q.19,156.94.06,313.89Z" transform="translate(-1125.29 -229)"/></svg>