<svg width="56" height="56" viewBox="0 0 56 56" fill="none" xmlns="http://www.w3.org/2000/svg">
<path fill-rule="evenodd" clip-rule="evenodd" d="M26.1477 7.05608C26.0724 7.10407 26.0109 7.17306 25.9698 7.25558L3.38208 48.0901C3.32581 48.1859 3.29543 48.2964 3.29427 48.4093C3.29311 48.5223 3.3212 48.6334 3.37549 48.7306C3.42819 48.8356 3.49737 48.9056 3.55337 48.9406C3.60278 48.9756 3.66537 49.0001 3.77078 49.0001H48.943C49.0194 49.003 49.0949 48.9823 49.1604 48.9406C49.2366 48.888 49.2989 48.8157 49.3416 48.7306C49.3954 48.6331 49.4229 48.5218 49.4212 48.4089C49.4194 48.2959 49.3885 48.1856 49.3317 48.0901L26.7473 7.25558C26.7062 7.17306 26.6447 7.10407 26.5694 7.05608C26.5048 7.01846 26.4322 6.99917 26.3585 7.00008C26.2849 6.99917 26.2123 7.01846 26.1477 7.05608ZM29.5868 5.48108C29.2607 4.87755 28.7905 4.37612 28.2237 4.02743C27.6569 3.67873 27.0135 3.49512 26.3585 3.49512C25.7036 3.49512 25.0602 3.67873 24.4934 4.02743C23.9266 4.37612 23.4564 4.87755 23.1303 5.48108L0.542547 46.3156C-0.962865 49.0386 0.842312 52.5001 3.77078 52.5001H48.943C51.8715 52.5001 53.68 49.0351 52.1713 46.3156L29.5868 5.48108Z" fill="#A60311"/>
<path d="M23.0652 42.0004C23.0652 41.5408 23.1505 41.0857 23.316 40.661C23.4815 40.2364 23.7242 39.8505 24.0301 39.5255C24.336 39.2005 24.6991 38.9427 25.0988 38.7668C25.4984 38.5909 25.9268 38.5004 26.3594 38.5004C26.792 38.5004 27.2203 38.5909 27.62 38.7668C28.0196 38.9427 28.3828 39.2005 28.6887 39.5255C28.9945 39.8505 29.2372 40.2364 29.4027 40.661C29.5683 41.0857 29.6535 41.5408 29.6535 42.0004C29.6535 42.9287 29.3064 43.8189 28.6887 44.4753C28.0709 45.1317 27.233 45.5004 26.3594 45.5004C25.4857 45.5004 24.6478 45.1317 24.0301 44.4753C23.4123 43.8189 23.0652 42.9287 23.0652 42.0004ZM23.3881 20.9829C23.3442 20.5414 23.3882 20.0949 23.5172 19.6726C23.6462 19.2503 23.8573 18.8615 24.1369 18.5315C24.4164 18.2014 24.7582 17.9375 25.1399 17.7569C25.5217 17.5763 25.9349 17.4829 26.3528 17.4829C26.7707 17.4829 27.1839 17.5763 27.5656 17.7569C27.9474 17.9375 28.2891 18.2014 28.5687 18.5315C28.8482 18.8615 29.0594 19.2503 29.1884 19.6726C29.3174 20.0949 29.3613 20.5414 29.3175 20.9829L28.1645 33.2574C28.1258 33.7396 27.9181 34.1888 27.5827 34.5161C27.2472 34.8435 26.8083 35.0251 26.3528 35.0251C25.8973 35.0251 25.4584 34.8435 25.1229 34.5161C24.7874 34.1888 24.5797 33.7396 24.541 33.2574L23.3881 20.9829Z" fill="#A60311"/>
</svg>
