<svg width="1265" height="160" viewBox="0 0 1265 160" fill="none" xmlns="http://www.w3.org/2000/svg">
<rect width="1240" height="160" rx="15" fill="white" fill-opacity="0.5"/>
<path d="M293.715 113.238V122.75H392.144V113.238H293.715ZM389.324 120.213H296.663V115.774H389.324V120.213Z" fill="#5546CB"/>
<path d="M276.276 16.6187H407.514V146.492H276.276V16.6187Z" fill="white"/>
<path d="M383.539 35.9992L378.156 34.4772L383.539 33.0821L385.077 27.6284L386.486 33.0821L391.997 34.4772L386.486 35.9992L385.077 41.326L383.539 35.9992ZM288.699 100.555L284.598 99.6675L288.699 98.6528L289.724 94.5943L290.621 98.6528L294.851 99.6675L290.621 100.555L289.724 104.741L288.699 100.555ZM388.537 42.7211L386.615 42.3406L388.537 41.8333L388.921 40.0577L389.306 41.8333L391.228 42.3406L389.306 42.7211L388.921 44.6235L388.537 42.7211ZM289.34 78.6138L287.417 78.2333L289.34 77.8528L289.724 75.9504L290.109 77.8528L292.031 78.2333L290.109 78.6138L289.724 80.5162L289.34 78.6138Z" fill="#FDCD60"/>
<path d="M288.827 53.7551C288.827 53.9051 288.857 54.0535 288.915 54.1921C288.973 54.3306 289.058 54.4565 289.165 54.5625C289.272 54.6685 289.399 54.7527 289.539 54.81C289.679 54.8674 289.829 54.897 289.981 54.897C290.132 54.897 290.282 54.8674 290.422 54.81C290.562 54.7527 290.689 54.6685 290.797 54.5625C290.904 54.4565 290.989 54.3306 291.047 54.1921C291.105 54.0535 291.134 53.9051 291.134 53.7551C291.134 53.6052 291.105 53.4567 291.047 53.3182C290.989 53.1797 290.904 53.0538 290.797 52.9477C290.689 52.8417 290.562 52.7576 290.422 52.7002C290.282 52.6428 290.132 52.6133 289.981 52.6133C289.829 52.6133 289.679 52.6428 289.539 52.7002C289.399 52.7576 289.272 52.8417 289.165 52.9477C289.058 53.0538 288.973 53.1797 288.915 53.3182C288.857 53.4567 288.827 53.6052 288.827 53.7551Z" fill="#5546CB"/>
<path d="M391.997 99.7941C391.364 99.7941 390.744 99.6081 390.217 99.2597C389.69 98.9113 389.28 98.4161 389.037 97.8368C388.795 97.2574 388.731 96.6199 388.855 96.0048C388.979 95.3897 389.284 94.8248 389.732 94.3813C390.18 93.9379 390.751 93.6359 391.372 93.5136C391.994 93.3912 392.638 93.454 393.224 93.694C393.809 93.934 394.309 94.3404 394.661 94.8618C395.014 95.3832 395.201 95.9963 395.201 96.6234C395.201 97.4643 394.864 98.2708 394.263 98.8654C393.662 99.46 392.847 99.7941 391.997 99.7941ZM391.997 95.2283C392.014 94.8978 392.161 94.5869 392.406 94.3618C392.651 94.1368 392.975 94.0155 393.309 94.0238C393.644 94.032 393.961 94.1693 394.195 94.4061C394.428 94.643 394.559 94.9608 394.559 95.2917C394.559 95.6225 394.428 95.9403 394.195 96.1772C393.961 96.4141 393.644 96.5513 393.309 96.5596C392.975 96.5678 392.651 96.4465 392.406 96.2215C392.161 95.9965 392.014 95.6855 391.997 95.3551V95.2283Z" fill="#5546CB"/>
<path d="M355.6 69.1016H364.571V95.0825H355.6V69.1016Z" fill="#FDCD60"/>
<path d="M299.721 102.711H382.385V107.15H299.721V102.711Z" fill="#AFBCF3"/>
<path d="M384.949 100.175H297.158V109.687H384.949V100.175ZM382.385 107.15H299.721V102.711H382.385V107.15Z" fill="#5546CB"/>
<path d="M337.785 70.877H344.194V94.0867H337.785V70.877Z" fill="#FDCD60"/>
<path d="M335.222 96.6233H346.756V68.3403H335.222V96.6233ZM337.785 70.8769H344.193V94.0867H337.785V70.8769Z" fill="#5546CB"/>
<path d="M318.817 70.877H325.225V94.0867H318.817V70.877Z" fill="#FDCD60"/>
<path d="M316.254 96.6233H327.789V68.3403H316.254V96.6233ZM318.817 70.8769H325.225V94.0867H318.817V70.8769Z" fill="#5546CB"/>
<path d="M299.721 56.9258H306.129V62.1258H299.721V56.9258Z" fill="#FF8859"/>
<path d="M308.692 54.3892H297.158V64.6623H308.692V54.3892ZM306.129 62.1257H299.721V56.9257H306.129V62.1257Z" fill="#5546CB"/>
<path d="M375.849 56.9258H382.257V62.1258H375.849V56.9258Z" fill="#FF8859"/>
<path d="M384.82 54.3892H373.286V64.6623H384.82V54.3892ZM382.257 62.1257H375.849V56.9257H382.257V62.1257Z" fill="#5546CB"/>
<path d="M356.881 56.9258H363.289V62.1258H356.881V56.9258Z" fill="#FF8859"/>
<path d="M365.853 54.3892H354.318V64.6623H365.853V54.3892ZM363.289 62.1257H356.881V56.9257H363.289V62.1257Z" fill="#5546CB"/>
<path d="M337.785 56.9258H344.194V62.1258H337.785V56.9258Z" fill="#FF8859"/>
<path d="M346.756 54.3892H335.222V64.6623H346.756V54.3892ZM344.193 62.1257H337.785V56.9257H344.193V62.1257Z" fill="#5546CB"/>
<path d="M318.817 56.9258H325.225V62.1258H318.817V56.9258Z" fill="#FF8859"/>
<path d="M327.789 54.3892H316.254V64.6623H327.789V54.3892ZM325.225 62.1257H318.817V56.9257H325.225V62.1257Z" fill="#5546CB"/>
<path d="M341.373 27.3745L306.257 48.3013H375.849L341.373 27.3745Z" fill="#FDCD60"/>
<path d="M341.374 24.3306L297.158 50.8379H384.82L341.374 24.3306ZM341.374 27.3745L375.849 48.3013H306.257L341.374 27.3745ZM354.19 96.8769H365.724V68.594H354.19V96.8769ZM356.753 71.1306H363.161V94.3403H356.753V71.1306Z" fill="#5546CB"/>
<path d="M375.721 71.1309H382.129V94.3406H375.721V71.1309Z" fill="#FDCD60"/>
<path d="M373.158 96.8772H384.692V68.5942H373.158V96.8772ZM375.721 71.1308H382.129V94.3406H375.721V71.1308Z" fill="#5546CB"/>
<path d="M299.593 94.0869H306.001V70.6235H299.721L299.593 94.0869Z" fill="#FDCD60"/>
<path d="M308.692 68.0869H297.158V96.6235H308.564L308.692 68.0869ZM306.001 94.0869H299.593V70.6235H305.873L306.001 94.0869Z" fill="#5546CB"/>
<path d="M296.663 115.774H389.324V120.213H296.663V115.774Z" fill="#AFBCF3"/>
<path d="M76.1686 110.267C77.6152 110.942 78.1938 112.292 77.3259 113.417C76.458 114.542 74.7221 114.992 73.2756 114.317L41.4524 100.817C40.0059 100.142 39.4273 98.7918 40.2952 97.6668C41.1631 96.5418 42.8989 96.0919 44.3455 96.7669L76.1686 110.267Z" fill="#050D42"/>
<path d="M103.652 67.2915V62.7915C114.067 62.7915 119.274 75.3915 115.224 89.3415C111.174 102.842 90.9228 114.542 74.722 114.542V110.042C88.3191 110.042 106.256 99.6915 109.438 88.2165C112.91 76.7415 108.86 67.2915 103.652 67.2915ZM42.8988 130.292H106.545C108.281 130.292 109.438 131.192 109.438 132.542C109.438 133.892 108.281 134.792 106.545 134.792H42.8988C41.1629 134.792 40.0057 133.892 40.0057 132.542C40.0057 131.192 41.1629 130.292 42.8988 130.292Z" fill="#050D42"/>
<path d="M103.652 15.7668C112.042 19.5918 114.935 27.6918 110.017 34.2168L81.0869 73.1418L50.9995 59.6418L79.9297 20.7168C84.5585 14.1918 95.2627 12.1668 103.652 15.7668Z" fill="#2F4BFF"/>
<path d="M46.3705 62.7916C44.6347 61.8916 43.7668 60.3166 44.3454 59.4166C44.924 58.5166 47.2384 58.0667 49.2635 58.9667L82.5332 74.0416C84.269 74.9416 85.1369 76.5166 84.5583 77.4166C83.6904 78.5416 81.6653 78.7667 79.6402 77.8667L46.3705 62.7916Z" fill="#050D42"/>
<path d="M50.4207 64.8169L75.5899 76.0669L71.2504 81.9169C70.3825 83.0419 68.6467 83.2669 67.2002 82.8169L47.2384 73.8169C45.7918 73.1419 45.5025 71.7919 46.0811 70.6669L50.4207 64.8169Z" fill="#2F4BFF"/>
<path d="M94.973 65.0415C94.973 66.8317 95.8874 68.5486 97.5151 69.8145C99.1427 71.0803 101.35 71.7915 103.652 71.7915C105.954 71.7915 108.161 71.0803 109.789 69.8145C111.417 68.5486 112.331 66.8317 112.331 65.0415C112.331 63.2513 111.417 61.5344 109.789 60.2685C108.161 59.0027 105.954 58.2915 103.652 58.2915C101.35 58.2915 99.1427 59.0027 97.5151 60.2685C95.8874 61.5344 94.973 63.2513 94.973 65.0415Z" fill="#2F4BFF"/>
<path d="M69.2086 119.423V132.923H74.9947V119.423H69.2086Z" fill="#050D42"/>
<path d="M63.1498 112.292C63.1498 113.473 63.4491 114.644 64.0307 115.736C64.6122 116.828 65.4646 117.82 66.5392 118.655C67.6137 119.491 68.8894 120.154 70.2934 120.606C71.6974 121.059 73.2022 121.292 74.7219 121.292C76.2415 121.292 77.7463 121.059 79.1503 120.606C80.5543 120.154 81.83 119.491 82.9045 118.655C83.9791 117.82 84.8315 116.828 85.4131 115.736C85.9946 114.644 86.2939 113.473 86.2939 112.292C86.2939 109.905 85.0747 107.615 82.9045 105.928C80.7344 104.24 77.791 103.292 74.7219 103.292C71.6527 103.292 68.7093 104.24 66.5392 105.928C64.369 107.615 63.1498 109.905 63.1498 112.292Z" fill="#2F4BFF"/>
<path d="M128.572 96.4917V85.9917H131.002V94.5117H136.267V96.4917H128.572ZM141.27 96.6117C140.41 96.6117 139.645 96.4317 138.975 96.0717C138.315 95.7117 137.79 95.2217 137.4 94.6017C137.02 93.9717 136.83 93.2567 136.83 92.4567C136.83 91.6467 137.02 90.9317 137.4 90.3117C137.79 89.6817 138.315 89.1917 138.975 88.8417C139.645 88.4817 140.41 88.3017 141.27 88.3017C142.12 88.3017 142.88 88.4817 143.55 88.8417C144.22 89.1917 144.745 89.6767 145.125 90.2967C145.505 90.9167 145.695 91.6367 145.695 92.4567C145.695 93.2567 145.505 93.9717 145.125 94.6017C144.745 95.2217 144.22 95.7117 143.55 96.0717C142.88 96.4317 142.12 96.6117 141.27 96.6117ZM141.27 94.6917C141.66 94.6917 142.01 94.6017 142.32 94.4217C142.63 94.2417 142.875 93.9867 143.055 93.6567C143.235 93.3167 143.325 92.9167 143.325 92.4567C143.325 91.9867 143.235 91.5867 143.055 91.2567C142.875 90.9267 142.63 90.6717 142.32 90.4917C142.01 90.3117 141.66 90.2217 141.27 90.2217C140.88 90.2217 140.53 90.3117 140.22 90.4917C139.91 90.6717 139.66 90.9267 139.47 91.2567C139.29 91.5867 139.2 91.9867 139.2 92.4567C139.2 92.9167 139.29 93.3167 139.47 93.6567C139.66 93.9867 139.91 94.2417 140.22 94.4217C140.53 94.6017 140.88 94.6917 141.27 94.6917ZM151.054 99.5217C150.294 99.5217 149.559 99.4267 148.849 99.2367C148.149 99.0567 147.564 98.7817 147.094 98.4117L148.024 96.7317C148.364 97.0117 148.794 97.2317 149.314 97.3917C149.844 97.5617 150.364 97.6467 150.874 97.6467C151.704 97.6467 152.304 97.4617 152.674 97.0917C153.054 96.7217 153.244 96.1717 153.244 95.4417V94.2267L153.394 92.2017L153.364 90.1617V88.4217H155.584V95.1417C155.584 96.6417 155.194 97.7467 154.414 98.4567C153.634 99.1667 152.514 99.5217 151.054 99.5217ZM150.694 96.1017C149.944 96.1017 149.264 95.9417 148.654 95.6217C148.054 95.2917 147.569 94.8367 147.199 94.2567C146.839 93.6667 146.659 92.9817 146.659 92.2017C146.659 91.4117 146.839 90.7267 147.199 90.1467C147.569 89.5567 148.054 89.1017 148.654 88.7817C149.264 88.4617 149.944 88.3017 150.694 88.3017C151.374 88.3017 151.974 88.4417 152.494 88.7217C153.014 88.9917 153.419 89.4167 153.709 89.9967C153.999 90.5667 154.144 91.3017 154.144 92.2017C154.144 93.0917 153.999 93.8267 153.709 94.4067C153.419 94.9767 153.014 95.4017 152.494 95.6817C151.974 95.9617 151.374 96.1017 150.694 96.1017ZM151.159 94.1817C151.569 94.1817 151.934 94.1017 152.254 93.9417C152.574 93.7717 152.824 93.5367 153.004 93.2367C153.184 92.9367 153.274 92.5917 153.274 92.2017C153.274 91.8017 153.184 91.4567 153.004 91.1667C152.824 90.8667 152.574 90.6367 152.254 90.4767C151.934 90.3067 151.569 90.2217 151.159 90.2217C150.749 90.2217 150.384 90.3067 150.064 90.4767C149.744 90.6367 149.489 90.8667 149.299 91.1667C149.119 91.4567 149.029 91.8017 149.029 92.2017C149.029 92.5917 149.119 92.9367 149.299 93.2367C149.489 93.5367 149.744 93.7717 150.064 93.9417C150.384 94.1017 150.749 94.1817 151.159 94.1817ZM161.602 96.6117C160.742 96.6117 159.977 96.4317 159.307 96.0717C158.647 95.7117 158.122 95.2217 157.732 94.6017C157.352 93.9717 157.162 93.2567 157.162 92.4567C157.162 91.6467 157.352 90.9317 157.732 90.3117C158.122 89.6817 158.647 89.1917 159.307 88.8417C159.977 88.4817 160.742 88.3017 161.602 88.3017C162.452 88.3017 163.212 88.4817 163.882 88.8417C164.552 89.1917 165.077 89.6767 165.457 90.2967C165.837 90.9167 166.027 91.6367 166.027 92.4567C166.027 93.2567 165.837 93.9717 165.457 94.6017C165.077 95.2217 164.552 95.7117 163.882 96.0717C163.212 96.4317 162.452 96.6117 161.602 96.6117ZM161.602 94.6917C161.992 94.6917 162.342 94.6017 162.652 94.4217C162.962 94.2417 163.207 93.9867 163.387 93.6567C163.567 93.3167 163.657 92.9167 163.657 92.4567C163.657 91.9867 163.567 91.5867 163.387 91.2567C163.207 90.9267 162.962 90.6717 162.652 90.4917C162.342 90.3117 161.992 90.2217 161.602 90.2217C161.212 90.2217 160.862 90.3117 160.552 90.4917C160.242 90.6717 159.992 90.9267 159.802 91.2567C159.622 91.5867 159.532 91.9867 159.532 92.4567C159.532 92.9167 159.622 93.3167 159.802 93.6567C159.992 93.9867 160.242 94.2417 160.552 94.4217C160.862 94.6017 161.212 94.6917 161.602 94.6917ZM172.004 96.4917V85.9917H176.549C177.489 85.9917 178.299 86.1467 178.979 86.4567C179.659 86.7567 180.184 87.1917 180.554 87.7617C180.924 88.3317 181.109 89.0117 181.109 89.8017C181.109 90.5817 180.924 91.2567 180.554 91.8267C180.184 92.3967 179.659 92.8367 178.979 93.1467C178.299 93.4467 177.489 93.5967 176.549 93.5967H173.354L174.434 92.5017V96.4917H172.004ZM174.434 92.7717L173.354 91.6167H176.414C177.164 91.6167 177.724 91.4567 178.094 91.1367C178.464 90.8167 178.649 90.3717 178.649 89.8017C178.649 89.2217 178.464 88.7717 178.094 88.4517C177.724 88.1317 177.164 87.9717 176.414 87.9717H173.354L174.434 86.8167V92.7717ZM187.556 96.4917V94.9167L187.406 94.5717V91.7517C187.406 91.2517 187.251 90.8617 186.941 90.5817C186.641 90.3017 186.176 90.1617 185.546 90.1617C185.116 90.1617 184.691 90.2317 184.271 90.3717C183.861 90.5017 183.511 90.6817 183.221 90.9117L182.381 89.2767C182.821 88.9667 183.351 88.7267 183.971 88.5567C184.591 88.3867 185.221 88.3017 185.861 88.3017C187.091 88.3017 188.046 88.5917 188.726 89.1717C189.406 89.7517 189.746 90.6567 189.746 91.8867V96.4917H187.556ZM185.096 96.6117C184.466 96.6117 183.926 96.5067 183.476 96.2967C183.026 96.0767 182.681 95.7817 182.441 95.4117C182.201 95.0417 182.081 94.6267 182.081 94.1667C182.081 93.6867 182.196 93.2667 182.426 92.9067C182.666 92.5467 183.041 92.2667 183.551 92.0667C184.061 91.8567 184.726 91.7517 185.546 91.7517H187.691V93.1167H185.801C185.251 93.1167 184.871 93.2067 184.661 93.3867C184.461 93.5667 184.361 93.7917 184.361 94.0617C184.361 94.3617 184.476 94.6017 184.706 94.7817C184.946 94.9517 185.271 95.0367 185.681 95.0367C186.071 95.0367 186.421 94.9467 186.731 94.7667C187.041 94.5767 187.266 94.3017 187.406 93.9417L187.766 95.0217C187.596 95.5417 187.286 95.9367 186.836 96.2067C186.386 96.4767 185.806 96.6117 185.096 96.6117ZM191.864 96.4917V88.4217H194.099V90.7017L193.784 90.0417C194.024 89.4717 194.409 89.0417 194.939 88.7517C195.469 88.4517 196.114 88.3017 196.874 88.3017V90.4617C196.774 90.4517 196.684 90.4467 196.604 90.4467C196.524 90.4367 196.439 90.4317 196.349 90.4317C195.709 90.4317 195.189 90.6167 194.789 90.9867C194.399 91.3467 194.204 91.9117 194.204 92.6817V96.4917H191.864ZM202.106 96.6117C201.236 96.6117 200.461 96.4367 199.781 96.0867C199.101 95.7267 198.566 95.2317 198.176 94.6017C197.796 93.9717 197.606 93.2567 197.606 92.4567C197.606 91.6467 197.796 90.9317 198.176 90.3117C198.566 89.6817 199.101 89.1917 199.781 88.8417C200.461 88.4817 201.236 88.3017 202.106 88.3017C202.956 88.3017 203.696 88.4817 204.326 88.8417C204.956 89.1917 205.421 89.6967 205.721 90.3567L203.906 91.3317C203.696 90.9517 203.431 90.6717 203.111 90.4917C202.801 90.3117 202.461 90.2217 202.091 90.2217C201.691 90.2217 201.331 90.3117 201.011 90.4917C200.691 90.6717 200.436 90.9267 200.246 91.2567C200.066 91.5867 199.976 91.9867 199.976 92.4567C199.976 92.9267 200.066 93.3267 200.246 93.6567C200.436 93.9867 200.691 94.2417 201.011 94.4217C201.331 94.6017 201.691 94.6917 202.091 94.6917C202.461 94.6917 202.801 94.6067 203.111 94.4367C203.431 94.2567 203.696 93.9717 203.906 93.5817L205.721 94.5717C205.421 95.2217 204.956 95.7267 204.326 96.0867C203.696 96.4367 202.956 96.6117 202.106 96.6117ZM210.971 96.6117C210.051 96.6117 209.241 96.4317 208.541 96.0717C207.851 95.7117 207.316 95.2217 206.936 94.6017C206.556 93.9717 206.366 93.2567 206.366 92.4567C206.366 91.6467 206.551 90.9317 206.921 90.3117C207.301 89.6817 207.816 89.1917 208.466 88.8417C209.116 88.4817 209.851 88.3017 210.671 88.3017C211.461 88.3017 212.171 88.4717 212.801 88.8117C213.441 89.1417 213.946 89.6217 214.316 90.2517C214.686 90.8717 214.871 91.6167 214.871 92.4867C214.871 92.5767 214.866 92.6817 214.856 92.8017C214.846 92.9117 214.836 93.0167 214.826 93.1167H208.271V91.7517H213.596L212.696 92.1567C212.696 91.7367 212.611 91.3717 212.441 91.0617C212.271 90.7517 212.036 90.5117 211.736 90.3417C211.436 90.1617 211.086 90.0717 210.686 90.0717C210.286 90.0717 209.931 90.1617 209.621 90.3417C209.321 90.5117 209.086 90.7567 208.916 91.0767C208.746 91.3867 208.661 91.7567 208.661 92.1867V92.5467C208.661 92.9867 208.756 93.3767 208.946 93.7167C209.146 94.0467 209.421 94.3017 209.771 94.4817C210.131 94.6517 210.551 94.7367 211.031 94.7367C211.461 94.7367 211.836 94.6717 212.156 94.5417C212.486 94.4117 212.786 94.2167 213.056 93.9567L214.301 95.3067C213.931 95.7267 213.466 96.0517 212.906 96.2817C212.346 96.5017 211.701 96.6117 210.971 96.6117ZM216.429 96.4917V88.4217H218.769V96.4917H216.429ZM217.599 87.2967C217.169 87.2967 216.819 87.1717 216.549 86.9217C216.279 86.6717 216.144 86.3617 216.144 85.9917C216.144 85.6217 216.279 85.3117 216.549 85.0617C216.819 84.8117 217.169 84.6867 217.599 84.6867C218.029 84.6867 218.379 84.8067 218.649 85.0467C218.919 85.2767 219.054 85.5767 219.054 85.9467C219.054 86.3367 218.919 86.6617 218.649 86.9217C218.389 87.1717 218.039 87.2967 217.599 87.2967ZM220.941 96.4917V88.4217H223.176V90.7017L222.861 90.0417C223.101 89.4717 223.486 89.0417 224.016 88.7517C224.546 88.4517 225.191 88.3017 225.951 88.3017V90.4617C225.851 90.4517 225.761 90.4467 225.681 90.4467C225.601 90.4367 225.516 90.4317 225.426 90.4317C224.786 90.4317 224.266 90.6167 223.866 90.9867C223.476 91.3467 223.281 91.9117 223.281 92.6817V96.4917H220.941ZM231.123 96.6117C230.263 96.6117 229.498 96.4317 228.828 96.0717C228.168 95.7117 227.643 95.2217 227.253 94.6017C226.873 93.9717 226.683 93.2567 226.683 92.4567C226.683 91.6467 226.873 90.9317 227.253 90.3117C227.643 89.6817 228.168 89.1917 228.828 88.8417C229.498 88.4817 230.263 88.3017 231.123 88.3017C231.973 88.3017 232.733 88.4817 233.403 88.8417C234.073 89.1917 234.598 89.6767 234.978 90.2967C235.358 90.9167 235.548 91.6367 235.548 92.4567C235.548 93.2567 235.358 93.9717 234.978 94.6017C234.598 95.2217 234.073 95.7117 233.403 96.0717C232.733 96.4317 231.973 96.6117 231.123 96.6117ZM231.123 94.6917C231.513 94.6917 231.863 94.6017 232.173 94.4217C232.483 94.2417 232.728 93.9867 232.908 93.6567C233.088 93.3167 233.178 92.9167 233.178 92.4567C233.178 91.9867 233.088 91.5867 232.908 91.2567C232.728 90.9267 232.483 90.6717 232.173 90.4917C231.863 90.3117 231.513 90.2217 231.123 90.2217C230.733 90.2217 230.383 90.3117 230.073 90.4917C229.763 90.6717 229.513 90.9267 229.323 91.2567C229.143 91.5867 229.053 91.9867 229.053 92.4567C229.053 92.9167 229.143 93.3167 229.323 93.6567C229.513 93.9867 229.763 94.2417 230.073 94.4217C230.383 94.6017 230.733 94.6917 231.123 94.6917ZM133.237 114.672C131.747 114.672 130.582 114.257 129.742 113.427C128.902 112.597 128.482 111.412 128.482 109.872V103.992H130.912V109.782C130.912 110.782 131.117 111.502 131.527 111.942C131.937 112.382 132.512 112.602 133.252 112.602C133.992 112.602 134.567 112.382 134.977 111.942C135.387 111.502 135.592 110.782 135.592 109.782V103.992H137.992V109.872C137.992 111.412 137.572 112.597 136.732 113.427C135.892 114.257 134.727 114.672 133.237 114.672ZM150.563 106.302C151.203 106.302 151.768 106.432 152.258 106.692C152.758 106.942 153.148 107.332 153.428 107.862C153.718 108.382 153.863 109.052 153.863 109.872V114.492H151.523V110.232C151.523 109.582 151.388 109.102 151.118 108.792C150.848 108.482 150.468 108.327 149.978 108.327C149.638 108.327 149.333 108.407 149.063 108.567C148.793 108.717 148.583 108.947 148.433 109.257C148.283 109.567 148.208 109.962 148.208 110.442V114.492H145.868V110.232C145.868 109.582 145.733 109.102 145.463 108.792C145.203 108.482 144.828 108.327 144.338 108.327C143.998 108.327 143.693 108.407 143.423 108.567C143.153 108.717 142.943 108.947 142.793 109.257C142.643 109.567 142.568 109.962 142.568 110.442V114.492H140.228V106.422H142.463V108.627L142.043 107.982C142.323 107.432 142.718 107.017 143.228 106.737C143.748 106.447 144.338 106.302 144.998 106.302C145.738 106.302 146.383 106.492 146.933 106.872C147.493 107.242 147.863 107.812 148.043 108.582L147.218 108.357C147.488 107.727 147.918 107.227 148.508 106.857C149.108 106.487 149.793 106.302 150.563 106.302Z" fill="black"/>
<path d="M421.3 96.6187V86.1187H423.73V94.6387H428.995V96.6187H421.3ZM433.998 96.7387C433.138 96.7387 432.373 96.5587 431.703 96.1987C431.043 95.8387 430.518 95.3487 430.128 94.7287C429.748 94.0987 429.558 93.3837 429.558 92.5837C429.558 91.7737 429.748 91.0587 430.128 90.4387C430.518 89.8087 431.043 89.3187 431.703 88.9687C432.373 88.6087 433.138 88.4287 433.998 88.4287C434.848 88.4287 435.608 88.6087 436.278 88.9687C436.948 89.3187 437.473 89.8037 437.853 90.4237C438.233 91.0437 438.423 91.7637 438.423 92.5837C438.423 93.3837 438.233 94.0987 437.853 94.7287C437.473 95.3487 436.948 95.8387 436.278 96.1987C435.608 96.5587 434.848 96.7387 433.998 96.7387ZM433.998 94.8187C434.388 94.8187 434.738 94.7287 435.048 94.5487C435.358 94.3687 435.603 94.1137 435.783 93.7837C435.963 93.4437 436.053 93.0437 436.053 92.5837C436.053 92.1137 435.963 91.7137 435.783 91.3837C435.603 91.0537 435.358 90.7987 435.048 90.6187C434.738 90.4387 434.388 90.3487 433.998 90.3487C433.608 90.3487 433.258 90.4387 432.948 90.6187C432.638 90.7987 432.388 91.0537 432.198 91.3837C432.018 91.7137 431.928 92.1137 431.928 92.5837C431.928 93.0437 432.018 93.4437 432.198 93.7837C432.388 94.1137 432.638 94.3687 432.948 94.5487C433.258 94.7287 433.608 94.8187 433.998 94.8187ZM443.782 99.6487C443.022 99.6487 442.287 99.5537 441.577 99.3637C440.877 99.1837 440.292 98.9087 439.822 98.5387L440.752 96.8587C441.092 97.1387 441.522 97.3587 442.042 97.5187C442.572 97.6887 443.092 97.7737 443.602 97.7737C444.432 97.7737 445.032 97.5887 445.402 97.2187C445.782 96.8487 445.972 96.2987 445.972 95.5687V94.3537L446.122 92.3287L446.092 90.2887V88.5487H448.312V95.2687C448.312 96.7687 447.922 97.8737 447.142 98.5837C446.362 99.2937 445.242 99.6487 443.782 99.6487ZM443.422 96.2287C442.672 96.2287 441.992 96.0687 441.382 95.7487C440.782 95.4187 440.297 94.9637 439.927 94.3837C439.567 93.7937 439.387 93.1087 439.387 92.3287C439.387 91.5387 439.567 90.8537 439.927 90.2737C440.297 89.6837 440.782 89.2287 441.382 88.9087C441.992 88.5887 442.672 88.4287 443.422 88.4287C444.102 88.4287 444.702 88.5687 445.222 88.8487C445.742 89.1187 446.147 89.5437 446.437 90.1237C446.727 90.6937 446.872 91.4287 446.872 92.3287C446.872 93.2187 446.727 93.9537 446.437 94.5337C446.147 95.1037 445.742 95.5287 445.222 95.8087C444.702 96.0887 444.102 96.2287 443.422 96.2287ZM443.887 94.3087C444.297 94.3087 444.662 94.2287 444.982 94.0687C445.302 93.8987 445.552 93.6637 445.732 93.3637C445.912 93.0637 446.002 92.7187 446.002 92.3287C446.002 91.9287 445.912 91.5837 445.732 91.2937C445.552 90.9937 445.302 90.7637 444.982 90.6037C444.662 90.4337 444.297 90.3487 443.887 90.3487C443.477 90.3487 443.112 90.4337 442.792 90.6037C442.472 90.7637 442.217 90.9937 442.027 91.2937C441.847 91.5837 441.757 91.9287 441.757 92.3287C441.757 92.7187 441.847 93.0637 442.027 93.3637C442.217 93.6637 442.472 93.8987 442.792 94.0687C443.112 94.2287 443.477 94.3087 443.887 94.3087ZM454.33 96.7387C453.47 96.7387 452.705 96.5587 452.035 96.1987C451.375 95.8387 450.85 95.3487 450.46 94.7287C450.08 94.0987 449.89 93.3837 449.89 92.5837C449.89 91.7737 450.08 91.0587 450.46 90.4387C450.85 89.8087 451.375 89.3187 452.035 88.9687C452.705 88.6087 453.47 88.4287 454.33 88.4287C455.18 88.4287 455.94 88.6087 456.61 88.9687C457.28 89.3187 457.805 89.8037 458.185 90.4237C458.565 91.0437 458.755 91.7637 458.755 92.5837C458.755 93.3837 458.565 94.0987 458.185 94.7287C457.805 95.3487 457.28 95.8387 456.61 96.1987C455.94 96.5587 455.18 96.7387 454.33 96.7387ZM454.33 94.8187C454.72 94.8187 455.07 94.7287 455.38 94.5487C455.69 94.3687 455.935 94.1137 456.115 93.7837C456.295 93.4437 456.385 93.0437 456.385 92.5837C456.385 92.1137 456.295 91.7137 456.115 91.3837C455.935 91.0537 455.69 90.7987 455.38 90.6187C455.07 90.4387 454.72 90.3487 454.33 90.3487C453.94 90.3487 453.59 90.4387 453.28 90.6187C452.97 90.7987 452.72 91.0537 452.53 91.3837C452.35 91.7137 452.26 92.1137 452.26 92.5837C452.26 93.0437 452.35 93.4437 452.53 93.7837C452.72 94.1137 452.97 94.3687 453.28 94.5487C453.59 94.7287 453.94 94.8187 454.33 94.8187ZM464.732 96.6187V86.1187H469.277C470.217 86.1187 471.027 86.2737 471.707 86.5837C472.387 86.8837 472.912 87.3187 473.282 87.8887C473.652 88.4587 473.837 89.1387 473.837 89.9287C473.837 90.7087 473.652 91.3837 473.282 91.9537C472.912 92.5237 472.387 92.9637 471.707 93.2737C471.027 93.5737 470.217 93.7237 469.277 93.7237H466.082L467.162 92.6287V96.6187H464.732ZM467.162 92.8987L466.082 91.7437H469.142C469.892 91.7437 470.452 91.5837 470.822 91.2637C471.192 90.9437 471.377 90.4987 471.377 89.9287C471.377 89.3487 471.192 88.8987 470.822 88.5787C470.452 88.2587 469.892 88.0987 469.142 88.0987H466.082L467.162 86.9437V92.8987ZM480.284 96.6187V95.0437L480.134 94.6987V91.8787C480.134 91.3787 479.979 90.9887 479.669 90.7087C479.369 90.4287 478.904 90.2887 478.274 90.2887C477.844 90.2887 477.419 90.3587 476.999 90.4987C476.589 90.6287 476.239 90.8087 475.949 91.0387L475.109 89.4037C475.549 89.0937 476.079 88.8537 476.699 88.6837C477.319 88.5137 477.949 88.4287 478.589 88.4287C479.819 88.4287 480.774 88.7187 481.454 89.2987C482.134 89.8787 482.474 90.7837 482.474 92.0137V96.6187H480.284ZM477.824 96.7387C477.194 96.7387 476.654 96.6337 476.204 96.4237C475.754 96.2037 475.409 95.9087 475.169 95.5387C474.929 95.1687 474.809 94.7537 474.809 94.2937C474.809 93.8137 474.924 93.3937 475.154 93.0337C475.394 92.6737 475.769 92.3937 476.279 92.1937C476.789 91.9837 477.454 91.8787 478.274 91.8787H480.419V93.2437H478.529C477.979 93.2437 477.599 93.3337 477.389 93.5137C477.189 93.6937 477.089 93.9187 477.089 94.1887C477.089 94.4887 477.204 94.7287 477.434 94.9087C477.674 95.0787 477.999 95.1637 478.409 95.1637C478.799 95.1637 479.149 95.0737 479.459 94.8937C479.769 94.7037 479.994 94.4287 480.134 94.0687L480.494 95.1487C480.324 95.6687 480.014 96.0637 479.564 96.3337C479.114 96.6037 478.534 96.7387 477.824 96.7387ZM484.592 96.6187V88.5487H486.827V90.8287L486.512 90.1687C486.752 89.5987 487.137 89.1687 487.667 88.8787C488.197 88.5787 488.842 88.4287 489.602 88.4287V90.5887C489.502 90.5787 489.412 90.5737 489.332 90.5737C489.252 90.5637 489.167 90.5587 489.077 90.5587C488.437 90.5587 487.917 90.7437 487.517 91.1137C487.127 91.4737 486.932 92.0387 486.932 92.8087V96.6187H484.592ZM494.834 96.7387C493.964 96.7387 493.189 96.5637 492.509 96.2137C491.829 95.8537 491.294 95.3587 490.904 94.7287C490.524 94.0987 490.334 93.3837 490.334 92.5837C490.334 91.7737 490.524 91.0587 490.904 90.4387C491.294 89.8087 491.829 89.3187 492.509 88.9687C493.189 88.6087 493.964 88.4287 494.834 88.4287C495.684 88.4287 496.424 88.6087 497.054 88.9687C497.684 89.3187 498.149 89.8237 498.449 90.4837L496.634 91.4587C496.424 91.0787 496.159 90.7987 495.839 90.6187C495.529 90.4387 495.189 90.3487 494.819 90.3487C494.419 90.3487 494.059 90.4387 493.739 90.6187C493.419 90.7987 493.164 91.0537 492.974 91.3837C492.794 91.7137 492.704 92.1137 492.704 92.5837C492.704 93.0537 492.794 93.4537 492.974 93.7837C493.164 94.1137 493.419 94.3687 493.739 94.5487C494.059 94.7287 494.419 94.8187 494.819 94.8187C495.189 94.8187 495.529 94.7337 495.839 94.5637C496.159 94.3837 496.424 94.0987 496.634 93.7087L498.449 94.6987C498.149 95.3487 497.684 95.8537 497.054 96.2137C496.424 96.5637 495.684 96.7387 494.834 96.7387ZM503.699 96.7387C502.779 96.7387 501.969 96.5587 501.269 96.1987C500.579 95.8387 500.044 95.3487 499.664 94.7287C499.284 94.0987 499.094 93.3837 499.094 92.5837C499.094 91.7737 499.279 91.0587 499.649 90.4387C500.029 89.8087 500.544 89.3187 501.194 88.9687C501.844 88.6087 502.579 88.4287 503.399 88.4287C504.189 88.4287 504.899 88.5987 505.529 88.9387C506.169 89.2687 506.674 89.7487 507.044 90.3787C507.414 90.9987 507.599 91.7437 507.599 92.6137C507.599 92.7037 507.594 92.8087 507.584 92.9287C507.574 93.0387 507.564 93.1437 507.554 93.2437H500.999V91.8787H506.324L505.424 92.2837C505.424 91.8637 505.339 91.4987 505.169 91.1887C504.999 90.8787 504.764 90.6387 504.464 90.4687C504.164 90.2887 503.814 90.1987 503.414 90.1987C503.014 90.1987 502.659 90.2887 502.349 90.4687C502.049 90.6387 501.814 90.8837 501.644 91.2037C501.474 91.5137 501.389 91.8837 501.389 92.3137V92.6737C501.389 93.1137 501.484 93.5037 501.674 93.8437C501.874 94.1737 502.149 94.4287 502.499 94.6087C502.859 94.7787 503.279 94.8637 503.759 94.8637C504.189 94.8637 504.564 94.7987 504.884 94.6687C505.214 94.5387 505.514 94.3437 505.784 94.0837L507.029 95.4337C506.659 95.8537 506.194 96.1787 505.634 96.4087C505.074 96.6287 504.429 96.7387 503.699 96.7387ZM509.157 96.6187V88.5487H511.497V96.6187H509.157ZM510.327 87.4237C509.897 87.4237 509.547 87.2987 509.277 87.0487C509.007 86.7987 508.872 86.4887 508.872 86.1187C508.872 85.7487 509.007 85.4387 509.277 85.1887C509.547 84.9387 509.897 84.8137 510.327 84.8137C510.757 84.8137 511.107 84.9337 511.377 85.1737C511.647 85.4037 511.782 85.7037 511.782 86.0737C511.782 86.4637 511.647 86.7887 511.377 87.0487C511.117 87.2987 510.767 87.4237 510.327 87.4237ZM513.669 96.6187V88.5487H515.904V90.8287L515.589 90.1687C515.829 89.5987 516.214 89.1687 516.744 88.8787C517.274 88.5787 517.919 88.4287 518.679 88.4287V90.5887C518.579 90.5787 518.489 90.5737 518.409 90.5737C518.329 90.5637 518.244 90.5587 518.154 90.5587C517.514 90.5587 516.994 90.7437 516.594 91.1137C516.204 91.4737 516.009 92.0387 516.009 92.8087V96.6187H513.669ZM523.852 96.7387C522.992 96.7387 522.227 96.5587 521.557 96.1987C520.897 95.8387 520.372 95.3487 519.982 94.7287C519.602 94.0987 519.412 93.3837 519.412 92.5837C519.412 91.7737 519.602 91.0587 519.982 90.4387C520.372 89.8087 520.897 89.3187 521.557 88.9687C522.227 88.6087 522.992 88.4287 523.852 88.4287C524.702 88.4287 525.462 88.6087 526.132 88.9687C526.802 89.3187 527.327 89.8037 527.707 90.4237C528.087 91.0437 528.277 91.7637 528.277 92.5837C528.277 93.3837 528.087 94.0987 527.707 94.7287C527.327 95.3487 526.802 95.8387 526.132 96.1987C525.462 96.5587 524.702 96.7387 523.852 96.7387ZM523.852 94.8187C524.242 94.8187 524.592 94.7287 524.902 94.5487C525.212 94.3687 525.457 94.1137 525.637 93.7837C525.817 93.4437 525.907 93.0437 525.907 92.5837C525.907 92.1137 525.817 91.7137 525.637 91.3837C525.457 91.0537 525.212 90.7987 524.902 90.6187C524.592 90.4387 524.242 90.3487 523.852 90.3487C523.462 90.3487 523.112 90.4387 522.802 90.6187C522.492 90.7987 522.242 91.0537 522.052 91.3837C521.872 91.7137 521.782 92.1137 521.782 92.5837C521.782 93.0437 521.872 93.4437 522.052 93.7837C522.242 94.1137 522.492 94.3687 522.802 94.5487C523.112 94.7287 523.462 94.8187 523.852 94.8187ZM421.3 114.619V104.119H426.07C427.21 104.119 428.215 104.339 429.085 104.779C429.955 105.209 430.635 105.814 431.125 106.594C431.615 107.374 431.86 108.299 431.86 109.369C431.86 110.429 431.615 111.354 431.125 112.144C430.635 112.924 429.955 113.534 429.085 113.974C428.215 114.404 427.21 114.619 426.07 114.619H421.3ZM423.73 112.624H425.95C426.65 112.624 427.255 112.494 427.765 112.234C428.285 111.964 428.685 111.584 428.965 111.094C429.255 110.604 429.4 110.029 429.4 109.369C429.4 108.699 429.255 108.124 428.965 107.644C428.685 107.154 428.285 106.779 427.765 106.519C427.255 106.249 426.65 106.114 425.95 106.114H423.73V112.624ZM437.367 114.739C436.507 114.739 435.742 114.559 435.072 114.199C434.412 113.839 433.887 113.349 433.497 112.729C433.117 112.099 432.927 111.384 432.927 110.584C432.927 109.774 433.117 109.059 433.497 108.439C433.887 107.809 434.412 107.319 435.072 106.969C435.742 106.609 436.507 106.429 437.367 106.429C438.217 106.429 438.977 106.609 439.647 106.969C440.317 107.319 440.842 107.804 441.222 108.424C441.602 109.044 441.792 109.764 441.792 110.584C441.792 111.384 441.602 112.099 441.222 112.729C440.842 113.349 440.317 113.839 439.647 114.199C438.977 114.559 438.217 114.739 437.367 114.739ZM437.367 112.819C437.757 112.819 438.107 112.729 438.417 112.549C438.727 112.369 438.972 112.114 439.152 111.784C439.332 111.444 439.422 111.044 439.422 110.584C439.422 110.114 439.332 109.714 439.152 109.384C438.972 109.054 438.727 108.799 438.417 108.619C438.107 108.439 437.757 108.349 437.367 108.349C436.977 108.349 436.627 108.439 436.317 108.619C436.007 108.799 435.757 109.054 435.567 109.384C435.387 109.714 435.297 110.114 435.297 110.584C435.297 111.044 435.387 111.444 435.567 111.784C435.757 112.114 436.007 112.369 436.317 112.549C436.627 112.729 436.977 112.819 437.367 112.819ZM443.356 114.619V106.549H445.696V114.619H443.356ZM444.526 105.424C444.096 105.424 443.746 105.299 443.476 105.049C443.206 104.799 443.071 104.489 443.071 104.119C443.071 103.749 443.206 103.439 443.476 103.189C443.746 102.939 444.096 102.814 444.526 102.814C444.956 102.814 445.306 102.934 445.576 103.174C445.846 103.404 445.981 103.704 445.981 104.074C445.981 104.464 445.846 104.789 445.576 105.049C445.316 105.299 444.966 105.424 444.526 105.424ZM450.583 114.739C449.893 114.739 449.228 114.659 448.588 114.499C447.958 114.329 447.458 114.119 447.088 113.869L447.868 112.189C448.238 112.419 448.673 112.609 449.173 112.759C449.683 112.899 450.183 112.969 450.673 112.969C451.213 112.969 451.593 112.904 451.813 112.774C452.043 112.644 452.158 112.464 452.158 112.234C452.158 112.044 452.068 111.904 451.888 111.814C451.718 111.714 451.488 111.639 451.198 111.589C450.908 111.539 450.588 111.489 450.238 111.439C449.898 111.389 449.553 111.324 449.203 111.244C448.853 111.154 448.533 111.024 448.243 110.854C447.953 110.684 447.718 110.454 447.538 110.164C447.368 109.874 447.283 109.499 447.283 109.039C447.283 108.529 447.428 108.079 447.718 107.689C448.018 107.299 448.448 106.994 449.008 106.774C449.568 106.544 450.238 106.429 451.018 106.429C451.568 106.429 452.128 106.489 452.698 106.609C453.268 106.729 453.743 106.904 454.123 107.134L453.343 108.799C452.953 108.569 452.558 108.414 452.158 108.334C451.768 108.244 451.388 108.199 451.018 108.199C450.498 108.199 450.118 108.269 449.878 108.409C449.638 108.549 449.518 108.729 449.518 108.949C449.518 109.149 449.603 109.299 449.773 109.399C449.953 109.499 450.188 109.579 450.478 109.639C450.768 109.699 451.083 109.754 451.423 109.804C451.773 109.844 452.123 109.909 452.473 109.999C452.823 110.089 453.138 110.219 453.418 110.389C453.708 110.549 453.943 110.774 454.123 111.064C454.303 111.344 454.393 111.714 454.393 112.174C454.393 112.674 454.243 113.119 453.943 113.509C453.643 113.889 453.208 114.189 452.638 114.409C452.078 114.629 451.393 114.739 450.583 114.739Z" fill="black"/>
<path d="M769.884 97.6187V87.1187H772.314V95.6387H777.579V97.6187H769.884ZM782.582 97.7387C781.722 97.7387 780.957 97.5587 780.287 97.1987C779.627 96.8387 779.102 96.3487 778.712 95.7287C778.332 95.0987 778.142 94.3837 778.142 93.5837C778.142 92.7737 778.332 92.0587 778.712 91.4387C779.102 90.8087 779.627 90.3187 780.287 89.9687C780.957 89.6087 781.722 89.4287 782.582 89.4287C783.432 89.4287 784.192 89.6087 784.862 89.9687C785.532 90.3187 786.057 90.8037 786.437 91.4237C786.817 92.0437 787.007 92.7637 787.007 93.5837C787.007 94.3837 786.817 95.0987 786.437 95.7287C786.057 96.3487 785.532 96.8387 784.862 97.1987C784.192 97.5587 783.432 97.7387 782.582 97.7387ZM782.582 95.8187C782.972 95.8187 783.322 95.7287 783.632 95.5487C783.942 95.3687 784.187 95.1137 784.367 94.7837C784.547 94.4437 784.637 94.0437 784.637 93.5837C784.637 93.1137 784.547 92.7137 784.367 92.3837C784.187 92.0537 783.942 91.7987 783.632 91.6187C783.322 91.4387 782.972 91.3487 782.582 91.3487C782.192 91.3487 781.842 91.4387 781.532 91.6187C781.222 91.7987 780.972 92.0537 780.782 92.3837C780.602 92.7137 780.512 93.1137 780.512 93.5837C780.512 94.0437 780.602 94.4437 780.782 94.7837C780.972 95.1137 781.222 95.3687 781.532 95.5487C781.842 95.7287 782.192 95.8187 782.582 95.8187ZM792.367 100.649C791.607 100.649 790.872 100.554 790.162 100.364C789.462 100.184 788.877 99.9087 788.407 99.5387L789.337 97.8587C789.677 98.1387 790.107 98.3587 790.627 98.5187C791.157 98.6887 791.677 98.7737 792.187 98.7737C793.017 98.7737 793.617 98.5887 793.987 98.2187C794.367 97.8487 794.557 97.2987 794.557 96.5687V95.3537L794.707 93.3287L794.677 91.2887V89.5487H796.897V96.2687C796.897 97.7687 796.507 98.8737 795.727 99.5837C794.947 100.294 793.827 100.649 792.367 100.649ZM792.007 97.2287C791.257 97.2287 790.577 97.0687 789.967 96.7487C789.367 96.4187 788.882 95.9637 788.512 95.3837C788.152 94.7937 787.972 94.1087 787.972 93.3287C787.972 92.5387 788.152 91.8537 788.512 91.2737C788.882 90.6837 789.367 90.2287 789.967 89.9087C790.577 89.5887 791.257 89.4287 792.007 89.4287C792.687 89.4287 793.287 89.5687 793.807 89.8487C794.327 90.1187 794.732 90.5437 795.022 91.1237C795.312 91.6937 795.457 92.4287 795.457 93.3287C795.457 94.2187 795.312 94.9537 795.022 95.5337C794.732 96.1037 794.327 96.5287 793.807 96.8087C793.287 97.0887 792.687 97.2287 792.007 97.2287ZM792.472 95.3087C792.882 95.3087 793.247 95.2287 793.567 95.0687C793.887 94.8987 794.137 94.6637 794.317 94.3637C794.497 94.0637 794.587 93.7187 794.587 93.3287C794.587 92.9287 794.497 92.5837 794.317 92.2937C794.137 91.9937 793.887 91.7637 793.567 91.6037C793.247 91.4337 792.882 91.3487 792.472 91.3487C792.062 91.3487 791.697 91.4337 791.377 91.6037C791.057 91.7637 790.802 91.9937 790.612 92.2937C790.432 92.5837 790.342 92.9287 790.342 93.3287C790.342 93.7187 790.432 94.0637 790.612 94.3637C790.802 94.6637 791.057 94.8987 791.377 95.0687C791.697 95.2287 792.062 95.3087 792.472 95.3087ZM802.915 97.7387C802.055 97.7387 801.29 97.5587 800.62 97.1987C799.96 96.8387 799.435 96.3487 799.045 95.7287C798.665 95.0987 798.475 94.3837 798.475 93.5837C798.475 92.7737 798.665 92.0587 799.045 91.4387C799.435 90.8087 799.96 90.3187 800.62 89.9687C801.29 89.6087 802.055 89.4287 802.915 89.4287C803.765 89.4287 804.525 89.6087 805.195 89.9687C805.865 90.3187 806.39 90.8037 806.77 91.4237C807.15 92.0437 807.34 92.7637 807.34 93.5837C807.34 94.3837 807.15 95.0987 806.77 95.7287C806.39 96.3487 805.865 96.8387 805.195 97.1987C804.525 97.5587 803.765 97.7387 802.915 97.7387ZM802.915 95.8187C803.305 95.8187 803.655 95.7287 803.965 95.5487C804.275 95.3687 804.52 95.1137 804.7 94.7837C804.88 94.4437 804.97 94.0437 804.97 93.5837C804.97 93.1137 804.88 92.7137 804.7 92.3837C804.52 92.0537 804.275 91.7987 803.965 91.6187C803.655 91.4387 803.305 91.3487 802.915 91.3487C802.525 91.3487 802.175 91.4387 801.865 91.6187C801.555 91.7987 801.305 92.0537 801.115 92.3837C800.935 92.7137 800.845 93.1137 800.845 93.5837C800.845 94.0437 800.935 94.4437 801.115 94.7837C801.305 95.1137 801.555 95.3687 801.865 95.5487C802.175 95.7287 802.525 95.8187 802.915 95.8187ZM813.317 97.6187V87.1187H817.862C818.802 87.1187 819.612 87.2737 820.292 87.5837C820.972 87.8837 821.497 88.3187 821.867 88.8887C822.237 89.4587 822.422 90.1387 822.422 90.9287C822.422 91.7087 822.237 92.3837 821.867 92.9537C821.497 93.5237 820.972 93.9637 820.292 94.2737C819.612 94.5737 818.802 94.7237 817.862 94.7237H814.667L815.747 93.6287V97.6187H813.317ZM815.747 93.8987L814.667 92.7437H817.727C818.477 92.7437 819.037 92.5837 819.407 92.2637C819.777 91.9437 819.962 91.4987 819.962 90.9287C819.962 90.3487 819.777 89.8987 819.407 89.5787C819.037 89.2587 818.477 89.0987 817.727 89.0987H814.667L815.747 87.9437V93.8987ZM828.868 97.6187V96.0437L828.718 95.6987V92.8787C828.718 92.3787 828.563 91.9887 828.253 91.7087C827.953 91.4287 827.488 91.2887 826.858 91.2887C826.428 91.2887 826.003 91.3587 825.583 91.4987C825.173 91.6287 824.823 91.8087 824.533 92.0387L823.693 90.4037C824.133 90.0937 824.663 89.8537 825.283 89.6837C825.903 89.5137 826.533 89.4287 827.173 89.4287C828.403 89.4287 829.358 89.7187 830.038 90.2987C830.718 90.8787 831.058 91.7837 831.058 93.0137V97.6187H828.868ZM826.408 97.7387C825.778 97.7387 825.238 97.6337 824.788 97.4237C824.338 97.2037 823.993 96.9087 823.753 96.5387C823.513 96.1687 823.393 95.7537 823.393 95.2937C823.393 94.8137 823.508 94.3937 823.738 94.0337C823.978 93.6737 824.353 93.3937 824.863 93.1937C825.373 92.9837 826.038 92.8787 826.858 92.8787H829.003V94.2437H827.113C826.563 94.2437 826.183 94.3337 825.973 94.5137C825.773 94.6937 825.673 94.9187 825.673 95.1887C825.673 95.4887 825.788 95.7287 826.018 95.9087C826.258 96.0787 826.583 96.1637 826.993 96.1637C827.383 96.1637 827.733 96.0737 828.043 95.8937C828.353 95.7037 828.578 95.4287 828.718 95.0687L829.078 96.1487C828.908 96.6687 828.598 97.0637 828.148 97.3337C827.698 97.6037 827.118 97.7387 826.408 97.7387ZM833.176 97.6187V89.5487H835.411V91.8287L835.096 91.1687C835.336 90.5987 835.721 90.1687 836.251 89.8787C836.781 89.5787 837.426 89.4287 838.186 89.4287V91.5887C838.086 91.5787 837.996 91.5737 837.916 91.5737C837.836 91.5637 837.751 91.5587 837.661 91.5587C837.021 91.5587 836.501 91.7437 836.101 92.1137C835.711 92.4737 835.516 93.0387 835.516 93.8087V97.6187H833.176ZM843.419 97.7387C842.549 97.7387 841.774 97.5637 841.094 97.2137C840.414 96.8537 839.879 96.3587 839.489 95.7287C839.109 95.0987 838.919 94.3837 838.919 93.5837C838.919 92.7737 839.109 92.0587 839.489 91.4387C839.879 90.8087 840.414 90.3187 841.094 89.9687C841.774 89.6087 842.549 89.4287 843.419 89.4287C844.269 89.4287 845.009 89.6087 845.639 89.9687C846.269 90.3187 846.734 90.8237 847.034 91.4837L845.219 92.4587C845.009 92.0787 844.744 91.7987 844.424 91.6187C844.114 91.4387 843.774 91.3487 843.404 91.3487C843.004 91.3487 842.644 91.4387 842.324 91.6187C842.004 91.7987 841.749 92.0537 841.559 92.3837C841.379 92.7137 841.289 93.1137 841.289 93.5837C841.289 94.0537 841.379 94.4537 841.559 94.7837C841.749 95.1137 842.004 95.3687 842.324 95.5487C842.644 95.7287 843.004 95.8187 843.404 95.8187C843.774 95.8187 844.114 95.7337 844.424 95.5637C844.744 95.3837 845.009 95.0987 845.219 94.7087L847.034 95.6987C846.734 96.3487 846.269 96.8537 845.639 97.2137C845.009 97.5637 844.269 97.7387 843.419 97.7387ZM852.284 97.7387C851.364 97.7387 850.554 97.5587 849.854 97.1987C849.164 96.8387 848.629 96.3487 848.249 95.7287C847.869 95.0987 847.679 94.3837 847.679 93.5837C847.679 92.7737 847.864 92.0587 848.234 91.4387C848.614 90.8087 849.129 90.3187 849.779 89.9687C850.429 89.6087 851.164 89.4287 851.984 89.4287C852.774 89.4287 853.484 89.5987 854.114 89.9387C854.754 90.2687 855.259 90.7487 855.629 91.3787C855.999 91.9987 856.184 92.7437 856.184 93.6137C856.184 93.7037 856.179 93.8087 856.169 93.9287C856.159 94.0387 856.149 94.1437 856.139 94.2437H849.584V92.8787H854.909L854.009 93.2837C854.009 92.8637 853.924 92.4987 853.754 92.1887C853.584 91.8787 853.349 91.6387 853.049 91.4687C852.749 91.2887 852.399 91.1987 851.999 91.1987C851.599 91.1987 851.244 91.2887 850.934 91.4687C850.634 91.6387 850.399 91.8837 850.229 92.2037C850.059 92.5137 849.974 92.8837 849.974 93.3137V93.6737C849.974 94.1137 850.069 94.5037 850.259 94.8437C850.459 95.1737 850.734 95.4287 851.084 95.6087C851.444 95.7787 851.864 95.8637 852.344 95.8637C852.774 95.8637 853.149 95.7987 853.469 95.6687C853.799 95.5387 854.099 95.3437 854.369 95.0837L855.614 96.4337C855.244 96.8537 854.779 97.1787 854.219 97.4087C853.659 97.6287 853.014 97.7387 852.284 97.7387ZM857.741 97.6187V89.5487H860.081V97.6187H857.741ZM858.911 88.4237C858.481 88.4237 858.131 88.2987 857.861 88.0487C857.591 87.7987 857.456 87.4887 857.456 87.1187C857.456 86.7487 857.591 86.4387 857.861 86.1887C858.131 85.9387 858.481 85.8137 858.911 85.8137C859.341 85.8137 859.691 85.9337 859.961 86.1737C860.231 86.4037 860.366 86.7037 860.366 87.0737C860.366 87.4637 860.231 87.7887 859.961 88.0487C859.701 88.2987 859.351 88.4237 858.911 88.4237ZM862.253 97.6187V89.5487H864.488V91.8287L864.173 91.1687C864.413 90.5987 864.798 90.1687 865.328 89.8787C865.858 89.5787 866.503 89.4287 867.263 89.4287V91.5887C867.163 91.5787 867.073 91.5737 866.993 91.5737C866.913 91.5637 866.828 91.5587 866.738 91.5587C866.098 91.5587 865.578 91.7437 865.178 92.1137C864.788 92.4737 864.593 93.0387 864.593 93.8087V97.6187H862.253ZM872.436 97.7387C871.576 97.7387 870.811 97.5587 870.141 97.1987C869.481 96.8387 868.956 96.3487 868.566 95.7287C868.186 95.0987 867.996 94.3837 867.996 93.5837C867.996 92.7737 868.186 92.0587 868.566 91.4387C868.956 90.8087 869.481 90.3187 870.141 89.9687C870.811 89.6087 871.576 89.4287 872.436 89.4287C873.286 89.4287 874.046 89.6087 874.716 89.9687C875.386 90.3187 875.911 90.8037 876.291 91.4237C876.671 92.0437 876.861 92.7637 876.861 93.5837C876.861 94.3837 876.671 95.0987 876.291 95.7287C875.911 96.3487 875.386 96.8387 874.716 97.1987C874.046 97.5587 873.286 97.7387 872.436 97.7387ZM872.436 95.8187C872.826 95.8187 873.176 95.7287 873.486 95.5487C873.796 95.3687 874.041 95.1137 874.221 94.7837C874.401 94.4437 874.491 94.0437 874.491 93.5837C874.491 93.1137 874.401 92.7137 874.221 92.3837C874.041 92.0537 873.796 91.7987 873.486 91.6187C873.176 91.4387 872.826 91.3487 872.436 91.3487C872.046 91.3487 871.696 91.4387 871.386 91.6187C871.076 91.7987 870.826 92.0537 870.636 92.3837C870.456 92.7137 870.366 93.1137 870.366 93.5837C870.366 94.0437 870.456 94.4437 870.636 94.7837C870.826 95.1137 871.076 95.3687 871.386 95.5487C871.696 95.7287 872.046 95.8187 872.436 95.8187ZM772.059 115.619V107.099H768.699V105.119H777.849V107.099H774.489V115.619H772.059ZM778.816 115.619V107.549H781.051V109.829L780.736 109.169C780.976 108.599 781.361 108.169 781.891 107.879C782.421 107.579 783.066 107.429 783.826 107.429V109.589C783.726 109.579 783.636 109.574 783.556 109.574C783.476 109.564 783.391 109.559 783.301 109.559C782.661 109.559 782.141 109.744 781.741 110.114C781.351 110.474 781.156 111.039 781.156 111.809V115.619H778.816ZM789.163 115.739C788.243 115.739 787.433 115.559 786.733 115.199C786.043 114.839 785.508 114.349 785.128 113.729C784.748 113.099 784.558 112.384 784.558 111.584C784.558 110.774 784.743 110.059 785.113 109.439C785.493 108.809 786.008 108.319 786.658 107.969C787.308 107.609 788.043 107.429 788.863 107.429C789.653 107.429 790.363 107.599 790.993 107.939C791.633 108.269 792.138 108.749 792.508 109.379C792.878 109.999 793.063 110.744 793.063 111.614C793.063 111.704 793.058 111.809 793.048 111.929C793.038 112.039 793.028 112.144 793.018 112.244H786.463V110.879H791.788L790.888 111.284C790.888 110.864 790.803 110.499 790.633 110.189C790.463 109.879 790.228 109.639 789.928 109.469C789.628 109.289 789.278 109.199 788.878 109.199C788.478 109.199 788.123 109.289 787.813 109.469C787.513 109.639 787.278 109.884 787.108 110.204C786.938 110.514 786.853 110.884 786.853 111.314V111.674C786.853 112.114 786.948 112.504 787.138 112.844C787.338 113.174 787.613 113.429 787.963 113.609C788.323 113.779 788.743 113.864 789.223 113.864C789.653 113.864 790.028 113.799 790.348 113.669C790.678 113.539 790.978 113.344 791.248 113.084L792.493 114.434C792.123 114.854 791.658 115.179 791.098 115.409C790.538 115.629 789.893 115.739 789.163 115.739ZM785.803 106.514L787.783 104.354H789.853L791.833 106.514H790.123L788.053 104.714H789.583L787.513 106.514H785.803ZM797.336 115.739C796.646 115.739 795.981 115.659 795.341 115.499C794.711 115.329 794.211 115.119 793.841 114.869L794.621 113.189C794.991 113.419 795.426 113.609 795.926 113.759C796.436 113.899 796.936 113.969 797.426 113.969C797.966 113.969 798.346 113.904 798.566 113.774C798.796 113.644 798.911 113.464 798.911 113.234C798.911 113.044 798.821 112.904 798.641 112.814C798.471 112.714 798.241 112.639 797.951 112.589C797.661 112.539 797.341 112.489 796.991 112.439C796.651 112.389 796.306 112.324 795.956 112.244C795.606 112.154 795.286 112.024 794.996 111.854C794.706 111.684 794.471 111.454 794.291 111.164C794.121 110.874 794.036 110.499 794.036 110.039C794.036 109.529 794.181 109.079 794.471 108.689C794.771 108.299 795.201 107.994 795.761 107.774C796.321 107.544 796.991 107.429 797.771 107.429C798.321 107.429 798.881 107.489 799.451 107.609C800.021 107.729 800.496 107.904 800.876 108.134L800.096 109.799C799.706 109.569 799.311 109.414 798.911 109.334C798.521 109.244 798.141 109.199 797.771 109.199C797.251 109.199 796.871 109.269 796.631 109.409C796.391 109.549 796.271 109.729 796.271 109.949C796.271 110.149 796.356 110.299 796.526 110.399C796.706 110.499 796.941 110.579 797.231 110.639C797.521 110.699 797.836 110.754 798.176 110.804C798.526 110.844 798.876 110.909 799.226 110.999C799.576 111.089 799.891 111.219 800.171 111.389C800.461 111.549 800.696 111.774 800.876 112.064C801.056 112.344 801.146 112.714 801.146 113.174C801.146 113.674 800.996 114.119 800.696 114.509C800.396 114.889 799.961 115.189 799.391 115.409C798.831 115.629 798.146 115.739 797.336 115.739Z" fill="black"/>
<path d="M639.172 46.833C636.9 46.833 635.764 45.3496 634.941 44.2598C634.101 43.1548 633.673 42.7158 632.85 42.7158C632.027 42.7158 631.615 43.1699 630.759 44.2598C629.919 45.3496 628.783 46.833 626.527 46.833C624.255 46.833 623.119 45.3496 622.296 44.2598C621.456 43.1548 621.028 42.7158 620.205 42.7158C619.381 42.7158 618.97 43.1699 618.114 44.2598C617.274 45.3496 616.138 46.833 613.882 46.833C611.626 46.833 610.474 45.3345 609.65 44.2598C608.811 43.1548 608.383 42.7158 607.559 42.7158C606.835 42.7158 606.242 42.1709 606.242 41.5049C606.242 40.8389 606.835 40.2939 607.559 40.2939C609.832 40.2939 610.968 41.7773 611.791 42.8672C612.631 43.9722 613.059 44.4111 613.882 44.4111C614.705 44.4111 615.117 43.957 615.973 42.8672C616.813 41.7773 617.949 40.2939 620.205 40.2939C622.46 40.2939 623.613 41.7773 624.436 42.8672C625.276 43.9722 625.704 44.4111 626.527 44.4111C627.351 44.4111 627.762 43.957 628.618 42.8672C629.458 41.7773 630.594 40.2939 632.85 40.2939C635.106 40.2939 636.258 41.7773 637.081 42.8672C637.921 43.9722 638.349 44.4111 639.172 44.4111C639.897 44.4111 640.49 44.9561 640.49 45.6221C640.49 46.2881 639.897 46.833 639.172 46.833ZM639.172 39.2647C636.9 39.2647 635.764 37.7813 634.941 36.6914C634.101 35.5864 633.673 35.1475 632.85 35.1475C632.027 35.1475 631.615 35.6016 630.759 36.6914C629.919 37.7813 628.783 39.2647 626.527 39.2647C624.255 39.2647 623.119 37.7813 622.296 36.6914C621.456 35.5864 621.028 35.1475 620.205 35.1475C619.381 35.1475 618.97 35.6016 618.114 36.6914C617.274 37.7813 616.138 39.2647 613.882 39.2647C611.626 39.2647 610.474 37.7661 609.65 36.6914C608.811 35.5864 608.383 35.1475 607.559 35.1475C606.835 35.1475 606.242 34.6025 606.242 33.9365C606.242 33.2705 606.835 32.7256 607.559 32.7256C609.832 32.7256 610.968 34.209 611.791 35.2988C612.631 36.4038 613.059 36.8428 613.882 36.8428C614.705 36.8428 615.117 36.3887 615.973 35.2988C616.813 34.209 617.949 32.7256 620.205 32.7256C622.46 32.7256 623.613 34.209 624.436 35.2988C625.276 36.4038 625.704 36.8428 626.527 36.8428C627.351 36.8428 627.762 36.3887 628.618 35.2988C629.458 34.209 630.594 32.7256 632.85 32.7256C635.106 32.7256 636.258 34.209 637.081 35.2988C637.921 36.4038 638.349 36.8428 639.172 36.8428C639.897 36.8428 640.49 37.3877 640.49 38.0537C640.49 38.7197 639.897 39.2647 639.172 39.2647Z" fill="#9A2D2F"/>
<path d="M724.403 15.4639C724.403 16.7485 724.958 17.9805 725.946 18.8889C726.934 19.7973 728.275 20.3076 729.672 20.3076C731.069 20.3076 732.41 19.7973 733.398 18.8889C734.386 17.9805 734.941 16.7485 734.941 15.4639C734.941 14.1792 734.386 12.9472 733.398 12.0388C732.41 11.1304 731.069 10.6201 729.672 10.6201C728.275 10.6201 726.934 11.1304 725.946 12.0388C724.958 12.9472 724.403 14.1792 724.403 15.4639Z" fill="#FFEB4D"/>
<path d="M729.672 21.5186C726.033 21.5186 723.086 18.8091 723.086 15.4639C723.086 12.1187 726.033 9.40918 729.672 9.40918C733.311 9.40918 736.258 12.1187 736.258 15.4639C736.258 18.8091 733.311 21.5186 729.672 21.5186ZM729.672 11.8311C727.499 11.8311 725.72 13.4658 725.72 15.4639C725.72 17.4619 727.499 19.0967 729.672 19.0967C731.845 19.0967 733.624 17.4619 733.624 15.4639C733.624 13.4658 731.845 11.8311 729.672 11.8311Z" fill="#9A2D2F"/>
<path d="M733.682 143.087H628.305V58.019L706.68 42.1255L733.682 58.019V143.087Z" fill="#FFACC2"/>
<path d="M639.008 82.1621V67.6309L705.527 52.3428L746.196 66.7378V52.4639L705.527 32.8164L614.145 55.4912V105.972L682.476 94.4229V111.83L614.145 123.652V143.012H746.196V80.8906L705.527 69.5986L639.008 82.1621Z" fill="#FFEB4D"/>
<path d="M705.527 142.936H746.196V80.8149L705.527 69.5229V142.936Z" fill="#DAE5FF"/>
<path d="M748.056 107.834C748.896 108.924 750.032 110.407 752.288 110.407C753.013 110.407 753.605 109.862 753.605 109.196C753.605 108.53 753.013 107.985 752.288 107.985C751.465 107.985 751.053 107.531 750.197 106.441C749.588 105.639 748.797 104.61 747.513 104.125V99.5844C747.678 99.7811 747.842 99.9931 748.056 100.25C748.896 101.34 750.032 102.824 752.288 102.824C753.013 102.824 753.605 102.279 753.605 101.613C753.605 100.947 753.013 100.402 752.288 100.402C751.465 100.402 751.053 99.9476 750.197 98.8578C749.588 98.0556 748.797 97.0263 747.513 96.5419V80.8148C747.513 80.285 747.134 79.8158 746.575 79.6493L735 76.4403V64.0736L745.718 67.8729C746.13 68.0092 746.575 67.9638 746.937 67.7367C747.299 67.5097 747.513 67.1312 747.513 66.7377V52.4789C747.513 52.0248 747.25 51.6161 746.805 51.4042L706.136 31.7567C705.84 31.6205 705.494 31.5751 705.181 31.6659L613.8 54.3407C613.223 54.4769 612.828 54.9613 612.828 55.5062V105.987C612.828 106.35 613.009 106.683 613.306 106.911C613.602 107.138 613.997 107.244 614.392 107.168L627.005 105.034V120.201L613.915 122.471C613.289 122.577 612.845 123.077 612.845 123.667V141.952H607.74C607.016 141.952 606.423 142.497 606.423 143.163C606.423 143.829 607.016 144.374 607.74 144.374H751.975C752.7 144.374 753.292 143.829 753.292 143.163C753.292 142.497 752.7 141.952 751.975 141.952H747.513V107.168C747.678 107.35 747.859 107.577 748.056 107.834ZM706.844 71.2333L732.365 78.3173L735 79.0438L744.879 81.7836V141.725H706.844V71.2333ZM732.365 75.7138L705.906 68.3724C705.543 68.2665 705.148 68.327 704.819 68.5087L640.325 80.6786V68.5844L705.445 53.6141L732.365 63.1351V75.7138ZM629.623 104.595L681.159 95.891V110.831L629.623 119.746V104.595ZM615.463 124.651L626.988 122.653L629.623 122.199L682.723 113.011C683.348 112.905 683.793 112.405 683.793 111.815V94.4227C683.793 94.0595 683.612 93.7265 683.316 93.4994C683.019 93.2724 682.624 93.1815 682.229 93.2421L629.623 102.127L626.988 102.566L615.463 104.519V56.4296L705.379 34.1181L744.879 53.2055V64.9818L735 61.4852L732.365 60.5468L706.005 51.2225C705.758 51.1317 705.478 51.1166 705.214 51.1771L638.695 66.4652C638.102 66.6014 637.691 67.0858 637.691 67.6459V82.1771C637.691 82.5404 637.872 82.8886 638.168 83.1156C638.464 83.3427 638.876 83.4335 639.271 83.3578L704.21 71.0971V141.801H615.463V124.651Z" fill="#9A2D2F"/>
<path d="M615.463 56.4297V83.2217C617.998 83.6909 620.682 83.7515 623.366 83.1309C633.739 80.6939 622.329 68.4028 624.733 61.5308C627.153 54.6738 647.076 59.1089 657.613 50.6323C670.456 40.3091 681.488 50.2085 696.307 43.5635C702.53 40.7783 705.017 37.3574 705.807 34.3301L705.362 34.1182L615.463 56.4297Z" fill="white"/>
<path d="M1095.71 95.6187V85.1187H1098.14V93.6387H1103.41V95.6187H1095.71ZM1108.41 95.7387C1107.55 95.7387 1106.79 95.5587 1106.12 95.1987C1105.46 94.8387 1104.93 94.3487 1104.54 93.7287C1104.16 93.0987 1103.97 92.3837 1103.97 91.5837C1103.97 90.7737 1104.16 90.0587 1104.54 89.4387C1104.93 88.8087 1105.46 88.3187 1106.12 87.9687C1106.79 87.6087 1107.55 87.4287 1108.41 87.4287C1109.26 87.4287 1110.02 87.6087 1110.69 87.9687C1111.36 88.3187 1111.89 88.8037 1112.27 89.4237C1112.65 90.0437 1112.84 90.7637 1112.84 91.5837C1112.84 92.3837 1112.65 93.0987 1112.27 93.7287C1111.89 94.3487 1111.36 94.8387 1110.69 95.1987C1110.02 95.5587 1109.26 95.7387 1108.41 95.7387ZM1108.41 93.8187C1108.8 93.8187 1109.15 93.7287 1109.46 93.5487C1109.77 93.3687 1110.02 93.1137 1110.2 92.7837C1110.38 92.4437 1110.47 92.0437 1110.47 91.5837C1110.47 91.1137 1110.38 90.7137 1110.2 90.3837C1110.02 90.0537 1109.77 89.7987 1109.46 89.6187C1109.15 89.4387 1108.8 89.3487 1108.41 89.3487C1108.02 89.3487 1107.67 89.4387 1107.36 89.6187C1107.05 89.7987 1106.8 90.0537 1106.61 90.3837C1106.43 90.7137 1106.34 91.1137 1106.34 91.5837C1106.34 92.0437 1106.43 92.4437 1106.61 92.7837C1106.8 93.1137 1107.05 93.3687 1107.36 93.5487C1107.67 93.7287 1108.02 93.8187 1108.41 93.8187ZM1118.19 98.6487C1117.43 98.6487 1116.7 98.5537 1115.99 98.3637C1115.29 98.1837 1114.7 97.9087 1114.23 97.5387L1115.16 95.8587C1115.5 96.1387 1115.93 96.3587 1116.45 96.5187C1116.98 96.6887 1117.5 96.7737 1118.01 96.7737C1118.84 96.7737 1119.44 96.5887 1119.81 96.2187C1120.19 95.8487 1120.38 95.2987 1120.38 94.5687V93.3537L1120.53 91.3287L1120.5 89.2887V87.5487H1122.72V94.2687C1122.72 95.7687 1122.33 96.8737 1121.55 97.5837C1120.77 98.2937 1119.65 98.6487 1118.19 98.6487ZM1117.83 95.2287C1117.08 95.2287 1116.4 95.0687 1115.79 94.7487C1115.19 94.4187 1114.71 93.9637 1114.34 93.3837C1113.98 92.7937 1113.8 92.1087 1113.8 91.3287C1113.8 90.5387 1113.98 89.8537 1114.34 89.2737C1114.71 88.6837 1115.19 88.2287 1115.79 87.9087C1116.4 87.5887 1117.08 87.4287 1117.83 87.4287C1118.51 87.4287 1119.11 87.5687 1119.63 87.8487C1120.15 88.1187 1120.56 88.5437 1120.85 89.1237C1121.14 89.6937 1121.28 90.4287 1121.28 91.3287C1121.28 92.2187 1121.14 92.9537 1120.85 93.5337C1120.56 94.1037 1120.15 94.5287 1119.63 94.8087C1119.11 95.0887 1118.51 95.2287 1117.83 95.2287ZM1118.3 93.3087C1118.71 93.3087 1119.07 93.2287 1119.39 93.0687C1119.71 92.8987 1119.96 92.6637 1120.14 92.3637C1120.32 92.0637 1120.41 91.7187 1120.41 91.3287C1120.41 90.9287 1120.32 90.5837 1120.14 90.2937C1119.96 89.9937 1119.71 89.7637 1119.39 89.6037C1119.07 89.4337 1118.71 89.3487 1118.3 89.3487C1117.89 89.3487 1117.52 89.4337 1117.2 89.6037C1116.88 89.7637 1116.63 89.9937 1116.44 90.2937C1116.26 90.5837 1116.17 90.9287 1116.17 91.3287C1116.17 91.7187 1116.26 92.0637 1116.44 92.3637C1116.63 92.6637 1116.88 92.8987 1117.2 93.0687C1117.52 93.2287 1117.89 93.3087 1118.3 93.3087ZM1128.74 95.7387C1127.88 95.7387 1127.12 95.5587 1126.45 95.1987C1125.79 94.8387 1125.26 94.3487 1124.87 93.7287C1124.49 93.0987 1124.3 92.3837 1124.3 91.5837C1124.3 90.7737 1124.49 90.0587 1124.87 89.4387C1125.26 88.8087 1125.79 88.3187 1126.45 87.9687C1127.12 87.6087 1127.88 87.4287 1128.74 87.4287C1129.59 87.4287 1130.35 87.6087 1131.02 87.9687C1131.69 88.3187 1132.22 88.8037 1132.6 89.4237C1132.98 90.0437 1133.17 90.7637 1133.17 91.5837C1133.17 92.3837 1132.98 93.0987 1132.6 93.7287C1132.22 94.3487 1131.69 94.8387 1131.02 95.1987C1130.35 95.5587 1129.59 95.7387 1128.74 95.7387ZM1128.74 93.8187C1129.13 93.8187 1129.48 93.7287 1129.79 93.5487C1130.1 93.3687 1130.35 93.1137 1130.53 92.7837C1130.71 92.4437 1130.8 92.0437 1130.8 91.5837C1130.8 91.1137 1130.71 90.7137 1130.53 90.3837C1130.35 90.0537 1130.1 89.7987 1129.79 89.6187C1129.48 89.4387 1129.13 89.3487 1128.74 89.3487C1128.35 89.3487 1128 89.4387 1127.69 89.6187C1127.38 89.7987 1127.13 90.0537 1126.94 90.3837C1126.76 90.7137 1126.67 91.1137 1126.67 91.5837C1126.67 92.0437 1126.76 92.4437 1126.94 92.7837C1127.13 93.1137 1127.38 93.3687 1127.69 93.5487C1128 93.7287 1128.35 93.8187 1128.74 93.8187ZM1139.14 95.6187V85.1187H1143.69C1144.63 85.1187 1145.44 85.2737 1146.12 85.5837C1146.8 85.8837 1147.32 86.3187 1147.69 86.8887C1148.06 87.4587 1148.25 88.1387 1148.25 88.9287C1148.25 89.7087 1148.06 90.3837 1147.69 90.9537C1147.32 91.5237 1146.8 91.9637 1146.12 92.2737C1145.44 92.5737 1144.63 92.7237 1143.69 92.7237H1140.49L1141.57 91.6287V95.6187H1139.14ZM1141.57 91.8987L1140.49 90.7437H1143.55C1144.3 90.7437 1144.86 90.5837 1145.23 90.2637C1145.6 89.9437 1145.79 89.4987 1145.79 88.9287C1145.79 88.3487 1145.6 87.8987 1145.23 87.5787C1144.86 87.2587 1144.3 87.0987 1143.55 87.0987H1140.49L1141.57 85.9437V91.8987ZM1154.7 95.6187V94.0437L1154.55 93.6987V90.8787C1154.55 90.3787 1154.39 89.9887 1154.08 89.7087C1153.78 89.4287 1153.32 89.2887 1152.69 89.2887C1152.26 89.2887 1151.83 89.3587 1151.41 89.4987C1151 89.6287 1150.65 89.8087 1150.36 90.0387L1149.52 88.4037C1149.96 88.0937 1150.49 87.8537 1151.11 87.6837C1151.73 87.5137 1152.36 87.4287 1153 87.4287C1154.23 87.4287 1155.19 87.7187 1155.87 88.2987C1156.55 88.8787 1156.89 89.7837 1156.89 91.0137V95.6187H1154.7ZM1152.24 95.7387C1151.61 95.7387 1151.07 95.6337 1150.62 95.4237C1150.17 95.2037 1149.82 94.9087 1149.58 94.5387C1149.34 94.1687 1149.22 93.7537 1149.22 93.2937C1149.22 92.8137 1149.34 92.3937 1149.57 92.0337C1149.81 91.6737 1150.18 91.3937 1150.69 91.1937C1151.2 90.9837 1151.87 90.8787 1152.69 90.8787H1154.83V92.2437H1152.94C1152.39 92.2437 1152.01 92.3337 1151.8 92.5137C1151.6 92.6937 1151.5 92.9187 1151.5 93.1887C1151.5 93.4887 1151.62 93.7287 1151.85 93.9087C1152.09 94.0787 1152.41 94.1637 1152.82 94.1637C1153.21 94.1637 1153.56 94.0737 1153.87 93.8937C1154.18 93.7037 1154.41 93.4287 1154.55 93.0687L1154.91 94.1487C1154.74 94.6687 1154.43 95.0637 1153.98 95.3337C1153.53 95.6037 1152.95 95.7387 1152.24 95.7387ZM1159 95.6187V87.5487H1161.24V89.8287L1160.92 89.1687C1161.16 88.5987 1161.55 88.1687 1162.08 87.8787C1162.61 87.5787 1163.25 87.4287 1164.01 87.4287V89.5887C1163.91 89.5787 1163.82 89.5737 1163.74 89.5737C1163.66 89.5637 1163.58 89.5587 1163.49 89.5587C1162.85 89.5587 1162.33 89.7437 1161.93 90.1137C1161.54 90.4737 1161.34 91.0387 1161.34 91.8087V95.6187H1159ZM1169.25 95.7387C1168.38 95.7387 1167.6 95.5637 1166.92 95.2137C1166.24 94.8537 1165.71 94.3587 1165.32 93.7287C1164.94 93.0987 1164.75 92.3837 1164.75 91.5837C1164.75 90.7737 1164.94 90.0587 1165.32 89.4387C1165.71 88.8087 1166.24 88.3187 1166.92 87.9687C1167.6 87.6087 1168.38 87.4287 1169.25 87.4287C1170.1 87.4287 1170.84 87.6087 1171.47 87.9687C1172.1 88.3187 1172.56 88.8237 1172.86 89.4837L1171.05 90.4587C1170.84 90.0787 1170.57 89.7987 1170.25 89.6187C1169.94 89.4387 1169.6 89.3487 1169.23 89.3487C1168.83 89.3487 1168.47 89.4387 1168.15 89.6187C1167.83 89.7987 1167.58 90.0537 1167.39 90.3837C1167.21 90.7137 1167.12 91.1137 1167.12 91.5837C1167.12 92.0537 1167.21 92.4537 1167.39 92.7837C1167.58 93.1137 1167.83 93.3687 1168.15 93.5487C1168.47 93.7287 1168.83 93.8187 1169.23 93.8187C1169.6 93.8187 1169.94 93.7337 1170.25 93.5637C1170.57 93.3837 1170.84 93.0987 1171.05 92.7087L1172.86 93.6987C1172.56 94.3487 1172.1 94.8537 1171.47 95.2137C1170.84 95.5637 1170.1 95.7387 1169.25 95.7387ZM1178.11 95.7387C1177.19 95.7387 1176.38 95.5587 1175.68 95.1987C1174.99 94.8387 1174.46 94.3487 1174.08 93.7287C1173.7 93.0987 1173.51 92.3837 1173.51 91.5837C1173.51 90.7737 1173.69 90.0587 1174.06 89.4387C1174.44 88.8087 1174.96 88.3187 1175.61 87.9687C1176.26 87.6087 1176.99 87.4287 1177.81 87.4287C1178.6 87.4287 1179.31 87.5987 1179.94 87.9387C1180.58 88.2687 1181.09 88.7487 1181.46 89.3787C1181.83 89.9987 1182.01 90.7437 1182.01 91.6137C1182.01 91.7037 1182.01 91.8087 1182 91.9287C1181.99 92.0387 1181.98 92.1437 1181.97 92.2437H1175.41V90.8787H1180.74L1179.84 91.2837C1179.84 90.8637 1179.75 90.4987 1179.58 90.1887C1179.41 89.8787 1179.18 89.6387 1178.88 89.4687C1178.58 89.2887 1178.23 89.1987 1177.83 89.1987C1177.43 89.1987 1177.07 89.2887 1176.76 89.4687C1176.46 89.6387 1176.23 89.8837 1176.06 90.2037C1175.89 90.5137 1175.8 90.8837 1175.8 91.3137V91.6737C1175.8 92.1137 1175.9 92.5037 1176.09 92.8437C1176.29 93.1737 1176.56 93.4287 1176.91 93.6087C1177.27 93.7787 1177.69 93.8637 1178.17 93.8637C1178.6 93.8637 1178.98 93.7987 1179.3 93.6687C1179.63 93.5387 1179.93 93.3437 1180.2 93.0837L1181.44 94.4337C1181.07 94.8537 1180.61 95.1787 1180.05 95.4087C1179.49 95.6287 1178.84 95.7387 1178.11 95.7387ZM1183.57 95.6187V87.5487H1185.91V95.6187H1183.57ZM1184.74 86.4237C1184.31 86.4237 1183.96 86.2987 1183.69 86.0487C1183.42 85.7987 1183.28 85.4887 1183.28 85.1187C1183.28 84.7487 1183.42 84.4387 1183.69 84.1887C1183.96 83.9387 1184.31 83.8137 1184.74 83.8137C1185.17 83.8137 1185.52 83.9337 1185.79 84.1737C1186.06 84.4037 1186.19 84.7037 1186.19 85.0737C1186.19 85.4637 1186.06 85.7887 1185.79 86.0487C1185.53 86.2987 1185.18 86.4237 1184.74 86.4237ZM1188.08 95.6187V87.5487H1190.32V89.8287L1190 89.1687C1190.24 88.5987 1190.63 88.1687 1191.16 87.8787C1191.69 87.5787 1192.33 87.4287 1193.09 87.4287V89.5887C1192.99 89.5787 1192.9 89.5737 1192.82 89.5737C1192.74 89.5637 1192.66 89.5587 1192.57 89.5587C1191.93 89.5587 1191.41 89.7437 1191.01 90.1137C1190.62 90.4737 1190.42 91.0387 1190.42 91.8087V95.6187H1188.08ZM1198.26 95.7387C1197.4 95.7387 1196.64 95.5587 1195.97 95.1987C1195.31 94.8387 1194.78 94.3487 1194.39 93.7287C1194.01 93.0987 1193.82 92.3837 1193.82 91.5837C1193.82 90.7737 1194.01 90.0587 1194.39 89.4387C1194.78 88.8087 1195.31 88.3187 1195.97 87.9687C1196.64 87.6087 1197.4 87.4287 1198.26 87.4287C1199.11 87.4287 1199.87 87.6087 1200.54 87.9687C1201.21 88.3187 1201.74 88.8037 1202.12 89.4237C1202.5 90.0437 1202.69 90.7637 1202.69 91.5837C1202.69 92.3837 1202.5 93.0987 1202.12 93.7287C1201.74 94.3487 1201.21 94.8387 1200.54 95.1987C1199.87 95.5587 1199.11 95.7387 1198.26 95.7387ZM1198.26 93.8187C1198.65 93.8187 1199 93.7287 1199.31 93.5487C1199.62 93.3687 1199.87 93.1137 1200.05 92.7837C1200.23 92.4437 1200.32 92.0437 1200.32 91.5837C1200.32 91.1137 1200.23 90.7137 1200.05 90.3837C1199.87 90.0537 1199.62 89.7987 1199.31 89.6187C1199 89.4387 1198.65 89.3487 1198.26 89.3487C1197.87 89.3487 1197.52 89.4387 1197.21 89.6187C1196.9 89.7987 1196.65 90.0537 1196.46 90.3837C1196.28 90.7137 1196.19 91.1137 1196.19 91.5837C1196.19 92.0437 1196.28 92.4437 1196.46 92.7837C1196.65 93.1137 1196.9 93.3687 1197.21 93.5487C1197.52 93.7287 1197.87 93.8187 1198.26 93.8187ZM1100.8 113.799C1099.98 113.799 1099.21 113.664 1098.5 113.394C1097.8 113.124 1097.19 112.744 1096.67 112.254C1096.16 111.764 1095.76 111.189 1095.47 110.529C1095.19 109.869 1095.05 109.149 1095.05 108.369C1095.05 107.589 1095.19 106.869 1095.47 106.209C1095.76 105.549 1096.17 104.974 1096.69 104.484C1097.21 103.994 1097.82 103.614 1098.52 103.344C1099.22 103.074 1099.98 102.939 1100.8 102.939C1101.63 102.939 1102.39 103.074 1103.08 103.344C1103.78 103.614 1104.38 103.994 1104.89 104.484C1105.41 104.964 1105.82 105.534 1106.11 106.194C1106.4 106.854 1106.54 107.579 1106.54 108.369C1106.54 109.149 1106.4 109.874 1106.11 110.544C1105.82 111.204 1105.41 111.779 1104.89 112.269C1104.38 112.749 1103.78 113.124 1103.08 113.394C1102.39 113.664 1101.63 113.799 1100.8 113.799ZM1104.23 116.034C1103.82 116.034 1103.43 115.989 1103.06 115.899C1102.7 115.809 1102.34 115.664 1101.98 115.464C1101.63 115.264 1101.26 114.994 1100.87 114.654C1100.49 114.314 1100.08 113.894 1099.63 113.394L1102.18 112.749C1102.45 113.119 1102.7 113.414 1102.93 113.634C1103.16 113.854 1103.38 114.009 1103.59 114.099C1103.81 114.189 1104.04 114.234 1104.28 114.234C1104.92 114.234 1105.49 113.974 1105.99 113.454L1107.07 114.744C1106.36 115.604 1105.41 116.034 1104.23 116.034ZM1100.8 111.729C1101.27 111.729 1101.7 111.649 1102.09 111.489C1102.49 111.329 1102.84 111.099 1103.14 110.799C1103.44 110.499 1103.67 110.144 1103.83 109.734C1104 109.314 1104.08 108.859 1104.08 108.369C1104.08 107.869 1104 107.414 1103.83 107.004C1103.67 106.594 1103.44 106.239 1103.14 105.939C1102.84 105.639 1102.49 105.409 1102.09 105.249C1101.7 105.089 1101.27 105.009 1100.8 105.009C1100.33 105.009 1099.89 105.089 1099.49 105.249C1099.09 105.409 1098.74 105.639 1098.44 105.939C1098.15 106.239 1097.92 106.594 1097.75 107.004C1097.59 107.414 1097.51 107.869 1097.51 108.369C1097.51 108.859 1097.59 109.314 1097.75 109.734C1097.92 110.144 1098.15 110.499 1098.44 110.799C1098.74 111.099 1099.09 111.329 1099.49 111.489C1099.89 111.649 1100.33 111.729 1100.8 111.729ZM1111.61 113.739C1110.94 113.739 1110.34 113.609 1109.81 113.349C1109.29 113.089 1108.88 112.694 1108.59 112.164C1108.3 111.624 1108.16 110.939 1108.16 110.109V105.549H1110.5V109.764C1110.5 110.434 1110.64 110.929 1110.92 111.249C1111.21 111.559 1111.61 111.714 1112.13 111.714C1112.49 111.714 1112.81 111.639 1113.09 111.489C1113.37 111.329 1113.59 111.089 1113.75 110.769C1113.91 110.439 1113.99 110.029 1113.99 109.539V105.549H1116.33V113.619H1114.11V111.399L1114.52 112.044C1114.25 112.604 1113.85 113.029 1113.32 113.319C1112.8 113.599 1112.23 113.739 1111.61 113.739ZM1123.45 113.619V112.044L1123.3 111.699V108.879C1123.3 108.379 1123.15 107.989 1122.84 107.709C1122.54 107.429 1122.07 107.289 1121.44 107.289C1121.01 107.289 1120.59 107.359 1120.17 107.499C1119.76 107.629 1119.41 107.809 1119.12 108.039L1118.28 106.404C1118.72 106.094 1119.25 105.854 1119.87 105.684C1120.49 105.514 1121.12 105.429 1121.76 105.429C1122.99 105.429 1123.94 105.719 1124.62 106.299C1125.3 106.879 1125.64 107.784 1125.64 109.014V113.619H1123.45ZM1120.99 113.739C1120.36 113.739 1119.82 113.634 1119.37 113.424C1118.92 113.204 1118.58 112.909 1118.34 112.539C1118.1 112.169 1117.98 111.754 1117.98 111.294C1117.98 110.814 1118.09 110.394 1118.32 110.034C1118.56 109.674 1118.94 109.394 1119.45 109.194C1119.96 108.984 1120.62 108.879 1121.44 108.879H1123.59V110.244H1121.7C1121.15 110.244 1120.77 110.334 1120.56 110.514C1120.36 110.694 1120.26 110.919 1120.26 111.189C1120.26 111.489 1120.37 111.729 1120.6 111.909C1120.84 112.079 1121.17 112.164 1121.58 112.164C1121.97 112.164 1122.32 112.074 1122.63 111.894C1122.94 111.704 1123.16 111.429 1123.3 111.069L1123.66 112.149C1123.49 112.669 1123.18 113.064 1122.73 113.334C1122.28 113.604 1121.7 113.739 1120.99 113.739ZM1131.06 113.739C1130.11 113.739 1129.37 113.499 1128.84 113.019C1128.31 112.529 1128.04 111.804 1128.04 110.844V103.764H1130.38V110.814C1130.38 111.154 1130.47 111.419 1130.65 111.609C1130.83 111.789 1131.08 111.879 1131.39 111.879C1131.76 111.879 1132.07 111.779 1132.33 111.579L1132.96 113.229C1132.72 113.399 1132.43 113.529 1132.09 113.619C1131.76 113.699 1131.42 113.739 1131.06 113.739ZM1126.8 107.529V105.729H1132.39V107.529H1126.8ZM1134.28 113.619V105.549H1136.51V107.829L1136.2 107.169C1136.44 106.599 1136.82 106.169 1137.35 105.879C1137.88 105.579 1138.53 105.429 1139.29 105.429V107.589C1139.19 107.579 1139.1 107.574 1139.02 107.574C1138.94 107.564 1138.85 107.559 1138.76 107.559C1138.12 107.559 1137.6 107.744 1137.2 108.114C1136.81 108.474 1136.62 109.039 1136.62 109.809V113.619H1134.28ZM1144.46 113.739C1143.6 113.739 1142.84 113.559 1142.17 113.199C1141.51 112.839 1140.98 112.349 1140.59 111.729C1140.21 111.099 1140.02 110.384 1140.02 109.584C1140.02 108.774 1140.21 108.059 1140.59 107.439C1140.98 106.809 1141.51 106.319 1142.17 105.969C1142.84 105.609 1143.6 105.429 1144.46 105.429C1145.31 105.429 1146.07 105.609 1146.74 105.969C1147.41 106.319 1147.94 106.804 1148.32 107.424C1148.7 108.044 1148.89 108.764 1148.89 109.584C1148.89 110.384 1148.7 111.099 1148.32 111.729C1147.94 112.349 1147.41 112.839 1146.74 113.199C1146.07 113.559 1145.31 113.739 1144.46 113.739ZM1144.46 111.819C1144.85 111.819 1145.2 111.729 1145.51 111.549C1145.82 111.369 1146.07 111.114 1146.25 110.784C1146.43 110.444 1146.52 110.044 1146.52 109.584C1146.52 109.114 1146.43 108.714 1146.25 108.384C1146.07 108.054 1145.82 107.799 1145.51 107.619C1145.2 107.439 1144.85 107.349 1144.46 107.349C1144.07 107.349 1143.72 107.439 1143.41 107.619C1143.1 107.799 1142.85 108.054 1142.66 108.384C1142.48 108.714 1142.39 109.114 1142.39 109.584C1142.39 110.044 1142.48 110.444 1142.66 110.784C1142.85 111.114 1143.1 111.369 1143.41 111.549C1143.72 111.729 1144.07 111.819 1144.46 111.819Z" fill="black"/>
<path d="M1072.12 142.744H954.52C947.84 142.744 942.414 136.664 942.414 129.181V33.1816C942.414 25.6979 947.84 19.6187 954.52 19.6187H1072.1C1078.78 19.6187 1084.21 25.6979 1084.21 33.1816V129.181C1084.22 136.664 1078.8 142.744 1072.12 142.744Z" fill="white"/>
<path d="M1077.35 33.0854C1077.35 29.9111 1075.04 27.314 1072.2 27.314H954.435C951.601 27.314 949.283 29.9111 949.283 33.0854V56.1906H1077.34V33.0854H1077.35ZM965.785 51.5734C960.943 51.5734 956.993 47.1486 956.993 41.7234C956.993 36.2982 960.943 31.8734 965.785 31.8734C970.628 31.8734 974.578 36.2982 974.578 41.7234C974.578 47.1486 970.645 51.5734 965.785 51.5734ZM1014.18 50.2652H989.689C985.551 50.2652 982.185 46.4945 982.185 41.8581C982.185 37.2217 985.551 33.451 989.689 33.451H1014.18C1018.32 33.451 1021.68 37.2217 1021.68 41.8581C1021.68 46.4945 1018.32 50.2652 1014.18 50.2652Z" fill="#E6E6E6"/>
<path d="M961.973 128.257H1013.28C1014.23 128.257 1015 127.392 1015 126.333C1015 125.275 1014.23 124.41 1013.28 124.41H961.973C960.514 124.41 959.329 123.082 959.329 121.447V84.3555C959.329 83.2974 958.556 82.4316 957.612 82.4316C956.667 82.4316 955.894 83.2974 955.894 84.3555V121.466C955.911 125.198 958.625 128.257 961.973 128.257Z" fill="#06F3FF"/>
<path d="M965.785 35.7212C962.832 35.7212 960.428 38.4146 960.428 41.7235C960.428 45.0325 962.832 47.7259 965.785 47.7259C968.739 47.7259 971.143 45.0325 971.143 41.7235C971.143 38.4146 968.739 35.7212 965.785 35.7212Z" fill="white"/>
<path d="M965.785 31.8735C960.943 31.8735 956.993 36.2983 956.993 41.7235C956.993 47.1487 960.943 51.5735 965.785 51.5735C970.628 51.5735 974.578 47.1487 974.578 41.7235C974.578 36.2983 970.645 31.8735 965.785 31.8735ZM965.785 47.7259C962.832 47.7259 960.428 45.0325 960.428 41.7235C960.428 38.4146 962.832 35.7212 965.785 35.7212C968.739 35.7212 971.143 38.4146 971.143 41.7235C971.143 45.0325 968.739 47.7259 965.785 47.7259Z" fill="#005BFF"/>
<path d="M1014.18 37.3179H989.689C987.457 37.3179 985.619 39.3571 985.619 41.8773C985.619 44.3976 987.44 46.4368 989.689 46.4368H1014.18C1016.41 46.4368 1018.25 44.3976 1018.25 41.8773C1018.25 39.3571 1016.41 37.3179 1014.18 37.3179Z" fill="white"/>
<path d="M1014.18 33.4702H989.689C985.551 33.4702 982.185 37.2409 982.185 41.8773C982.185 46.5138 985.551 50.2845 989.689 50.2845H1014.18C1018.32 50.2845 1021.68 46.5138 1021.68 41.8773C1021.68 37.2409 1018.32 33.4702 1014.18 33.4702ZM1014.18 46.4176H989.689C987.457 46.4176 985.619 44.3783 985.619 41.8581C985.619 39.3379 987.44 37.2986 989.689 37.2986H1014.18C1016.41 37.2986 1018.25 39.3379 1018.25 41.8581C1018.25 44.3783 1016.41 46.4176 1014.18 46.4176Z" fill="#005BFF"/>
<path d="M1072.2 19.6187H954.435C947.806 19.6187 942.414 25.6595 942.414 33.0854V129.277C942.414 136.703 947.806 142.744 954.435 142.744H1072.18C1078.81 142.744 1084.21 136.703 1084.21 129.277V33.0854C1084.22 25.6595 1078.83 19.6187 1072.2 19.6187ZM1077.35 129.277C1077.35 132.451 1075.04 135.048 1072.2 135.048H954.435C951.601 135.048 949.283 132.451 949.283 129.277V60.0383H1077.34V129.277H1077.35ZM1077.35 56.1906H949.3V33.0854C949.3 29.9111 951.618 27.314 954.452 27.314H1072.2C1075.04 27.314 1077.35 29.9111 1077.35 33.0854V56.1906Z" fill="#005BFF"/>
<path d="M1004.32 103.594L984.692 94.8789L1004.32 86.4718V77.526L976.192 91.1659V98.765L1004.32 112.463V103.594ZM1023 70.9272H1017.1L1006.93 118.484H1012.73L1023 70.9272ZM1053.78 91.2236L1025.61 77.5837V86.3948L1045.26 94.9559L1025.61 103.613V112.501L1053.78 98.765V91.2236Z" fill="#005BFF"/>
</svg>
