<svg xmlns="http://www.w3.org/2000/svg" xmlns:xlink="http://www.w3.org/1999/xlink" viewBox="0 0 811.12 482"><defs><style>.cls-1,.cls-11,.cls-12,.cls-8{fill:none;}.cls-1,.cls-10{stroke:#2e6ab7;}.cls-1,.cls-8{stroke-miterlimit:10;}.cls-1{stroke-width:5px;}.cls-2{fill:#d6f7fc;}.cls-3{clip-path:url(#clip-path);}.cls-4{fill:#97e9fc;}.cls-5{fill:#60d4f4;}.cls-10,.cls-6{fill:#fff;}.cls-7{fill:#2e6ab7;}.cls-8{stroke:#1d1d1b;}.cls-9{fill:#339fce;}.cls-10,.cls-11,.cls-12{stroke-linecap:round;stroke-linejoin:round;}.cls-10{stroke-width:9px;}.cls-11{stroke:#97e9fc;}.cls-11,.cls-12{stroke-width:4px;}.cls-12{stroke:#283583;}</style><clipPath id="clip-path" transform="translate(369.8 246.72)"><path class="cls-1" d="M188.59,71.18c-1.12-5.88-2.65-12.18-7.18-16.53-5-4.83-14.54-5.55-21-7.17-8.72-2.18-18.15-2.15-27.09-2.37-12.11-.31-82.18,5.6-91.24,5.94-6.09.32-12.42.55-17.93,2.78-13,5.27-17.59,22.92-19,35.66-1.05,9.46-2.18,18.56-2.46,28A272.07,272.07,0,0,0,3.7,153c1.64,16,6.77,38.88,25.17,42.67,6.75,1.38,13.2,1,20,1.2,1.41.21,2.84.42,4.31.69,3.27.59,6.19,2.11,9.37,3.39,6.71,2.7,10.21,7.92,14.94,13,1.86,2,3.78,5.75,6.08,8.64a17.82,17.82,0,0,0,1.33,2c2.66,3.54,5.3,3.77,9.38,1.87,3.82-1.77,6.47-5.7,9.45-8.55,2.79-2.65,5-5.7,7.9-8.31,3-2.78,6.27-5.27,9.33-8l1-.85a41.87,41.87,0,0,1,9.77-4.06c7.39-1.88,15-2.16,22.59-3.31,1.16-.18,2.45-.32,3.77-.49,1.12-.05,2.22-.12,3.31-.23,6.2-.61,12.53-2.45,17.38-6.37,6.35-5.14,8.95-12.88,10.69-20.72,1-4.5.77-9,1.24-13.54.54-5.33,1.3-10.69,1.68-16a230.47,230.47,0,0,0-.33-36.5C191.08,90.16,190.37,80.5,188.59,71.18Z"/></clipPath></defs><g id="Layer_2" data-name="Layer 2"><g id="Layer_29" data-name="Layer 29"><path class="cls-2" d="M93,228.16c2.33,3.2,10.6-2,13.5-4.6,3.82-3.42,7.42-7.29,11.76-10,9.82-6.24,23.25-3.54,34.81-5.3,10.94-1.66,25.34-1.8,34.91-6.86,9.32-4.94,13.1-17.71,15.93-26.76,4.06-13,7.22-25.46,8.67-38.86,1.36-12.49,3.13-27.9-13.35-27.78-2.45,0-6.11-1.06-8.07.45-2.15,1.66-2.51,6.36-3,8.79-1.57,7.28-2.35,13.82-4.57,21-5,16.15-8.7,35.35-23.81,44.4-12.71,7.62-29,7.49-42.24,14.28-10.15,5.19-16.68,17.05-22.75,26.31C93.66,224.93,92.52,228.16,93,228.16Z" transform="translate(369.8 246.72)"/><g class="cls-3"><path class="cls-4" d="M72.56,146.06C74.23,150.19,85,170,86,174.37c.72,3.26,3.75,7.39,5.59,10.33,1.64,2.62,4.81,2.26,7.81,2.07,3.55-.22,17.28-2.24,18.16-6,.93-4-1.86-10.33-2.65-14.23-.55-2.75-1.44-5.66-.91-8.46.29-1.54.9-2.12,1.7-2.23,3.15-.45,3.24-3.36,2.71-6.49-.59-3.56-1.2-7.11,1-9.38,2.39-2.47,7-3.66,9.83-5.37,4.19-2.48,9.42-3.2,14.19-3.64s9.65.33,14.45.49c12.57.41,8.47,7.67,13.23,8.4,1.21.18,3.33-4.7,4.35-5.56,2-1.69,1.92-6.88,1.8-9.15a17,17,0,0,1,.56-5.08c.51-2.44.15-4.92,0-7.42a41,41,0,0,0-4-16.06c-2-4.25-2.21-8.91-5.09-12.8A31.6,31.6,0,0,0,153,72.65C144.82,70.16,133.5,71,126.32,66c-3.32-2.32-7.74-5.57-9.6-9.18-1-1.86-1.37-3.5-2.82-5.07a22.38,22.38,0,0,0-7.63-5.15c-2.8-1.29-6-1.14-9.11-1-1.48.08-4-.18-5.16.51s.7,2.75.18,4.1c-1.89,5-7,8.46-10.92,12.34-5.21,5.17-14,9.53-20.51,13.4a16.8,16.8,0,0,0-2.66,1.84c-7.75,7-1.8,16.52.39,23.78,1.89,6.25,2.72,13,6.12,18.63a47.76,47.76,0,0,1,5.25,11A36.37,36.37,0,0,0,72.74,139c2,3.53-3.18,1.35-.49,4C73.12,143.84,63.79,124.41,72.56,146.06Z" transform="translate(369.8 246.72)"/><path class="cls-5" d="M95.65,180.5c3-.67,15.07,4.85,15.58-1.34.22-2.69-2.93-5.71-4.47-7.8a25.47,25.47,0,0,1-3.78-8.09c-1-3.31-2.79-7.56-1.8-11,3.57-1,6.7,3.21,9.35-1.05,2.13-3.45-.38-6-2.31-8.53s-3-6.57.61-8.64c1.61-.91,4.24-.76,6.06-1.18a13,13,0,0,0,4.57-2.38c7.3-5.23,17.83-6.35,26.77-6.74,4.24-.18,10.66.41,14.44,2.6a41.15,41.15,0,0,0,10.63,4.83c3.17.84,8.39,1.72,11.56.27,3.34-1.53,4.13-5.23,3.91-8.47-.29-4.26-4.31-4.7-7.37-7.13-4.15-3.27-9.27-4.54-13.5-7.84-5-3.85-10.52-6.91-15.14-11.2-4.45-4.13-10.14-7.38-13.43-12.51-3.13-4.9-9.19-8.41-11.44-13.83-2-4.71-3.12-9.84-5.72-14.22C117,50.91,112.28,49,107.1,46.53c-3.78-1.8-5.36-.2-7.84,2.89A160.89,160.89,0,0,1,88.81,61.77C84.13,66.55,79,69,77.81,76.18a108.92,108.92,0,0,0,.66,37.08c.75,4.09,3.09,7.67,5,11.31,3.82,7.1,3.06,15.93,3.86,23.79.27,2.74.53,3.63,2.13,5.71,1.81,2.37,2.68,5.17,3.69,8a42.58,42.58,0,0,1,1.68,8.39c.29,2-.4,3.48-.18,5.4.17,1.52.77,3.26,1,4.87C96.39,180.87,96.45,180.56,95.65,180.5Z" transform="translate(369.8 246.72)"/><path class="cls-4" d="M82.93,217c5.89.43,11.64,3.34,17.89-5.54,3.73-5.3,5.8-12.06,10.45-16.87,6.14-6.34,14.82-6.93,22.07-10,6.53-2.73,13.57-5.4,19.21-10.32,11.23-9.78,16-33,18.72-46.88,3.2-16.36-.76-34.07-5.71-49.66C159.6,59,141,51.28,126.12,40.6c7.27-3.68,14.45-1.57,22.25-.87,8.32.74,16.95-1.44,25.37-.93,30.95,1.89,36.23,25.33,39,52.32,3.18,31.3,6.63,79.7-18.92,103.16C172.39,214,145.23,217.22,119,226.18c-9.52,3.25-19.08,10.28-29.19,8.92C77.17,233.41,83.14,226.14,82.93,217Z" transform="translate(369.8 246.72)"/><path class="cls-6" d="M-368.54-244.6a6,6,0,0,0-1-2.12c-.89.46.43.31.82.7" transform="translate(369.8 246.72)"/><path class="cls-6" d="M441.31-243.18c-.62,0-.64-.22-.07-.71" transform="translate(369.8 246.72)"/><path class="cls-6" d="M24.61-106.19c.32-1,.75-2,1.34-.86" transform="translate(369.8 246.72)"/><path class="cls-4" d="M18.47,189.11c1.06.12,2.47,1.62,3.86,1.93s3,.36,4.46.59a61.91,61.91,0,0,0,9,.87c6.32.08,12.61-.11,18.84,1.08,5.35,1,10.24,3,13.49,7.59.55.77,2.18,2.57,2.07,3.54-.23,1.91-3.88,1-5.28,1-7.69-.31-15.75-.45-23.19-2.49-3.24-.89-6.57-1.3-9.74-2.41-2.07-.72-3.78-2-5.71-2.95-2.55-1.26-7.13-3.54-7.8-6.6A17.94,17.94,0,0,1,18.47,189.11Z" transform="translate(369.8 246.72)"/><path class="cls-5" d="M76.28,137.55c2.79,4.18,9.89,3.33,14.51,3.54,4.46.21,12.89.75,14.78-4,4.11-10.4,14.87-18.4,24.08-24.25,12.74-8.1,20.1-22.37,22.14-37.22A46,46,0,0,0,148.45,51c-1.17-2.63-3.17-5.12-6.13-3.87-3.38,1.44-3.63,5.5-3.77,8.76-.35,7.62-.76,15.76-3,23.12-1.76,5.76-5.65,11.17-8.69,16.3s-6.22,10.4-10.36,14.78-8.71,7.68-13.48,11.26c-3.09,2.33-5.49,5.33-8.46,7.77-4.61,3.77-9.55,5.43-15.22,6.65-1,.22-2.86.72-3.21,1.7C76.25,137.42,76.35,137.31,76.28,137.55Z" transform="translate(369.8 246.72)"/></g><path class="cls-1" d="M188.59,71.18c-1.12-5.88-2.65-12.18-7.18-16.53-5-4.83-14.54-5.55-21-7.17-8.72-2.18-18.15-2.15-27.09-2.37-12.11-.31-82.18,5.6-91.24,5.94-6.09.32-12.42.55-17.93,2.78-13,5.27-17.59,22.92-19,35.66-1.05,9.46-2.18,18.56-2.46,28A272.07,272.07,0,0,0,3.7,153c1.64,16,6.77,38.88,25.17,42.67,6.75,1.38,13.2,1,20,1.2,1.41.21,2.84.42,4.31.69,3.27.59,6.19,2.11,9.37,3.39,6.71,2.7,10.21,7.92,14.94,13,1.86,2,3.78,5.75,6.08,8.64a17.82,17.82,0,0,0,1.33,2c2.66,3.54,5.3,3.77,9.38,1.87,3.82-1.77,6.47-5.7,9.45-8.55,2.79-2.65,5-5.7,7.9-8.31,3-2.78,6.27-5.27,9.33-8l1-.85a41.87,41.87,0,0,1,9.77-4.06c7.39-1.88,15-2.16,22.59-3.31,1.16-.18,2.45-.32,3.77-.49,1.12-.05,2.22-.12,3.31-.23,6.2-.61,12.53-2.45,17.38-6.37,6.35-5.14,8.95-12.88,10.69-20.72,1-4.5.77-9,1.24-13.54.54-5.33,1.3-10.69,1.68-16a230.47,230.47,0,0,0-.33-36.5C191.08,90.16,190.37,80.5,188.59,71.18Z" transform="translate(369.8 246.72)"/><path class="cls-5" d="M115.72,197.67c.43-1.42,3.36-2.77,4.65-3.57a37.72,37.72,0,0,1,7.3-3.11c5.86-2.05,12.17-3.07,18.29-4.28,11.72-2.31,22.52-8.18,28.33-19,1.15-2.14,2-4.45,3.14-6.55,1.4-2.47,3.25-2.66,3.56.3a27.11,27.11,0,0,1-5,17.81c-6.91,9-22,8.93-32.25,10.53-5.1.79-10.43,1.25-15.28,3a49.44,49.44,0,0,0-7,3.36c-1.14.63-4.82,3.83-6,3.15S115.26,197.74,115.72,197.67Z" transform="translate(369.8 246.72)"/><path class="cls-5" d="M178.55,146.13c.54-2-.24-4.15-.1-6.22.24-3.5,1-7.06,1.34-10.58a122.29,122.29,0,0,0-.57-29c-1.36-9.37-3.17-19.09-7.73-27.52-3.38-6.24-9-10.32-14-15.19-2.26-2.22-3.28-4,.43-4.53a19.9,19.9,0,0,1,7.92.28A19.49,19.49,0,0,1,179.23,64c3.54,7.15,4.4,15.43,4.82,23.2.43,8,1.09,16.1,1.16,24.11.08,9.13.56,18.32-.21,27.44-.21,2.48-2.11,16.41-5.63,8.95C178.87,146.61,178.44,145.66,178.55,146.13Z" transform="translate(369.8 246.72)"/><path class="cls-7" d="M75.62,77.82a8.05,8.05,0,0,1,3.67-9,115.34,115.34,0,0,1,11.56-5.73,14.6,14.6,0,0,0,5-3.6c6-6.61,22.42-25.38,27.67-37.46l50.15,97.75s-32.78-2.68-50.8,1.74a7.49,7.49,0,0,0-1.6.59l-14.09,7.1s-3,2.93-6.86-2.09S75.62,77.82,75.62,77.82Z" transform="translate(369.8 246.72)"/><ellipse class="cls-8" cx="159.94" cy="66.11" rx="15.46" ry="54.77" transform="translate(357.02 323.68) rotate(-26.05)"/><path class="cls-9" d="M182.28,125.44c-13.42,0-32.62-20.09-46.69-48.86-7.53-15.42-12.41-31-13.74-44-1.42-13.76,1.43-23.11,8-26.33a11.85,11.85,0,0,1,5.25-1.17c13.43,0,32.63,20.1,46.69,48.87,7.54,15.41,12.42,31,13.75,43.95,1.41,13.76-1.43,23.11-8,26.33a11.78,11.78,0,0,1-5.24,1.17ZM138,18.93a2.29,2.29,0,0,0-1.05.22c-1.87.91-3.36,5.78-1.41,16.52C137.45,46,142,58.85,148.3,71.8c12.52,25.63,27.17,41.49,33.55,41.49a2.28,2.28,0,0,0,1-.22c1.87-.91,3.37-5.79,1.42-16.52-1.88-10.36-6.4-23.19-12.73-36.13C159.05,34.79,144.41,18.93,138,18.93Z" transform="translate(369.8 246.72)"/><path class="cls-7" d="M135.11,7.62c12.08,0,30.81,19.58,44.45,47.47,15.32,31.33,18.4,61.3,6.88,66.94a9.35,9.35,0,0,1-4.16.91c-12.07,0-30.81-19.57-44.44-47.46C122.52,44.14,119.44,14.17,131,8.54a9.35,9.35,0,0,1,4.15-.92m46.74,108.17a4.9,4.9,0,0,0,2.14-.47c7.67-3.75,3.12-28.82-10.16-56C161.67,34.44,146.41,16.43,138,16.43a4.81,4.81,0,0,0-2.15.47c-7.67,3.75-3.11,28.82,10.17,56,12.16,24.87,27.42,42.89,35.8,42.89M135.11,2.62a14.24,14.24,0,0,0-6.34,1.43c-5.38,2.62-11.37,9.76-9.41,28.83,1.36,13.21,6.33,29.12,14,44.79,6.76,13.83,15.16,26.41,23.66,35.43,6.38,6.77,15.94,14.84,25.27,14.84a14.38,14.38,0,0,0,6.35-1.42C194,123.89,200,116.76,198,97.68c-1.36-13.21-6.33-29.12-14-44.79-6.76-13.83-15.16-26.41-23.66-35.42C154,10.69,144.44,2.62,135.11,2.62Zm46.68,108.17c-4-.13-17.64-12.26-31.25-40.09-5.86-12-10.2-24-12.2-33.89-2.09-10.23-.92-14.49-.25-15.38,4,.13,17.64,12.25,31.24,40.09,5.87,12,10.21,24,12.21,33.88,2.08,10.23.92,14.5.25,15.39Z" transform="translate(369.8 246.72)"/><path class="cls-9" d="M181.85,118.29c-11.26,0-27.62-23-38-44.3-6.52-13.34-11.19-26.64-13.15-37.43-2.17-12-.74-19.52,4.14-21.91a7.3,7.3,0,0,1,3.24-.72c11.26,0,27.61,23,38,44.29,6.52,13.35,11.2,26.64,13.16,37.44,2.17,11.94.74,19.52-4.14,21.9a7.37,7.37,0,0,1-3.24.73Z" transform="translate(369.8 246.72)"/><path class="cls-7" d="M138,16.43c8.38,0,23.64,18,35.8,42.89,13.28,27.18,17.83,52.25,10.16,56a4.9,4.9,0,0,1-2.14.47c-8.38,0-23.64-18-35.8-42.89-13.28-27.18-17.84-52.25-10.17-56a4.81,4.81,0,0,1,2.15-.47m0-5a9.8,9.8,0,0,0-4.34,1c-6.07,3-7.92,11.24-5.5,24.6,2,11,6.75,24.54,13.37,38.08,6,12.31,13.11,23.6,20,31.79,7.73,9.23,14.57,13.91,20.31,13.91a9.8,9.8,0,0,0,4.34-1c6.07-3,7.92-11.25,5.5-24.6-2-11-6.75-24.54-13.37-38.09-6-12.31-13.12-23.6-20-31.79-7.73-9.22-14.57-13.9-20.31-13.9Z" transform="translate(369.8 246.72)"/><path class="cls-7" d="M39.78,110.13,51.6,135.47a3.77,3.77,0,0,0,.41.7c1.75,2.32,12.39,15.53,26.72,12.24C94.42,144.8,58.31,93.9,58.31,93.9l-13.15-12S34.42,94.69,39.78,110.13Z" transform="translate(369.8 246.72)"/><path class="cls-7" d="M112.55,170.55l-10.89-24a.62.62,0,0,1,.89-.78c1.91,1.17,4.15,1.89,5.38,1,2-1.52,6.29-3.16,3.27-6.86l-8.09-5.52c-1.52-2-3.55-3.08-5.59-1.56h0a4.43,4.43,0,0,0-1.35,1.64v0a4.61,4.61,0,0,0-6.1-2.28l-11.43,5.18a4.61,4.61,0,0,0-2.29,6.09l16.39,36.13a4.6,4.6,0,0,0,6.09,2.28l11.44-5.19A4.6,4.6,0,0,0,112.55,170.55Z" transform="translate(369.8 246.72)"/><line class="cls-10" x1="562.48" y1="273.45" x2="575.78" y2="251.22"/><path class="cls-10" d="M208,46.78c.12-.83,38.21-21.86,38.21-21.86" transform="translate(369.8 246.72)"/><line class="cls-10" x1="587.51" y1="320.49" x2="611.14" y2="317.91"/><path class="cls-9" d="M79.31,147.23c-4,0-8.68-3.56-10.48-5.1a5.56,5.56,0,0,1-.5-.47C52.87,125.86,48,104.16,45.87,94.89c-.39-1.71-.69-3-.92-3.76-1.83-5.62,3-9.91,5.74-11.39,5.36-2.7,19.62-9.95,21.83-11.37l.11-.07a7,7,0,0,1,3.7-1.06A7.18,7.18,0,0,1,82,70.09a11.51,11.51,0,0,0,.75.91c1.32.84,3.14,4.84,13.8,28.32,4.73,10.41,12.44,27.54,13,29.16a4.78,4.78,0,0,1-.77,4.39,7.85,7.85,0,0,1-4.5,2.9c-1,.45-4.36,2.14-7.33,3.64-7.56,3.83-13.52,6.82-15.7,7.53A6.5,6.5,0,0,1,79.31,147.23Z" transform="translate(369.8 246.72)"/><path class="cls-7" d="M76.33,69.74a4.71,4.71,0,0,1,3.72,1.85c.63.83,1.27,1.59,1.54,1.63.62.09,24.79,53.59,25.58,56s-2.63,4.05-3.28,4.05h-.08c-.69,0-19.59,10.06-23.34,11.28a3.7,3.7,0,0,1-1.16.17c-3.38,0-7.9-3.69-8.86-4.5-.12-.1-.23-.21-.34-.32C52.29,121.69,49,95.45,47.33,90.35S51.86,82,51.86,82s19.21-9.68,22-11.47l.08-.06a4.48,4.48,0,0,1,2.38-.68m0-5a9.43,9.43,0,0,0-5,1.45l-.1.06C69.29,67.47,57,73.79,49.61,77.49l-.09.05c-4.77,2.53-9,8.11-7,14.36.2.6.52,2,.86,3.54,2.14,9.47,7.16,31.66,23.11,48a7.93,7.93,0,0,0,.67.62c2.5,2.13,7.39,5.7,12.1,5.7a9,9,0,0,0,2.71-.41c2.36-.77,8.15-3.67,16.07-7.68,2.61-1.32,5.78-2.93,7-3.48a10.4,10.4,0,0,0,5.74-3.82,7.31,7.31,0,0,0,1.13-6.64c-.76-2.32-12.94-29.14-13.06-29.41-3.35-7.38-6.4-14-8.6-18.73C89,76.89,88,74.8,87.33,73.36c-1-2-1.7-3.47-2.93-4.31L84,68.58a9.67,9.67,0,0,0-7.7-3.84Z" transform="translate(369.8 246.72)"/><path class="cls-7" d="M139.66,60.73l14-5.62C157.46,53.9,169.1,75.85,164.46,77c-.6.15-12,9.8-12,9.8l-6.09-5.89-4.72-10.73Z" transform="translate(369.8 246.72)"/><ellipse class="cls-9" cx="157.66" cy="66.8" rx="1.9" ry="9.62" transform="translate(357 329.68) rotate(-28.38)"/><path class="cls-11" d="M54.62,88.22s6.11,31,17.26,45.33" transform="translate(369.8 246.72)"/><path class="cls-12" d="M151.32,80.12c.31,0,5.87-4.82,5.87-4.82" transform="translate(369.8 246.72)"/><path class="cls-12" d="M102.13,80.74c-.1.53,5.74,21.68,20.21,37.62" transform="translate(369.8 246.72)"/><line class="cls-12" x1="467.69" y1="396.97" x2="477.84" y2="419.41"/><line class="cls-12" x1="473.7" y1="385.09" x2="478.96" y2="388.1"/><line class="cls-12" x1="479.39" y1="369.76" x2="485.73" y2="366.94"/><line class="cls-12" x1="498.2" y1="362.69" x2="527.92" y2="363.14"/><path class="cls-11" d="M135.58,23.88s11.51-6.87,33.49,39.4" transform="translate(369.8 246.72)"/><path class="cls-12" d="M41.73,102.31l14.33,31.08a23.72,23.72,0,0,0,10.82,9.53" transform="translate(369.8 246.72)"/><path class="cls-12" d="M131,80s9.43,19.73,18.5,29.4" transform="translate(369.8 246.72)"/></g></g></svg>