<svg xmlns="http://www.w3.org/2000/svg" viewBox="0 0 1302.88 1482.13"><defs><style>.a{fill:#ea5a59;}</style></defs><path class="a" d="M1486,864.38c-20.58-8-41.31-13.62-59.66-23.62-66.46-36.17-102.36-93-108.06-168.42-1.78-23.54,8.79-37.73,26.87-39,17.76-1.24,29.3,12,31,35.63,5.87,82.74,73.64,142.69,155.65,137.28a137.2,137.2,0,0,0,73.53-27.16c5-3.71,9.94-7.66,15.24-11,13.79-8.57,29.6-5.92,38.69,6.17s7.86,28.18-4.37,39.08c-24.5,21.83-52.71,37.79-84.81,44.47-16.26,3.38-24.66,8.92-29.74,26.07-16.31,55-75.13,96.43-132.77,96.45-17.36,0-30.6-11.54-31.49-27.45-.89-16.07,11.33-28.84,30.24-30.24,37-2.73,63.47-20.33,78.71-54.36A22.32,22.32,0,0,0,1486,864.38Z" transform="translate(-1085.8 -152.33)"/><path class="a" d="M1552.09,1481.69c-1.64,15.33-5.62,27.65-19.7,34.45-10.56,5.09-22.48,4.52-29.32-4.34a57.77,57.77,0,0,1-11.24-29.71c-4.43-64.11-51.3-124-111.76-140.45a146.66,146.66,0,0,0-27-4.55c-22.48-1.78-35.7-12.9-35-30.32.77-18.14,15.3-28.57,38.47-27.62,76.18,3.12,150.74,58.58,178.07,134.31C1542.59,1435.44,1546.39,1458.91,1552.09,1481.69Z" transform="translate(-1085.8 -152.33)"/><path class="a" d="M1379.23,1221.77c-25.45,0-38.1-23.79-25.77-45a258.53,258.53,0,0,1,91.45-92.6c39.59-23.81,82.95-35.63,129.1-36.8,24.63-.63,40.3,20.8,30.25,41-6.35,12.77-17.83,16.41-31.21,16.92-42.53,1.64-82.34,13.22-115.08,40.62-19.64,16.45-35.72,37.32-52.4,57C1397.57,1212.47,1390.84,1222.28,1379.23,1221.77Z" transform="translate(-1085.8 -152.33)"/><path class="a" d="M1636.26,422c-.21,15.23-13.92,28.62-29.06,28.41s-28.62-13.9-28.41-29.05,13.9-28.61,29.06-28.41S1636.46,406.83,1636.26,422Z" transform="translate(-1085.8 -152.33)"/><path class="a" d="M2388.52,845.34c-.22-40.41-23.87-69.2-63.26-77-29-5.76-59.67-11.25-91.05-16.31-10-1.61-13.58-4.46-16.57-13.27-8.54-25.11-19.47-49.27-29.93-71.85-2.87-6.18-2.47-8.08.64-12.38,18.28-25.29,36.17-51.44,53.47-76.73l1.3-1.9c23.89-35,20.68-72.17-8.83-102.12-18.89-19.17-39.29-39.56-64.18-64.16-29.92-29.52-67.12-32.8-102.1-9-25.38,17.28-52.49,35.86-78.66,54.75-4.59,3.29-6.67,3.43-12.39.79-27.88-12.89-51.16-22.58-73.25-30.53-7.81-2.79-10.14-5.4-11.32-12.66-5.57-34.17-11.21-65.56-17.25-96-7.35-37.09-36.76-61.3-74.92-61.67-16-.16-31.86-.21-48-.2v-4.61c-.61.63-1.21,1.26-1.83,1.88-5.47-7.2-12.24-16.89-19.79-25.94-32.45-38.86-73.44-63.14-123.56-71.63a67.2,67.2,0,0,1-8.22-2.44h-37.66a8.31,8.31,0,0,1-2.49,1.4c-74.54,11.14-126.44,52.77-161,118.41-2.9,5.51-9.64,10.65-15.68,12.6-73.52,23.67-123.82,92.69-121.54,169.92.4,13.22-3.67,19.47-14.46,25.83-82.88,48.83-122,155.93-90.25,246.24,3,8.67.71,13-4.67,19.9-16.83,21.43-35.89,42.37-47.06,66.73-29.87,65.15-21,129.64,12.44,191.52,4.36,8.07,6.78,14.09,1.21,23.42-49.08,82.32-40.35,169.61,23.17,243.14,3,3.5,4.8,9.13,5,13.86.82,18.69-.93,37.64,1.38,56.11,11.56,92.42,95.51,171.76,187,177,11.27.65,18,4.25,24.3,13.64,86.75,129.39,268.77,137.6,366.62,16.68,6.56-8.1,12.57-16.65,18.57-25.21V1528h8.61q24,0,48-.21c38.16-.33,67.57-24.54,74.93-61.67,6-30.5,11.83-62.78,17.24-96,1.18-7.26,3.51-9.87,11.32-12.67,22.11-8,45.38-17.64,73.27-30.53,5.71-2.62,7.79-2.49,12.37.83,25.84,18.63,52.57,37.91,80.44,55.56,9,5.68,18.9,9.13,28.52,12.49,4.11,1.43,8.23,2.86,12.23,4.45l2.17.88,2.31-.35c22.42-3.35,39.57-11.67,54-26.16q13.83-13.9,27.75-27.73c12.54-12.5,25.09-25,37.52-37.61,29.52-29.92,32.75-67.14,8.84-102.1-17.59-25.73-35.78-52.34-54.77-78.64-3.06-4.23-3.49-6.26-.65-12.38,10-21.48,21.33-46.51,29.94-71.83,3-8.84,6.57-11.71,16.56-13.31,31.93-5.15,63.11-10.74,92.69-16.61,37.09-7.37,61.27-36.79,61.61-75C2388.8,905.47,2388.67,871.31,2388.52,845.34ZM1777.77,674.17c108.94,12.93,193.59,105.82,193.37,218-.24,113-83.32,203.8-193.37,216.67Zm0,507.84c148.72-13.35,266-137.87,266.18-288.62.23-155.55-114.78-279.41-266.18-292.34V323.73c5.28,0,10.57,0,15.84,0,13.64.05,13.64.05,16.17,14.14q3.17,17.64,6.44,35.28c4.51,24.6,9.2,50,13.28,75,3.65,22.38,18.4,30.81,30.85,35.65,24.27,9.44,48.8,19.67,72.5,29.57q15.39,6.44,30.8,12.81c3.8,1.56,7.64,3,11.86,4.65l12,4.65,5.2-2.72c1.88-1,3.79-1.91,5.7-2.84a107.86,107.86,0,0,0,14.4-7.92c32.61-22.31,62-42.47,91.11-63.35,9.51-6.8,13.3-5.66,19.89,1.26,21.17,22.27,42.65,43.29,60.88,60.91,6.44,6.23,6.72,9.8,1.38,17.38-9.22,13-18.31,26.17-27.39,39.3-12,17.36-24.44,35.31-36.94,52.71-11.56,16.1-12.72,32-3.76,51.66,16,35.1,30.12,70.83,41.8,101.15,4.83,12.55,13.23,27.43,35.41,31.15,22.41,3.75,44.76,7.86,67.11,12q20.8,3.84,41.62,7.57c16.07,2.85,16.07,2.85,16.09,19.45,0,8.4,0,16.81-.1,25.22-.11,18.22-.23,37.06.32,55.69.28,9.43-1.61,12.9-13.35,14.87-16.13,2.73-32.22,5.67-48.32,8.6-19.83,3.63-40.33,7.38-60.49,10.6-25,4-34,20.31-39,34.08-12.38,33.92-26,66.79-40.51,97.69-9.53,20.3-8.46,36.74,3.46,53.29,17.06,23.7,33.95,48.19,50.29,71.88l11.94,17.32c8.07,11.67,8.07,11.67-1.52,21.33q-11.58,11.68-23.26,23.28c-12.47,12.41-24.93,24.84-37.21,37.45-5.72,5.87-9.19,6.16-16.14,1.29q-16.15-11.31-32.39-22.49c-19.62-13.58-39.91-27.62-59.56-41.77-16.7-12-33.1-13.23-53.23-3.84-35.41,16.5-71.74,30.64-99.44,41.13-13,4.9-28.35,13.5-32.14,36.54-3.61,21.95-7.75,44.26-11.76,65.83-2.55,13.73-5.1,27.47-7.54,41.21-3,16.87-3,16.87-20.42,16.89h-11.92Zm-54.39-593.62c-13.88-4-27-8.51-40.42-11.46a62.32,62.32,0,0,0-22.9-.58c-13.67,2.22-23.2,14.33-23.34,27.49-.13,12.6,8.58,24,21.44,27.65a63.61,63.61,0,0,0,9.95,1.68c34.3,4,55.15,26.43,55.18,60.88q.27,268.53.07,537.07c0,2.25-.31,4.5-.35,5.12-22.56-15.75-44.35-33-68.07-47-29.52-17.4-62.67-24.45-96.86-25.93-22.06-1-36.31,9.69-37.2,27.42-.89,17.48,12.61,29.26,34.75,30.34,99,4.84,173,85.74,167.22,184.54-6.49,109.89-108.66,194.42-215.81,165.71-46.47-12.45-81.92-39.53-106.74-80.7-5-8.2-9.1-17.65-16.1-23.62-5.54-4.73-15.48-8.11-22.45-6.78-62.5,12-142.15-42.29-156.25-124.71-3.1-18.14-2.28-37.61.49-55.9,2.67-17.67-3-29.29-15.24-40.72-45.19-42.18-58.35-102.19-35.43-158.78,2.67-6.61,6.3-12.83,9.3-18.85,17.33,9.58,32.86,20.94,50.24,27.08a348,348,0,0,0,68.35,16.07c19.62,2.67,33.43-10.05,34.41-26.89,1-16.61-11.92-29-31.65-30.44-107.37-7.86-174.5-123.46-125.35-218.34,9.85-19,26.09-35.84,42.49-50.09,24.12-20.93,27.11-27,13.16-56.37-44.44-93.55,27.17-212.37,128.78-213.69,57.79-.76,118,43.18,136.45,100.95,5.08,15.89,7.78,32.73,9.85,49.35,2.44,19.65,13.88,32.66,30.5,31.82,16.83-.84,28.12-14.45,27.53-34.3-3.72-126-114.76-219-223.7-204.08-1.85.26-3.77,0-7.74,0,2.28-48,22.15-83.91,64.45-104.78,41.6-20.53,82.16-16.31,120.17,10.42,5.51,3.88,10.41,8.63,16,12.46,13.51,9.33,29.34,7.8,39.14-3.44,10.08-11.56,9.29-28.79-2.66-40.44a169.9,169.9,0,0,0-77.11-43.69c-5-1.3-10-2.54-15.22-3.84,30.7-60.17,115.87-86.55,174.31-54.33,57,31.39,85.83,80.07,86.28,144.94C1723.77,442.51,1723.38,515.36,1723.38,588.39Z" transform="translate(-1085.8 -152.33)"/></svg>