<svg xmlns="http://www.w3.org/2000/svg" viewBox="0 0 489.54 489.54"><defs><style>.a{fill:#ea5a59;}</style></defs><path class="a" d="M242.41,7.46H273a25.21,25.21,0,0,0,3.68.8A239.9,239.9,0,0,1,370.54,35c5,2.61,9.95,5.44,15.28,8.36,7.91-8,15.56-15.91,23.35-23.65a13.5,13.5,0,0,1,15.4-3.17c5.54,2.19,8.46,6.55,9,12.43.41,4.28.69,8.57,1.06,12.86.87,10.11,1.77,20.23,2.68,30.57,2.54.32,4.72.67,6.91.85,12.06,1,24.12,2,36.17,3,7.82.66,13.32,5.83,14,13.19.42,5-1.64,8.91-5.13,12.34-7.58,7.47-15.08,15-22.59,22.52.64,1.26,1,2.14,1.5,3a240.18,240.18,0,0,1,30.94,84.63c1.37,8.3,2.26,16.67,3.37,25v30.6c-.27,1.23-.62,2.45-.8,3.7-1.66,11.32-2.72,22.77-5,34-19.6,94.88-100.77,172.54-196.29,188-9.08,1.47-18.23,2.52-27.35,3.77H242.41c-1.07-.26-2.12-.61-3.2-.76-11.17-1.64-22.45-2.71-33.5-4.93-94.9-19-173.52-100.6-189-195.95-1.5-9.24-2.56-18.55-3.83-27.83v-30.6c1.57-10.84,2.74-21.75,4.75-32.51C36,106.87,117.27,27.31,215.05,11.23,224.13,9.73,233.28,8.71,242.41,7.46ZM364.24,64.73c-75.85-45.76-196.83-41.5-273,49.76-71.94,86.21-66,216.81,20,296.77,83,77.16,213.67,76,296.34-3.57,81.9-78.84,79.4-194.27,37.26-262.12-4.85,5.05-9.63,9.93-14.31,14.91-4,4.28-8.82,5.82-14.67,5.13-6.51-.76-13.08-1-20.13-1.57,49.58,79.63,21.08,172.65-39.08,218.4-59.13,45-142.47,44.27-201.64-3.06a162.76,162.76,0,0,1-44.91-197.24c21.13-43.92,55.5-73.26,102.44-86.85S303.73,89,346,114.34c-.57-7.37-.82-13.74-1.62-20a16.9,16.9,0,0,1,5.57-15.45C354.77,74.28,359.42,69.5,364.24,64.73Zm-22.83,82.5c-43-37.5-121.86-44.62-176.62,7.49s-56,138.22-2.74,192.42c52.12,53,138.78,53.18,191.13.14,53.91-54.62,47.85-134.38,9.44-178.9L322.16,209c25.27,39.49,11,84.21-18.82,105.8A77.43,77.43,0,0,1,195.69,205.85c22.82-30.44,67.39-42.5,105.19-18.08ZM280.25,209.5C260.82,197.56,233,204,218.66,223.11a48.7,48.7,0,0,0,72.45,64.54c18.1-16.84,18.79-43.95,9.25-57.57-1.16,1.1-2.33,2.14-3.43,3.24q-14,14-28,28c-4,4-8.58,6.12-14.22,4.81a13.66,13.66,0,0,1-10.62-9.9c-1.74-5.81,0-10.67,4.13-14.79C258.74,230.89,269.36,220.35,280.25,209.5ZM407.63,62.84c-.74.15-1.13.11-1.31.28q-15.74,15.66-31.4,31.4a4.87,4.87,0,0,0-1.42,3.27c.9,11.84,2,23.68,3,35.67,12,1,23.57,2.1,35.13,2.9a6.73,6.73,0,0,0,4.42-2c9.88-9.7,19.64-19.53,29.4-29.34a21.74,21.74,0,0,0,1.92-2.67c-4.34-.4-8.13-.78-11.93-1.12s-7.61-.65-11.41-1c-8.59-.72-13.63-5.76-14.36-14.32C409,78.35,408.33,70.75,407.63,62.84Z" transform="translate(-12.93 -7.46)"/></svg>