<svg xmlns="http://www.w3.org/2000/svg" viewBox="0 0 683.81 566.1"><defs><style>.a,.e{fill:#2e6ab7;}.b{fill:#283583;}.c{fill:#cc3e3e;}.d{fill:#ff5955;}.e{stroke:#283583;stroke-miterlimit:10;stroke-width:5px;}.f{fill:#339fce;}.g,.h{fill:none;stroke-linecap:round;stroke-linejoin:round;stroke-width:4px;}.g{stroke:#b23232;}.h{stroke:#c64444;}</style></defs><path class="a" d="M187.17,402.89c-.87-1.4-2.72-2.92-3.85-1.74a5.24,5.24,0,0,0-.75,1.8c-.25.6-1,1.18-1.51.83a1.43,1.43,0,0,1-.39-.46l-3.92-6.13c-.18-.95,1.26-1.38,2.13-.94s1.5,1.3,2.44,1.52c1.44.34,2.82-1.13,2.88-2.61a5.79,5.79,0,0,0-1.81-3.94,5.45,5.45,0,0,0-3.6-2.09c-1.41-.05-2.92,1.29-2.55,2.66a8.14,8.14,0,0,1,.35,1.09,1.62,1.62,0,0,1-.16.61,1.65,1.65,0,0,1-.39.51,1.69,1.69,0,0,1-.55.32,2,2,0,0,1-.64.08,4.79,4.79,0,0,1-2.36-1c-1.2-.79-2.57-2-2.14-3.38.57-1.79,3.47-1.55,4.55-3.1a2.65,2.65,0,0,0,.35-1.65,2.7,2.7,0,0,0-.7-1.53,5.79,5.79,0,0,0-2.93-1.61,5.48,5.48,0,0,0-4,.17c-1.2.67-1.87,2.4-1,3.49a6.67,6.67,0,0,1,.81.95,1.71,1.71,0,0,1,0,1.18,1.68,1.68,0,0,1-.78.88,5,5,0,0,1-2.32.5l-8.13.34c-.86,0-2-.11-2.2-.95-.32-1.23,1.63-1.63,2.47-2.58s.25-2.94-1-3.61a6.22,6.22,0,0,0-4.22-.17c-1.69.38-3.78,1.62-3.21,3.27s3.48,2.33,2.83,3.95c-.31.76-1.28.95-2.09,1l-5.81.56c-1.17.12-2.71,0-3-1.15-.39-1.45,1.77-2.26,2.28-3.68a2.48,2.48,0,0,0-1.29-2.79,5.49,5.49,0,0,0-3.27-.43,5,5,0,0,0-3.1,1.24,2.17,2.17,0,0,0-.05,3c.89.71,2.15.55,2.53,1.48.46,1.13-1.12,1.93-2.32,2.18l-3.35.62a6.13,6.13,0,0,1-3,0,2.08,2.08,0,0,1-1.17-.89,2.06,2.06,0,0,1-.27-1.45c.3-.9,1.37-1.34,1.82-2.19.65-1.23-.39-2.82-1.73-3.22a6.4,6.4,0,0,0-4.06.57c-1.59.64-3.4,2.37-2.34,3.71s3.77.25,4.55,1.75-1.21,2.61-2.74,3l-6.2,1.53c-1.15.3-2.66.41-3.21-.64-.89-1.74,2.39-3.28,2-5.21-.29-1.5-2.34-1.68-3.85-1.5a7,7,0,0,0-3.41,1,2.43,2.43,0,0,0-.79,3.17c.57.77,1.63.93,2.53,1.26s1.83,1.2,1.51,2.1a2.13,2.13,0,0,1-.67.73,2.16,2.16,0,0,1-.91.38l-3.61,1.14a5.21,5.21,0,0,1-2.5.36,1.82,1.82,0,0,1-1.6-1.71c.06-1.1,1.39-1.69,1.82-2.71.59-1.43-.95-3-2.49-3a6.63,6.63,0,0,0-4.08,1.92,4.54,4.54,0,0,0-1.6,2,1.71,1.71,0,0,0,.82,2.16c1,.4,2.27-.67,3.3-.19a1.62,1.62,0,0,1,.68.88,1.66,1.66,0,0,1,0,1.1,4.67,4.67,0,0,1-1.35,1.79l-5.63,5.41a2.06,2.06,0,0,1-.83.57c-1.23.33-1.81-1.57-1.42-2.78s1-2.73.14-3.62-2.68-.1-3.71.89a6,6,0,0,0-2,3,2.31,2.31,0,0,0,1.57,2.79c.71.12,1.44-.24,2.16-.15,3.24.42,1.17,5.12,1.17,6.85,0,.82.64,2.1-.17,2.72-1.48,1.12-2.16-1.4-2.88-2.06a2.17,2.17,0,0,0-3,.41,5,5,0,0,0-.94,3.14A5.27,5.27,0,0,0,84,420a2.36,2.36,0,0,0,1.4.94,2.39,2.39,0,0,0,1.68-.24c1.19-.86,1.73-3.27,3.07-2.69a1.85,1.85,0,0,1,.59.59,1.91,1.91,0,0,1,.3.77l2.34,7.82c.19.7-.22,1.87-.77,1.41-.21-1.73-3-2-4-.57s-.32,3.5.92,4.73,3.49,1.51,4.09,0c.37-.92.21-2.51,1.2-2.44a1.46,1.46,0,0,1,.48.21,1.31,1.31,0,0,1,.36.38l6.85,8.39a1.33,1.33,0,0,1,.25.41c.14.53-.52,1-1.07.9a10.41,10.41,0,0,1-1.54-.54c-1.83-.5-3.52,1.76-3.12,3.59s1,3.33,2.9,3.47c2.41.17,3.11-1.75,3.51-2.33a6.11,6.11,0,0,1,1.38-1.4c1-.74,2.31.11,3.22.92l3.39,3c1,.9,2.11,2.34,1.32,3.44-.62.86-2,.74-2.84,1.34a2.57,2.57,0,0,0-.87,2.82,5.56,5.56,0,0,0,1.78,2.54,5,5,0,0,0,2.93,1.46,2.3,2.3,0,0,0,2.45-1.78c.18-1.8-2.38-3-2.12-4.84.18-1.28,1.8-1.9,3.05-1.63a10.73,10.73,0,0,1,3.36,1.9,12.73,12.73,0,0,0,5,1.93,9.26,9.26,0,0,1,2.89.65,2.24,2.24,0,0,1,1.07,1,2.2,2.2,0,0,1,.25,1.42c-.27,1-1.38,1.43-1.91,2.28a2.79,2.79,0,0,0-.23,1.86,2.75,2.75,0,0,0,1,1.59,5.56,5.56,0,0,0,3.71,1.15,5.4,5.4,0,0,0,3.77-1.17,2.67,2.67,0,0,0,.42-3.6,7.56,7.56,0,0,0-2.37-1.25c-.81-.39-1.58-1.26-1.26-2.11s1.16-.94,1.93-1.07l8.79-1.4a2.43,2.43,0,0,1,1,0c1.19.35,1,2.17.27,3.19a4.55,4.55,0,0,0-1,1.33,2.17,2.17,0,0,0,1.33,2.45,5,5,0,0,0,3,.12c1.64-.3,3.39-1,4.18-2.45s-.14-3.8-1.82-3.73c-.59,0-1.22.33-1.75.08a1.58,1.58,0,0,1-.36-.37,1.4,1.4,0,0,1-.18-.48,1.25,1.25,0,0,1,0-.51,1.3,1.3,0,0,1,.22-.46,3.59,3.59,0,0,1,1.7-1.16l5.42-2.36a1.85,1.85,0,0,1,.81-.27,1.93,1.93,0,0,1,.86.1c.64.38.6,1.35.24,2a8.26,8.26,0,0,0-1.11,1.93,2.7,2.7,0,0,0,2,3.07,5.43,5.43,0,0,0,3.89-.73,5.21,5.21,0,0,0,1.59-1.16,5.09,5.09,0,0,0,1-1.68,2.43,2.43,0,0,0-1.69-3.07c-.7-.11-1.43.21-2.14.09-1.25-.21-1.9-1.77-1.62-3a6.25,6.25,0,0,1,2.33-3,35.5,35.5,0,0,1,3.61-2.6,2.16,2.16,0,0,1,.82-.43,2.24,2.24,0,0,1,.93,0c.8.27,1,1.32.92,2.16a4,4,0,0,0,.08,2.48,2.15,2.15,0,0,0,2.12.94,5.68,5.68,0,0,0,2.26-.93,6.4,6.4,0,0,0,3.14-3.29c.45-1.48-.63-3.46-2.18-3.31-1,.1-1.88,1-2.85.76a1.82,1.82,0,0,1-.91-2.47,6.77,6.77,0,0,1,2-2.23,16.85,16.85,0,0,0,3.74-4.85,1.37,1.37,0,0,1,.69-.46,1.38,1.38,0,0,1,.83,0c1.41.74-.12,3.17.86,4.41.81,1,2.46.33,3.4-.57a12.81,12.81,0,0,0,2.93-4.34,4.43,4.43,0,0,0,.35-2.8,1.94,1.94,0,0,0-2.16-1.43c-1,.27-1.54,1.54-2.56,1.61a1.67,1.67,0,0,1-1.13-.51,1.74,1.74,0,0,1-.47-1.14,5,5,0,0,1,.7-2.44l1.49-3c.24-.49.64-1.07,1.17-.95.87.18.4,1.47.46,2.32.05,1.67,2.64,2.16,3.83,1s1.29-3,1.19-4.72a4.89,4.89,0,0,0-1-3.08c-.75-.81-2.28-1-2.86-.05-.28.45-.3,1.07-.71,1.41-.63.53-1.66-.09-1.87-.88a7.07,7.07,0,0,1,.07-2.47,17.59,17.59,0,0,1,.14-3.17c.28-1,1.37-2,2.34-1.52s1,1.62,1.78,2.28c1.25,1.14,3.42-.18,3.69-1.85S188.1,404.31,187.17,402.89Z"/><path class="b" d="M122.83,397c-6.77.4-13.77,1.38-19.51,5s-9.88,10.57-8.43,17.18c.9,4,3.67,7.39,6.51,10.4a115.61,115.61,0,0,0,14.78,13.19c3.46,2.59,7.27,5.06,11.57,5.42a26.06,26.06,0,0,0,8.36-1.15c6.48-1.63,13-3.28,18.93-6.44a45.21,45.21,0,0,0,16.81-16,21,21,0,0,0,3.35-8.33,20.23,20.23,0,0,0-1.92-10.2,22.3,22.3,0,0,0-6.08-8.76,19.69,19.69,0,0,0-11.67-3.92,53.61,53.61,0,0,0-12.5,1.45,93.88,93.88,0,0,1-12.92,1.83C127.67,396.83,125.25,396.91,122.83,397Z"/><path class="c" d="M137.15,411.86a12.11,12.11,0,0,1-4.8-.89c-3.9-1.31-7.76-2.82-11.82-3.5a11.73,11.73,0,0,0-6.35.38,8.69,8.69,0,0,0-3.25,2.51,12.92,12.92,0,0,0-2.24,11.26,21.15,21.15,0,0,0,6.19,10c4.4,4.21,10.3,7.11,16.4,7s12.26-3.49,14.73-9.05c.69-1.54,1.11-3.24,2.18-4.56,1.85-2.26,5-2.78,7.71-3.7a22.91,22.91,0,0,0,8.75-5.34A7.57,7.57,0,0,0,167,412.2c.38-2-.66-4-2-5.56A13.74,13.74,0,0,0,145,406C142.55,408.34,141,411.55,137.15,411.86Z"/><path class="d" d="M140.33,416a13.08,13.08,0,0,0,4-3.43,18.57,18.57,0,0,1,3.83-3.68,12.65,12.65,0,0,1,4-1.54,9.47,9.47,0,0,1,5.43.08,4.37,4.37,0,0,1,2.89,4.23,5.56,5.56,0,0,1-1.18,2.5,10.42,10.42,0,0,1-1.87,2c-2,1.55-4.59,1.95-7.06,2.42s-5.08,1.16-6.71,3.07c-1.87,2.19-2,5.43-3.48,7.93a8.4,8.4,0,0,1-6.09,3.92,13.66,13.66,0,0,1-6.07-.87,24.73,24.73,0,0,1-10.32-6.5,11.44,11.44,0,0,1-3.24-6.48c-.22-2.45.93-5.16,3.17-6.17a7.62,7.62,0,0,1,3.56-.54c3.51.16,6.84,1.38,10.16,2.38C134.09,416.13,137.67,417.32,140.33,416Z"/><path class="a" d="M371.11,299.35a3.05,3.05,0,0,0-1.3-1,3.09,3.09,0,0,0-1.65-.18c-1.72.33-2,1.89-2.82,3-.61.79-1.82,1.31-2.52.62q-.75-4.38-1.53-8.76c.16-.86,1.22-1.15,2.07-1,1.19.18,2.37.88,3.59-.15a3.11,3.11,0,0,0,1.09-2c.27-2.05-1-3.88-1.81-5.61a2.54,2.54,0,0,0-2.72-1.54c-1.69.32-1.82,2.36-1.72,3.93a6.38,6.38,0,0,1-.25,2.13,1,1,0,0,1-.3.48,1.07,1.07,0,0,1-.51.25,1,1,0,0,1-.56-.07,1,1,0,0,1-.44-.35,4.51,4.51,0,0,0-1.92-1.45c-1.36-.59-2.91-.86-3.83-2.24a1.93,1.93,0,0,1-.38-1.18A2,2,0,0,1,354,283c1.16-1.34,3.24.32,4.35-1.53a2.89,2.89,0,0,0,.35-1.11,3,3,0,0,0-.13-1.14,5.53,5.53,0,0,0-2.35-2.68,5.24,5.24,0,0,0-4.17-1.13,2.67,2.67,0,0,0-1,.52,2.61,2.61,0,0,0-.71.9c-1.07,2.3,2.37,3.64,1.47,5.64a2.19,2.19,0,0,1-1.12,1,2.15,2.15,0,0,1-1.52,0l-5.39-1.82a3.62,3.62,0,0,1-1.8-1,1.54,1.54,0,0,1-.29-.74c.71-.57,2-.68,2.79-1.26,1.5-1.06,1.05-3.69-.5-4.69-1.75-1.12-4.17-.57-5.85.53a2.65,2.65,0,0,0-1.06,1.3c-.71,2,2,2.26,1.8,3.88a1.58,1.58,0,0,1-1.42,1.32l-4.8.65c-.6.08-1.37.1-1.7-.42-.48-.78.46-1.63.81-2.46a2.57,2.57,0,0,0-1.79-3.18c-1.73-.49-3.62.54-4.82,1.67a1.83,1.83,0,0,0-.32,2.3c.78,1.19,2.41.17,3.17,1.47a2.12,2.12,0,0,1,.24,1.21,2.08,2.08,0,0,1-.48,1.13c-1.22,1.54-3.36,1.62-4.62,3-.58.62-.91,1.46-1.54,2s-1.81.68-2.2-.08c-.28-.55,0-1.19.07-1.8.23-2.17-2.65-3.78-4.57-2.73a4.17,4.17,0,0,0-1.46,1.49,4.12,4.12,0,0,0-.56,2,1.65,1.65,0,0,0,.15.75,1.63,1.63,0,0,0,1.16.92,1.77,1.77,0,0,0,.76,0,3.69,3.69,0,0,1,1.95,0,2.06,2.06,0,0,1,.86.46,2.08,2.08,0,0,1,.58.79c.48,1.19-.37,2.26-1.18,3.11a71.67,71.67,0,0,1-6.4,5.92,2.05,2.05,0,0,1-.65.45,1.76,1.76,0,0,1-.78.13c-.86-.15-1.07-1.34-.81-2.15.32-1,1.09-2,.46-3.15a2.15,2.15,0,0,0-.71-.76,2.24,2.24,0,0,0-1-.36,4.73,4.73,0,0,0-3.67,1.54,4.1,4.1,0,0,0-1.4,1.93,1.64,1.64,0,0,0,.08,1.17,1.7,1.7,0,0,0,.84.83,6.66,6.66,0,0,0,1.48,0,2.08,2.08,0,0,1,1.85,2.26,18.47,18.47,0,0,1-6.31,3.54c-.63.17-1.37.37-1.83-.12-1-1,1-2.37,1.38-3.77s-1.13-2.69-2.54-2.66c-1.72,0-3.16,1.33-4.47,2.32a2.22,2.22,0,0,0-.66.77,2.14,2.14,0,0,0-.22,1c.12,2.07,3.31,1.28,3.39,3a1.48,1.48,0,0,1-.29.86,1.42,1.42,0,0,1-.73.52l-6.5,2.23a1.86,1.86,0,0,1-1.21,0,1.76,1.76,0,0,1-.93-.77c-.92-1.63,1.84-2.7.66-4.55a2.2,2.2,0,0,0-.7-.69,2.12,2.12,0,0,0-.92-.33c-1.85-.23-3.36,1.26-4.76,2.15a2.09,2.09,0,0,0-.89,1,2.12,2.12,0,0,0-.12,1.34c.59,2.18,3,.56,3.83,2.08a1.71,1.71,0,0,1-.76,2.26L274,315.52c-1.27.27-1.66-1.9-1.22-3a2.39,2.39,0,0,0,.15-1.62c-.45-1.39-1.27-1.3-2-1.1a7.1,7.1,0,0,0-2.91,1.59,7.21,7.21,0,0,0-1.9,2.73,1.81,1.81,0,0,0-.05,1.51c.81,1.42,3-.64,4.49-.17a2,2,0,0,1,1,.91,1.93,1.93,0,0,1,.17,1.31,5.63,5.63,0,0,1-1.23,2.39l-4.59,6.22c-1.16.55-2-1.61-1.44-2.68a2.86,2.86,0,0,0,.22-2c-.44-1.64-2-1.41-3-.86a7.57,7.57,0,0,0-3,2.85c-.78,1.32-1.08,3.16-.07,4.33a2,2,0,0,0,.76.48,2.13,2.13,0,0,0,.9.11,2,2,0,0,0,.86-.29,2.17,2.17,0,0,0,.66-.62,1.25,1.25,0,0,1,.58-.64,1.22,1.22,0,0,1,.86-.08,3.17,3.17,0,0,1,1.18.83,3.07,3.07,0,0,1,.68,1.27,8.78,8.78,0,0,1-.39,4.29c-.51,2.22.82,4.93-.46,6.88a1.61,1.61,0,0,1-.81.71,1.57,1.57,0,0,1-1.07,0c-1-.37-1-1.63-1.64-2.39-.86-1.07-2.66-.79-3.57.23a5.73,5.73,0,0,0-1.07,3.86,4.4,4.4,0,0,0,1.2,3.49,2,2,0,0,0,.82.42,1.79,1.79,0,0,0,.92,0c1.77-.53,1.14-3.1,2.92-3.67a2.34,2.34,0,0,1,2.4.76c1.3,1.4,1.28,3.38,2.15,5,.62,1.15,1.68,2.08,1.75,3.49a1.57,1.57,0,0,1-.26,1,1.6,1.6,0,0,1-.86.63c-1.51.33-2.19-2.08-3.95-1.31a2.41,2.41,0,0,0-.84.64,2.36,2.36,0,0,0-.48.93c-.41,1.51.41,3.08.92,4.45a1.63,1.63,0,0,0,.68.87,1.62,1.62,0,0,0,1.09.24c1.08-.19,1.07-1.31,1.46-2.11.69-1.46,2.74-1.75,4.19-1.05,1.67.81,2.72,2.54,3.76,4.06a3,3,0,0,1,.59,1.68c0,1.85-1.91,2.26-3.42,2.12s-3.19-.57-4.33.73a2.92,2.92,0,0,0-.63,1.37,3,3,0,0,0,.11,1.52c.63,2,2.45,3,4.28,3.75a4.4,4.4,0,0,0,2.92.36,1.9,1.9,0,0,0,1.22-1.19c.31-.94-.35-1.43-.68-2.09-.86-1.7.87-3.78,2.74-4s3.66.81,5.29,1.79l5,3c.69.41,1.47,1,1.45,1.79s-1.16,1.43-2.09,1.37c-1.27,0-2.58-.65-3.75.44a2.89,2.89,0,0,0-.76,1.31,2.83,2.83,0,0,0,0,1.5c.53,2,2.5,3,4.4,3.25,1,.13,2.15,0,2.56-.91a3.81,3.81,0,0,0,0-2c-.31-3.28,3.9-6.12,6.73-4a2.23,2.23,0,0,1,.66.71,2.14,2.14,0,0,1,.31.92c.12,1.6-1.63,2.32-2.42,3.58a3.18,3.18,0,0,0-.08,2.74,3.27,3.27,0,0,0,.85,1.13,3.35,3.35,0,0,0,1.26.64,3,3,0,0,0,1.39-.19,3.07,3.07,0,0,0,1.85-2,3.16,3.16,0,0,0,.07-1.4c-.16-.58-.45-1.12-.56-1.71a4.19,4.19,0,0,1,.32-2.07,5.52,5.52,0,0,1,6.12-.56,2.33,2.33,0,0,1,.76.6,2.3,2.3,0,0,1,.44.85c.32,1.55-1.65,2.36-2.48,3.66a3.32,3.32,0,0,0,.53,3.94,4.51,4.51,0,0,0,3.92,1.27,3.71,3.71,0,0,0,1.7-.61,3.79,3.79,0,0,0,1.24-1.31,2.49,2.49,0,0,0-.86-3.22c-.47-.25-1.05-.33-1.41-.74a1.6,1.6,0,0,1-.21-.54,1.42,1.42,0,0,1,0-.58,1.48,1.48,0,0,1,.23-.53,1.6,1.6,0,0,1,.43-.39,4.16,4.16,0,0,1,2.27-.5l7.66-.19a2.29,2.29,0,0,1,2.35,1.95c.24,2.29-3.6,2.44-3.16,5.14a3.07,3.07,0,0,0,.68,1.43,3,3,0,0,0,1.31.89c2.17.75,4.5-.71,6-2.15a2.06,2.06,0,0,0,.61-1.14,2,2,0,0,0-.18-1.27c-.83-1.63-2.6-.12-3.41-1.93a2.3,2.3,0,0,1-.18-1.1,2.35,2.35,0,0,1,.36-1.05,4.82,4.82,0,0,1,3.63-1.71c1.58-.2,3.32-.26,4.53-1.54a2.45,2.45,0,0,1,2-.86c1.57.2,1.54,1.86,1,3a7.15,7.15,0,0,0-1.07,2.74,2.72,2.72,0,0,0,2.23,2.49,4.33,4.33,0,0,0,1.79-.13,4.14,4.14,0,0,0,1.58-.83,3.87,3.87,0,0,0,1.71-2.91,2.19,2.19,0,0,0-2.09-2.31c-.67.05-1.3.49-2-.28a1.93,1.93,0,0,1-.43-.78,2,2,0,0,1,0-.9c.25-1.23,1.27-2,2-2.92,1.19-1.37,2-3.17,3.73-3.89a2.46,2.46,0,0,1,2.55.36c1.6,1.44-.61,3.12,1.5,4.56a2.71,2.71,0,0,0,1.23.49,2.78,2.78,0,0,0,1.31-.14,4.59,4.59,0,0,0,1.72-1.4,4.75,4.75,0,0,0,.89-2,4.22,4.22,0,0,0,.18-1.8,4.39,4.39,0,0,0-.58-1.72,2.16,2.16,0,0,0-3.13-.49c-.56.58-.68,1.56-1.75,1.65a1.75,1.75,0,0,1-1.17-.34,1.82,1.82,0,0,1-.71-1c-.47-1.42.3-2.79,1-4l3.34-5.45a1.13,1.13,0,0,1,.41-.48,1.15,1.15,0,0,1,.59-.22,1.2,1.2,0,0,1,.62.1,1.26,1.26,0,0,1,.5.38c.55.68-.06,1.43-.15,2.19a2.1,2.1,0,0,0,1.84,2.11,4,4,0,0,0,2.85-.91,5,5,0,0,0,2.33-4.43c-.21-1.76-2.33-3.18-3.82-2.25-1.14.71-1.77,2.53-3.2,2.14a1.84,1.84,0,0,1-.7-.38,1.88,1.88,0,0,1-.46-.66,1.66,1.66,0,0,1-.14-.79,1.88,1.88,0,0,1,.21-.77l2.42-5a4.56,4.56,0,0,1,1.87-2.36,1.71,1.71,0,0,1,.83-.18,1.79,1.79,0,0,1,.82.22c1.33.78,0,2.28,1.67,3a2.44,2.44,0,0,0,1.17.14,2.36,2.36,0,0,0,1.09-.44c1.34-.94,2.72-2.36,2.75-4.13,0-1.44-1.2-2.94-2.6-2.71-1.63.25-3.18,2.48-4.43,1.49a1.73,1.73,0,0,1-.52-.83,1.81,1.81,0,0,1,0-1,56.48,56.48,0,0,1,2.72-7,1.88,1.88,0,0,1,.56-.72,1.85,1.85,0,0,1,.83-.38c1-.16,1.42.77,2.06,1.3a3.15,3.15,0,0,0,3.73-.18,3.92,3.92,0,0,0,1.8-3.75,2.6,2.6,0,0,0-3.19-2.13,15,15,0,0,0-2.55,1.88.78.78,0,0,1-1,.05.78.78,0,0,1-.29-.46.87.87,0,0,1,.09-.55L363,317.8a1.18,1.18,0,0,1,.28-.44,1.32,1.32,0,0,1,.44-.3,1.26,1.26,0,0,1,.51-.11,1.35,1.35,0,0,1,.52.11,4.35,4.35,0,0,0,4-.26,3.69,3.69,0,0,0,1-5,3,3,0,0,0-4.79.05c-.42.72-.58,1.72-1.58,1.83a1.68,1.68,0,0,1-1.27-.47,1.7,1.7,0,0,1-.39-.57,1.79,1.79,0,0,1-.13-.68c0-1.94-.32-4.22.65-6,.79-1.4,2.72-2.26,4-1.34.61.43,1,1.18,1.72,1.4a2.25,2.25,0,0,0,1.15-.09,2.34,2.34,0,0,0,1-.65C371.7,303.85,372.52,301.26,371.11,299.35Z"/><path class="b" d="M320,296.68A86.25,86.25,0,0,1,293.15,312c-5.23,1.82-10.86,3.25-15,7A19.94,19.94,0,0,0,272,332.55a29.3,29.3,0,0,0,3.4,14.82,37.92,37.92,0,0,0,32.65,20.43,55.2,55.2,0,0,0,10.58-1.08,42,42,0,0,0,10.87-3.23,28.32,28.32,0,0,0,12.42-12.41c5.83-11.22,4.6-25.23,10.62-36.33,1.73-3.2,4-6.13,5-9.64a15.6,15.6,0,0,0-4.75-15.33,19.23,19.23,0,0,0-15.6-4.43,24.48,24.48,0,0,0-10.45,4.3A14.09,14.09,0,0,0,323,293,14.64,14.64,0,0,1,320,296.68Z"/><path class="c" d="M315.45,322.15c-4.28,1.82-8.95,2.56-13.32,4.14s-8.71,4.26-10.58,8.55a15.36,15.36,0,0,0-.77,8.74c1.07,6.2,5.22,12.17,11.21,13.88,4.06,1.15,8.37.3,12.45-.69a30.67,30.67,0,0,0,6.49-2.14,22.89,22.89,0,0,0,5.24-3.7,14.58,14.58,0,0,0,3.42-4.19c1.79-3.63,1-8,2-12s3.83-7.26,6.85-10,6.36-5.22,8.94-8.39,4.39-7.33,3.65-11.4a14.42,14.42,0,0,0-3.84-7,16.12,16.12,0,0,0-6-4.25,9.6,9.6,0,0,0-7.22.06,11.15,11.15,0,0,0-4.65,4.4c-2.86,4.57-2.83,9.54-4.31,14.54C323.65,317.24,319.58,320.4,315.45,322.15Z"/><path class="d" d="M320.66,325.15c-4.72,3-10.14,4.68-15.27,6.88a14.13,14.13,0,0,0-3.76,2.14,10.75,10.75,0,0,0-2.72,4,12.55,12.55,0,0,0-.89,7.45,8.28,8.28,0,0,0,4.42,5.86c3.49,1.6,7.55,0,10.95-1.79,4.57-2.45,9.05-5.55,11.53-10.14,1.71-3.12,2.38-6.77,4.26-9.79,2.39-3.86,6.49-6.27,9.65-9.47a18.5,18.5,0,0,0,4.79-7.65,12.07,12.07,0,0,0-.71-8.89,5.79,5.79,0,0,0-1.5-2,5.72,5.72,0,0,0-2.22-1.17c-2.26-.44-4.39,1.18-5.8,3a17.61,17.61,0,0,0-3.07,6c-.57,2-.44,3.93-1.18,5.86A20.6,20.6,0,0,1,320.66,325.15Z"/><path class="a" d="M441.19,412.31a2.2,2.2,0,0,0-.81-.33,2.12,2.12,0,0,0-.87,0,2.2,2.2,0,0,0-.81.33,2.12,2.12,0,0,0-.61.62c-.23.43-.3.9-.55,1.35a.85.85,0,0,1-1.23.38,13.4,13.4,0,0,0-.89-5.81,4.11,4.11,0,0,1-.44-2c.11-.69.92-1.31,1.52-.95.3.18.46.53.74.75a1.25,1.25,0,0,0,1,.13,1.35,1.35,0,0,0,.81-.61,3.08,3.08,0,0,0,.34-2,3.58,3.58,0,0,0-1.56-3,1.79,1.79,0,0,0-.91-.21,1.76,1.76,0,0,0-.88.28c-.89.59-.53,1.43-.72,2.17-.12.5-.74.94-1.12.6l-3.79-6a1.31,1.31,0,0,1-.24-.6c0-.53.69-.79,1.22-.68a11.23,11.23,0,0,0,1.52.49,1.91,1.91,0,0,0,1.22-.44,1.93,1.93,0,0,0,.66-1.11,3.61,3.61,0,0,0-.54-2.54,3.43,3.43,0,0,0-2.56-2,2,2,0,0,0-.93.14,1.91,1.91,0,0,0-.76.55c-.72.86-.14,1.67-.14,2.54a.83.83,0,0,1,0,.22.8.8,0,0,1-.23.41.87.87,0,0,1-.43.21.82.82,0,0,1-.46-.08.81.81,0,0,1-.34-.32l-3.62-5.28a1.19,1.19,0,0,1-.23-.48c-.08-.54.58-.89,1.15-.85.83,0,1.55.59,2.41-.13a2.24,2.24,0,0,0,.59-.92,2.12,2.12,0,0,0,0-1.09,4.22,4.22,0,0,0-2.47-3.14,2.49,2.49,0,0,0-1.55-.08,2.52,2.52,0,0,0-1.3.84,2,2,0,0,0,.09,2.3.93.93,0,0,1,.21.59.91.91,0,0,1-.23.57l-.07.07a1,1,0,0,1-.32.21.89.89,0,0,1-.36.07.81.81,0,0,1-.37-.09.84.84,0,0,1-.3-.22,27.24,27.24,0,0,0-4.1-3.63,1.59,1.59,0,0,1-.41-.55,1.56,1.56,0,0,1-.15-.67c.09-.89,1.2-1.21,2.08-1.22s1.95,0,2.42-.76a1.94,1.94,0,0,0,.19-1,2,2,0,0,0-.33-1,3.81,3.81,0,0,0-1.25-1.54,3.77,3.77,0,0,0-1.85-.72,2.28,2.28,0,0,0-2.33,2.58,4.73,4.73,0,0,1,.21.76,1.37,1.37,0,0,1-.41.87,1.3,1.3,0,0,1-.89.37,6.55,6.55,0,0,1-2.65-.92,3.11,3.11,0,0,1-1.08-.74,3,3,0,0,1-.69-1.11c-.87-2.52,2.53-2.74,2.58-4.57a1.77,1.77,0,0,0-.39-1,1.73,1.73,0,0,0-.88-.57,4.8,4.8,0,0,0-2.1-.07,4.38,4.38,0,0,0-2.83,1.07c-.71.77-.59,2.28.41,2.56.24.07.52.06.75.15.83.31.74,1.62.06,2.18a5,5,0,0,1-2.5.74,11,11,0,0,0-6.41,3.5c-.6-.08-.77-.9-.58-1.48.25-.73.85-1.37.53-2.22a1.75,1.75,0,0,0-.76-.85,1.79,1.79,0,0,0-1.11-.21,3.86,3.86,0,0,0-2.77,2.37,3.31,3.31,0,0,0-.51,1.86,1.35,1.35,0,0,0,.37.85,1.31,1.31,0,0,0,.83.4c.76,0,1.38-.92,2.11-.67s.49,1.5,0,2.24c-1.14,1.82-2.35,5.66-3.56,4.22a3.08,3.08,0,0,1-.51-1.41,1.62,1.62,0,0,0-.48-.84,1.6,1.6,0,0,0-.87-.43,2.57,2.57,0,0,0-2.67,1.86,2.24,2.24,0,0,0,.61,2.84,1.72,1.72,0,0,0,1.29.34,1.68,1.68,0,0,0,.64-.22,1.8,1.8,0,0,0,.5-.45c.61-.6,1.26.07,1.37.62a3.53,3.53,0,0,1-.21,1.64l-1.49,5.07c-.1.35-.25.75-.58.86-.59.16-1-.56-1-1.16s.31-1.21.1-1.76a1.51,1.51,0,0,0-2.2-.46,4.37,4.37,0,0,0-1.42,2.11,4.16,4.16,0,0,0-.33,1.81.87.87,0,0,0,.16.44.89.89,0,0,0,.36.31,1,1,0,0,0,.47.09.89.89,0,0,0,.45-.15c.81-.51,1.77-.8,2.43-.08a1.73,1.73,0,0,1,.37.8,1.65,1.65,0,0,1-.06.88l-1.24,4.22c-.54.5-1.31-.38-1.34-1.1s.08-1.66-.55-2-1.45.2-2,.77c-.82.88-1.68,1.85-1.47,3.15a1.48,1.48,0,0,0,.21.54,1.34,1.34,0,0,0,.4.42,1.4,1.4,0,0,0,.54.22,1.26,1.26,0,0,0,.58,0c.89-.23,1.07-1.1,2-.94a1.59,1.59,0,0,1,1,.68,1.63,1.63,0,0,1,.23,1.16,27.83,27.83,0,0,0-.74,4.43c0,.61.05,3.05-1.35,2.19-.76-.47-.16-1.65-.44-2.5a1.62,1.62,0,0,0-2.34-.57,3.8,3.8,0,0,0-1.36,2.36,3.66,3.66,0,0,0,0,2.38,1.58,1.58,0,0,0,.84.81,1.55,1.55,0,0,0,1.16,0c.52-.3.77-1,1.32-1.17a1.37,1.37,0,0,1,.87.06,1.34,1.34,0,0,1,.63.59,3.9,3.9,0,0,1,.4,1.71l.13,2c.06.73-.15,1.48-.87,1.56-1,.12-1.17-1.32-2.32-1.32a1.38,1.38,0,0,0-.8.3,1.32,1.32,0,0,0-.44.73c-.34,1.22-.7,3,.48,3.95a1.19,1.19,0,0,0,.53.34,1.3,1.3,0,0,0,.62,0,1.25,1.25,0,0,0,.57-.27,1.31,1.31,0,0,0,.37-.5c.28-.59.13-1.11.72-1.58a1,1,0,0,1,.47-.32,1,1,0,0,1,.57,0,.93.93,0,0,1,.49.28,1,1,0,0,1,.27.5,9.91,9.91,0,0,1,.31,2.24,4.47,4.47,0,0,0,1,2.19,4.11,4.11,0,0,1,.9,1.29c.13.5-.14,1.18-.67,1.16-.37,0-.63-.32-1-.55a1.91,1.91,0,0,0-1.68-.09,1.87,1.87,0,0,0-1.08,1.28,3,3,0,0,0,.59,1.91,3,3,0,0,0,1.67,1.1,2.73,2.73,0,0,0,1.66-.61,2.67,2.67,0,0,0,.93-1.5,1.31,1.31,0,0,1,.65-.7,1.33,1.33,0,0,1,.94-.08.93.93,0,0,1,.33.26l3.84,4.07c.28.5-.39,1-1,1.07s-1.17-.21-1.7,0a1.66,1.66,0,0,0-.5,2.14A3.34,3.34,0,0,0,396,441a3.28,3.28,0,0,0,2.22.27,1.2,1.2,0,0,0,.78-.48c.32-.51,0-1.15-.32-1.69s.29-1.64,1-1.26l6.43,2.67c.35.41.05,1.06-.39,1.36-.73.53-1.78.53-1.94,1.88a2.08,2.08,0,0,0,0,.93,2.15,2.15,0,0,0,.44.83,2.7,2.7,0,0,0,1.8.69,2.75,2.75,0,0,0,1.81-.66,1.42,1.42,0,0,0,.48-.58,1.35,1.35,0,0,0,.11-.74,2.61,2.61,0,0,0-.46-.75,2.1,2.1,0,0,1-.35-1.29,6.6,6.6,0,0,1,2.5-1.24,6.53,6.53,0,0,1,2.78-.12,3,3,0,0,1,1.22.46,3.07,3.07,0,0,1,.9.93c.87,1.49-.74,2.11-.77,3.22s1.14,1.59,2.14,1.71a3.78,3.78,0,0,0,1.64,0,3.63,3.63,0,0,0,1.46-.75c.77-.8.67-2.4-.38-2.77-.55-.19-1.24,0-1.65-.43a1.07,1.07,0,0,1-.22-.73,1.09,1.09,0,0,1,.32-.7,3,3,0,0,1,1.38-.73l3.24-1.07a2.76,2.76,0,0,1,1.42-.19.94.94,0,0,1,.59.38.88.88,0,0,1,.16.67c-.12.39-.55.58-.82.9a1.61,1.61,0,0,0-.22.6,1.58,1.58,0,0,0,0,.65,1.61,1.61,0,0,0,.3.58,1.43,1.43,0,0,0,.5.41,3,3,0,0,0,2.57-.09,2.79,2.79,0,0,0,1.94-2.37c0-1.09-1.68-1.86-2.26-.93a1,1,0,0,1-.35-.15,1,1,0,0,1-.26-.28,1.09,1.09,0,0,1-.12-.36.94.94,0,0,1,0-.37,2.59,2.59,0,0,1,1-1.22l4.07-3.4a2.51,2.51,0,0,1,1.26-.68c.48-.05,1.05.31,1,.79-.67.54-.27,1.7.54,2a2.6,2.6,0,0,0,1.27,0,2.53,2.53,0,0,0,1.12-.56,3.29,3.29,0,0,0,1-1,3.23,3.23,0,0,0,.49-1.27,1.79,1.79,0,0,0-.36-1.28,1.75,1.75,0,0,0-1.13-.67,6.44,6.44,0,0,0-1.72.46c-.58.15-1.36-.1-1.39-.7a12.07,12.07,0,0,0,2.36-4.37,4.16,4.16,0,0,1,1.32-2.53,1.29,1.29,0,0,1,.47-.19,1.24,1.24,0,0,1,1,.22,1.24,1.24,0,0,1,.35.37c.28.5,0,.76-.15,1.11a1.21,1.21,0,0,0,.06.84,1.29,1.29,0,0,0,.58.62,2.29,2.29,0,0,0,.86.19,2.09,2.09,0,0,0,.85-.18,3,3,0,0,0,1.3-1,3.13,3.13,0,0,0,.59-1.53,3,3,0,0,0-1.39-2.83,1.15,1.15,0,0,0-.79-.23c-.79.1-1.13,1.33-1.91,1.27s-.83-.88-.86-1.51c-.07-1.62-.15-3.21-.22-4.79,0-.59.23-1.42.8-1.27.31.09.44.45.62.72a1.82,1.82,0,0,0,1,.67,1.87,1.87,0,0,0,1.21-.12,3,3,0,0,0,1-.8,2.84,2.84,0,0,0,.5-1.14,3,3,0,0,0-.1-1.74A3.15,3.15,0,0,0,441.19,412.31Z"/><path class="b" d="M392.24,416.6c-.75-5.39,1.32-10.72,3.35-15.77l4.41-11a20.5,20.5,0,0,1,2.46-4.85,7,7,0,0,1,4.47-2.9,6.51,6.51,0,0,1,4.19,1,16.75,16.75,0,0,1,4.78,5.25l8.22,12c3.54,5.15,7.18,10.6,7.77,16.81a18.42,18.42,0,0,1-26.1,18.43c-3.38-1.54-5.78-4.41-8-7.35C395.22,424.76,392.84,420.94,392.24,416.6Z"/><path class="c" d="M404,416.62c-1,2.84-1.81,5.93-1.12,8.88a9.55,9.55,0,0,0,9.27,7.16,13.9,13.9,0,0,0,4.18-.86,16.47,16.47,0,0,0,4.61-2.21,8.15,8.15,0,0,0,3.07-4,8.53,8.53,0,0,0,.33-3.1,12.24,12.24,0,0,0-1-4.13,17.49,17.49,0,0,0-3.46-4.8,11.89,11.89,0,0,1-2.44-3c-1.17-2.41-.25-5.27-.17-8A12.66,12.66,0,0,0,411,391.48a7.43,7.43,0,0,0-4.11-1.1,6.55,6.55,0,0,0-5.49,4.82,11.56,11.56,0,0,0,.68,7.6,31.13,31.13,0,0,0,1.82,3.77,11.52,11.52,0,0,1,1.65,3.09C406.06,411.92,404.77,414.6,404,416.62Z"/><path class="d" d="M408.46,414.34a26.44,26.44,0,0,0-1.34,6.28,9.12,9.12,0,0,0,1.63,6.1,5.2,5.2,0,0,0,2.56,1.84,6.52,6.52,0,0,0,3.81-.21c2.37-.7,4.76-2.16,5.53-4.52a7.28,7.28,0,0,0-1.18-6.08,50.5,50.5,0,0,0-4.12-4.89,7.32,7.32,0,0,1-1.46-2.42c-.56-1.85.21-3.79.51-5.69a11.8,11.8,0,0,0-.61-6.06,7.63,7.63,0,0,0-3.82-4.42,4.45,4.45,0,0,0-5.37,1.28,4.94,4.94,0,0,0-.08,4.79,17.7,17.7,0,0,0,3,4c1,1.13,2.58,2.77,2.6,4.37S409,412.66,408.46,414.34Z"/><path class="a" d="M490.07,324a1.92,1.92,0,0,0-.24-.93,1.9,1.9,0,0,0-.67-.68c-1.07-.6-1.72.46-2.62.62a1.93,1.93,0,0,1-2.09-1.51,4,4,0,0,1,.51-2.73,3.49,3.49,0,0,1,1-1.32,3.36,3.36,0,0,1,1.46-.73,1.67,1.67,0,0,1,.83.07,1.77,1.77,0,0,1,.7.44c.7.77.33,1.77.27,2.69a.91.91,0,0,0,.71.92,1,1,0,0,0,.62-.09.9.9,0,0,0,.4-.48,24.13,24.13,0,0,1,3.47-5.76,3.76,3.76,0,0,0,.93-1.54,1.26,1.26,0,0,0-.11-.87,1.18,1.18,0,0,0-.66-.56c-.78-.15-1.33.75-2.07,1-1.19.46-2.44-.95-2.3-2.22a4.82,4.82,0,0,1,2.16-3,4.38,4.38,0,0,1,2.06-1.06,1.7,1.7,0,0,1,1.13.18,1.72,1.72,0,0,1,.78.84,4,4,0,0,1-.35,2c-.18.68-.07,1.6.61,1.78l6.15-3.8c.62-.38,1.26-1.39.57-1.69a1.85,1.85,0,0,0-.87.05,1.53,1.53,0,0,1-.69-.17,1.64,1.64,0,0,1-.55-.43,1.71,1.71,0,0,1-.32-.63,1.66,1.66,0,0,1,0-.7,3,3,0,0,1,.64-1.27,3.2,3.2,0,0,1,1.15-.85,3.63,3.63,0,0,1,1.32-.41,3.39,3.39,0,0,1,1.38.17,2,2,0,0,1,1,.93,1.85,1.85,0,0,1,.09,1.35c-.16.38-.48.68-.62,1.08a1.79,1.79,0,0,0,1.3,2.1c1.16.37,2.43-.1,3.59-.32a1.37,1.37,0,0,0,.89-.52,1.42,1.42,0,0,0,.29-1c-.13-.85-1-.88-1.54-1.3-1.28-1-.08-3.08,1.4-3.69a3.7,3.7,0,0,1,1.49-.35,3.58,3.58,0,0,1,1.51.3,2,2,0,0,1,1,2.59c-.56,1.12-2.39,1.91-1.79,3,.3.55,1.05.62,1.68.62h5.56a1.36,1.36,0,0,0,.8-.23,1.34,1.34,0,0,0,.52-.65c.2-.6-.26-.94-.52-1.34-1.41-1.79.35-4.95,2.62-4.69s3.27,3.73,1.5,5.16c-.43.35-1,.65-1.12,1.2-.17.86.95,1.38,1.82,1.53l5.3,1a3.38,3.38,0,0,0,1.84,0,1.16,1.16,0,0,0,.75-1.47,3.23,3.23,0,0,0-.85-.8,2.32,2.32,0,0,1,.45-3.46c1.67-1.17,4.3-.34,5.44,1a2,2,0,0,1,.47,1.08,2,2,0,0,1-.23,1.16c-.52.9-1.67,1-2.59,1.31s-1.67,1.36-1.07,2.08a1.72,1.72,0,0,0,1,.49l8.2,1.89a1.28,1.28,0,0,0,.84-.05,1.36,1.36,0,0,0,.64-.54c.31-.57-.06-1-.26-1.43a2.47,2.47,0,0,1,2.09-3.15,4.21,4.21,0,0,1,4,2.67,1.89,1.89,0,0,1,.2.84,1.93,1.93,0,0,1-.17.85c-.93,1.83-4.08,0-4.58,1.82a1.47,1.47,0,0,0,.73,1.63l5.61,3.32a2.35,2.35,0,0,0,2.1.46,3.12,3.12,0,0,0,.87-.79,4.08,4.08,0,0,1,3.82-1.29,3.07,3.07,0,0,1,2.37,3.07,2.31,2.31,0,0,1-.32,1,2.36,2.36,0,0,1-.68.76,2.51,2.51,0,0,1-.94.43,2.55,2.55,0,0,1-1,0,3.39,3.39,0,0,1-.7-.31.75.75,0,0,0-.44-.07.76.76,0,0,0-.4.2.7.7,0,0,0-.2.4.67.67,0,0,0,.07.44l2.88,5.49c.3.58,1.13,1.2,1.46.65.2-.31,0-.72,0-1.09,0-.81,1-1.32,1.83-1a3.86,3.86,0,0,1,1.74,1.72,4.93,4.93,0,0,1,1.13,3.3,2,2,0,0,1-.35.9,1.84,1.84,0,0,1-.75.6,2.25,2.25,0,0,1-2.52-1,.61.61,0,0,0-.29-.19.6.6,0,0,0-.35,0,.62.62,0,0,0-.3.18.64.64,0,0,0-.15.31,5,5,0,0,0,.3,2.24,5.08,5.08,0,0,0,1.25,1.88,1,1,0,0,0,.5.28,1.21,1.21,0,0,0,.76-.2,3.42,3.42,0,0,1,1.94-.34,3.48,3.48,0,0,1,1.81.76,2.68,2.68,0,0,1,.83,1.75,2.61,2.61,0,0,1-.6,1.84,2.08,2.08,0,0,1-.83.5,2.23,2.23,0,0,1-1,.08,2.1,2.1,0,0,1-.9-.37,2,2,0,0,1-.65-.72,2.41,2.41,0,0,0-.25-.57,1,1,0,0,0-.83-.29,1.11,1.11,0,0,0-.43.15,1.08,1.08,0,0,0-.32.32,2.92,2.92,0,0,0-.41,1.75,7,7,0,0,0,.49,3.49,2.4,2.4,0,0,0,3,1.27c.46-.22.85-.66,1.37-.66.73,0,1.11.89,1.25,1.61a4.35,4.35,0,0,1-1.25,4c-1.15.91-3.28.46-3.53-1-.1-.62.06-1.43-.46-1.72s-1.16.39-1.46,1l-1.47,2.89a4.58,4.58,0,0,0-.56,2.83,1,1,0,0,0,.19.36,1.08,1.08,0,0,0,.32.24,1.1,1.1,0,0,0,.4.08.9.9,0,0,0,.39-.1,1.82,1.82,0,0,1,1.26.06,1.78,1.78,0,0,1,.92.85,3.77,3.77,0,0,1,.15,1.63,4.16,4.16,0,0,1-2.91,3.66,1.6,1.6,0,0,1-.84,0,1.62,1.62,0,0,1-.72-.44c-.73-.81-.29-1.87-.19-2.85a2,2,0,0,0-.1-.91,1,1,0,0,0-.3-.43,1,1,0,0,0-.48-.21,1,1,0,0,0-.51.07,1,1,0,0,0-.41.33l-3.49,4.73a1.71,1.71,0,0,0-.39.63,1.65,1.65,0,0,0-.11.73c.42,1.77,4-.58,4.58,2a2.82,2.82,0,0,1-.63,2.35,8.92,8.92,0,0,1-6,3.09c-.84-.55-.34-1.84.21-2.67s1-2.17.11-2.65c-.63-.34-1.38.13-1.93.58L547.17,369c0,.94,1.55.57,2.42.94a1.58,1.58,0,0,1,.65,2.06,3.75,3.75,0,0,1-1.69,1.65,4.18,4.18,0,0,1-1.59.72,4.43,4.43,0,0,1-1.74,0c-1.13-.32-2-1.76-1.28-2.72.52-.72,1.72-1.09,1.62-2s-1.25-.95-2.08-.84l-7,.9c-.71.09-1.65.54-1.41,1.19.11.42.64.53,1,.74a2.18,2.18,0,0,1,.84,2.58,3.31,3.31,0,0,1-.84,1.19,3.14,3.14,0,0,1-1.26.73,3.31,3.31,0,0,1-1.76.21,3.36,3.36,0,0,1-1.61-.72,2.23,2.23,0,0,1-.5-.71,2.15,2.15,0,0,1-.16-.86,2.06,2.06,0,0,1,.72-1.55c.52-.37,1.35-.61,1.3-1.24s-.65-.77-1.16-.89L525.2,369a3,3,0,0,0-2,0c-.61.29-.92,1.22-.38,1.64,1,.07,1.47,1.46.95,2.32a2.79,2.79,0,0,1-1.16.91,2.85,2.85,0,0,1-1.47.22,3.2,3.2,0,0,1-1.68-.44,3.27,3.27,0,0,1-1.22-1.23,1.9,1.9,0,0,1,1.43-2.65,3.36,3.36,0,0,0,1,0,1.11,1.11,0,0,0,.4-1.55,3.16,3.16,0,0,0-1.44-1.06l-3.43-1.58a1.51,1.51,0,0,0-.8-.2c-.79.1-.87,1.24-.55,2s.81,1.53.45,2.24a2,2,0,0,1-.84.64,2,2,0,0,1-1,.13,4.66,4.66,0,0,1-3.48-1.09c-.86-.9-.8-2.69.36-3.16.87-.35,2.22,0,2.49-.93.21-.68-.52-1.23-1.14-1.56L506,360.52c-.75-.4-1.83-.73-2.3,0-.24.33-.22.78-.39,1.16-.43.93-1.81,1-2.79.61a3.23,3.23,0,0,1-1.33-.82,3.12,3.12,0,0,1-.78-1.35,1.76,1.76,0,0,1,.1-1,1.72,1.72,0,0,1,.58-.75c1.25-1,1.93.56,2.92.42a1.18,1.18,0,0,0,.85-1.41,3.45,3.45,0,0,0-.92-1.56,51.08,51.08,0,0,0-3.61-3.73c-.35-.34-.82-.68-1.26-.48s-.52.76-.66,1.21c-.59,1.87-3.68,2.2-4.59.47s1.28-4.1,3.06-3.27a1.28,1.28,0,0,0,.47.18c.65,0,.72-1,.49-1.57a12,12,0,0,0-2.65-4.14.62.62,0,0,0-.3-.18.69.69,0,0,0-.35,0,.64.64,0,0,0-.31.15.69.69,0,0,0-.2.28,2.86,2.86,0,0,1-3.3,1.7,2.8,2.8,0,0,1-1.06-.73,2.75,2.75,0,0,1-.62-1.12,2.82,2.82,0,0,1-.07-1.29,2.91,2.91,0,0,1,.52-1.18,1.78,1.78,0,0,1,.87-.6,1.74,1.74,0,0,1,1.06,0c.66.29,1.12,1.16,1.89,1s.76-1.29.54-2.07l-1.09-3.69a3.27,3.27,0,0,0-.85-1.66,1.14,1.14,0,0,0-.39-.25,1.17,1.17,0,0,0-.46-.07,1,1,0,0,0-.44.11,1.13,1.13,0,0,0-.37.28,3.44,3.44,0,0,0-.26,1.14c-.38,1.61-3,1.49-3.88.08s-.45-3.24.07-4.81c.21-.64.51-1.35,1.16-1.55,1-.3,1.95.87,2.28,1.68a2.21,2.21,0,0,0,1.13,1.18c2,.81,1.45-1.5,1.42-2.3C490.1,328.34,490.12,326.16,490.07,324Z"/><path class="b" d="M495.67,337.6a24.74,24.74,0,0,1-1.89-8A17.75,17.75,0,0,1,499,316.55a20.76,20.76,0,0,1,12.88-5.8,44.84,44.84,0,0,1,10.52.77c4.93.75,9.86,1.5,14.71,2.59a31,31,0,0,1,7.65,2.6c4.22,2.27,7.35,6.09,10.38,9.82,2.13,2.62,4.31,5.33,5.3,8.57,2,6.44-1.12,13.32-5,18.77a38.22,38.22,0,0,1-9.26,9.47,21.84,21.84,0,0,1-12.44,4.06c-5.66-.12-10.91-2.85-15.82-5.7-7.42-4.31-14.12-9.29-18.6-16.73A48,48,0,0,1,495.67,337.6Z"/><path class="c" d="M513.51,324.38c-2.66-1.45-5.56-3.36-8.47-2.53s-4.35,3.94-4.37,6.89c0,4.22,2.46,8.17,5.77,10.81s7.36,4.14,11.4,5.38a32.73,32.73,0,0,1,7.29,2.81c3.09,1.9,5.35,5,8.54,6.7a11.46,11.46,0,0,0,7.79,1.18,16.76,16.76,0,0,0,5-2.16,16.41,16.41,0,0,0,6-5.56,12.13,12.13,0,0,0,.28-10.6,19.67,19.67,0,0,0-7.09-8.19,14.88,14.88,0,0,0-3.43-1.83,13.76,13.76,0,0,0-4.77-.64,23,23,0,0,0-6.15,1,22.5,22.5,0,0,1-4,1.08c-2.46.27-4.5-.75-6.75-1.46A39.27,39.27,0,0,1,513.51,324.38Z"/><path class="d" d="M521.16,340.76c-2.5-.7-5.07-1.22-7.5-2.15a13.66,13.66,0,0,1-6.29-4.45,7.45,7.45,0,0,1-1-7.37,2.88,2.88,0,0,1,.77-1.14,3.05,3.05,0,0,1,1.19-.7,4,4,0,0,1,2.79.8c2.19,1.27,4.32,2.61,6.41,4a15.61,15.61,0,0,0,5.17,2.7c2.78.57,5.57-.57,8.33-1.25a25,25,0,0,1,5.09-.73,13.74,13.74,0,0,1,4.69.49,15.15,15.15,0,0,1,6.52,4.79,8.54,8.54,0,0,1,1.72,2.6,6.7,6.7,0,0,1,.19,3.55A11.18,11.18,0,0,1,536.41,351a14.88,14.88,0,0,1-6.87-3.36,35.13,35.13,0,0,1-4.21-4.24A7.75,7.75,0,0,0,521.16,340.76Z"/><path class="a" d="M676.64,377.17a1.81,1.81,0,0,0-.73.06,1.78,1.78,0,0,0-.65.35,1.82,1.82,0,0,0-.61,1.3c0,.42.22.82.22,1.24s-.3.89-.72.77a12.46,12.46,0,0,0-3.23-4,3.65,3.65,0,0,1-1.22-1.31c-.23-.56.08-1.34.67-1.31.3,0,.57.21.89.26a1,1,0,0,0,.42-.06,1.1,1.1,0,0,0,.37-.23,1.13,1.13,0,0,0,.24-.36,1.16,1.16,0,0,0,.08-.42,2.83,2.83,0,0,0-.66-1.66,3.42,3.42,0,0,0-1-1.1,3.34,3.34,0,0,0-1.43-.52,1.38,1.38,0,0,0-.74.21,1.43,1.43,0,0,0-.52.57c-.37.79.26,1.27.45,1.9.12.43-.11,1-.57.9l-5.39-2.93a1.1,1.1,0,0,1-.43-.34c-.24-.39.15-.86.56-1a9.73,9.73,0,0,0,1.31-.24,1.58,1.58,0,0,0,.67-1.91,3.41,3.41,0,0,0-1.52-1.68,3.16,3.16,0,0,0-1.31-.55,3,3,0,0,0-1.42.1,1.5,1.5,0,0,0-.61.48,1.58,1.58,0,0,0-.3.72c-.13.92.66,1.31,1,2a.61.61,0,0,1,0,.18.67.67,0,0,1-.22.69.7.7,0,0,1-.36.14.67.67,0,0,1-.37-.08l-4.95-2.49a1,1,0,0,1-.38-.26c-.3-.37,0-.91.44-1.09.6-.28,1.38-.19,1.65-1.05a1.83,1.83,0,0,0,0-.93,1.88,1.88,0,0,0-.46-.81,3.93,3.93,0,0,0-1.43-1.06,3.88,3.88,0,0,0-1.75-.3,2,2,0,0,0-1.15.55,2,2,0,0,0-.56,1.15,1.73,1.73,0,0,0,.31,1,1.69,1.69,0,0,0,.8.64.76.76,0,0,1,.4.35.79.79,0,0,1,.09.52l0,.07a.62.62,0,0,1-.14.28.59.59,0,0,1-.24.2.75.75,0,0,1-.3.09.84.84,0,0,1-.31-.05,23.07,23.07,0,0,0-4.56-1.07,1.53,1.53,0,0,1-.55-.25,1.33,1.33,0,0,1-.41-.44c-.33-.73.33-1.38,1-1.74s1.42-.79,1.41-1.53a1.87,1.87,0,0,0-.32-.83,1.84,1.84,0,0,0-.67-.6,3.26,3.26,0,0,0-1.56-.64,3.34,3.34,0,0,0-1.68.2,1.91,1.91,0,0,0-.94,1.29,1.93,1.93,0,0,0,0,.83,1.85,1.85,0,0,0,.38.72,3.86,3.86,0,0,1,.5.49.94.94,0,0,1,.13.4,1,1,0,0,1,0,.42,1.07,1.07,0,0,1-.2.38,1,1,0,0,1-.32.27,5.41,5.41,0,0,1-2.36.35,2.62,2.62,0,0,1-1.11-.12,2.68,2.68,0,0,1-1-.55c-1.75-1.53.63-3.07-.17-4.44a1.64,1.64,0,0,0-.7-.55,1.59,1.59,0,0,0-.89-.08,3.81,3.81,0,0,0-1.55.79,3.4,3.4,0,0,0-1.56,1.93c-.16.86.59,1.93,1.43,1.75a4.37,4.37,0,0,1,.62-.17c.74-.1,1.25.91,1,1.61a3.82,3.82,0,0,1-1.46,1.55,8.48,8.48,0,0,0-3.06,5.18c-.47.18-.92-.37-1.05-.86s0-1.36-.61-1.87a1.51,1.51,0,0,0-.9-.33,1.44,1.44,0,0,0-.92.29,3.07,3.07,0,0,0-.94,2.86A2.92,2.92,0,0,0,629,373a1.17,1.17,0,0,0,.65.48,1.25,1.25,0,0,0,.81-.06c.53-.34.59-1.25,1.22-1.34s1.07.92,1,1.65c0,1.8.83,5.15-.65,4.59a3.17,3.17,0,0,1-1-.84,1.43,1.43,0,0,0-.7-.43,1.38,1.38,0,0,0-.83,0,2,2,0,0,0-1,1,2.32,2.32,0,0,0,1.61,3.3,1.18,1.18,0,0,0,.56,0,1.33,1.33,0,0,0,.51-.24,1.39,1.39,0,0,0,.36-.44,1.47,1.47,0,0,0,.16-.54c.17-.69.94-.46,1.26-.09a3.18,3.18,0,0,1,.58,1.3l1.17,4.38c.09.31.18.67,0,.89s-1,0-1.2-.49a3.6,3.6,0,0,0-.72-1.35,1.28,1.28,0,0,0-.49-.19,1.19,1.19,0,0,0-.53.05,1.29,1.29,0,0,0-.46.25,1.31,1.31,0,0,0-.31.43,3.72,3.72,0,0,0-.07,2.14,3.8,3.8,0,0,0,.56,1.49.83.83,0,0,0,.3.26.78.78,0,0,0,.78,0,.84.84,0,0,0,.27-.29c.36-.71.92-1.31,1.71-1a1.71,1.71,0,0,1,.62.44,1.62,1.62,0,0,1,.35.69c.33,1.22.66,2.43,1,3.65-.17.58-1.11.25-1.47-.29s-.65-1.26-1.27-1.29-1,.74-1.08,1.37a3.27,3.27,0,0,0,.35,2.94,1.16,1.16,0,0,0,.37.33,1.19,1.19,0,0,0,.48.16,1.37,1.37,0,0,0,.49-.05,1.45,1.45,0,0,0,.44-.24c.53-.54.27-1.26,1-1.49a1.42,1.42,0,0,1,1.69.89,27.21,27.21,0,0,0,1.45,3.59c.26.46,1.42,2.25,0,2.17-.74,0-.85-1.16-1.42-1.67a1.28,1.28,0,0,0-.52-.23,1.37,1.37,0,0,0-.57,0,1.26,1.26,0,0,0-.5.26,1.23,1.23,0,0,0-.35.46,3.18,3.18,0,0,0,.07,2.29,3.38,3.38,0,0,0,1.1,1.76,1.26,1.26,0,0,0,.44.24,1.24,1.24,0,0,0,.5.05,1.34,1.34,0,0,0,.48-.15,1.23,1.23,0,0,0,.39-.33c.23-.42.1-1,.44-1.4a1.09,1.09,0,0,1,1.36-.12,3.41,3.41,0,0,1,1,1.12l1,1.37c.37.53.56,1.17.07,1.52-.65.48-1.44-.51-2.26-.05a1,1,0,0,0-.44.55,1.08,1.08,0,0,0,0,.71c.28,1.05.83,2.5,2.1,2.71a1,1,0,0,0,.52,0,1,1,0,0,0,.48-.22.94.94,0,0,0,.3-.43,1,1,0,0,0,0-.53c-.06-.55-.39-.88-.18-1.47.26-.74.86-.9,1.53-.4a9.24,9.24,0,0,1,1.23,1.54,4.25,4.25,0,0,0,1.66,1.24,3.48,3.48,0,0,1,1.22.6c.34.31.43.94.05,1.14s-.61,0-.91,0a1.56,1.56,0,0,0-.71.15,1.47,1.47,0,0,0-.55.47,1.44,1.44,0,0,0-.27.68,1.37,1.37,0,0,0,.08.72,2.71,2.71,0,0,0,3,1.34,2.2,2.2,0,0,0,.94-1.14,2.12,2.12,0,0,0,0-1.47,1,1,0,0,1,.8-1.22.7.7,0,0,1,.35.06l4.59,1.5c.42.26.18.93-.22,1.17s-1,.32-1.21.71c-.38.54,0,1.36.59,1.79a2.82,2.82,0,0,0,1.8.57,2.86,2.86,0,0,0,1.75-.7,1,1,0,0,0,.35-.68c0-.5-.54-.85-1-1.13s-.53-1.34.15-1.34l5.82-.59a.9.9,0,0,1,.32,1.18c-.3.68-1.06,1.1-.59,2.2a2,2,0,0,0,.44.67,1.83,1.83,0,0,0,.67.43,2.13,2.13,0,0,0,2.61-1.42,1.12,1.12,0,0,0,.09-.63,1.16,1.16,0,0,0-.25-.59,2.73,2.73,0,0,0-.67-.37,2,2,0,0,1-.81-.83,5.12,5.12,0,0,1,1.24-1.93,5.18,5.18,0,0,1,1.95-1.2,2.63,2.63,0,0,1,2.15.18c1.29.78.41,1.88.86,2.74s1.52.73,2.3.42a2.82,2.82,0,0,0,1.17-.68,2.86,2.86,0,0,0,.71-1.15c.2-.87-.59-2.05-1.5-1.91-.48.08-.91.48-1.37.37a1,1,0,0,1-.57-1.1,2.48,2.48,0,0,1,.66-1.1l1.88-2.14a2,2,0,0,1,.93-.71.8.8,0,0,1,1,.48c.09.34-.13.66-.18,1a1.5,1.5,0,0,0,.11.55,1.47,1.47,0,0,0,.32.46,1.35,1.35,0,0,0,.47.3,1.45,1.45,0,0,0,.55.1,2.36,2.36,0,0,0,1-.33,2.27,2.27,0,0,0,.78-.76,2.28,2.28,0,0,0,.34-2.54c-.51-.81-2-.72-2,.2-.37.2-.86-.17-1-.6a2.16,2.16,0,0,1,.15-1.28l1.42-4.15a1.88,1.88,0,0,1,.61-1,.82.82,0,0,1,.57-.12.83.83,0,0,1,.5.31c-.24.67.59,1.41,1.29,1.29a1.87,1.87,0,0,0,.91-.48,2,2,0,0,0,.57-.87,2.71,2.71,0,0,0,.27-1.12,2.74,2.74,0,0,0-.22-1.13,1.58,1.58,0,0,0-2-.86c-.44.22-.67.7-1,1s-1,.47-1.31,0a10.27,10.27,0,0,0-.25-4.2,3.45,3.45,0,0,1-.18-2.41.91.91,0,0,1,.27-.32.93.93,0,0,1,.37-.19,1,1,0,0,1,.42,0,1.28,1.28,0,0,1,.4.15c.43.26.33.58.39.89a1.19,1.19,0,0,0,.42.61,1.13,1.13,0,0,0,.71.24,1.94,1.94,0,0,0,.7-.2,1.69,1.69,0,0,0,.54-.49,2.57,2.57,0,0,0,.48-1.28,2.52,2.52,0,0,0-.26-1.35,2.78,2.78,0,0,0-2.25-1.55,1,1,0,0,0-.66.17c-.52.39-.22,1.45-.82,1.72s-1-.33-1.29-.79L676,382.69c-.29-.42-.47-1.15,0-1.26.26-.07.52.15.76.28a1.5,1.5,0,0,0,1,.09,1.55,1.55,0,0,0,.84-.58,2.47,2.47,0,0,0,.33-1,2.29,2.29,0,0,0-.15-1,2.82,2.82,0,0,0-2.17-2Z"/><path class="b" d="M643.31,400c-2.95-3.72-3.84-8.53-4.63-13.11L637,376.93a17.77,17.77,0,0,1-.42-4.6,5.67,5.67,0,0,1,.56-2.17,5.51,5.51,0,0,1,1.37-1.77,5.26,5.26,0,0,1,3.46-.93,15.14,15.14,0,0,1,5.77,2L659,375.08c4.84,2.42,9.89,5,13.08,9.43A16.17,16.17,0,0,1,674,400.1a14.67,14.67,0,0,1-12.49,8.61c-3.14.18-6.12-1-9-2.29C649.09,404.85,645.68,403,643.31,400Z"/><path class="c" d="M651.79,395.27a14.82,14.82,0,0,0,3.16,7.07,8.27,8.27,0,0,0,9.88,1.61,10.91,10.91,0,0,0,2.64-2.34,13,13,0,0,0,2.33-3.49,6.88,6.88,0,0,0,.43-4.2,7.76,7.76,0,0,0-1.15-2.43,11,11,0,0,0-2.59-2.68,15.63,15.63,0,0,0-4.6-2.16,10.76,10.76,0,0,1-3.09-1.24c-1.93-1.34-2.54-3.84-3.68-5.87a11.52,11.52,0,0,0-9.46-5.79,6,6,0,0,0-3.46.82c-1.78,1.16-2.37,3.64-1.8,5.79a10.81,10.81,0,0,0,3.89,5.39,29.71,29.71,0,0,0,3,2.07,10.94,10.94,0,0,1,2.56,1.64C651.17,391,651.41,393.44,651.79,395.27Z"/><path class="d" d="M654,391.78A24,24,0,0,0,655.8,397a8.48,8.48,0,0,0,3.9,3.86,4.43,4.43,0,0,0,2.66.35,5.18,5.18,0,0,0,2.63-1.7c1.39-1.48,2.45-3.52,2-5.59a6.76,6.76,0,0,0-3.54-4.06,46.06,46.06,0,0,0-5.15-2,6.5,6.5,0,0,1-2.14-1.22c-1.23-1.15-1.53-2.91-2.16-4.44a11,11,0,0,0-3.14-4.28,6.81,6.81,0,0,0-4.73-1.77,3.47,3.47,0,0,0-2.22.95,3.52,3.52,0,0,0-1.07,2.17,4.48,4.48,0,0,0,2.08,3.6,16.16,16.16,0,0,0,3.92,1.79c1.23.44,3.1,1,3.82,2.24S653.58,390.33,654,391.78Z"/><path class="a" d="M626.47,467a1.23,1.23,0,0,0,.1-.57,1.33,1.33,0,0,0-.18-.54c-.39-.59-1-.18-1.47-.29a1.15,1.15,0,0,1-.6-.53,1.17,1.17,0,0,1-.1-.8,2.5,2.5,0,0,1,.91-1.4,1.92,1.92,0,0,1,.78-.49,1.8,1.8,0,0,1,.92-.06,1,1,0,0,1,.4.24,1,1,0,0,1,.25.4c.16.6-.25,1.05-.5,1.55a.5.5,0,0,0,0,.34.47.47,0,0,0,.18.29.53.53,0,0,0,.34.11.55.55,0,0,0,.32-.14,13.76,13.76,0,0,1,3.11-2.35,2.2,2.2,0,0,0,.82-.63.76.76,0,0,0,.15-.5.77.77,0,0,0-.2-.48c-.36-.27-.85.09-1.28.07-.71,0-1-1.1-.64-1.77a2.83,2.83,0,0,1,1.8-1.17,2.27,2.27,0,0,1,1.29-.08,1,1,0,0,1,.54.38,1,1,0,0,1,.18.64c0,.41-.4.71-.65,1s-.42.87-.12,1.13l4-.62c.41-.06,1-.46.69-.79a.79.79,0,0,0-.45-.18,1.19,1.19,0,0,1-.31-.28,1,1,0,0,1-.17-.38.81.81,0,0,1,0-.41.93.93,0,0,1,.15-.39,1.85,1.85,0,0,1,.62-.56,1.75,1.75,0,0,1,.81-.19,1.84,1.84,0,0,1,.77.1,1.73,1.73,0,0,1,.65.42,1.17,1.17,0,0,1,.28.76,1.2,1.2,0,0,1-.27.76c-.17.17-.41.26-.57.44a1.15,1.15,0,0,0,.16,1.5,3.86,3.86,0,0,0,1.88.68.76.76,0,0,0,.59-.08.79.79,0,0,0,.37-.47c.13-.5-.3-.74-.48-1.09-.42-.84.69-1.72,1.58-1.71a1.86,1.86,0,0,1,.84.17,2,2,0,0,1,.69.52,1.43,1.43,0,0,1,.24.85,1.32,1.32,0,0,1-.35.82c-.55.48-1.67.44-1.61,1.24,0,.38.39.6.71.75l2.81,1.33a.67.67,0,0,0,.46.07.78.78,0,0,0,.41-.22c.25-.3.11-.59.06-.84-.29-1.33,1.35-2.65,2.43-2a1.94,1.94,0,0,1-.46,3.21c-.3.09-.66.12-.85.4-.28.44.16,1,.57,1.28l2.41,1.8a1.88,1.88,0,0,0,.94.45.67.67,0,0,0,.49-.17.72.72,0,0,0,.24-.47,1.84,1.84,0,0,0-.24-.64,1.43,1.43,0,0,1,0-.58,1.32,1.32,0,0,1,.18-.55,1.44,1.44,0,0,1,.38-.43,1.39,1.39,0,0,1,.52-.25,2.44,2.44,0,0,1,2.51,1.85,1.32,1.32,0,0,1,0,.71,1.29,1.29,0,0,1-.4.58c-.47.38-1.06.14-1.6.11s-1.17.31-1,.88a1.08,1.08,0,0,0,.41.53l3.71,3a.63.63,0,0,0,.43.17.65.65,0,0,0,.44-.14c.29-.24.2-.55.2-.87a1.37,1.37,0,0,1,.19-.59,1.51,1.51,0,0,1,.42-.45,1.35,1.35,0,0,1,.57-.23,1.3,1.3,0,0,1,.62,0,2.46,2.46,0,0,1,1.09,1,2.55,2.55,0,0,1,.33,1.45,1.32,1.32,0,0,1-.4.92c-.89.79-2.05-1-2.73-.08a1,1,0,0,0-.18.53,1,1,0,0,0,.16.55l2,3.19c.23.36.54.76,1,.76a2.08,2.08,0,0,0,.63-.23,2,2,0,0,1,1.14-.21,2.13,2.13,0,0,1,1.09.43,1.93,1.93,0,0,1,.47,2.26,1.31,1.31,0,0,1-.89.72,1.42,1.42,0,0,1-.58,0,1.47,1.47,0,0,1-.54-.24,1.87,1.87,0,0,1-.28-.35.41.41,0,0,0-.22-.17.39.39,0,0,0-.28,0,.43.43,0,0,0-.21.19.45.45,0,0,0,0,.28l.19,3.72c0,.4.25,1,.59.72.17-.13.15-.41.23-.62a.82.82,0,0,1,.23-.26.68.68,0,0,1,.32-.11.67.67,0,0,1,.34,0,.69.69,0,0,1,.28.2,2.38,2.38,0,0,1,.47,1.37,3.14,3.14,0,0,1-.21,2.09,1.07,1.07,0,0,1-.38.41,1,1,0,0,1-.53.16c-.57,0-.89-.57-1-1.16a.32.32,0,0,0-.1-.17.31.31,0,0,0-.38-.05.32.32,0,0,0-.14.14,3.15,3.15,0,0,0-.38,1.31,3.23,3.23,0,0,0,.19,1.34.64.64,0,0,0,.18.28.73.73,0,0,0,.44.06,1.84,1.84,0,0,1,1.79,1.15,1.68,1.68,0,0,1,0,1.15,1.67,1.67,0,0,1-.74.89,1.13,1.13,0,0,1-.55.07,1.19,1.19,0,0,1-.51-.2,1.15,1.15,0,0,1-.37-.42,1.07,1.07,0,0,1-.13-.53,1.21,1.21,0,0,0,0-.38.46.46,0,0,0-.13-.21.57.57,0,0,0-.21-.13.4.4,0,0,0-.24,0,.57.57,0,0,0-.23.08,1.84,1.84,0,0,0-.6.85,4.44,4.44,0,0,0-.57,2.05c0,.71.52,1.45,1.19,1.41.29,0,.59-.16.81,0s.35.72.23,1.18a2.83,2.83,0,0,1-.55,1.16,2.68,2.68,0,0,1-1,.77,1.26,1.26,0,0,1-.61,0,1.24,1.24,0,0,1-.54-.29,1.16,1.16,0,0,1-.33-.51,1.22,1.22,0,0,1-.06-.6c.09-.36.36-.78.15-1.06s-.68-.07-1,.18l-1.43,1.25a2.88,2.88,0,0,0-1,1.43.53.53,0,0,0,0,.25.7.7,0,0,0,.11.23.55.55,0,0,0,.19.15.53.53,0,0,0,.25.05,1,1,0,0,1,.88,1,2.49,2.49,0,0,1-.3.92,2.25,2.25,0,0,1-.65.72,2,2,0,0,1-.77.52,2,2,0,0,1-.92.1,1,1,0,0,1-.42-.23.91.91,0,0,1-.25-.41c-.16-.62.3-1.09.58-1.61a1.47,1.47,0,0,0,.16-.53.52.52,0,0,0,0-.3.51.51,0,0,0-.19-.22.47.47,0,0,0-.28-.09.5.5,0,0,0-.29.07l-2.86,1.77a1,1,0,0,0-.36.26,1.14,1.14,0,0,0-.23.38c-.2,1.07,2.17.65,1.84,2.21a1.71,1.71,0,0,1-.31.67,1.86,1.86,0,0,1-.56.48,4.75,4.75,0,0,1-1.85.53,4.56,4.56,0,0,1-1.9-.26c-.29-.5.26-1.1.74-1.43s1-1,.68-1.43-.72-.26-1.11-.15l-3,.89c-.21.52.65.69,1,1.1a1,1,0,0,1,.15.67,1.08,1.08,0,0,1-.31.63,2.06,2.06,0,0,1-1.24.5,2.27,2.27,0,0,1-1,0,2.32,2.32,0,0,1-.89-.4,1.31,1.31,0,0,1-.3-.41,1.44,1.44,0,0,1-.1-.5,1.17,1.17,0,0,1,.11-.49,1.22,1.22,0,0,1,.29-.42c.43-.26,1.12-.18,1.28-.69s-.41-.83-.85-1l-3.72-1.19c-.38-.12-1-.1-1,.33,0,.26.2.45.34.66a1.44,1.44,0,0,1,.17.84,1.34,1.34,0,0,1-.36.78,1.84,1.84,0,0,1-.68.45,2,2,0,0,1-.8.11,1.81,1.81,0,0,1-.95-.33,1.75,1.75,0,0,1-.63-.77,1.38,1.38,0,0,1,0-1,1.34,1.34,0,0,1,.74-.7c.34-.09.81,0,1-.36s-.15-.58-.37-.77l-2.92-2.38a1.66,1.66,0,0,0-1-.48c-.37,0-.75.46-.6.82.48.28.39,1.17-.07,1.51a1.54,1.54,0,0,1-.81.25,1.48,1.48,0,0,1-.82-.24,1.83,1.83,0,0,1-.76-.67,1.89,1.89,0,0,1-.31-1c0-.71.74-1.4,1.33-1.11.19.07.34.22.53.24.34,0,.59-.4.55-.76a1.74,1.74,0,0,0-.48-.93l-1.35-1.71a.79.79,0,0,0-.36-.29c-.42-.14-.69.46-.74.95s.05,1-.3,1.35-.78.14-1.13,0a2.55,2.55,0,0,1-.91-.57,2.49,2.49,0,0,1-.59-.87c-.19-.71.23-1.7.92-1.67.52,0,1.13.52,1.48.09s0-.82-.21-1.14l-2.1-3c-.29-.4-.75-.84-1.15-.58-.2.13-.3.38-.47.55-.45.43-1.15.12-1.55-.34a2.06,2.06,0,0,1-.49-.78,1.92,1.92,0,0,1-.06-.92,1,1,0,0,1,.74-.79c.86-.23.85.78,1.37.94a.73.73,0,0,0,.5-.13.72.72,0,0,0,.26-.44,2.24,2.24,0,0,0-.09-1.09c-.27-1-.59-2-.94-2.93-.08-.28-.25-.57-.52-.58s-.44.29-.63.52a1.39,1.39,0,0,1-1.48.34,1.46,1.46,0,0,1-.64-.46,1.38,1.38,0,0,1-.29-.73c-.06-1.18,1.6-2,2.31-1.08a.48.48,0,0,0,.19.21c.33.18.59-.35.62-.74a7.7,7.7,0,0,0-.36-2.94.45.45,0,0,0-.11-.17.4.4,0,0,0-.17-.09.44.44,0,0,0-.2,0,.45.45,0,0,0-.17.11,1.46,1.46,0,0,1-1,.49,1.57,1.57,0,0,1-1.06-.34,2,2,0,0,1-.36-.67,1.78,1.78,0,0,1,0-.76,1.71,1.71,0,0,1,.27-.72,1.74,1.74,0,0,1,.54-.54.9.9,0,0,1,.58-.12.93.93,0,0,1,.54.25c.26.33.3.92.7,1s.67-.53.75-1l.33-2.31a2.13,2.13,0,0,0-.05-1.12.6.6,0,0,0-.85-.36c-.19.13-.26.38-.4.56-.6.81-1.88.1-2-.89a3.82,3.82,0,0,1,1.17-2.64c.26-.3.58-.62.95-.57.58.07.78,1,.76,1.48a1.39,1.39,0,0,0,.29.92c.8.92,1.09-.48,1.27-.93C625.46,469.38,626,468.17,626.47,467Z"/><path class="b" d="M626.08,475.84A16.23,16.23,0,0,1,627,471a10.56,10.56,0,0,1,2.17-3.49,10.55,10.55,0,0,1,7.36-3.3,10.54,10.54,0,0,1,4.05.7,23.6,23.6,0,0,1,5.13,3c2.31,1.6,4.62,3.2,6.81,5a17.06,17.06,0,0,1,3.24,3.28c1.6,2.26,2.27,5.11,2.94,7.92a17,17,0,0,1,.66,6c-.51,4-3.71,7.1-7,9.17a21,21,0,0,1-6.9,3,11.19,11.19,0,0,1-7.23-.76c-2.83-1.41-4.84-4.2-6.64-7-2.75-4.16-4.92-8.48-5.44-13.72A32.61,32.61,0,0,1,626.08,475.84Z"/><path class="c" d="M638.19,472.82c-1-1.44-2-3.2-3.67-3.44s-3.12,1.13-3.82,2.73a9.14,9.14,0,0,0-.6,3.73,9.26,9.26,0,0,0,.94,3.65,19.46,19.46,0,0,0,4.48,5.72,17.26,17.26,0,0,1,3,3.28c1.12,1.79,1.53,4,2.73,5.75a6.18,6.18,0,0,0,3.65,2.53,10.67,10.67,0,0,0,7.38-1.62,7.82,7.82,0,0,0,1.94-2.61,7.92,7.92,0,0,0,.7-3.18,12.27,12.27,0,0,0-1.67-6.22,8.21,8.21,0,0,0-1.31-1.84,7.3,7.3,0,0,0-2.25-1.51,12.07,12.07,0,0,0-3.33-.94,11.86,11.86,0,0,1-2.3-.37,9,9,0,0,1-3-2.45A23.84,23.84,0,0,1,638.19,472.82Z"/><path class="d" d="M638.21,483.72c-1.08-1-2.26-1.9-3.25-3a8.09,8.09,0,0,1-2.13-4,4.87,4.87,0,0,1,1.24-4.33,1.83,1.83,0,0,1,.65-.44,1.76,1.76,0,0,1,.79-.1,2.32,2.32,0,0,1,1.22,1.11c.8,1.23,1.55,2.49,2.28,3.79a8.32,8.32,0,0,0,2,2.73c1.26,1,2.94,1,4.49,1.31a13.75,13.75,0,0,1,2.74.83,7.24,7.24,0,0,1,2.25,1.41,9,9,0,0,1,2.16,4.2,5.56,5.56,0,0,1,.26,1.85,4.54,4.54,0,0,1-.74,2,6.49,6.49,0,0,1-4,2.86,5.77,5.77,0,0,1-4.63-1,8.5,8.5,0,0,1-2.67-3.51,21,21,0,0,1-1.12-3.36A4.51,4.51,0,0,0,638.21,483.72Z"/><path class="a" d="M592.81,559.69a1,1,0,0,0-.12-.41.92.92,0,0,0-.28-.31,1,1,0,0,0-.38-.19,1.18,1.18,0,0,0-.42,0c-.23.07-.44.21-.68.27s-.53-.08-.52-.32a7.35,7.35,0,0,0,1.89-2.3,2.32,2.32,0,0,1,.59-.86c.3-.19.79-.11.83.24,0,.17-.06.34-.05.52a.63.63,0,0,0,.08.23.59.59,0,0,0,.17.18.51.51,0,0,0,.24.1.7.7,0,0,0,.25,0,1.82,1.82,0,0,0,.87-.57,2,2,0,0,0,.5-.72,1.87,1.87,0,0,0,.13-.87.77.77,0,0,0-.19-.42.76.76,0,0,0-.4-.24c-.5-.12-.74.31-1,.48s-.59,0-.58-.21l1-3.4a.61.61,0,0,1,.14-.29c.2-.18.52,0,.63.21s.19.49.3.73a.9.9,0,0,0,.55.29.93.93,0,0,0,.61-.13,2.09,2.09,0,0,0,.8-1,1.94,1.94,0,0,0,.16-.82,1.89,1.89,0,0,0-.23-.8,1.05,1.05,0,0,0-.34-.29,1,1,0,0,0-.45-.08c-.54,0-.67.52-1,.8l-.09.07a.37.37,0,0,1-.21,0,.33.33,0,0,1-.21-.09.32.32,0,0,1-.12-.18.41.41,0,0,1,0-.22c.29-1,.57-2.07.81-3.1a.77.77,0,0,1,.1-.25c.18-.21.53-.08.68.13s.26.75.78.82a1.05,1.05,0,0,0,.53-.11,1,1,0,0,0,.41-.35,2.16,2.16,0,0,0,.44-.93,2.11,2.11,0,0,0,0-1,1.15,1.15,0,0,0-.45-.59,1.23,1.23,0,0,0-.72-.2,1.12,1.12,0,0,0-.54.28,1.06,1.06,0,0,0-.29.54.47.47,0,0,1-.16.27.44.44,0,0,1-.29.11.33.33,0,0,1-.17,0,.42.42,0,0,1-.15-.11.53.53,0,0,1-.08-.17.36.36,0,0,1,0-.18,13.73,13.73,0,0,0,.09-2.72.77.77,0,0,1,.08-.34.72.72,0,0,1,.2-.29c.35-.26.82,0,1.1.34s.61.71,1,.63a1.11,1.11,0,0,0,.43-.28,1,1,0,0,0,.26-.45,1.88,1.88,0,0,0,.19-1,2,2,0,0,0-.3-.94,1.24,1.24,0,0,0-.39-.29,1.13,1.13,0,0,0-.93,0,1.13,1.13,0,0,0-.38.3,1.55,1.55,0,0,1-.21.35.88.88,0,0,1-.21.12.5.5,0,0,1-.24,0,.46.46,0,0,1-.23-.06.48.48,0,0,1-.2-.15,2.9,2.9,0,0,1-.46-1.28,1.46,1.46,0,0,1-.07-.66,1.56,1.56,0,0,1,.2-.62c.67-1.18,1.83,0,2.51-.62a1,1,0,0,0,.24-.46.89.89,0,0,0-.06-.51,2.09,2.09,0,0,0-.64-.8,2,2,0,0,0-1.28-.69c-.5,0-1,.56-.82,1a2,2,0,0,1,.18.32c.11.41-.37.82-.79.76a2.2,2.2,0,0,1-1.06-.66,5,5,0,0,0-3.31-1.13c-.15-.25.1-.58.37-.71s.77-.16,1-.57a.87.87,0,0,0,.07-.55.84.84,0,0,0-.26-.49,1.79,1.79,0,0,0-1.75-.2,1.68,1.68,0,0,0-.85.45.75.75,0,0,0-.19.4.69.69,0,0,0,.11.44c.25.26.78.19.92.57s-.41.69-.83.77c-1,.21-2.83,1.08-2.69.17a1.7,1.7,0,0,1,.37-.67.83.83,0,0,0,.17-.46.87.87,0,0,0-.12-.47,1.32,1.32,0,0,0-.68-.4,1.42,1.42,0,0,0-.79,0,1.41,1.41,0,0,0-.91,1.21.72.72,0,0,0,.08.32.63.63,0,0,0,.2.26.76.76,0,0,0,.28.15.93.93,0,0,0,.33,0c.4,0,.36.48.19.71a1.76,1.76,0,0,1-.69.48l-2.36,1.19a.55.55,0,0,1-.25.1.57.57,0,0,1-.26,0c-.24-.14-.09-.55.14-.74s.55-.29.67-.55a.63.63,0,0,0,0-.3.61.61,0,0,0-.08-.3.74.74,0,0,0-.2-.23.6.6,0,0,0-.28-.13,2,2,0,0,0-1.23.21,2.17,2.17,0,0,0-.78.48.53.53,0,0,0-.11.21.45.45,0,0,0,0,.23.37.37,0,0,0,.12.2.39.39,0,0,0,.19.12c.45.12.85.37.79.86a1,1,0,0,1-.18.4,1,1,0,0,1-.35.29l-2,1c-.35,0-.27-.61,0-.86s.68-.54.58-.89-.53-.45-.93-.44a1.92,1.92,0,0,0-.89.07,2,2,0,0,0-.75.46.82.82,0,0,0-.14.26.68.68,0,0,0,0,.28.66.66,0,0,0,.09.28.55.55,0,0,0,.18.22c.37.25.76,0,1,.4a.82.82,0,0,1-.31,1.06,15.53,15.53,0,0,0-1.87,1.24c-.23.2-1.12,1-1.24.26-.07-.43.57-.63.79-1a.86.86,0,0,0,.05-.32.84.84,0,0,0-.08-.31.86.86,0,0,0-.2-.26.8.8,0,0,0-.29-.15,1.81,1.81,0,0,0-1.29.35,1.94,1.94,0,0,0-.88.82.9.9,0,0,0-.08.28.7.7,0,0,0,0,.29.72.72,0,0,0,.14.26.68.68,0,0,0,.23.18c.27.08.6-.05.84.08a.61.61,0,0,1,.23.34.61.61,0,0,1,0,.42,2.19,2.19,0,0,1-.51.73l-.68.71c-.26.27-.6.45-.86.23s.13-.85-.23-1.3a.65.65,0,0,0-.37-.18.62.62,0,0,0-.4.08c-.56.3-1.32.76-1.32,1.52a.58.58,0,0,0,0,.29.61.61,0,0,0,.18.24.54.54,0,0,0,.27.11.57.57,0,0,0,.29,0c.32-.09.46-.33.82-.29a.53.53,0,0,1,.39.82,5.16,5.16,0,0,1-.74.87,2.44,2.44,0,0,0-.52,1.1,2.51,2.51,0,0,1-.2.76c-.14.23-.49.35-.65.17s-.09-.33-.08-.52a.87.87,0,0,0-.17-.38.93.93,0,0,0-.33-.26.91.91,0,0,0-.41-.08.79.79,0,0,0-.39.13,1.61,1.61,0,0,0-.52.85,1.54,1.54,0,0,0,.1,1,1.23,1.23,0,0,0,.75.4,1.28,1.28,0,0,0,.84-.17.49.49,0,0,1,.28-.09.57.57,0,0,1,.29.08.6.6,0,0,1,.19.23.48.48,0,0,1,0,.29c-.12,1.14-.18,1.68-.32,2.79-.1.27-.51.21-.69,0s-.29-.5-.54-.61-.76.21-1,.55a1.65,1.65,0,0,0-.12,1.09,1.58,1.58,0,0,0,.61.92.54.54,0,0,0,.42.12c.28-.07.42-.41.53-.69s.7-.45.8-.08l1,3.25a.48.48,0,0,1-.25.29.53.53,0,0,1-.37,0c-.43-.1-.76-.47-1.32-.08a1,1,0,0,0-.33.33,1.26,1.26,0,0,0-.17.44,1.27,1.27,0,0,0,.29.9,1.24,1.24,0,0,0,.83.44.67.67,0,0,0,.37,0,.63.63,0,0,0,.3-.21,1.6,1.6,0,0,0,.14-.42,1.09,1.09,0,0,1,.38-.56,3,3,0,0,1,1.24.48,3,3,0,0,1,.91,1,1.59,1.59,0,0,1,.21.6,1.52,1.52,0,0,1-.07.64c-.29.83-1,.46-1.42.8s-.23.95,0,1.36a1.56,1.56,0,0,0,.52.59,1.62,1.62,0,0,0,.73.27c.54,0,1.11-.58.92-1.06-.07-.27-.38-.47-.35-.73a.57.57,0,0,1,.2-.32.56.56,0,0,1,.37-.13,1.48,1.48,0,0,1,.7.25l1.4.82a1.19,1.19,0,0,1,.52.45.45.45,0,0,1,0,.34.42.42,0,0,1-.2.29,2.9,2.9,0,0,1-.59,0,.82.82,0,0,0-.63,1,1.35,1.35,0,0,0,.31.56,1.45,1.45,0,0,0,.52.35,1.35,1.35,0,0,0,.76.17,1.28,1.28,0,0,0,.73-.27c.39-.38.17-1.24-.35-1.14-.16-.19,0-.52.22-.64a1.17,1.17,0,0,1,.74-.06l2.53.31a1.14,1.14,0,0,1,.65.23.49.49,0,0,1,.11.14.53.53,0,0,1,0,.17.57.57,0,0,1,0,.18.71.71,0,0,1-.1.14c-.41-.05-.73.5-.58.89a1.15,1.15,0,0,0,.38.47,1.13,1.13,0,0,0,.56.21,1.52,1.52,0,0,0,.67,0,1.61,1.61,0,0,0,.62-.26.94.94,0,0,0,.36-.55.87.87,0,0,0-.1-.65c-.17-.23-.47-.31-.7-.48a.57.57,0,0,1-.21-.76,5.77,5.77,0,0,0,2.37-.63,2.05,2.05,0,0,1,1.36-.37.91.91,0,0,1,.22.11.66.66,0,0,1,.15.19.73.73,0,0,1,.07.24.64.64,0,0,1,0,.24c-.09.28-.29.26-.45.33a.66.66,0,0,0-.36.74.91.91,0,0,0,.19.38.94.94,0,0,0,.34.25,1.53,1.53,0,0,0,.79.12,1.42,1.42,0,0,0,.74-.3,1.63,1.63,0,0,0,.62-1.46.61.61,0,0,0-.15-.37c-.29-.25-.86,0-1.08-.26s.08-.61.3-.83l1.72-1.71c.2-.21.6-.4.72-.14s0,.31-.08.47a.88.88,0,0,0,.5,1,1.36,1.36,0,0,0,.6.07,1.44,1.44,0,0,0,.57-.2,1.68,1.68,0,0,0,.67-.65A1.63,1.63,0,0,0,592.81,559.69Z"/><path class="b" d="M576,543.37c1.77-2.11,4.41-3.17,6.92-4.15l5.46-2.13a10.12,10.12,0,0,1,2.57-.76,3.17,3.17,0,0,1,2.47.64,3,3,0,0,1,.94,1.86,8.73,8.73,0,0,1-.46,3.51l-1.91,7c-.82,3-1.71,6.21-3.85,8.54a9.47,9.47,0,0,1-8.66,2.91,8.54,8.54,0,0,1-6.35-6.11,11.1,11.1,0,0,1,.26-5.4A14,14,0,0,1,576,543.37Z"/><path class="c" d="M579.62,547.66a8.47,8.47,0,0,0-3.66,2.61,4.86,4.86,0,0,0-.86,3,4.79,4.79,0,0,0,1.09,2.87,6.55,6.55,0,0,0,1.62,1.2,7.76,7.76,0,0,0,2.27.93,4,4,0,0,0,2.45-.25,4.61,4.61,0,0,0,1.25-.94,6.71,6.71,0,0,0,1.22-1.78,9.06,9.06,0,0,0,.7-2.89,6.39,6.39,0,0,1,.31-1.89c.54-1.25,1.89-1.89,2.92-2.78a6.71,6.71,0,0,0,1.88-2.75,6.78,6.78,0,0,0,.32-3.31,3.51,3.51,0,0,0-.86-1.87,3.09,3.09,0,0,0-3.51-.36,6.24,6.24,0,0,0-2.63,2.84,16.88,16.88,0,0,0-.82,2,6.49,6.49,0,0,1-.64,1.65C582,546.81,580.62,547.23,579.62,547.66Z"/><path class="d" d="M581.86,548.49a13.54,13.54,0,0,0-2.76,1.65,4.92,4.92,0,0,0-1.74,2.67,2.65,2.65,0,0,0,.11,1.55,3.1,3.1,0,0,0,1.27,1.29,3.67,3.67,0,0,0,1.64.66,3.76,3.76,0,0,0,1.76-.18,4.1,4.1,0,0,0,1.21-1.06,3.89,3.89,0,0,0,.69-1.45,27.8,27.8,0,0,0,.54-3.16,3.64,3.64,0,0,1,.45-1.36,7,7,0,0,1,2.28-1.75,6.3,6.3,0,0,0,2.07-2.28,3.91,3.91,0,0,0,.46-2.89,2,2,0,0,0-2.16-1.52,2.6,2.6,0,0,0-1.1.58,2.69,2.69,0,0,0-.71,1,9.79,9.79,0,0,0-.56,2.45,4.27,4.27,0,0,1-.82,2.43A11.68,11.68,0,0,1,581.86,548.49Z"/><path class="a" d="M539.91,416.31a.83.83,0,0,0,.07-.41.79.79,0,0,0-.13-.39c-.28-.41-.69-.13-1-.2a.77.77,0,0,1-.43-.38.75.75,0,0,1-.07-.57,1.83,1.83,0,0,1,.64-1,1.33,1.33,0,0,1,.55-.35,1.31,1.31,0,0,1,.65,0,.75.75,0,0,1,.3.17.66.66,0,0,1,.17.29c.12.43-.17.75-.35,1.1a.33.33,0,0,0,0,.24.39.39,0,0,0,.13.2.33.33,0,0,0,.23.07.35.35,0,0,0,.23-.09,9.94,9.94,0,0,1,2.2-1.66,1.53,1.53,0,0,0,.59-.45.55.55,0,0,0,.1-.35.51.51,0,0,0-.13-.34c-.26-.2-.61.07-.92,0-.5,0-.71-.79-.45-1.26a2,2,0,0,1,1.27-.82,1.6,1.6,0,0,1,.92-.06.69.69,0,0,1,.38.27.72.72,0,0,1,.13.45c0,.3-.29.51-.46.74s-.3.62-.08.8l2.82-.43c.28-.08.68-.34.48-.57s-.2-.1-.31-.13a.67.67,0,0,1-.22-.19.71.71,0,0,1-.13-.26.61.61,0,0,1,0-.3.68.68,0,0,1,.1-.27,1.27,1.27,0,0,1,.45-.38,1.17,1.17,0,0,1,.58-.12,1.24,1.24,0,0,1,.54.06,1.26,1.26,0,0,1,.46.3.82.82,0,0,1,.2.54.89.89,0,0,1-.19.54c-.12.12-.28.19-.41.32a.81.81,0,0,0,.11,1.05,2.9,2.9,0,0,0,1.34.46.55.55,0,0,0,.22,0,.81.81,0,0,0,.22-.07.8.8,0,0,0,.17-.15.75.75,0,0,0,.1-.2c.1-.36-.21-.52-.33-.78-.3-.59.49-1.22,1.11-1.21a1.43,1.43,0,0,1,.61.14,1.38,1.38,0,0,1,.48.39.94.94,0,0,1,.18.61.92.92,0,0,1-.25.58c-.39.34-1.18.32-1.14.87,0,.27.27.43.5.53l2,.95a.53.53,0,0,0,.33,0,.56.56,0,0,0,.29-.16c.17-.2.08-.41,0-.62-.21-.94.95-1.88,1.72-1.39a1.36,1.36,0,0,1,.38.56,1.38,1.38,0,0,1,.07.67,1.31,1.31,0,0,1-.26.62,1.28,1.28,0,0,1-.52.43c-.22.06-.47.08-.6.27s.11.7.4.92l1.72,1.29a1.24,1.24,0,0,0,.66.32.52.52,0,0,0,.35-.12.54.54,0,0,0,.16-.34,1.44,1.44,0,0,0-.17-.45,1,1,0,0,1,.1-.8,1,1,0,0,1,.27-.3,1.16,1.16,0,0,1,.37-.18,1.73,1.73,0,0,1,1.12.34,1.67,1.67,0,0,1,.65,1,.82.82,0,0,1,0,.49.87.87,0,0,1-.27.41c-.34.26-.79.1-1.14.07s-.83.22-.74.62a.74.74,0,0,0,.29.38l2.61,2.12a.52.52,0,0,0,.31.12.51.51,0,0,0,.32-.1c.21-.17.14-.4.15-.6a1,1,0,0,1,.43-.74,1.15,1.15,0,0,1,.41-.17,1,1,0,0,1,.43,0,1.71,1.71,0,0,1,.77.71,1.75,1.75,0,0,1,.23,1,.89.89,0,0,1-.07.36.79.79,0,0,1-.2.31c-.67.56-1.46-.7-1.94-.07a.64.64,0,0,0-.12.38.57.57,0,0,0,.11.38l1.42,2.27c.17.26.38.54.67.54a1.43,1.43,0,0,0,.46-.13A1.51,1.51,0,0,1,566,425a1.41,1.41,0,0,1,.76.3,1.32,1.32,0,0,1,.44.74,1.4,1.4,0,0,1-.09.86,1,1,0,0,1-.25.33,1,1,0,0,1-.37.2,1.19,1.19,0,0,1-.42,0,.87.87,0,0,1-.38-.17.91.91,0,0,1-.2-.24.44.44,0,0,0-.16-.1.28.28,0,0,0-.18,0,.28.28,0,0,0-.14.12.29.29,0,0,0,0,.18l.11,2.64c0,.28.18.67.41.51s.12-.29.18-.43a.41.41,0,0,1,.15-.17.57.57,0,0,1,.22-.07.48.48,0,0,1,.42.15,1.73,1.73,0,0,1,.33,1,2.25,2.25,0,0,1-.15,1.49.75.75,0,0,1-.27.29.81.81,0,0,1-.37.12c-.41,0-.63-.4-.74-.83a.21.21,0,0,0-.07-.12.31.31,0,0,0-.13-.06.35.35,0,0,0-.14,0,.32.32,0,0,0-.1.1,2.45,2.45,0,0,0-.27.92,2.36,2.36,0,0,0,.14.95.37.37,0,0,0,.12.2.48.48,0,0,0,.31,0,1.27,1.27,0,0,1,.76.21,1.25,1.25,0,0,1,.51.6,1.16,1.16,0,0,1,0,.82,1.13,1.13,0,0,1-.52.62.75.75,0,0,1-.39.07.83.83,0,0,1-.38-.14.79.79,0,0,1-.26-.31.74.74,0,0,1-.07-.39,1.13,1.13,0,0,0,0-.26.38.38,0,0,0-.09-.15.29.29,0,0,0-.15-.09.32.32,0,0,0-.17,0,.49.49,0,0,0-.17.06,1.24,1.24,0,0,0-.43.6,3.29,3.29,0,0,0-.43,1.46c0,.5.37,1,.85,1,.2,0,.41-.11.6,0s.25.55.16.85a1.87,1.87,0,0,1-1.12,1.36.89.89,0,0,1-.43,0,.82.82,0,0,1-.38-.2.92.92,0,0,1-.23-.36.9.9,0,0,1,0-.43c.06-.26.26-.55.11-.76s-.49,0-.69.14l-1,.89a1.94,1.94,0,0,0-.68,1,.22.22,0,0,0,0,.16.34.34,0,0,0,.07.15l.13.1a.45.45,0,0,0,.16,0,.75.75,0,0,1,.45.25.72.72,0,0,1,.18.48,1.6,1.6,0,0,1-.68,1.17,1.28,1.28,0,0,1-.54.37,1.42,1.42,0,0,1-.65.07.75.75,0,0,1-.3-.17.66.66,0,0,1-.17-.29c-.12-.45.21-.78.41-1.14a1,1,0,0,0,.11-.38.39.39,0,0,0,0-.21.4.4,0,0,0-.13-.16.36.36,0,0,0-.2-.06.34.34,0,0,0-.2,0l-2,1.26a.84.84,0,0,0-.41.45c-.15.77,1.54.46,1.3,1.57a1.35,1.35,0,0,1-.22.47,1.12,1.12,0,0,1-.38.34,3.35,3.35,0,0,1-1.31.38,3.26,3.26,0,0,1-1.35-.19c-.21-.35.19-.78.55-1s.72-.69.48-1-.51-.18-.78-.1l-2.17.63c-.15.37.46.49.71.78a.76.76,0,0,1-.11.92,1.53,1.53,0,0,1-.88.36,1.61,1.61,0,0,1-.69,0,1.58,1.58,0,0,1-.63-.29.86.86,0,0,1-.21-.29.91.91,0,0,1,0-.7.86.86,0,0,1,.21-.29c.3-.2.78-.13.9-.5s-.29-.58-.59-.65l-2.68-.83c-.26-.09-.68-.07-.7.24s.14.31.24.46a1,1,0,0,1,.12.59,1,1,0,0,1-.25.56,1.43,1.43,0,0,1-.49.32,1.32,1.32,0,0,1-.59.07,1.24,1.24,0,0,1-.67-.22,1.22,1.22,0,0,1-.45-.55,1,1,0,0,1,.54-1.22c.25-.07.59,0,.69-.26s-.12-.41-.27-.54L544.92,440a1.14,1.14,0,0,0-.7-.34c-.27,0-.53.32-.42.58.35.2.28.82,0,1.07a1,1,0,0,1-.57.16,1.08,1.08,0,0,1-.56-.16,1.32,1.32,0,0,1-.54-.48,1.28,1.28,0,0,1-.22-.69c0-.5.54-1,1-.8a.91.91,0,0,0,.37.18c.15,0,.42-.28.39-.54a1.31,1.31,0,0,0-.34-.66l-1-1.2a.59.59,0,0,0-.25-.22c-.3-.09-.52.34-.52.68s0,.74-.22,1a.69.69,0,0,1-.41.11.74.74,0,0,1-.41-.13,1.6,1.6,0,0,1-.65-.39,1.71,1.71,0,0,1-.44-.62c-.14-.51.16-1.19.65-1.18s.8.37,1,.07,0-.58-.13-.78l-1.5-2.11c-.2-.28-.52-.6-.81-.41a3.09,3.09,0,0,0-.33.39c-.32.3-.79.07-1.1-.24a1.25,1.25,0,0,1-.34-.56,1.3,1.3,0,0,1-.05-.65.8.8,0,0,1,.19-.35.85.85,0,0,1,.34-.21c.6-.16.59.56,1,.67a.48.48,0,0,0,.35-.1.46.46,0,0,0,.19-.31,1.62,1.62,0,0,0-.07-.79c-.19-.71-.42-1.4-.67-2.08,0-.19-.18-.4-.37-.41s-.31.21-.44.37a1,1,0,0,1-.48.27,1,1,0,0,1-1-.35,1,1,0,0,1-.21-.52c0-.81,1.14-1.39,1.63-.77a.73.73,0,0,0,.14.16c.23.12.42-.26.44-.54a5.59,5.59,0,0,0-.25-2.07.36.36,0,0,0-.08-.12.31.31,0,0,0-.13-.06h-.14l-.12.07a1,1,0,0,1-.7.35,1.07,1.07,0,0,1-.75-.24,1.24,1.24,0,0,1-.29-1,1.33,1.33,0,0,1,.2-.51,1.25,1.25,0,0,1,.39-.37.61.61,0,0,1,.41-.09.55.55,0,0,1,.38.18c.19.23.18.65.49.68s.49-.38.53-.72l.24-1.63a1.59,1.59,0,0,0,0-.81.43.43,0,0,0-.61-.26c-.21.15-.18.27-.28.4-.41.57-1.33.07-1.4-.63a2.65,2.65,0,0,1,.83-1.85.79.79,0,0,1,.3-.3.93.93,0,0,1,.4-.12c.41,0,.55.67.54,1a1,1,0,0,0,.18.66c.56.66.73-.34.89-.66C539.19,418,539.56,417.17,539.91,416.31Z"/><path class="b" d="M539.63,422.58a11.59,11.59,0,0,1,.66-3.45,7.49,7.49,0,0,1,1.54-2.47,7.45,7.45,0,0,1,8.08-1.84,16.89,16.89,0,0,1,3.64,2.1c1.63,1.13,3.27,2.27,4.81,3.54a11.93,11.93,0,0,1,2.27,2.33,15.74,15.74,0,0,1,2.06,5.62,12,12,0,0,1,.47,4.26c-.37,2.85-2.63,5-4.94,6.49a14.83,14.83,0,0,1-4.89,2.13,7.86,7.86,0,0,1-5.12-.53c-2-1-3.43-3-4.7-4.94a21.21,21.21,0,0,1-3.85-9.71A23.12,23.12,0,0,1,539.63,422.58Z"/><path class="c" d="M548.21,420.47c-.7-1-1.42-2.27-2.6-2.44a2.79,2.79,0,0,0-2.7,1.94,6.4,6.4,0,0,0,.25,5.21,13.6,13.6,0,0,0,3.17,4.05,13.14,13.14,0,0,1,2.13,2.34c.78,1.27,1.08,2.87,1.91,4.09a4.29,4.29,0,0,0,2.58,1.76,6,6,0,0,0,2.15,0,6.1,6.1,0,0,0,3.07-1.15,5.45,5.45,0,0,0,1.37-1.85,5.31,5.31,0,0,0,.5-2.25,8.63,8.63,0,0,0-1.18-4.41,5.19,5.19,0,0,0-.92-1.3,5,5,0,0,0-1.51-1,8.07,8.07,0,0,0-2.36-.67,8.06,8.06,0,0,1-1.62-.27,6,6,0,0,1-2.17-1.74A16.58,16.58,0,0,1,548.21,420.47Z"/><path class="d" d="M548.18,428.19c-.77-.7-1.6-1.34-2.31-2.12a5.77,5.77,0,0,1-1.51-2.81,3.51,3.51,0,0,1,.07-1.64,3.42,3.42,0,0,1,.81-1.42,1.2,1.2,0,0,1,1-.39,1.55,1.55,0,0,1,.86.79c.57.87,1.11,1.76,1.62,2.68a5.91,5.91,0,0,0,1.4,1.92,6.93,6.93,0,0,0,3.18.93,9.41,9.41,0,0,1,1.94.58,5,5,0,0,1,1.59,1,6.43,6.43,0,0,1,1.54,3,4.21,4.21,0,0,1,.18,1.32,3.15,3.15,0,0,1-.53,1.42,4.61,4.61,0,0,1-2.83,2,4.14,4.14,0,0,1-3.27-.67,6.13,6.13,0,0,1-1.9-2.49,17.47,17.47,0,0,1-.79-2.38A3.16,3.16,0,0,0,548.18,428.19Z"/><path class="e" d="M296.83,125c-2.08,2.19-2.08,6.27-5.59,6.82a5.06,5.06,0,0,1-3.56-.86,5.11,5.11,0,0,1-2.06-3l-7.42-30.1a4.66,4.66,0,0,1,2.43-5.39c3.76-1.76,6.34,3.46,10.07,4,3.13.5,5.8-2.51,6.68-5.55,1.9-6.66-1.17-15.89-7.64-18.38-12-4.62-9.61,17.72-17.77,11.17-5.66-3.6-11.59-7.51-14.63-13.45s-1.84-14.66,4.24-17.52c4.07-1.9,9.53-1,12.19-5a7.56,7.56,0,0,0,.66-6.55c-1.3-3.93-4.6-6.47-7.89-8.7s-6.81-4.3-10.87-3.71a6.64,6.64,0,0,0-2.65.94,6.48,6.48,0,0,0-2,1.95c-3.19,5,3.51,9.68-.16,14.88a8.23,8.23,0,0,1-6.71,3.29c-4.51,0-8.35-2.67-11.93-5.25-3.24-2.33-6.61-4.81-7.81-8.79a7.25,7.25,0,0,1-.3-2.89,7.34,7.34,0,0,1,.87-2.78c3.11-5.27,10.22-1,13-7.5a8.94,8.94,0,0,0-1.19-9.06c-3.64-4.68-10.54-5.78-16.1-5.64A11.27,11.27,0,0,0,215.85,9,11.41,11.41,0,0,0,212,12.09c-3.69,4.7.15,8,.45,12,.48,6.41-7.44,9.71-13.76,11-4,.83-8.22,1.64-12.1-.32a6.88,6.88,0,0,1-3.77-4.91c-1.23-7.22,10.46-10.77,9.38-17.91a6.79,6.79,0,0,0-4-5.05c-3.53-1.64-7.39-.88-10.95.24-3.83,1.21-7.67,2.95-9.95,6.38a8.87,8.87,0,0,0-1.44,3.95c-1,8.3,9.41,8.28,9.84,15.41a8,8,0,0,1-2,5.6c-2.85,3.32-7.08,4.45-11.14,5.5s-8.32,2.1-12.37.43a7.49,7.49,0,0,1-4.25-4.18c-2.73-7.15,8.82-12.16,5.24-18.67a7,7,0,0,0-8-3.2c-5.37,1.48-12.29,2.07-16.13,6.87a7.89,7.89,0,0,0-1.31,7.86c1.65,4.1,5.65,3.43,8.54,5.11,3.95,2.3,4.25,8.28,1.82,12.16s-6.7,6.13-10.77,8.22-8.47,4.34-13.27,3.65a8.81,8.81,0,0,1-5.59-3c-6.06-7.36,6.54-17.86-.66-23.47a7.51,7.51,0,0,0-8.87-.08c-4.13,2.9-9.56,5.17-12,10.06a8.24,8.24,0,0,0-.62,6.08c1.42,4.48,6.19,4.81,9.47,7.17,6,4.35,4.54,14.42-1,19.25C88,82.37,81.58,83.62,75.29,83.94a8.06,8.06,0,0,1-3.61-3.2c-3.47-6,3.06-14.63-1.28-20a7.47,7.47,0,0,0-7.21-2.5c-5.72,1-9.2,6.26-12.44,10.33a9.74,9.74,0,0,0-2,4,9.64,9.64,0,0,0,0,4.5c2.42,8.82,15.59,4.2,18.17,13.51a9.67,9.67,0,0,1,.2,4.18c-.67,4.27-3.38,7.65-6,10.92-2.8,3.45-5.76,7-10.35,8.11a7.58,7.58,0,0,1-3.35.11,7.69,7.69,0,0,1-3.07-1.34c-6-4.68,0-15.23-5.44-19.9a7,7,0,0,0-6.39-1.23c-4.8,1.33-7.6,6.12-9.66,10a9.09,9.09,0,0,0,.13,8.94c3.61,6,10.86,2.56,16.05,5,3.74,1.75,5.54,6.2,5.41,10.31s-1.84,8-3.51,11.74c-1.36,3-2.79,6.2-5.74,8a6.22,6.22,0,0,1-2.58,1,6.06,6.06,0,0,1-2.74-.24c-5.71-2-3.7-11.49-9.14-13.3a5.46,5.46,0,0,0-4.89.92c-2.46,1.8-3.48,4.68-4.45,7.44-1.19,3.43-2.4,7.07-1.05,10.64a6.12,6.12,0,0,0,1.4,2.21A6,6,0,0,0,14,155.57c3.8,1.29,6.12-2.29,9.37-3.07,3.8-.9,7.54,2.49,8.48,6.28s-.1,7.82-1.16,11.53c-1,3.42-2,7-4.93,9.29a7,7,0,0,1-4.56,1.49c-6.64-.37-4.83-9.73-9.79-10.83a4.25,4.25,0,0,0-2.29.19,4.35,4.35,0,0,0-1.86,1.36c-1.63,1.91-1.87,4.4-2.08,6.8-.37,4.07-.7,8.35,1.07,12a8.9,8.9,0,0,0,5.85,4.81c5.24,1.26,6.41-3.53,10.08-4.61a3.5,3.5,0,0,1,1.73-.1c2.08.46,2.55,2.52,2.85,4.33,1.46,8.49,6.93,28.91,6.4,30.49-1.27,3.66-5.47,7-8.91,8.64-2.25,1-4.84,1.4-6.86,2.83-2.81,2-4,5.74-3.46,9.1.87,6.3,8,11.46,14,9.22s2.59-10.27,4.95-14.6c1.31-2.4,4.36-.84,4.54-.56,3.41,5.41,4.93,12.56,8.63,18,1.55,2.26,3.17,4.5,2.32,7.1-1.78,5.38-6.82,2.87-10.29,4.56-2.85,1.4-3.69,5.3-2.68,8.3s3.4,5.32,5.71,7.51c2.76,2.63,5.79,5.39,9.91,5.08a5.15,5.15,0,0,0,2.77-1,5,5,0,0,0,1.76-2.35c1.64-5-6.09-8.24-4.82-12.85a4.45,4.45,0,0,1,1.55-2.19,4.53,4.53,0,0,1,2.52-.91c3-.23,5.49,1.53,7.81,3.23L79.45,287a7.37,7.37,0,0,1,2.19,2.46,7.2,7.2,0,0,1,.9,3.17c.13,4-3.32,5.1-5.82,7a11.71,11.71,0,0,0-3.58,13.92A10.92,10.92,0,0,0,86.24,319c5.47-2,8.43-9.42,5-14.4a5.53,5.53,0,0,1-1-3c-.07-5.28,5.79-4.56,9.51-3l28,11.83c2.08,1.66,1.07,5.13-.79,7-2.43,2.47-6,4-6.13,8.18a8,8,0,0,0,.77,3.44,7.88,7.88,0,0,0,2.19,2.77c3.29,2.8,7.72,3.23,11.94,3.34,3.77.08,7.76-.11,10.74-2.57a6.74,6.74,0,0,0,2-2.53A6.59,6.59,0,0,0,149,327c-.48-5.44-8-5.49-8.19-11.21a7,7,0,0,1,2-4.9c2.66-2.81,6.49-3.55,10.17-4.23,4.94-.89,10.14-1.77,14.88-.09s8.59,6.95,6.89,11.67c-.58,1.65-1.78,3.1-1.92,4.84-.36,4.46,5.71,6.27,10.16,5.79,3.75-.41,17.1-4.1,13.47-12.06-1.57-3.43-5.5-2.22-10.17-2.67-3.9-1.13-5.12-6.49-3.37-10.16s5.41-6,8.88-8.09c3.8-2.31,7.79-4.68,12.22-5s9.42,2,10.57,6.26c.62,2.33.06,4.92,1.09,7.11,1.35,3,5.2,4.16,8.45,3.46s11.83-6.28,12.66-9.47c.74-2.9-.5-9.14-7.85-8.22a6.47,6.47,0,0,1-2.83-.31,6.54,6.54,0,0,1-2.42-1.49,6.3,6.3,0,0,1-1.55-2.38,6.53,6.53,0,0,1-.39-2.81c.36-4,3.11-7.3,5.74-10.33s5.41-6.13,9.32-7.21a8.2,8.2,0,0,1,6,.63c4,2.12,3,5.73,3.85,8.76,1.53,5.31,9.26,7.27,13.46,3.68s3.92-10.95-.21-14.64c-2.46-2.2-5.93-3.23-7.92-5.88-3.46-4.57-.76-11.06,2-16.06,2.05-3.7,4.2-7.53,7.65-10a11.39,11.39,0,0,1,7-2.08,11.43,11.43,0,0,1,1.47,2.16c1.38,2.79,1.19,6.21,2.85,8.86,3.2,5.15,12.21,3.66,14.77-1.84s4.53-15.64-2.41-18.14c-3.43-1.21-5.14,1.57-8.4,1.83-2.63.2-5.09-1.09-6.33-7.09a22,22,0,0,1,2.17-14.47c2-3.95,3.3-9.79,8.24-11.6a5.17,5.17,0,0,1,2.86-.25,5,5,0,0,1,2.55,1.32c2.12,2.13.87,4.85,1.2,7.35.56,4.18,5.59,5.62,9.73,4.94,5.63-.94,11.38-20.73,1.92-24.2-8.31-3.06-7.51,8.22-13.72,1-1.46-1.72.29-7.9.19-10.15-.23-5.19.58-10.3.35-15.49-.17-3.82-.3-7.87,2.35-11a5.71,5.71,0,0,1,5-2.15c5,.56,5.19,7.2,9.22,9.11,3.25,1.58,7.27-1.13,8.43-4.55s-2.46-17.47-4.93-19.86S299.17,122.52,296.83,125Z"/><path class="b" d="M202.79,48.18c-10-.13-19.89,2.62-29.46,5.66-33.54,10.68-66.55,26-91.12,51.18C63.33,124.4,50.06,149.51,46.29,176.3s2.32,55.12,18.06,77.12,41.31,37.07,68.31,38.68c18.42,1.1,36.8-3.85,53.53-11.64,41-19.07,73.64-56.7,83.46-100.78A130.42,130.42,0,0,0,267.3,115c-5.82-19.86-17.07-42.17-33.72-55.21C225,53.05,213.67,48.32,202.79,48.18Z"/><path class="c" d="M80,240.15C67.89,225,64.11,202.18,75.39,186c13.27-19,42.29-22.93,55.46-42,8-11.53,8.47-26.31,14.39-38.88a51.79,51.79,0,0,1,38.32-28.34C200,74.3,217.5,80.61,227.82,93a44.42,44.42,0,0,1,6.5,45.39c-4.92,11.26-14.42,20.19-24.87,27.13-6.31,4.14-13.47,8.17-16.46,15-2.57,5.83-1.42,12.54.85,18.39s5.65,11.27,7.65,17.22c6.07,18.18-2.52,39.67-18.74,51.05-12.91,9.06-29.7,11.8-45,9C131.94,275.05,104.16,270.59,80,240.15Z"/><path class="d" d="M176.17,190.55c.74,10.32,4.28,20.24,5.51,30.51s-.37,21.79-8,28.74c-6.57,6-16.17,7.24-25.06,7.08-15.8-.3-32.19-4.65-43.65-15.54s-16.55-29.27-9-43.17c10.65-19.74,40-22.81,51.24-42.19,7.49-12.85,4.92-29.49,11.37-42.92,6-12.63,20.73-20.84,34.53-18.43s25.06,15.88,24.11,29.85c-.58,8.45-5.13,16.23-11,22.31a73.21,73.21,0,0,1-9.71,8.21c-3.07,2.21-6.93,4-9.54,6.75-4.63,4.86-8.36,10.26-9.85,16.89A41.1,41.1,0,0,0,176.17,190.55Z"/><path class="f" d="M34.37,101.51a8.77,8.77,0,0,0,.21-2.28,2.18,2.18,0,0,0-.37-1.07,2.11,2.11,0,0,0-.88-.71c-.9-.3-1.87.37-2.54,1.06a9.21,9.21,0,0,0-2.69,5.19,5.8,5.8,0,0,0,.31,2.92A6,6,0,0,0,30.08,109c1.18.94,4.27,1.72,5.15,0C35.83,107.87,34.1,103.29,34.37,101.51Z"/><path class="f" d="M59.33,77.87l2.16-7.73a3.09,3.09,0,0,0,.14-1.62,2,2,0,0,0-.92-1,2,2,0,0,0-1.34-.15,4.74,4.74,0,0,0-2.31,1.43,9.81,9.81,0,0,0-2.76,4.36,5,5,0,0,0-.08,2.58A5.11,5.11,0,0,0,55.41,78a3.49,3.49,0,0,0,4.7.2"/><path class="f" d="M89.08,50c.32,1.21,2,1.4,3.18,1.14a11.22,11.22,0,0,0,5.56-2.94c2.34-2.26,2.55-7-1.63-6.09C94,42.63,88.43,47.59,89.08,50Z"/><path class="f" d="M137.16,30.09a8.78,8.78,0,0,1-4.09,2.37c-1.58.25-3.46-.7-3.61-2.3a3.9,3.9,0,0,1,1.67-3.06,15.86,15.86,0,0,1,7.42-3.62c1.17-.22,2.63-.18,3.23.85s-.35,2.6-1.49,3.32-2.52,1.22-3.16,2.39"/><path class="f" d="M180.66,14.57a16.86,16.86,0,0,1-7.46,4.31c-1,.27-2.36.33-2.81-.61s.24-1.86,1-2.54a17,17,0,0,1,7.15-4.19,4.55,4.55,0,0,1,2.34-.19,1.9,1.9,0,0,1,1,.57,1.86,1.86,0,0,1,.47,1.06,1.18,1.18,0,0,1-.13.56,1.21,1.21,0,0,1-.38.43,1.15,1.15,0,0,1-.53.2,1.12,1.12,0,0,1-.57-.06"/><path class="f" d="M215.66,18.92a2.38,2.38,0,0,1-.92-.07,2.16,2.16,0,0,1-.81-.45,1.42,1.42,0,0,1,0-1.64,3.61,3.61,0,0,1,1.38-1.1A17.7,17.7,0,0,1,227,14c1.59.33,3.44,1.32,3.29,2.93a2.51,2.51,0,0,1-1.82,2C224.89,20,219.4,18.91,215.66,18.92Z"/><path class="f" d="M262,41.13c-.62-1.06-2-1.36-3.1-1.75s-2.4-1.25-2.3-2.47c.12-1.41,1.88-1.95,3.29-2a11.81,11.81,0,0,1,4,.28,5,5,0,0,1,3.1,2.44,3.15,3.15,0,0,1-.64,3.7,2.3,2.3,0,0,1-.88.45,2.36,2.36,0,0,1-1,.06,2.22,2.22,0,0,1-.92-.36,2.42,2.42,0,0,1-.7-.69"/><path class="f" d="M128.49,65.05a1.62,1.62,0,0,1-.58.11,1.52,1.52,0,0,1-.59-.12,1.63,1.63,0,0,1-.49-.33,1.29,1.29,0,0,1-.33-.5,1.52,1.52,0,0,1-.12-.59,1.53,1.53,0,0,1,.46-1.08,1.63,1.63,0,0,1,.49-.33l.12,0A31.54,31.54,0,0,0,135.88,57a17.66,17.66,0,0,0,3-3.53,1.63,1.63,0,0,1,.79-.63,1.52,1.52,0,0,1,1,0,1.45,1.45,0,0,1,.79.63,1.48,1.48,0,0,1,.23,1,4.2,4.2,0,0,1-.25.94,11.06,11.06,0,0,1-4,4.74A37.38,37.38,0,0,1,128.49,65.05Z"/><path class="f" d="M105.21,70.93a16.91,16.91,0,0,1-3,7.45A27.4,27.4,0,0,1,88.6,88.73a5.54,5.54,0,0,1,2-3.8,40,40,0,0,1,3.59-2.6,19,19,0,0,0,7.33-17.78,3.36,3.36,0,0,1,0-1.48C102.38,60.26,105.44,69.24,105.21,70.93Z"/><path class="f" d="M71,98.85c1.36,1.54.44,4-.59,5.72-3.1,5.45-6.86,11-12.67,13.39-.66.28-1.51.48-2,0-1.09-1,6.19-6.83,7.14-7.9S71.7,99.69,71,98.85Z"/><path class="f" d="M35.34,160.83a50.36,50.36,0,0,1-1.23,10.23,2.53,2.53,0,0,0,2.35-1,7.27,7.27,0,0,0,1.1-2.46,33.38,33.38,0,0,0,1.78-8.26A11.24,11.24,0,0,0,37,151.39c-1.6-1.85-3.93-2.48-3.94.15C33,154.36,35.29,157.66,35.34,160.83Z"/><path class="f" d="M44.33,141.16a15.53,15.53,0,0,0,5.93-11.65,1.72,1.72,0,0,0-.07-.87,1.68,1.68,0,0,0-.47-.73C48.31,127,44.68,139.7,44.33,141.16Z"/><path class="f" d="M173.92,44.14c-2.72,1.39-5.82,2.13-8.19,4.07,1,1.29,2.92,1,4.45.59a37.84,37.84,0,0,0,7.24-3.07A12.22,12.22,0,0,0,181,43a5.31,5.31,0,0,0,1.09-2,5.22,5.22,0,0,0,.13-2.26,2.72,2.72,0,0,0-.49-1.16,2.87,2.87,0,0,0-1-.85c-2.33-1.14-1.87,2.14-2.54,3.45A9.83,9.83,0,0,1,173.92,44.14Z"/><path class="f" d="M175.76,23.44a3.85,3.85,0,0,0,1.3,2.48,2.12,2.12,0,0,0,1-.46,2.16,2.16,0,0,0,.65-.91,2.19,2.19,0,0,0-.36-2.13,2.18,2.18,0,0,0-1-.43,2.08,2.08,0,0,0-1.1.15,2.13,2.13,0,0,0-.89.68,2.17,2.17,0,0,0-.42,1"/><path class="f" d="M212.28,32.73c-2.67,2.21-5.87,3.61-8.94,5.17a2.64,2.64,0,0,0-1.12.86.92.92,0,0,0-.15.68,1,1,0,0,0,.37.59,1.35,1.35,0,0,0,.95,0c3.9-1.05,7.84-2.35,10.94-4.91s5.29-6.6,4.63-10.58a3.23,3.23,0,0,0-.75-1.78c-2.71-2.8-1.5,2.67-1.56,3.32C216.53,28.58,214.1,31.22,212.28,32.73Z"/><path class="f" d="M247.29,53.5A13.09,13.09,0,0,1,238,53a4.83,4.83,0,0,0-1.73-.57,1.25,1.25,0,0,0-.86.23,1.28,1.28,0,0,0-.52.71,1.67,1.67,0,0,0,.28,1.06c2.1,3.66,7.13,4.86,11.15,3.55s7.06-4.62,9.29-8.21a3.86,3.86,0,0,0,.69-1.69,1.43,1.43,0,0,0-.17-.88,1.4,1.4,0,0,0-.67-.6C255.53,46.6,249.07,52.92,247.29,53.5Z"/><path class="f" d="M83.68,284.29a55.82,55.82,0,0,0-15.12-12.71,3.13,3.13,0,0,0-1.45-.52c-3.43-.1,4.53,6.14,5.49,6.93a36.38,36.38,0,0,0,5.33,3.81C79.27,282.54,82.8,283.24,83.68,284.29Z"/><path class="f" d="M77.3,306.77a3,3,0,0,0-1.61,3.42,2.91,2.91,0,0,0,.59,1.21,3.46,3.46,0,0,0,1.13.76,3.43,3.43,0,0,0,3.8-.8,3.94,3.94,0,0,0,.93-2.54,4,4,0,0,0-.91-2.55A3.22,3.22,0,0,0,78.5,305a2.15,2.15,0,0,0-1.33.7,2.1,2.1,0,0,0-.56,1.39"/><path class="f" d="M127.72,327.8a3.11,3.11,0,0,1,1.39-1.66,11,11,0,0,1,4-1.64,10.68,10.68,0,0,1,4.36.06c1.1.25,2.52.55,3.16-.41s-.22-2.09-1.08-2.75a10,10,0,0,0-11.54-.17,6,6,0,0,0-2.81,4.78c0,1.67,1.39,3.48,3.06,3.43a1.93,1.93,0,0,1-.48-.75A2.08,2.08,0,0,1,127.72,327.8Z"/><path class="f" d="M130.48,301.74a7.89,7.89,0,0,1,1,11c.17-3-1.93-5.69-4.49-7.22s-5.55-2.13-8.43-2.87-5.85-1.71-8-3.77c-.59-.56-1.1-1.53-.57-2.1a1.64,1.64,0,0,1,.73-.28,1.59,1.59,0,0,1,.78.07C117,297.49,126,298.16,130.48,301.74Z"/><path class="f" d="M179.5,320.73a1.66,1.66,0,0,0-1.4,0,1.61,1.61,0,0,0-.86,1.11,2.33,2.33,0,0,0,.27,1.42,2.29,2.29,0,0,0,1,1,4.3,4.3,0,0,0,2.89.23,4.16,4.16,0,0,0,2.36-1.29,2.24,2.24,0,0,0,.55-1.22,2.2,2.2,0,0,0-.24-1.31,2.32,2.32,0,0,0-1.07-.81,2.42,2.42,0,0,0-1.33-.13,7.3,7.3,0,0,0-2.51,1"/><path class="f" d="M221.9,298.6a2.6,2.6,0,0,0-3.23,1.6,3.16,3.16,0,0,0,.08,2,3.09,3.09,0,0,0,1.23,1.55,4,4,0,0,0,1.91.56,4,4,0,0,0,1.94-.42,3.89,3.89,0,0,0,1.42-1.12,3.84,3.84,0,0,0,.75-1.64,2.92,2.92,0,0,0-1.51-3.06,2.37,2.37,0,0,0-3.09,1.08"/><path class="f" d="M250.72,272.71a2.14,2.14,0,0,1,1.43-.63,2.11,2.11,0,0,1,1.48.53,2.14,2.14,0,1,1-3.27.57"/><path class="f" d="M277.69,237a8.19,8.19,0,0,1,1.67-8.56,2.87,2.87,0,0,0-1.91-1,2.94,2.94,0,0,0-2.06.6,4.41,4.41,0,0,0-1.47,4,9,9,0,0,0,1.78,4,2.61,2.61,0,0,0,1.28,1.13,1.21,1.21,0,0,0,.42,0,1.17,1.17,0,0,0,.41-.14,1.11,1.11,0,0,0,.31-.3.93.93,0,0,0,.15-.39"/><path class="f" d="M264.38,214.33a14.55,14.55,0,0,1-8.61,15.29s3-5.79,3.36-6.33Z"/><path class="f" d="M241.89,252a11.54,11.54,0,0,0-4.82,3.81c-.36.51-.67,1.27-.22,1.69s1.25.06,1.77-.35c1.12-.87,2.21-1.78,3.29-2.7a3.53,3.53,0,0,0,1-1.15,1.25,1.25,0,0,0,.11-.74,1.19,1.19,0,0,0-.33-.66,1,1,0,0,0-.33-.15.7.7,0,0,0-.35,0,.74.74,0,0,0-.32.16.72.72,0,0,0-.2.29"/><path class="f" d="M210.18,285.51a10.63,10.63,0,0,1,6.86,4.75,5.77,5.77,0,0,0-.76-4.62,5.91,5.91,0,0,0-1.69-1.69,6,6,0,0,0-2.24-.85,3,3,0,0,0-1.34.09,3,3,0,0,0-1.15.69,1.53,1.53,0,0,0-.32.57,1.58,1.58,0,0,0,0,.65,1.49,1.49,0,0,0,.25.61,1.45,1.45,0,0,0,.48.44"/><path class="f" d="M294.86,190a9.26,9.26,0,0,0,.73-2.29,1.87,1.87,0,0,0-.19-1.16,1.9,1.9,0,0,0-.82-.84c-1.16-.45-2.24.79-2.75,1.93a13.31,13.31,0,0,0-.77,8.12,3.48,3.48,0,0,0,1.36,2.36C295.65,200.12,294.3,191.47,294.86,190Z"/><path class="f" d="M297.06,133a10.72,10.72,0,0,0,2.88,7.71c.55.58,1.52,1.11,2.08.53.42-.42.25-1.13.06-1.69l-2-5.89a4.76,4.76,0,0,0-.92-1.77,1.55,1.55,0,0,0-.84-.5,1.64,1.64,0,0,0-1,.09,1,1,0,0,0-.35.34,1,1,0,0,0-.15.47,1,1,0,0,0,.1.48,1,1,0,0,0,.32.37"/><path class="f" d="M282.4,84.29l.1-.62Z"/><path class="f" d="M276.37,88.65l7-1.5a5.34,5.34,0,0,0,2.28-.87c1.39-1.12,1.31-3.23,1.11-5a4.35,4.35,0,0,0-.52-1.94c-1.76-2.8-2.9,2.68-3.76,3.77C281.32,84.6,278.22,88.29,276.37,88.65Z"/><path class="f" d="M277.29,134.78a51.6,51.6,0,0,0-8.68-38.51,3,3,0,0,0-.78-.92,2.93,2.93,0,0,0-1.06-.56c-1.26-.19-2.26,1.26-2.12,2.52.25,2.38,3.29,5.29,4.3,7.61a87.69,87.69,0,0,1,3.56,9.81c1,3.34,1.88,6.74,2.66,10.14C275.76,127.46,277.73,132.17,277.29,134.78Z"/><path class="f" d="M278.51,152.6c1.62.92,2.05,3,2.26,4.87a102.67,102.67,0,0,1,.59,14.24c0,1.23-.66,3.35-2.31,2.4-1-.55-.83-5.5-.91-6.59A82.65,82.65,0,0,1,278.51,152.6Z"/><path class="f" d="M273.06,188.92a17.42,17.42,0,0,0-3.84,5.43c-.3.67-.34,1.78.42,1.81a1.45,1.45,0,0,0,.49-.18,1.3,1.3,0,0,0,.37-.37l5-5.94a2,2,0,0,0,.51-.69,2.25,2.25,0,0,0,.2-.84c-.11-.91-1.38-1.27-2.18-.82a4.3,4.3,0,0,0-1.6,2.17"/><path class="a" d="M62.2,159.76a11.51,11.51,0,0,1,1.56-3.68l3.5-6.13c1.16-2,2.45-4.21,4.54-5.3s5.25-.37,5.89,1.9c.71,2.66-2.17,4.9-2.77,7.59a8.79,8.79,0,0,0,.3,4,12.41,12.41,0,0,1,.55,4,3.71,3.71,0,0,1-2.13,3.2c-3.16,1.16-2.46-3.75-5.19-4.16C66.19,160.84,61.19,166.18,62.2,159.76Z"/><path class="a" d="M102.3,150.31a12,12,0,0,1-3,4.71c-1.46,1.19-3.78,1.57-5.18.31a4.08,4.08,0,0,1-.87-4.23,12,12,0,0,1,2.4-3.85l5.09-6.21c1.67-2,3.75-4.28,6.4-4a4.75,4.75,0,0,1,3.94,4.33,6.81,6.81,0,0,1-.63,3.08,6.57,6.57,0,0,1-2,2.45,11.5,11.5,0,0,1-5.84,2.26"/><path class="a" d="M93.31,126.78a2.75,2.75,0,0,1-.61,1,2.87,2.87,0,0,1-1,.63,2.93,2.93,0,0,1-1.13.2,2.84,2.84,0,0,1-1.11-.28,2.8,2.8,0,0,1-.9-.7,2.68,2.68,0,0,1-.54-1,2.93,2.93,0,0,1-.1-1.14,3,3,0,0,1,.38-1.08c1.25-2.05,4.35-1.69,6.42-2.89,1.41-.83,2.26-2.37,3.37-3.6s2.86-2.23,4.35-1.53a3.1,3.1,0,0,1,1.56,3,6.14,6.14,0,0,1-1.39,3.23,12.73,12.73,0,0,1-8.66,4.9"/><path class="a" d="M125.22,111.56a11.53,11.53,0,0,0-3.68,3.44,3.94,3.94,0,0,0,.28,4.69,3.75,3.75,0,0,0,2,.85,3.69,3.69,0,0,0,2.16-.44A8,8,0,0,0,129.1,117c.88-1.44,1.59-3.23.94-4.79s-3.23-2.14-4-.62"/><path class="a" d="M113.32,100.28a8.28,8.28,0,0,1-2.95,2.93,2.89,2.89,0,0,1-3.72-.83,3.14,3.14,0,0,1,.7-3.46c.83-.93,1.94-1.63,2.81-2.55,1.43-1.54,2.1-3.64,3.39-5.3s3.74-2.86,5.46-1.64a3.58,3.58,0,0,1,1.14,1.72,3.53,3.53,0,0,1,0,2.06A8.6,8.6,0,0,1,118,96.73a31.8,31.8,0,0,1-4.63,4.28"/><path class="a" d="M118.38,132.58a7,7,0,0,0-.83,3.78c.21,1.29,1.48,2.48,2.74,2.1a3.55,3.55,0,0,0,1.75-1.73l1.86-3.06c.69-1.15,1.41-2.59.77-3.77s-2.48-1.39-3.68-.65a8,8,0,0,0-2.61,3.22"/><path class="a" d="M73,129.32c-2,0-3,2.85-1.71,4.31s3.89,1.19,5.18-.28a3.53,3.53,0,0,0,0-4.75c-1.3-1.13-3.87-.45-4.08,1.29"/><path class="a" d="M60.43,173.2a9.56,9.56,0,0,0-5.79,6.07,9.58,9.58,0,0,0-.34,4.29,9.35,9.35,0,0,0,1.58,4c1.36.75,3-.66,3.39-2.16s0-3.11.21-4.66a6.37,6.37,0,0,1,5.08-5.26,3.12,3.12,0,0,0-.76-.9,3.08,3.08,0,0,0-1.06-.52,2.94,2.94,0,0,0-1.18-.06,2.87,2.87,0,0,0-1.1.41"/><path class="a" d="M69.13,179.81a6.44,6.44,0,0,0-2.77,2.45c-.51,1.11-.15,2.78,1.06,3.09,1,.26,2-.52,2.75-1.2L73,181.56a3,3,0,0,0,1.1-1.62c.16-1.18-1.26-2.06-2.42-1.85A5.61,5.61,0,0,0,68.82,180"/><path class="a" d="M59.78,195.78c-1.2-.45-2.43,1.14-1.94,2.33a2.58,2.58,0,0,0,3.28,1.12,2.77,2.77,0,0,0,1.59-3.63c-.7-1.31-3.08-1.3-3.5.12"/><path class="a" d="M134.21,88.59a1.68,1.68,0,0,0-.7-.13,1.62,1.62,0,0,0-.69.2,1.49,1.49,0,0,0-.53.47,1.59,1.59,0,0,0-.27.66,2.25,2.25,0,0,0,1.43,2.3,4,4,0,0,0,2.86-.12,4.36,4.36,0,0,0,2.61-2.46,2.62,2.62,0,0,0,0-1.81,2.57,2.57,0,0,0-1.15-1.4,1.93,1.93,0,0,0-2.71,1.54"/><path class="a" d="M95.24,104.79c-1.43-.24-2.61,1.59-2,2.92a3,3,0,0,0,1.62,1.35,3,3,0,0,0,3.68-1.43,3.09,3.09,0,0,0,.29-2.09c-.49-1.4-2.69-1.91-3.54-.69"/><path class="a" d="M147,76.47a4,4,0,0,0-3.63.46,19.11,19.11,0,0,1-3.28,1.89,2.85,2.85,0,0,1-3.4-.89,2.73,2.73,0,0,1,.91-3.31,9.8,9.8,0,0,1,3.4-1.46,29.35,29.35,0,0,0,9.24-4.78,13.42,13.42,0,0,1,3-2,3.51,3.51,0,0,1,3.47.26c1.52,1.22,1.17,3.63.16,5.27a9.56,9.56,0,0,1-9.9,4.21"/><path class="a" d="M150.38,84a6.78,6.78,0,0,0-3.33,2.53c-.68,1.25-.2,3.2,1.19,3.45,1.1.19,2.07-.7,2.86-1.52l3.18-3.4a2.54,2.54,0,0,0,.88-1.59c0-1-1.21-1.63-2.18-1.42a5,5,0,0,0-2.41,1.68"/><path class="a" d="M164,74.35c1.06-1.1.7-3-.15-4.25s-2-2.32-2.71-3.71-.43-3.4,1-4,2.94.61,4,1.72A16.36,16.36,0,0,1,170,69.05a5.65,5.65,0,0,1-.67,5.9c-1.41,1.54-4.35,1.48-5.32-.36"/><path class="a" d="M177.09,64.5a6.89,6.89,0,0,1-3.67,1.74c-1.38.05-2.88-1.12-2.6-2.47.22-1,1.27-1.62,2.22-2.07L179,58.86c1.12-.54,2.44-1.08,3.57-.53,1.68.81,1.42,3.52,0,4.69s-3.46,1.24-5.33,1.26"/><path class="a" d="M188.58,71.79c-1.31-.42-2.68.33-4,.58s-3.22-.59-2.9-1.93a2.45,2.45,0,0,1,1.22-1.35,20.08,20.08,0,0,1,3.36-1.72,6.1,6.1,0,0,1,3.42-.54,2.53,2.53,0,0,1,1.51.81,2.56,2.56,0,0,1,.69,1.57c0,1.17-1.53,2.13-2.47,1.43"/><path class="a" d="M194.79,57.75c1.63.82,2.3,2.82,2.42,4.65a29.25,29.25,0,0,0,.39,5.47c.48,1.77,2.18,3.39,4,3,2-.39,2.8-2.81,3.21-4.83a6.29,6.29,0,0,0-.1-4.05c-.62-1.23-2.53-1.84-3.38-.73-.45.56-.57,1.48-1.26,1.69s-1.37-.63-1.37-1.39a15.18,15.18,0,0,1,.49-2.2,3.2,3.2,0,0,0-.27-2A3.14,3.14,0,0,0,197.51,56a3.15,3.15,0,0,0-3.69.57l1.24,1.79"/><path class="a" d="M211.21,55.22c-1-1.36-3.58-.3-3.71,1.41s1.65,3.1,3.38,3a2.87,2.87,0,0,0,2.79-2.06c.23-1.23-1.08-2.58-2.24-2.09"/><path class="a" d="M217.47,66.4c-2.19-.69-4.7-1.06-6.71.06s-2.94,4.27-1.18,5.77a7.06,7.06,0,0,0,3,1.12,14.42,14.42,0,0,1,7.71,4.89c1.16.42,2.31-1,2.08-2.2A4.27,4.27,0,0,0,220,73.4a9.33,9.33,0,0,1-3-2.1c-.74-1-.82-2.6.21-3.27"/><path class="a" d="M225.18,61.92c-1.54-.65-3.34,1-3.27,2.67a3,3,0,0,0,.57,1.67,3.11,3.11,0,0,0,1.38,1.1,3.08,3.08,0,0,0,1.75.19,3.16,3.16,0,0,0-.15-6.24"/><path class="a" d="M226,81.71c.32-2.1.94-4.57,2.95-5.25a3.44,3.44,0,0,1,2.53.33,3.39,3.39,0,0,1,1.59,2,4.46,4.46,0,0,1-1.76,4.66,6.73,6.73,0,0,1-2.43,1,6.48,6.48,0,0,1-2.63,0,1.74,1.74,0,0,1-.55-.5,1.82,1.82,0,0,1-.3-.68,1.84,1.84,0,0,1,0-.74,1.91,1.91,0,0,1,.29-.69"/><path class="a" d="M53,209l-.92-.53Z"/><path class="a" d="M51.45,208.51c.34,1.75.77,3.67,2.18,4.78s4.07.6,4.25-1.19a3.71,3.71,0,0,0-.39-1.73l-3.62-9.19c-.29-.74-.82-1.56-1.55-1.38s-.81,1.19-.73,1.94l.75,6.7"/><path class="a" d="M62.35,216.54A2.64,2.64,0,0,0,61.8,221,2.86,2.86,0,0,0,66,218.9a3.24,3.24,0,0,0-.31-1.33,3.09,3.09,0,0,0-3.44-1.67"/><path class="a" d="M59.41,230.12c-2,2.48-1.43,6.1-.47,9.11a5.83,5.83,0,0,0,1.81,3.07c1,.7,2.61.61,3.14-.49.7-1.5-1.15-3-1.25-4.66-.16-2.82,4.39-3.73,4.94-6.49.42-2.09-2-3.92-4.13-3.52s-3.6,2.31-4.37,4.3"/><path class="a" d="M69.65,237.19a3.88,3.88,0,0,0-.87,2.69,3.92,3.92,0,0,0,3.75,3.73,3.9,3.9,0,0,0,2.68-.89c1.52.84.61,3.87,2.26,4.41,1,.31,1.91-.71,1.91-1.71A4.07,4.07,0,0,0,78,242.83a16.37,16.37,0,0,0-8.22-4.69"/><path class="a" d="M70.78,248.54a3.15,3.15,0,0,1,2.33,5.31,3.15,3.15,0,0,1-4.66-4.25,3.18,3.18,0,0,1,2.15-1.06"/><path class="a" d="M79.27,264.87a5.19,5.19,0,0,0,1.65,1.44,5.1,5.1,0,0,0,2.09.61,2.84,2.84,0,0,0,2.89-2.68c-.06-1.47-1.46-2.38-2.53-3.33s-2.05-2.58-1.19-3.77c.46-.6,1.28-.81,1.87-1.31a2.62,2.62,0,0,0,.22-3.67C79.64,247.5,76,261,79.27,264.87Z"/><path class="a" d="M93.07,259.61a3.1,3.1,0,0,0-2,1.94A3.08,3.08,0,0,0,90.9,263a3.11,3.11,0,0,0,.53,1.35,3.14,3.14,0,0,0,5.21-1.18c.52-2.15-2.07-4.35-4.09-3.45"/><path class="a" d="M97.54,271.85c0-1-1.54-1.28-2.17-.55a2.07,2.07,0,0,0,.25,2.63,6,6,0,0,0,2.48,1.43l7.75,2.91a8.54,8.54,0,0,0-6.11-8L98,271.93l.94-.51"/><path class="a" d="M116.4,274.46a1.88,1.88,0,0,0-.61-.43,1.83,1.83,0,0,0-.73-.15,1.7,1.7,0,0,0-.73.17,1.73,1.73,0,0,0-.6.44,2.37,2.37,0,0,0-.44,1.43,2.33,2.33,0,0,0,.5,1.41,3.39,3.39,0,0,0,1.21.91,3.33,3.33,0,0,0,1.49.29,3.24,3.24,0,0,0,3.33-2.52c.17-1.52-1.76-3-3-2"/><path class="a" d="M125.08,280.64l-7.57.14a21.22,21.22,0,0,0,5.76,3.79c1.32.57,2.88,1,4.16.28a2.54,2.54,0,0,0,1.16-1.36,2.61,2.61,0,0,0-1.14-3.17,2.66,2.66,0,0,0-1.77-.3"/><path class="a" d="M145,284.15a13.32,13.32,0,0,1-3.69,2,4.42,4.42,0,0,1-4-.59,2.7,2.7,0,0,1-.45-3.75,4.12,4.12,0,0,1,3.07-.93,36.8,36.8,0,0,1,7.55.72,2.08,2.08,0,0,1-.24.85,2.21,2.21,0,0,1-.56.69,2.11,2.11,0,0,1-.79.4,2.22,2.22,0,0,1-.89.05"/><path class="a" d="M158.41,280.82a1.73,1.73,0,0,0-2.52,1.33,2.37,2.37,0,0,0,.59,1.56,2.33,2.33,0,0,0,1.48.79,4.09,4.09,0,0,0,1.7-.21,3.83,3.83,0,0,0,1.44-.91,3,3,0,0,0,1.11-3.08c-.4-1.09-2.22-1.44-2.68-.38"/><path class="a" d="M186.3,273.33a30.57,30.57,0,0,1-7.92,4,2.63,2.63,0,0,1-1.93.11c-1-.49-1-2.09-.22-2.95a6.76,6.76,0,0,1,3-1.54,20.13,20.13,0,0,0,9.5-6.93c1.09-1.45,2.45-3.28,4.24-2.91s2.35,2.87,1.79,4.67a8,8,0,0,1-3,4,8.09,8.09,0,0,1-4.83,1.46"/><path class="a" d="M205.16,260.13a6.36,6.36,0,0,0-3.29,1.46,2.19,2.19,0,0,0,0,3.2c1,.68,2.45,0,3.5-.74a5.85,5.85,0,0,0,2.13-2.09,2,2,0,0,0-.66-2.65l-1.82,1.05"/><path class="a" d="M201.52,256.59l3.11-9.14a2.73,2.73,0,0,1,1.37-1.91,1.83,1.83,0,0,1,2,.82,4.35,4.35,0,0,1,.56,2.31,9.12,9.12,0,0,1-1.7,5.87,5.17,5.17,0,0,1-2.45,1.82,5.25,5.25,0,0,1-3,.15"/><path class="a" d="M219.75,248.87a9.45,9.45,0,0,0-5.15,3.39c-.45.59-.83,1.45-.37,2a1.62,1.62,0,0,0,1.85.28,10.94,10.94,0,0,0,5.63-3.69,2.45,2.45,0,0,1-1.65-2.53"/><path class="a" d="M214.46,239.11a53.18,53.18,0,0,1-4.05-7.78,5.43,5.43,0,0,1-.55-3.74,3.38,3.38,0,0,1,4-1.94,5,5,0,0,1,3.28,3.34,9.71,9.71,0,0,1,.11,4.82,15.25,15.25,0,0,0-.44,2.93,8.25,8.25,0,0,1,0,2.38c-.23.77-1.1,1.43-1.8,1-.3.34-1-.1-.8-.51"/><path class="a" d="M228.56,220c-2.07,3-3.05,6.53-4,10-.41,1.55-.57,3.7.92,4.29a2.85,2.85,0,0,0,2.78-.89,8.7,8.7,0,0,0,2.81-6.06c0-1.5-.21-3.21.88-4.27.88-.82,2.24-.76,3.46-.64l4.34.42c1.82.18.1-7.07-2.22-7.79C234.32,214,230.15,217.68,228.56,220Z"/><path class="a" d="M214.09,212.25a3.25,3.25,0,0,0,.42,4.5,3.29,3.29,0,0,0,2.31.77,3.27,3.27,0,0,0,3-3.34,3.28,3.28,0,0,0-1-2.23,3.25,3.25,0,0,0-4.52,0"/><path class="a" d="M205.18,201.21c-3.26-1-4.56-4.84-5.45-8.14-.39-1.46-.63-3.32.57-4.23a2.62,2.62,0,0,1,3.36.55,7,7,0,0,1,1.48,3.38c.23.85.5,1.85,1.32,2.14a10,10,0,0,0,1.74.1c1.61.26,2,2.69.89,3.93s-2.84,1.58-4.41,1.83"/><path class="a" d="M224.39,192.24c-3.1.17-5.15,4-4.13,6.9s4.29,4.68,7.39,4.6c-.82.54,0,2,1,1.9a1.7,1.7,0,0,0,.63-.35,1.78,1.78,0,0,0,.45-.57,1.73,1.73,0,0,0,.18-.7,1.75,1.75,0,0,0-.1-.72,4.1,4.1,0,0,0-2-2.07,11.79,11.79,0,0,1-2.51-1.55,2.48,2.48,0,0,1-.72-2.68c.84-1.8,4.35-1.62,4.37-3.62a1.89,1.89,0,0,0-.63-1.22,1.92,1.92,0,0,0-1.29-.47,5.58,5.58,0,0,0-2.68.86"/><path class="a" d="M244.43,198.32a3.72,3.72,0,0,0-1.49-.47,3.91,3.91,0,0,0-1.56.17,3.68,3.68,0,0,0-1.34.81,3.5,3.5,0,0,0-.9,1.28,3.75,3.75,0,0,0-.15,1.56,3.85,3.85,0,0,0,.49,1.49,4.09,4.09,0,0,0,1.05,1.18,3.68,3.68,0,0,0,4.41-.15,3.93,3.93,0,0,0,1.51-2.69,4.14,4.14,0,0,0-3.86-4.25"/><path class="a" d="M213.86,183.6a9.17,9.17,0,0,1-3.68.45,3.27,3.27,0,0,1-1.69-.71,3.2,3.2,0,0,1-1-1.54,2.88,2.88,0,0,1,2.54-3.13,4.54,4.54,0,0,1,2.23.48,4.47,4.47,0,0,1,1.69,1.51l-.08,1.05a1.81,1.81,0,0,1,1-.19,1.87,1.87,0,0,1,1,.4,1.8,1.8,0,0,1,.59,1.9,1.82,1.82,0,0,1-.57.87,1.78,1.78,0,0,1-1,.42,1.89,1.89,0,0,1-1-.17,1.86,1.86,0,0,1-.76-.71"/><path class="a" d="M237.13,177.77a9.29,9.29,0,0,0-4.82,1.14c-1.39.94-2.15,3-1.12,4.38.88,1.15,2.57,1.21,4,1.12a9.2,9.2,0,0,0,4.12-1,3.52,3.52,0,0,0,1.5-1.46,3.61,3.61,0,0,0,.42-2.06c-.26-1.4-2.06-2.39-3.23-1.58"/><path class="a" d="M228.3,167.21a12.07,12.07,0,0,1-3.89-.77,4.07,4.07,0,0,1-2.48-2.9,2.64,2.64,0,0,1,0-1,2.51,2.51,0,0,1,1.11-1.56,2.57,2.57,0,0,1,.91-.35c1.26-.07,2.38,1,3.63.87,2-.27,2.86-3.46,4.87-3.19,1.56.22,1.87,2.42,1.34,3.91a8.38,8.38,0,0,1-2.31,3.38,8.5,8.5,0,0,1-3.62,1.91"/><path class="a" d="M247.29,165.85c-1.44-1.51-4.33-.36-4.88,1.65s.67,4.15,2.35,5.38a5.83,5.83,0,0,0,3.64,1.2,3.75,3.75,0,0,0,1.84-.57,3.7,3.7,0,0,0,1.29-1.43,4.07,4.07,0,0,0,.19-2.1,4,4,0,0,0-.88-1.92,11.86,11.86,0,0,0-3.27-2.71"/><path class="a" d="M262.27,155.92c-1.59.6-3.3,1.21-5,.82s-3.05-2.25-2.33-3.79a6,6,0,0,0,5.58-1.2c1.32-1.17,2.5-3.12,4.28-2.89s2.51,2.95,1.45,4.51-3,2.23-4.85,2.79"/><path class="a" d="M241.9,147.54a8.39,8.39,0,0,1-5-1.52,3.61,3.61,0,0,1,1.55-3.09,10.88,10.88,0,0,1,3.25-1.53c2-.66,4.7-1.1,5.77.72.81,1.42-.08,3.29-1.46,4.08a9.44,9.44,0,0,1-4.67.89"/><path class="a" d="M258.79,129.36a3.14,3.14,0,0,0-3.65,0,3.38,3.38,0,0,0-.51,4.61,3.86,3.86,0,0,0,4.67.87,3.45,3.45,0,0,0,1.86-3.1,2.64,2.64,0,0,0-2.4-2.48"/><path class="a" d="M244.69,123.13l-1.64-8.92c-.37-2-.55-4.39,1.08-5.54a3.5,3.5,0,0,1,4.41.82,7.78,7.78,0,0,1,1.6,4.54,21.31,21.31,0,0,1-.88,8.32,6.86,6.86,0,0,1-2.1,3.53,3,3,0,0,1-3.81,0c-1-1-.5-3.08.89-3.2"/><path class="a" d="M256.74,105.86a4.49,4.49,0,0,0-2.2,5.63,12.87,12.87,0,0,0,3.63-.78,4.46,4.46,0,0,0,2.59-2.54,2.68,2.68,0,0,0,0-1.81,2.63,2.63,0,0,0-1.13-1.41,2,2,0,0,0-.88-.21,2,2,0,0,0-.88.22,1.91,1.91,0,0,0-.69.57,2,2,0,0,0-.36.83"/><path class="a" d="M235.35,97c-.06-1.26.84-2.32,1.55-3.35a15.2,15.2,0,0,0,2.77-9.32c-.07-2-.25-4.65,1.61-5.47,1.5-.65,3.28.65,3.75,2.22a8.55,8.55,0,0,1-.42,4.83l-2.67,9.48A5.92,5.92,0,0,1,240.72,98C239.59,99.15,235.42,99.27,235.35,97Z"/><path class="a" d="M250.72,93.13a1.82,1.82,0,0,0-2.84,1.16,2.36,2.36,0,0,0,2.24,2.48,3.3,3.3,0,0,0,1.77-.55,3.23,3.23,0,0,0,1.2-1.41,2,2,0,0,0,.24-.75,2.11,2.11,0,0,0-.08-.79,1.12,1.12,0,0,0-.2-.33,1.24,1.24,0,0,0-.32-.23,1.18,1.18,0,0,0-.37-.09,1.23,1.23,0,0,0-.39.06"/><path class="c" d="M111.35,218.23c-1.31,1-.92,3.05-1.8,4.4s-2.65,1.64-3.54,2.89c-1.67,2.32,1,5.07,3.39,4.58s4.52-4.48,5.28-6.6a5.43,5.43,0,0,0,.12-4.06C114.2,218.18,112.48,217.42,111.35,218.23Z"/><path class="c" d="M140,216.16a3.9,3.9,0,0,0,1.92,1.57c1.32.27,2.42-1.17,2.59-2.51a5.15,5.15,0,0,0-1.31-3.9,5.18,5.18,0,0,0-3.72-1.75,23.81,23.81,0,0,0-3.14.48c-1.7.2-5.8-1.78-6,1.33A14,14,0,0,1,140,216.16Z"/><path class="c" d="M131.21,226.19a2.75,2.75,0,0,0,.88-1.87,2.7,2.7,0,0,0-.68-1.95,3.68,3.68,0,0,0-3.93-.89,5.82,5.82,0,0,0-3.09,2.83l0-.2a2.91,2.91,0,0,0-1.85.88,3,3,0,0,0-.82,1.88l6.53,0A4.71,4.71,0,0,0,131.21,226.19Z"/><path class="c" d="M136.14,240.2l-.25-.23a17.39,17.39,0,0,0-7.49.47,2.5,2.5,0,0,0-1.57,1c-.56,1,.32,2.19,1.15,3a10.6,10.6,0,0,0,4.46,3c1.77.46,4-.31,4.49-2a4.85,4.85,0,0,1-2.37-.68,1.64,1.64,0,0,1-.52-2.18,2.14,2.14,0,0,1,1.29-.65,4,4,0,0,0,1.4-.38,1,1,0,0,0,.46-.53,1.05,1.05,0,0,0,0-.7C137.05,239.76,136.24,239.72,136.14,240.2Z"/><path class="c" d="M155.8,242l-.87-.17c-1.83-.28-4.11-.37-5.07,1.2a3.21,3.21,0,0,0-.36,1.42,3.15,3.15,0,0,0,.3,1.42,9.24,9.24,0,0,0,1.66,2.44c1.08,1.27,2.62,2.7,4.21,2.13a2.82,2.82,0,0,0,1.22-1.05,2.92,2.92,0,0,0,.45-1.55,8.47,8.47,0,0,0-.71-3.18,3.34,3.34,0,0,1-.71-1.24A3.25,3.25,0,0,1,155.8,242Z"/><path class="c" d="M143.7,233.7l.3-.31c-1.18-.06-1.89,1.63-1.19,2.59a2.36,2.36,0,0,0,1.54.79,2.4,2.4,0,0,0,1.66-.45,4.38,4.38,0,0,0,1.63-3,3.15,3.15,0,0,0-2-.5A3.1,3.1,0,0,0,143.7,233.7Z"/><path class="c" d="M164.2,220.8c0-3.76-6.5.45-7.32,1.75a11.24,11.24,0,0,0-1.15,7.88c.18,1.09.7,2.41,1.8,2.5s1.91-1.25,1.82-2.38-.6-2.21-.74-3.33C158.14,222.86,164.18,223.27,164.2,220.8Z"/><path class="c" d="M166.66,232.07l-.22-.21a5.28,5.28,0,0,0-1.05,2.23,5.3,5.3,0,0,0,3.26,6,12,12,0,0,0,.68-7,2.41,2.41,0,0,0-.34-1,2.5,2.5,0,0,0-.73-.82C167.58,230.87,166.53,231.34,166.66,232.07Z"/><path class="c" d="M171.86,219.28a2.62,2.62,0,0,0-2.08,1.37,1.9,1.9,0,0,0-.13,1.24,1.94,1.94,0,0,0,.64,1.07,1.46,1.46,0,0,0,.59.25,1.34,1.34,0,0,0,.63,0,1.55,1.55,0,0,0,.59-.25,1.8,1.8,0,0,0,.44-.47l0,.51c1.12.42,2.37-.89,2.12-2.06a2.54,2.54,0,0,0-2.77-1.66Z"/><path class="c" d="M163.94,205a7.46,7.46,0,0,0-2.91-.88,7.36,7.36,0,0,0-3,.34,21.67,21.67,0,0,0-6.64,3.6c-1.07.74-2.28,1.87-1.86,3.11s2.37,1.39,3.68.86,2.71-1.39,4.05-.95l.17-.52c-.28-.54.3-1.23.91-1.25a2.09,2.09,0,0,1,.88.26,2,2,0,0,1,.67.63A12.17,12.17,0,0,0,161,211.6c1.49,1.4,4.27.5,5-1.4A4.56,4.56,0,0,0,163.94,205Z"/><path class="c" d="M160.9,147.33a8.18,8.18,0,0,0-1.83-2,2.55,2.55,0,0,0-1.22-.52,2.32,2.32,0,0,0-2.42,3.51,7.5,7.5,0,0,0,2.43,3,8.94,8.94,0,0,1,2.58,2.89l.16.36a1.69,1.69,0,0,0,2.51,1.21,2.76,2.76,0,0,0,1.1-3,8.15,8.15,0,0,0-1.54-3C162,149,161.46,148.16,160.9,147.33Z"/><path class="c" d="M176.38,142.54c-1.65,1-2,3.37-1.38,5.21s1.89,3.37,2.91,5c.6,1,1.53,5.46,3.25,5,2.68-.66-1.63-5.52-2.12-6.16-.91-1.21-1.49-3-.59-4.17a4.4,4.4,0,0,1,1.92-1.25,4,4,0,0,0,1.87-1.32,1.41,1.41,0,0,0,.24-.51,1.57,1.57,0,0,0,0-.57,1.44,1.44,0,0,0-.21-.53,1.52,1.52,0,0,0-.39-.41C180.12,142.2,178,141.52,176.38,142.54Z"/><path class="c" d="M164.76,141.82a3,3,0,0,0-.46,1.29,2.87,2.87,0,0,0,.16,1.36,2.94,2.94,0,0,0,1.95,1.81l.56.06a2.81,2.81,0,0,0,1.36-.35,2.71,2.71,0,0,0,1-1,2.76,2.76,0,0,0,.43-1.34,2.88,2.88,0,0,0-.28-1.38,2.85,2.85,0,0,0-.92-1.06,2.8,2.8,0,0,0-2.7-.28A2.88,2.88,0,0,0,164.76,141.82Z"/><path class="c" d="M148.65,201.92a.6.6,0,0,1-.28.24.63.63,0,0,1-.36,0,.59.59,0,0,1-.35-.52.62.62,0,0,1,.07-.33.76.76,0,0,1,.24-.23l-.61-.19a1.55,1.55,0,0,0-.71-.41,1.52,1.52,0,0,0-.82,0,1.6,1.6,0,0,0-.71.42,1.55,1.55,0,0,0-.41.71,2,2,0,0,0,.08.83,1.9,1.9,0,0,0,.43.72,2.06,2.06,0,0,0,.69.47,1.91,1.91,0,0,0,.82.13,2.36,2.36,0,0,0,1.25-.62A2.41,2.41,0,0,0,148.65,201.92Z"/><path class="c" d="M148.71,201.36a2.6,2.6,0,0,1-.06.56.5.5,0,0,0,.11-.27A.49.49,0,0,0,148.71,201.36Z"/><path class="c" d="M115.83,197.47a1.6,1.6,0,0,0,.16.74,1.68,1.68,0,0,0,.47.59,1.77,1.77,0,0,0,.69.33,1.72,1.72,0,0,0,.75,0,4.05,4.05,0,0,0,2.26-2.24,21.44,21.44,0,0,0,1.74-4.44,5.22,5.22,0,0,0,.18-2.6,2.16,2.16,0,0,0-.61-1.14,2.23,2.23,0,0,0-1.15-.59,3.3,3.3,0,0,0-2.11.89L111,194.31a4.61,4.61,0,0,0-1.5,1.51C107.13,200.35,114.07,198.7,115.83,197.47Z"/><path class="c" d="M134.15,195.77c-.52.95-.79,2.31.09,2.92s1.86,0,2.67-.49a7,7,0,0,0,3.08-3.08c.52-1.39-.25-3.12-1.59-3.28l.19-.49A11,11,0,0,0,134.15,195.77Z"/><path class="c" d="M118.57,211.28a1.9,1.9,0,0,0,1.17.83,1.86,1.86,0,0,0,1.42-.23,1.88,1.88,0,0,0,.85-1.16,1.85,1.85,0,0,0-.22-1.42,8.13,8.13,0,0,0-2.54-1,2.84,2.84,0,0,0-2.49.81,1.73,1.73,0,0,0-.39,1.24,1.7,1.7,0,0,0,.59,1.16,1.27,1.27,0,0,0,.85.15A1.34,1.34,0,0,0,118.57,211.28Z"/><path class="c" d="M157.92,194.57a9.58,9.58,0,0,1-4-.71c-1.56-.84-2.33-2.59-3.31-4.06s-2.65-2.86-4.35-2.37a3.29,3.29,0,0,0-1.91,3.89,7.16,7.16,0,0,0,2.77,3.76,19.49,19.49,0,0,0,8.89,3.85c1.62.27,8.86.9,5.57-3A5.12,5.12,0,0,0,157.92,194.57Z"/><path class="c" d="M169.59,185.87a2.6,2.6,0,0,0-1.76.54,2.56,2.56,0,0,0-.93,1.6c-.15,1.16.56,2.25,1.07,3.31s.85,2.45.08,3.33l.43-.16a2.53,2.53,0,0,0-.25,2.44,2.48,2.48,0,0,0,.78,1,2.4,2.4,0,0,0,1.17.5,2.46,2.46,0,0,0,1.26-.13,2.53,2.53,0,0,0,1-.72,2.6,2.6,0,0,0,.56-1.14,2.49,2.49,0,0,0-.07-1.27c-.42-1.35-1.93-2.27-2-3.69-.05-1,.68-1.9.8-2.91a2.58,2.58,0,0,0-.56-1.78A2.52,2.52,0,0,0,169.59,185.87Z"/><path class="c" d="M161.93,181.37a4.89,4.89,0,0,0-6.3-.12,2.67,2.67,0,0,0-1,2.44c.21.91,1.41,1.56,2.13,1l-.59.38a4.17,4.17,0,0,0,2,.33,4.15,4.15,0,0,0,3.84-4Z"/><path class="c" d="M136.7,183.57c0-.55-.57-.94-1.12-.95A5.52,5.52,0,0,0,134,183a1.55,1.55,0,0,1-.8.12,1.61,1.61,0,0,1-.76-.26,1.53,1.53,0,0,1-.39-.83,1.55,1.55,0,0,1,.16-.9,5.36,5.36,0,0,1,2.22-2.18,6,6,0,0,0,2.3-2.1,2,2,0,0,0-.73-2.72c-1-.41-2,.25-2.73.94A19.44,19.44,0,0,0,127,189.23l8.66-5.25a.63.63,0,0,0,.32.15.66.66,0,0,0,.34,0,.71.71,0,0,0,.27-.21A.59.59,0,0,0,136.7,183.57Z"/><path class="c" d="M143.11,182.3a4.67,4.67,0,0,0,1.76-1h0a1.86,1.86,0,0,0,2.56-2.65c-1.13-1.17-3.06-.45-4.48.33-1,.56-2.21,1.61-1.7,2.65a1.56,1.56,0,0,0,1.81.71Z"/><path class="c" d="M153.09,169.48a14.42,14.42,0,0,0-1.59-.45,2.85,2.85,0,0,1-1.41-3.24,12.78,12.78,0,0,1,1.62-3.47,4.92,4.92,0,0,0,.69-1.77,4.73,4.73,0,0,0-.05-1.91c-.4-1.21-2-2-3-1.24a3.15,3.15,0,0,0-.9,1.87c-.75,3.28-4,10.45-1,13.35C150.18,175.37,156.15,171.12,153.09,169.48Z"/><path class="c" d="M159.64,176.42c1.5,0,2.87.87,4.3,1.23s3.32.18,4-1.18a3.34,3.34,0,0,0-2.56-2.32,10,10,0,0,0-3.62,0l-.16-.59a5,5,0,0,0-3.37-.13c-1,.49-1.54,2.14-.59,2.79A3.23,3.23,0,0,0,159.64,176.42Z"/><path class="c" d="M174.11,167a10.61,10.61,0,0,0-3.76,5.27l.42.54a2.24,2.24,0,0,0,.22,1.52,2.19,2.19,0,0,0,1.17,1,14.13,14.13,0,0,0,4.34-6.88,1.74,1.74,0,0,0,.14-.88,1.81,1.81,0,0,0-.3-.83C175.77,166.09,174.77,166.47,174.11,167Z"/><path class="c" d="M162.13,167.17a2,2,0,0,0,.94-1,2,2,0,0,0,.07-1.36c-.49-1.08-2-1.09-3.15-.78a12.1,12.1,0,0,0-4.51,2.24,4.84,4.84,0,0,0,1.85,1.16,5,5,0,0,0,2.17.25A5.8,5.8,0,0,0,162.13,167.17Z"/><path class="c" d="M169.17,163a4,4,0,0,0,3.85-1.62,2.46,2.46,0,0,0,.58-1.19,2.51,2.51,0,0,0-.1-1.33,1.57,1.57,0,0,0-.35-.42,1.49,1.49,0,0,0-.49-.24,1.42,1.42,0,0,0-.54,0,1.53,1.53,0,0,0-.52.18l.29-.32-1.49.55a2.23,2.23,0,0,0-3.46,1.18,2.86,2.86,0,0,0,.46,2.07A2.91,2.91,0,0,0,169.17,163Z"/><path class="c" d="M160.68,133.72a3.06,3.06,0,0,1-.4-1.5,3,3,0,0,1,.41-1.5,3.05,3.05,0,0,1,1.13-1.07,3,3,0,0,1,1.51-.33c.77,0,1.52.41,2.28.42s1.68-.45,1.65-1.26a11.47,11.47,0,0,0-2.46-3.12,4.05,4.05,0,0,0-1.76-.87,3.87,3.87,0,0,0-2,.1c-1.47.59-2.17,2.21-2.59,3.73a23.79,23.79,0,0,0-.83,7.17A2.18,2.18,0,0,0,159,135a2.22,2.22,0,0,0,.72-1.24l-.05.71a1.47,1.47,0,0,1,1-.73Z"/><path class="c" d="M190.17,136.3a2.52,2.52,0,0,0-3.14,1c-.52,1.09.71,2.64,1.76,2.13v.12a2.32,2.32,0,0,0,1.07.81,2.35,2.35,0,0,0,1.34.08,2.33,2.33,0,0,0,1.76-1.87A7.22,7.22,0,0,0,190.17,136.3Z"/><path class="c" d="M175.31,130.47q2.59.54,5.2.85l.59.3a3,3,0,0,0-1.73-2.61,8.82,8.82,0,0,0-3.2-.72,3.22,3.22,0,0,0-1.51.1,1.11,1.11,0,0,0-.58.46,1.17,1.17,0,0,0-.15.73C174.08,130.14,174.74,130.35,175.31,130.47Z"/><path class="c" d="M191.26,148.05a10.1,10.1,0,0,0-3.19.31,3.35,3.35,0,0,0-2.27,2.1,2.05,2.05,0,0,0,1.28,2.56,3.09,3.09,0,0,0,1.82-.27,20,20,0,0,0,4.84-2.71l-1.81-1.44Z"/><path class="c" d="M179,138.61c1.07-.16,1.32-1.78.59-2.61a3.77,3.77,0,0,0-1.41-.75,3.71,3.71,0,0,0-1.59-.08,9.06,9.06,0,0,1-3.2,0c-1-.29-2-1.35-1.64-2.39l-.52-.38a7.75,7.75,0,0,0-4.09,2.73L178,138.46A2.14,2.14,0,0,0,179,138.61Z"/><path class="c" d="M202.61,132a6.17,6.17,0,0,0-1.34,2.24l-2.45,5.88.1.7a1.53,1.53,0,0,0,0,.64,1.61,1.61,0,0,0,.26.6,1.41,1.41,0,0,0,.47.44,1.59,1.59,0,0,0,.61.22,2.7,2.7,0,0,0,1.28-.21,2.66,2.66,0,0,0,1-.8,7.59,7.59,0,0,0,1.2-2.33l1.54-4c.48-1.25.84-2.95-.29-3.7a2,2,0,0,0-1.25-.2A2.05,2.05,0,0,0,202.61,132Z"/><path class="c" d="M166.16,120.68a2.83,2.83,0,0,0,1.12,1.23,2.88,2.88,0,0,0,1.62.4,1.83,1.83,0,0,0,1.43-2.5c-.64-1.09-2.48-1.09-3-2.27s.81-2.33.83-3.59c0-1.58-2.19-2.46-3.52-1.6a3.77,3.77,0,0,0-1.19,4.26,11,11,0,0,0,2.63,3.91Z"/><path class="c" d="M173.44,110a2.87,2.87,0,0,0,1-.78,2.73,2.73,0,0,0,.55-1.15,2.64,2.64,0,0,0,0-1.28,2.59,2.59,0,0,0-.62-1.12l.73.13-1-.37a2.56,2.56,0,0,0-1.22-.46,2.49,2.49,0,0,0-1.29.2,2.6,2.6,0,0,0-1,.8,2.66,2.66,0,0,0-.5,1.2,2.6,2.6,0,0,0,.91,2.36,2.65,2.65,0,0,0,1.19.55,2.62,2.62,0,0,0,1.3-.11Z"/><path class="c" d="M178.1,119.46a.74.74,0,0,0,.33.17.73.73,0,0,0,.36,0,5.3,5.3,0,0,0,2.85-1.22,5.24,5.24,0,0,0,1.65-2.62c.35-1.41.08-2.91.26-4.36a7.12,7.12,0,0,1,4.68-5.69c1-.34,2.29-.62,2.54-1.62.62-2.15-2.48-2.24-3.72-1.85-1.79.57-3.12,2.42-4.22,3.87A24.45,24.45,0,0,0,178,118.77a.73.73,0,0,0,0,.36A.81.81,0,0,0,178.1,119.46Z"/><path class="c" d="M188.07,115.34a3.12,3.12,0,0,0,.25,2.08,3.17,3.17,0,0,0,1.51,1.45,3.49,3.49,0,0,0,1.76-.79,3.44,3.44,0,0,0,1-1.62,3.39,3.39,0,0,0,0-1.92,3.48,3.48,0,0,0-1-1.63l-.31.19a3.16,3.16,0,0,0-2,.55A3.07,3.07,0,0,0,188.07,115.34Z"/><path class="c" d="M198,125.92a2.54,2.54,0,0,0-1.15-1.12,2.49,2.49,0,0,0-1.59-.18,11.66,11.66,0,0,0-3,1.17c-1.93.83-5.42,0-6.91.93-1.85,1.13-.81,3.49,1,4.38a7.41,7.41,0,0,0,5.15,0,21.07,21.07,0,0,0,4.25-1.7C197.07,128.71,198.53,127.35,198,125.92Z"/><path class="c" d="M201.85,112.3c-1.15-.3-2.54,1-1.91,2,.31.54,1,.72,1.54,1s1.14.79,1,1.36l-.07.34c.38.53,1.3.31,1.62-.25a2.44,2.44,0,0,0,0-1.89A3.48,3.48,0,0,0,201.85,112.3Z"/><path class="c" d="M213.87,121.63c-.42-1.08-2.21-1.47-2.68-.42l-.5,0a6.35,6.35,0,0,0-2.62,2,2.62,2.62,0,0,0-.53,1.52,2.68,2.68,0,0,0,.46,1.55,2.59,2.59,0,0,0,1.32.71,2.54,2.54,0,0,0,1.49-.15,5.17,5.17,0,0,0,2.27-2A3.63,3.63,0,0,0,213.87,121.63Z"/><path class="g" d="M107.23,176.7c4.06-5.82,12.59-9.32,18.6-13.16,5.86-3.74,17-9.72,18.23-17.31"/><path class="g" d="M147.91,129.34a51.43,51.43,0,0,1,4.62-11.72"/><path class="g" d="M152.71,102.44c2-5.16,9.54-10.13,14-13.07,7.63-5.05,15.67-6,24.35-6.14"/><path class="g" d="M196.14,89.24c2.77-.5,8.09,1.92,10.25,3.47"/><path class="g" d="M220.7,96.47c5.74,5.6,9.8,11.52,10.62,19.67a31.52,31.52,0,0,1-1,11.52c-1.09,4-4,7.1-4.9,11"/><path class="g" d="M215.84,141c-.67,3.58-4.77,6.6-6.85,9.19"/><path class="g" d="M192.58,164.33c-11,7.48-14.55,21.55-7.09,32.94"/><path class="g" d="M190.32,208c2.42,4.79,6.42,13.3,5,18.83"/><path class="g" d="M146.34,268.21c13.52,8.59,39.93-10,43.54-22.93"/><path class="h" d="M176.14,262.3c3.67-1.85,7.92-5.11,9.57-9.16"/><path class="g" d="M111.08,255.67c-4.84-2-9.92-5.89-13.73-9.52-4.67-4.46-11.23-12.76-12.23-19.24"/><path class="g" d="M76.6,214.2c-3.39-12.94,9.05-28.3,18.2-36.33,2.28-2,8.83-7,10.63-6.73"/></svg>