<svg width="1920" height="23" viewBox="0 0 1920 23" fill="none" xmlns="http://www.w3.org/2000/svg">
<g clip-path="url(#clip0_9_15)">
<path d="M338.449 10.1283L339.755 11.6506L337.649 14.105H341.875L339.755 11.6506L341.088 10.0972H343.527L349.272 16.7925L349.285 16.7769V16.7925L363.561 0.00557518L371.651 9.43483L745.977 9.46589L747.817 7.33772L752.323 12.738L755.002 9.48142L804.076 9.45037L807.675 13.7944H829.014L837.037 4.44278H840.21L860.029 4.55153L863.934 0L869.798 6.83505L872.771 10.3147H1436.4L1438.49 12.7536L1435 16.8235H1441.98L1438.49 12.7536L1440.59 10.3147H1532.94L1538.75 16.8235L1538.76 16.808L1538.78 16.8235L1548.9 4.45831H1557.1L1561.95 10.1283H1920V23H0V10.0972L338.449 10.1283ZM840.13 8.12437H839.023V9.39818H840.13V8.12437ZM840.13 10.6875H839.023V11.9613H840.13V10.6875ZM848.646 8.12437H847.54V11.9613H848.646V8.12437ZM852.858 8.12437H851.752V9.39818H852.858V8.12437ZM1498.47 12.9555H1495.18V16.7925H1498.47V12.9555ZM1509.47 12.9555H1508.37V16.7925H1509.47V12.9555ZM1517.16 12.9555H1516.06V16.7925H1517.16V12.9555ZM1518.82 12.9555H1517.72V16.7925H1518.82V12.9555Z" fill="#00F0FF"/>
</g>
<defs>
<clipPath id="clip0_9_15">
<rect width="1920" height="23" fill="white"/>
</clipPath>
</defs>
</svg>
