<?xml version="1.0" standalone="no"?>
<!DOCTYPE svg PUBLIC "-//W3C//DTD SVG 20010904//EN"
 "http://www.w3.org/TR/2001/REC-SVG-20010904/DTD/svg10.dtd">
<svg version="1.0" xmlns="http://www.w3.org/2000/svg"
 width="1920.000000pt" height="1076.000000pt" viewBox="0 0 1920.000000 1076.000000"
 preserveAspectRatio="xMidYMid meet">

<g transform="translate(0.000000,1076.000000) scale(0.100000,-0.100000)"
fill="#000000" stroke="none">
<path d="M0 5380 l0 -5380 9600 0 9600 0 0 1030 0 1030 -33 1 c-27 0 -29 2
-12 9 17 7 17 9 2 9 -16 1 -17 211 -15 4341 l3 4340 -9572 0 -9573 0 0 -5380z
m18420 5090 l0 -100 -100 0 -100 0 0 100 0 100 100 0 100 0 0 -100z m382 83
c25 -22 26 -138 1 -165 -22 -25 -138 -26 -165 -1 -25 22 -26 138 -1 165 22 25
138 26 165 1z m-18441 -14 c5 -8 8 -41 7 -74 -3 -54 -5 -60 -25 -63 -19 -3
-23 1 -23 22 0 21 -5 26 -24 26 -18 0 -25 -6 -28 -22 -2 -17 -10 -23 -28 -23
-24 0 -25 3 -28 62 -3 54 0 63 20 78 28 20 115 16 129 -6z m71 -11 c28 -19 28
-19 61 6 19 14 37 26 40 26 4 0 7 -36 7 -81 l0 -80 -27 3 c-17 2 -29 10 -33
23 -8 30 -50 29 -50 -2 0 -18 -5 -23 -25 -23 -25 0 -25 1 -25 81 0 86 -2 84
52 47z m488 12 c0 -5 -7 -10 -15 -10 -10 0 -15 -11 -15 -35 0 -24 5 -35 15
-35 10 0 15 10 15 30 0 30 0 30 58 30 60 0 82 -11 82 -42 0 -10 7 -18 15 -18
17 0 21 16 5 22 -18 6 13 58 38 64 28 8 42 -3 22 -17 -11 -8 -12 -12 -2 -16 6
-2 12 -16 12 -29 0 -13 5 -24 10 -24 6 0 10 11 10 25 0 29 24 38 91 33 52 -4
55 -22 4 -26 -48 -4 -47 -30 2 -34 20 -2 38 -9 41 -15 3 -10 -13 -13 -57 -13
-42 0 -61 4 -62 13 0 10 -2 10 -6 0 -3 -9 -33 -13 -99 -13 l-94 0 0 30 c0 17
-4 30 -10 30 -5 0 -10 -13 -10 -30 l0 -30 -80 0 c-64 0 -80 3 -80 15 0 8 7 15
15 15 10 0 15 11 15 35 0 24 -5 35 -15 35 -8 0 -15 5 -15 10 0 6 25 10 55 10
30 0 55 -4 55 -10z m480 0 c0 -5 -11 -10 -25 -10 -14 0 -25 5 -25 10 0 6 11
10 25 10 14 0 25 -4 25 -10z m450 0 c0 -5 -9 -10 -20 -10 -16 0 -20 -7 -20
-35 0 -28 4 -35 20 -35 16 0 20 7 20 30 l0 31 58 -3 57 -3 3 -42 c3 -38 1 -43
-17 -43 -17 0 -21 6 -21 30 0 23 -4 30 -20 30 -16 0 -20 -7 -20 -30 l0 -30
-75 0 c-60 0 -75 3 -75 15 0 8 7 15 15 15 10 0 15 11 15 35 0 24 -5 35 -15 35
-8 0 -15 5 -15 10 0 6 25 10 55 10 30 0 55 -4 55 -10z m220 -5 c0 -11 11 -15
40 -15 38 0 40 -2 40 -30 0 -20 5 -30 15 -30 10 0 15 10 15 30 0 25 4 30 25
30 23 0 25 -4 25 -45 l0 -45 -51 0 c-52 0 -79 15 -79 44 0 9 -7 16 -15 16 -10
0 -15 -10 -15 -31 0 -26 -3 -30 -22 -27 -16 2 -24 11 -26 28 -2 14 -10 29 -18
33 -19 11 -18 27 1 27 8 0 15 7 15 15 0 9 9 15 25 15 16 0 25 -6 25 -15z m260
5 c0 -5 -11 -10 -25 -10 -14 0 -25 5 -25 10 0 6 11 10 25 10 14 0 25 -4 25
-10z m120 -5 c0 -8 9 -15 20 -15 11 0 20 -5 20 -11 0 -6 -9 -13 -20 -16 -14
-4 -20 -14 -20 -34 0 -22 -5 -29 -20 -29 -16 0 -20 7 -20 30 0 20 -5 30 -15
30 -8 0 -15 7 -15 15 0 8 7 15 15 15 8 0 15 7 15 15 0 8 9 15 20 15 11 0 20
-7 20 -15z m448 -7 c4 -21 -34 -26 -40 -6 -6 16 -38 -14 -38 -35 0 -19 18 -25
57 -20 23 4 33 11 35 27 2 17 11 22 46 24 24 2 49 -2 57 -8 9 -8 15 -8 20 0 9
14 98 13 113 -2 7 -7 12 -27 12 -46 0 -29 -3 -33 -22 -30 -17 2 -24 11 -26 31
-5 38 -32 36 -32 -3 0 -23 -5 -30 -19 -30 -11 0 -23 5 -27 11 -4 8 -9 8 -17 0
-15 -15 -94 -14 -100 2 -3 10 -9 10 -26 0 -69 -42 -146 31 -94 89 23 25 96 22
101 -4z m352 7 c0 -8 9 -15 20 -15 11 0 20 -5 20 -11 0 -6 -9 -13 -20 -16 -14
-4 -20 -14 -20 -34 0 -22 -5 -29 -20 -29 -16 0 -20 7 -20 30 0 20 -5 30 -15
30 -8 0 -15 7 -15 15 0 8 7 15 15 15 8 0 15 7 15 15 0 8 9 15 20 15 11 0 20
-7 20 -15z m260 0 c0 -8 7 -15 15 -15 8 0 15 -5 15 -10 0 -6 -7 -13 -15 -16
-9 -4 -15 -19 -15 -36 0 -25 -4 -29 -22 -26 -16 2 -24 11 -26 28 -2 14 -10 29
-18 33 -19 11 -18 27 1 27 8 0 15 7 15 15 0 9 9 15 25 15 16 0 25 -6 25 -15z
m-2110 -45 c0 -20 5 -30 15 -30 8 0 15 8 15 18 0 10 5 23 12 30 16 16 90 16
106 0 16 -16 15 -46 -2 -64 -18 -17 -92 -19 -100 -1 -5 10 -7 10 -12 0 -9 -20
-114 -17 -114 2 0 8 7 15 15 15 17 0 20 25 5 35 -21 13 -9 25 25 25 32 0 35
-2 35 -30z m930 0 c0 -20 5 -30 15 -30 8 0 15 -7 15 -15 0 -12 -13 -15 -55
-15 -42 0 -55 3 -55 15 0 8 7 15 16 15 12 0 14 7 9 30 -6 28 -5 30 24 30 28 0
31 -3 31 -30z m278 7 c2 -10 1 -29 -2 -43 -6 -21 -12 -24 -49 -24 -47 0 -67
13 -67 45 0 33 21 46 70 43 34 -2 46 -7 48 -21z m800 -24 l3 -43 -49 0 c-54 0
-85 21 -64 42 7 7 12 20 12 31 0 15 7 18 48 15 l47 -3 3 -42z m250 35 c7 -7
12 -21 12 -33 0 -32 -20 -45 -66 -45 -29 0 -44 5 -48 16 -8 21 -8 59 1 67 11
12 88 8 101 -5z m8322 -1903 c0 -8 -9 -15 -20 -15 -11 0 -20 7 -20 15 0 8 9
15 20 15 11 0 20 -7 20 -15z m490 -90 c0 -87 -3 -105 -15 -105 -12 0 -15 18
-15 105 0 87 3 105 15 105 12 0 15 -18 15 -105z m680 90 c0 -8 -9 -15 -20 -15
-11 0 -20 7 -20 15 0 8 9 15 20 15 11 0 20 -7 20 -15z m99 1 c10 -12 6 -14
-24 -14 -33 0 -43 7 -28 21 11 12 40 8 52 -7z m301 -1 c0 -8 -9 -15 -20 -15
-11 0 -20 7 -20 15 0 8 9 15 20 15 11 0 20 -7 20 -15z m860 -13 c0 -26 3 -28
30 -24 24 3 32 0 42 -22 8 -19 9 -35 2 -54 -8 -24 -15 -27 -62 -29 l-52 -2 0
79 c0 73 2 80 20 80 15 0 20 -7 20 -28z m-2530 -42 c0 -57 1 -60 25 -60 16 0
25 -6 25 -15 0 -11 -12 -15 -45 -15 l-45 0 0 75 c0 68 2 75 20 75 18 0 20 -7
20 -60z m770 45 c0 -9 -9 -15 -25 -15 -16 0 -25 -6 -25 -15 0 -9 9 -15 25 -15
16 0 25 -6 25 -15 0 -9 -9 -15 -25 -15 -16 0 -25 -6 -25 -15 0 -9 9 -15 25
-15 14 0 25 -6 25 -12 1 -7 10 -2 21 11 18 22 18 26 4 47 -19 30 -19 34 5 34
10 0 23 -7 28 -16 8 -15 10 -15 15 0 4 9 16 16 27 16 19 0 20 -2 6 -29 -13
-25 -13 -31 -1 -47 20 -26 18 -34 -5 -34 -11 0 -23 7 -27 16 -5 15 -7 15 -15
0 -7 -12 -25 -16 -78 -16 l-70 0 0 75 0 75 45 0 c33 0 45 -4 45 -15z m1610
-32 c0 -56 11 -78 34 -70 12 5 16 20 16 62 0 48 2 55 20 55 18 0 20 -7 20 -57
0 -68 -18 -93 -66 -93 -44 0 -64 30 -64 97 0 46 3 53 20 53 17 0 20 -7 20 -47z
m540 22 c0 -8 7 -15 15 -15 8 0 15 -4 15 -10 0 -5 -7 -10 -15 -10 -21 0 -19
-47 1 -58 9 -5 14 -14 10 -21 -10 -15 -41 -14 -53 2 -15 18 -22 91 -11 110 11
21 38 22 38 2z m-3130 -30 c26 -32 -13 -81 -47 -59 -35 22 -23 74 17 74 10 0
23 -7 30 -15z m310 -40 c0 -48 -2 -55 -20 -55 -18 0 -20 7 -20 55 0 48 2 55
20 55 18 0 20 -7 20 -55z m120 35 c6 -10 10 -35 10 -54 0 -29 -4 -36 -19 -36
-16 0 -20 8 -23 38 -4 46 -22 45 -26 -3 -2 -27 -8 -35 -23 -35 -16 0 -19 7
-19 54 l0 54 45 0 c34 0 48 -4 55 -18z m62 -17 c4 -52 28 -56 28 -4 0 34 3 41
20 41 18 0 20 -7 20 -55 l0 -55 -45 0 c-51 0 -65 16 -65 74 0 29 4 36 19 36
16 0 20 -8 23 -37z m135 21 c5 -15 7 -15 15 0 5 9 18 16 30 16 19 0 20 -1 4
-25 -15 -23 -15 -28 -1 -55 15 -28 14 -30 -3 -30 -10 0 -24 6 -31 13 -11 10
-14 10 -18 0 -3 -7 -16 -13 -30 -13 l-24 0 19 28 c18 24 18 30 6 47 -8 10 -14
22 -14 27 0 15 41 8 47 -8z m594 -10 c13 -37 -8 -78 -44 -82 -21 -3 -27 -9
-27 -28 0 -17 -5 -24 -20 -24 -18 0 -20 7 -20 79 l0 79 50 0 c45 1 52 -2 61
-24z m107 14 c7 -7 12 -20 12 -30 0 -13 -8 -18 -31 -18 -18 0 -28 -4 -24 -10
4 -6 15 -8 26 -5 15 5 19 1 19 -14 0 -17 -6 -21 -33 -21 -41 0 -57 15 -57 55
0 38 16 55 50 55 14 0 31 -5 38 -12z m102 -2 c0 -8 -7 -16 -15 -20 -9 -3 -15
-19 -15 -41 0 -28 -4 -35 -20 -35 -18 0 -20 7 -20 55 l0 55 35 0 c23 0 35 -5
35 -14z m50 -41 c0 -48 -2 -55 -20 -55 -18 0 -20 7 -20 55 0 48 2 55 20 55 18
0 20 -7 20 -55z m108 43 c7 -7 12 -20 12 -30 0 -14 -8 -18 -36 -18 -23 0 -33
-4 -28 -11 3 -6 17 -8 31 -4 20 5 24 2 21 -12 -2 -13 -13 -18 -38 -18 -27 0
-38 6 -49 26 -13 24 -13 29 2 53 19 28 63 36 85 14z m130 -45 c3 -48 1 -53
-17 -53 -18 0 -21 6 -21 41 0 52 -24 48 -28 -4 -3 -29 -7 -37 -23 -37 -16 0
-19 7 -19 55 l0 54 53 -2 52 -2 3 -52z m112 36 c0 -15 -5 -19 -19 -14 -25 8
-46 -18 -27 -34 7 -6 21 -8 31 -5 13 5 16 2 13 -12 -4 -23 -52 -31 -74 -13
-17 14 -19 70 -2 87 7 7 27 12 45 12 27 0 33 -4 33 -21z m50 -34 c0 -48 -2
-55 -20 -55 -18 0 -20 7 -20 55 0 48 2 55 20 55 18 0 20 -7 20 -55z m110 29
c6 -14 10 -38 10 -54 0 -29 -1 -29 -46 -27 -54 2 -77 24 -55 51 8 9 22 16 32
16 11 0 19 5 19 10 0 6 -11 8 -25 4 -14 -3 -25 -2 -25 3 0 17 13 23 47 23 27
0 35 -5 43 -26z m170 5 c0 -15 -5 -19 -19 -14 -25 8 -46 -18 -27 -34 7 -6 21
-8 31 -5 13 5 16 2 13 -12 -4 -23 -52 -31 -74 -13 -17 14 -19 70 -2 87 7 7 27
12 45 12 27 0 33 -4 33 -21z m117 -5 c15 -24 15 -29 2 -53 -28 -50 -109 -36
-109 19 0 60 74 84 107 34z m191 -31 c3 -48 1 -53 -17 -53 -18 0 -21 6 -21 40
0 22 -4 40 -10 40 -5 0 -10 -18 -10 -40 0 -33 -3 -40 -19 -40 -16 0 -20 8 -23
38 -4 46 -22 45 -26 -3 -2 -27 -8 -35 -23 -35 -16 0 -19 7 -19 54 l0 54 83 -1
82 -2 3 -52z m404 20 c2 -21 8 -38 13 -38 6 0 11 17 13 38 3 29 7 37 23 37 16
0 19 -7 19 -54 l0 -55 -42 1 c-56 0 -68 12 -68 64 0 37 3 44 19 44 16 0 20 -8
23 -37z m186 25 c6 -6 12 -30 12 -54 0 -37 -3 -44 -19 -44 -16 0 -20 8 -23 38
-4 46 -22 45 -26 -3 -2 -27 -8 -35 -23 -35 -16 0 -19 7 -19 54 l0 55 43 -1
c23 0 48 -5 55 -10z m152 -29 c0 -52 24 -48 28 4 3 29 7 37 23 37 16 0 19 -7
19 -55 l0 -54 -52 2 -53 2 -3 53 c-3 47 -1 52 17 52 18 0 21 -6 21 -41z m125
32 c3 -5 1 -13 -5 -16 -15 -9 -43 3 -35 15 8 13 32 13 40 1z m-5 -80 c0 -21
-13 -41 -26 -41 -14 0 -19 31 -7 43 10 10 33 8 33 -2z m-2690 -286 c0 -87 -3
-105 -15 -105 -12 0 -15 18 -15 105 0 87 3 105 15 105 12 0 15 -18 15 -105z
m685 96 c3 -5 1 -13 -5 -16 -15 -9 -43 3 -35 15 8 13 32 13 40 1z m104 -5 c11
-13 6 -15 -29 -14 -33 0 -38 3 -29 14 15 18 43 18 58 0z m301 -1 c0 -8 -9 -15
-20 -15 -11 0 -20 7 -20 15 0 8 9 15 20 15 11 0 20 -7 20 -15z m780 -65 l0
-79 -52 2 c-47 2 -54 5 -62 29 -12 35 14 78 49 78 20 0 25 5 25 25 0 18 5 25
20 25 18 0 20 -7 20 -80z m370 55 c0 -19 5 -25 23 -25 30 0 47 -18 47 -48 0
-46 -17 -62 -65 -62 l-45 0 0 80 c0 73 2 80 20 80 15 0 20 -7 20 -25z m-2620
-6 c0 -16 -4 -19 -20 -14 -36 12 -41 -6 -8 -29 18 -12 34 -29 36 -38 5 -27
-27 -49 -67 -46 -29 2 -37 8 -39 26 -3 21 -1 21 22 10 40 -17 44 0 8 28 -53
42 -38 84 30 84 32 0 38 -3 38 -21z m142 4 c24 -27 30 -57 18 -88 -9 -22 -7
-31 6 -46 16 -18 16 -19 -14 -19 -17 0 -34 5 -37 10 -3 6 -18 10 -32 10 -41 0
-63 27 -63 76 0 33 5 46 22 58 30 21 81 20 100 -1z m78 -43 l0 -60 30 0 c20 0
30 -5 30 -15 0 -11 -12 -15 -50 -15 l-50 0 0 75 c0 68 2 75 20 75 18 0 20 -7
20 -60z m350 45 c0 -10 -10 -15 -30 -15 -20 0 -30 -5 -30 -15 0 -9 9 -15 25
-15 16 0 25 -6 25 -15 0 -9 -9 -15 -25 -15 -16 0 -25 -6 -25 -15 0 -10 10 -15
30 -15 17 0 30 -5 30 -12 0 -7 9 -2 19 12 17 21 18 27 5 44 -8 11 -14 24 -14
28 0 15 41 8 47 -8 5 -15 7 -15 15 0 5 9 18 16 30 16 19 0 20 -1 4 -25 -15
-23 -15 -28 -1 -55 15 -28 14 -30 -3 -30 -10 0 -24 6 -31 13 -11 10 -14 10
-18 0 -3 -9 -29 -13 -79 -13 l-74 0 0 75 0 75 50 0 c38 0 50 -4 50 -15z m1860
-9 c0 -8 6 -17 13 -20 10 -5 10 -7 0 -12 -15 -7 -18 -64 -3 -64 6 0 10 -7 10
-16 0 -11 -8 -14 -27 -12 -25 3 -28 8 -31 43 -2 22 -8 43 -14 46 -6 4 -3 14 8
28 21 24 44 28 44 7z m-2690 -31 c26 -32 -13 -81 -47 -59 -35 22 -23 74 17 74
10 0 23 -7 30 -15z m1058 3 c15 -13 16 -70 0 -86 -7 -7 -22 -12 -35 -12 -18 0
-23 -6 -23 -25 0 -18 -5 -25 -20 -25 -18 0 -20 7 -20 79 l0 80 43 -1 c23 0 48
-5 55 -10z m120 0 c7 -7 12 -20 12 -30 0 -14 -8 -18 -36 -18 -23 0 -33 -4 -28
-11 3 -6 17 -8 31 -4 20 5 24 2 21 -12 -2 -13 -13 -18 -38 -18 -27 0 -38 6
-49 26 -13 24 -13 29 2 53 19 28 63 36 85 14z m102 -4 c0 -8 -6 -14 -14 -14
-16 0 -26 -21 -26 -56 0 -17 -6 -24 -20 -24 -18 0 -20 7 -20 54 l0 55 40 -1
c27 0 40 -5 40 -14z m50 -39 c0 -48 -2 -55 -20 -55 -18 0 -20 7 -20 55 0 48 2
55 20 55 18 0 20 -7 20 -55z m110 36 c17 -33 12 -41 -26 -41 -23 0 -33 -4 -28
-11 3 -6 17 -8 31 -4 20 5 24 2 21 -12 -5 -26 -68 -31 -85 -7 -18 24 -16 54 4
76 22 24 69 24 83 -1z m118 7 c6 -6 12 -30 12 -54 0 -37 -3 -44 -19 -44 -16 0
-20 8 -23 38 -4 46 -22 45 -26 -3 -2 -27 -8 -35 -23 -35 -16 0 -19 7 -19 54
l0 55 43 -1 c23 0 48 -5 55 -10z m120 -12 c3 -14 0 -17 -12 -13 -21 8 -46 -2
-46 -18 0 -16 25 -26 46 -18 12 4 15 1 12 -13 -6 -31 -68 -26 -87 7 -13 24
-13 29 3 53 14 22 24 27 49 24 22 -2 33 -9 35 -22z m52 -31 c0 -48 -2 -55 -20
-55 -18 0 -20 7 -20 55 0 48 2 55 20 55 18 0 20 -7 20 -55z m108 -1 l3 -51
-45 -1 c-37 -1 -46 2 -51 19 -8 24 10 49 36 49 11 0 19 5 19 11 0 7 -10 9 -25
5 -14 -4 -25 -3 -25 2 0 17 15 23 50 20 35 -3 35 -3 38 -54z m170 32 c3 -14 0
-17 -12 -13 -21 8 -46 -2 -46 -18 0 -16 25 -26 46 -18 12 4 15 1 12 -13 -6
-31 -68 -26 -87 7 -13 24 -13 29 3 53 14 22 24 27 49 24 22 -2 33 -9 35 -22z
m110 12 c17 -17 15 -73 -2 -87 -25 -21 -79 -9 -95 20 -13 24 -13 29 2 53 13
19 26 26 50 26 18 0 38 -5 45 -12z m200 -45 c3 -48 1 -53 -17 -53 -18 0 -21 6
-21 40 0 22 -4 40 -10 40 -5 0 -10 -18 -10 -40 0 -33 -3 -40 -19 -40 -16 0
-20 8 -23 38 -4 46 -22 45 -26 -3 -2 -27 -8 -35 -23 -35 -16 0 -19 7 -19 54
l0 54 83 -1 82 -2 3 -52z m300 1 l3 -51 -45 -1 c-37 -1 -46 2 -51 19 -8 24 10
49 36 49 11 0 19 5 19 11 0 7 -10 9 -25 5 -14 -4 -25 -3 -25 2 0 17 15 23 50
20 35 -3 35 -3 38 -54z m190 44 c7 -7 12 -31 12 -55 l0 -42 -47 2 c-46 2 -48
3 -48 32 0 22 5 31 20 33 11 2 25 9 30 14 7 7 1 9 -17 4 -21 -5 -28 -3 -28 9
0 19 60 21 78 3z m240 0 c7 -7 12 -31 12 -55 l0 -42 -47 2 c-46 2 -48 3 -48
32 0 22 5 31 20 33 11 2 25 9 30 14 7 7 1 9 -17 4 -21 -5 -28 -3 -28 9 0 19
60 21 78 3z m102 -4 c0 -11 -6 -14 -20 -9 -28 9 -25 -9 3 -22 20 -9 25 -7 40
18 26 46 97 36 97 -13 0 -14 -8 -18 -36 -18 -23 0 -33 -4 -28 -11 3 -6 17 -8
31 -4 20 5 24 2 21 -12 -5 -27 -63 -30 -80 -4 -12 19 -12 19 -26 0 -17 -24
-82 -27 -82 -3 0 11 6 13 19 9 11 -3 22 -2 25 3 3 6 -3 12 -14 15 -26 7 -36
33 -20 52 17 20 70 20 70 -1z m175 7 c3 -5 1 -13 -5 -16 -15 -9 -43 3 -35 15
8 13 32 13 40 1z m-9 -87 c-3 -9 -6 -20 -6 -25 0 -5 -7 -9 -15 -9 -9 0 -15 9
-15 25 0 19 5 25 21 25 15 0 19 -4 15 -16z m-4489 -2106 c-1 -376 -2 -69 -2
682 0 751 1 1058 2 683 2 -376 2 -990 0 -1365z m1528 1933 c3 -5 1 -13 -5 -16
-15 -9 -43 3 -35 15 8 13 32 13 40 1z m615 -96 c0 -87 -3 -105 -15 -105 -12 0
-15 18 -15 105 0 87 3 105 15 105 12 0 15 -18 15 -105z m685 96 c3 -5 1 -13
-5 -16 -15 -9 -43 3 -35 15 8 13 32 13 40 1z m400 0 c3 -5 1 -13 -5 -16 -15
-9 -43 3 -35 15 8 13 32 13 40 1z m1705 -28 c0 -29 3 -34 12 -25 7 7 21 12 31
12 18 0 19 -1 2 -26 -15 -23 -15 -27 -1 -49 21 -31 20 -35 -4 -35 -10 0 -24 8
-29 18 -10 16 -10 16 -11 0 0 -11 -8 -18 -20 -18 -18 0 -20 7 -20 80 0 73 2
80 20 80 16 0 20 -7 20 -37z m-3478 10 c25 -23 24 -87 -2 -113 -14 -14 -33
-20 -65 -20 l-45 0 0 75 0 75 47 0 c29 0 53 -6 65 -17z m868 2 c0 -9 -9 -15
-25 -15 -16 0 -25 -6 -25 -15 0 -9 9 -15 25 -15 16 0 25 -6 25 -15 0 -9 -9
-15 -25 -15 -16 0 -25 -6 -25 -15 0 -10 10 -15 30 -15 17 0 30 -5 30 -12 0 -7
8 -2 17 11 15 23 15 26 0 53 -16 27 -16 28 8 28 13 0 26 -6 29 -12 5 -10 7
-10 12 0 3 6 17 12 30 12 24 0 24 0 7 -26 -16 -25 -16 -28 0 -55 16 -28 16
-29 -8 -29 -13 0 -25 6 -28 13 -4 10 -7 10 -18 0 -8 -8 -40 -13 -81 -13 l-68
0 0 75 0 75 45 0 c33 0 45 -4 45 -15z m1670 0 c0 -9 -9 -15 -25 -15 -16 0 -25
-6 -25 -15 0 -9 9 -15 25 -15 16 0 25 -6 25 -15 0 -9 -9 -15 -25 -15 -21 0
-25 -5 -25 -30 0 -23 -4 -30 -20 -30 -18 0 -20 7 -20 75 l0 75 45 0 c33 0 45
-4 45 -15z m-2820 -40 c26 -32 -13 -81 -47 -59 -35 22 -23 74 17 74 10 0 23
-7 30 -15z m360 -37 c0 -64 -18 -102 -48 -106 -25 -4 -31 22 -7 32 11 4 15 21
15 66 0 53 2 60 20 60 17 0 20 -7 20 -52z m98 40 c7 -7 12 -32 12 -56 l0 -43
-47 3 c-46 3 -48 4 -48 33 0 25 4 30 28 33 15 2 27 8 27 14 0 6 -10 8 -25 4
-18 -5 -25 -2 -25 9 0 19 60 21 78 3z m130 0 c6 -6 12 -30 12 -54 0 -37 -3
-44 -19 -44 -16 0 -20 8 -23 38 -4 46 -22 45 -26 -3 -2 -27 -8 -35 -23 -35
-16 0 -19 7 -19 54 l0 55 43 -1 c23 0 48 -5 55 -10z m140 -55 c-5 -74 -20 -93
-75 -93 -23 0 -33 5 -33 15 0 11 7 14 24 9 18 -4 27 -1 34 13 9 16 6 18 -21
18 -25 0 -33 5 -41 27 -6 19 -6 35 2 52 10 22 17 25 63 24 l51 0 -4 -65z m116
51 c35 -34 6 -94 -45 -94 -34 0 -59 23 -59 55 0 32 25 55 60 55 16 0 36 -7 44
-16z m544 4 c15 -13 16 -70 0 -86 -7 -7 -22 -12 -35 -12 -18 0 -23 -6 -23 -25
0 -18 -5 -25 -20 -25 -18 0 -20 7 -20 79 l0 80 43 -1 c23 0 48 -5 55 -10z
m120 0 c7 -7 12 -20 12 -30 0 -14 -8 -18 -36 -18 -23 0 -33 -4 -28 -11 3 -6
17 -8 31 -4 20 5 24 2 21 -12 -2 -13 -13 -18 -38 -18 -27 0 -38 6 -49 26 -13
24 -13 29 2 53 19 28 63 36 85 14z m102 -3 c0 -7 -9 -15 -20 -18 -15 -4 -20
-14 -20 -41 0 -29 -4 -36 -20 -36 -18 0 -20 7 -20 54 l0 55 40 -1 c25 0 40 -5
40 -13z m50 -40 c0 -48 -2 -55 -20 -55 -18 0 -20 7 -20 55 0 48 2 55 20 55 18
0 20 -7 20 -55z m110 36 c17 -33 12 -41 -26 -41 -23 0 -33 -4 -28 -11 3 -6 17
-8 31 -4 20 5 24 2 21 -12 -5 -26 -68 -31 -85 -7 -18 24 -16 54 4 76 22 24 69
24 83 -1z m120 -1 c6 -10 10 -35 10 -54 0 -29 -4 -36 -19 -36 -16 0 -20 8 -23
38 -4 46 -22 45 -26 -3 -2 -27 -8 -35 -23 -35 -16 0 -19 7 -19 54 l0 54 45 0
c34 0 48 -4 55 -18z m110 2 c0 -13 -7 -18 -22 -18 -17 1 -23 -5 -23 -19 0 -14
6 -20 23 -19 15 0 22 -5 22 -18 0 -13 -8 -18 -29 -18 -54 0 -80 53 -44 92 22
24 73 24 73 0z m60 -37 c0 -48 -2 -55 -20 -55 -18 0 -20 7 -20 55 0 48 2 55
20 55 18 0 20 -7 20 -55z m98 43 c7 -7 12 -32 12 -56 l0 -43 -47 3 c-46 3 -48
4 -48 33 0 25 4 30 28 33 15 2 27 8 27 14 0 6 -10 8 -25 4 -18 -5 -25 -2 -25
9 0 19 60 21 78 3z m180 -12 c3 -14 0 -17 -12 -13 -21 8 -46 -2 -46 -18 0 -16
25 -26 46 -18 12 4 15 1 12 -13 -6 -31 -68 -26 -87 7 -13 24 -13 29 3 53 14
22 24 27 49 24 22 -2 33 -9 35 -22z m110 12 c17 -17 15 -73 -2 -87 -25 -21
-79 -9 -95 20 -13 24 -13 29 2 53 13 19 26 26 50 26 18 0 38 -5 45 -12z m190
-1 c6 -5 12 -29 12 -53 0 -37 -3 -44 -19 -44 -16 0 -20 8 -23 38 -2 20 -7 37
-13 37 -5 0 -11 -17 -13 -37 -3 -30 -7 -38 -23 -38 -16 0 -19 7 -19 40 0 22
-4 40 -10 40 -5 0 -10 -18 -10 -40 0 -33 -3 -40 -20 -40 -18 0 -20 7 -20 55
l0 55 73 -1 c39 -1 78 -6 85 -12z m272 -1 c0 -8 -7 -16 -15 -20 -9 -3 -15 -19
-15 -41 0 -28 -4 -35 -20 -35 -18 0 -20 7 -20 55 l0 55 35 0 c23 0 35 -5 35
-14z m98 -42 l3 -51 -45 -1 c-37 -1 -46 2 -51 19 -8 24 10 49 36 49 11 0 19 5
19 11 0 7 -10 9 -25 5 -14 -4 -25 -3 -25 2 0 17 15 23 50 20 35 -3 35 -3 38
-54z m122 43 c0 -8 3 -8 12 1 33 33 68 1 68 -62 0 -29 -4 -36 -19 -36 -16 0
-20 8 -23 38 -2 20 -7 37 -13 37 -5 0 -11 -17 -13 -37 -2 -29 -8 -38 -22 -38
-14 0 -20 9 -22 38 -4 46 -22 45 -26 -3 -2 -27 -8 -35 -23 -35 -16 0 -19 7
-19 54 l0 54 50 0 c31 1 50 -3 50 -11z m190 -6 c17 -33 12 -41 -26 -41 -23 0
-33 -4 -28 -11 3 -6 17 -8 31 -4 20 5 24 2 21 -12 -5 -26 -68 -31 -85 -7 -18
24 -16 54 4 76 22 24 69 24 83 -1z m50 0 c0 -29 18 -35 22 -9 2 15 11 24 26
26 18 3 22 -2 23 -25 l1 -28 11 28 c6 15 19 27 28 27 17 0 17 -3 4 -47 -8 -27
-15 -52 -15 -56 0 -21 -45 0 -51 23 l-6 25 -8 -27 c-5 -18 -14 -28 -26 -28
-20 0 -31 20 -44 78 -6 28 -4 32 14 32 14 0 21 -6 21 -19z m234 3 c35 -34 6
-94 -45 -94 -34 0 -59 23 -59 55 0 32 25 55 60 55 16 0 36 -7 44 -16z m106 0
c0 -8 -6 -14 -14 -14 -16 0 -26 -21 -26 -56 0 -17 -6 -24 -20 -24 -18 0 -20 7
-20 54 l0 55 40 -1 c27 0 40 -5 40 -14z m175 7 c3 -5 1 -13 -5 -16 -15 -9 -43
3 -35 15 8 13 32 13 40 1z m-9 -87 c-3 -9 -6 -20 -6 -25 0 -5 -7 -9 -15 -9 -9
0 -15 9 -15 25 0 19 5 25 21 25 15 0 19 -4 15 -16z m-3346 -198 c0 -19 6 -25
28 -28 25 -3 27 -7 30 -55 3 -48 1 -53 -17 -53 -18 0 -21 6 -21 40 0 22 -4 40
-10 40 -5 0 -10 -18 -10 -40 0 -33 -3 -40 -20 -40 -18 0 -20 7 -20 80 0 73 2
80 20 80 15 0 20 -7 20 -24z m440 -81 c0 -98 -1 -105 -20 -105 -19 0 -20 7
-20 105 0 98 1 105 20 105 19 0 20 -7 20 -105z m680 90 c0 -8 -9 -15 -20 -15
-11 0 -20 7 -20 15 0 8 9 15 20 15 11 0 20 -7 20 -15z m99 1 c10 -12 6 -14
-24 -14 -33 0 -43 7 -28 21 11 12 40 8 52 -7z m301 -1 c0 -8 -9 -15 -20 -15
-11 0 -20 7 -20 15 0 8 9 15 20 15 11 0 20 -7 20 -15z m880 -65 c0 -73 -2 -80
-20 -80 -18 0 -20 7 -20 80 0 73 2 80 20 80 18 0 20 -7 20 -80z m60 65 c0 -8
-9 -15 -20 -15 -11 0 -20 7 -20 15 0 8 9 15 20 15 11 0 20 -7 20 -15z m-2718
-15 c7 -11 20 -20 30 -20 9 0 21 -12 26 -27 l10 -28 11 28 c7 19 18 27 35 27
13 0 26 7 30 15 3 8 12 15 21 15 8 0 15 -7 15 -15 0 -8 7 -15 15 -15 8 0 15
-4 15 -10 0 -5 -7 -10 -15 -10 -21 0 -19 -47 1 -58 20 -11 10 -32 -15 -32 -26
0 -41 20 -41 56 0 53 -17 48 -35 -8 -10 -29 -24 -63 -31 -75 -17 -26 -64 -32
-64 -8 0 8 6 15 14 15 25 0 28 19 11 64 -17 43 -17 44 -36 25 -10 -10 -28 -19
-39 -19 -15 0 -20 -7 -20 -25 0 -18 -5 -25 -20 -25 -18 0 -20 7 -20 75 l0 75
45 0 c34 0 48 -5 57 -20z m878 5 c0 -9 -9 -15 -25 -15 -16 0 -25 -6 -25 -15 0
-9 9 -15 25 -15 16 0 25 -6 25 -15 0 -9 -9 -15 -25 -15 -16 0 -25 -6 -25 -15
0 -9 9 -15 25 -15 14 0 25 -6 25 -12 0 -7 9 -2 19 12 17 21 18 27 5 44 -8 11
-14 24 -14 28 0 15 39 8 48 -8 8 -15 10 -15 15 0 4 9 16 16 28 16 20 0 21 -1
5 -25 -15 -23 -15 -28 -1 -55 15 -28 14 -30 -3 -30 -10 0 -24 6 -31 13 -11 10
-14 10 -18 0 -3 -9 -28 -13 -74 -13 l-69 0 0 75 0 75 45 0 c33 0 45 -4 45 -15z
m-1150 -40 c26 -32 -13 -81 -47 -59 -35 22 -23 74 17 74 10 0 23 -7 30 -15z
m717 -11 c15 -24 15 -29 2 -53 -28 -50 -109 -36 -109 19 0 60 74 84 107 34z
m121 14 c6 -6 12 -30 12 -54 0 -37 -3 -44 -19 -44 -16 0 -20 8 -23 38 -4 46
-22 45 -26 -3 -2 -27 -8 -35 -23 -35 -16 0 -19 7 -19 54 l0 55 43 -1 c23 0 48
-5 55 -10z m553 -14 c13 -37 -8 -78 -44 -82 -21 -3 -27 -9 -27 -28 0 -17 -5
-24 -20 -24 -18 0 -20 7 -20 79 l0 79 50 0 c45 1 52 -2 61 -24z m107 14 c7 -7
12 -20 12 -30 0 -13 -8 -18 -31 -18 -18 0 -28 -4 -24 -10 4 -6 15 -8 26 -5 15
5 19 1 19 -14 0 -17 -6 -21 -33 -21 -41 0 -57 15 -57 55 0 38 16 55 50 55 14
0 31 -5 38 -12z m102 -4 c0 -8 -6 -14 -14 -14 -16 0 -26 -21 -26 -56 0 -17 -6
-24 -20 -24 -18 0 -20 7 -20 54 l0 55 40 -1 c27 0 40 -5 40 -14z m50 -39 c0
-48 -2 -55 -20 -55 -18 0 -20 7 -20 55 0 48 2 55 20 55 18 0 20 -7 20 -55z
m108 43 c7 -7 12 -20 12 -30 0 -14 -8 -18 -36 -18 -23 0 -33 -4 -28 -11 3 -6
17 -8 31 -4 20 5 24 2 21 -12 -2 -13 -13 -18 -38 -18 -27 0 -38 6 -49 26 -13
24 -13 29 2 53 19 28 63 36 85 14z m120 0 c6 -6 12 -30 12 -54 0 -37 -3 -44
-19 -44 -16 0 -20 8 -23 38 -4 46 -22 45 -26 -3 -2 -27 -8 -35 -23 -35 -16 0
-19 7 -19 54 l0 55 43 -1 c23 0 48 -5 55 -10z m120 -12 c3 -14 0 -17 -12 -13
-21 8 -46 -2 -46 -18 0 -16 25 -26 46 -18 12 4 15 1 12 -13 -6 -31 -68 -26
-87 7 -13 24 -13 29 3 53 14 22 24 27 49 24 22 -2 33 -9 35 -22z m52 -31 c0
-48 -2 -55 -20 -55 -18 0 -20 7 -20 55 0 48 2 55 20 55 18 0 20 -7 20 -55z
m108 -1 l3 -51 -45 -1 c-37 -1 -46 2 -51 19 -8 24 10 49 36 49 11 0 19 5 19
11 0 7 -10 9 -25 5 -14 -4 -25 -3 -25 2 0 17 15 23 50 20 35 -3 35 -3 38 -54z
m172 35 c0 -15 -5 -19 -19 -14 -25 8 -46 -18 -27 -34 7 -6 21 -8 31 -5 13 5
16 2 13 -12 -4 -23 -52 -31 -74 -13 -17 14 -19 70 -2 87 7 7 27 12 45 12 27 0
33 -4 33 -21z m108 9 c7 -7 12 -26 12 -43 0 -39 -16 -55 -55 -55 -39 0 -55 16
-55 55 0 39 16 55 55 55 17 0 36 -5 43 -12z m200 -45 c3 -48 1 -53 -17 -53
-18 0 -21 6 -21 40 0 22 -4 40 -10 40 -5 0 -10 -18 -10 -40 0 -33 -3 -40 -19
-40 -16 0 -20 8 -23 38 -4 46 -22 45 -26 -3 -2 -27 -8 -35 -23 -35 -16 0 -19
7 -19 54 l0 54 83 -1 82 -2 3 -52z m172 31 c6 -14 10 -38 10 -54 0 -29 -1 -29
-46 -27 -54 2 -77 24 -55 51 8 9 22 16 32 16 11 0 19 5 19 10 0 6 -11 8 -25 4
-14 -3 -25 -2 -25 3 0 17 13 23 47 23 27 0 35 -5 43 -26z m180 -29 c0 -48 -2
-55 -20 -55 -18 0 -20 7 -20 55 0 48 2 55 20 55 18 0 20 -7 20 -55z m118 43
c6 -6 12 -30 12 -54 0 -37 -3 -44 -19 -44 -16 0 -20 8 -23 38 -4 46 -22 45
-26 -3 -2 -27 -8 -35 -23 -35 -16 0 -19 7 -19 54 l0 55 43 -1 c23 0 48 -5 55
-10z m142 -46 c0 -76 -18 -102 -71 -102 -29 0 -39 4 -39 16 0 11 6 14 20 9 19
-6 50 9 50 24 0 3 -14 6 -32 6 -43 0 -60 40 -34 79 14 22 24 26 61 26 l45 0 0
-58z m60 17 c0 -52 24 -48 28 4 3 29 7 37 23 37 16 0 19 -7 19 -55 l0 -54 -52
2 -53 2 -3 53 c-3 47 -1 52 17 52 18 0 21 -6 21 -41z m168 29 c7 -7 12 -31 12
-55 l0 -42 -47 2 c-46 2 -48 3 -48 32 0 22 5 31 20 33 11 2 25 9 30 14 7 7 1
9 -17 4 -21 -5 -28 -3 -28 9 0 19 60 21 78 3z m142 -46 c0 -76 -18 -102 -71
-102 -29 0 -39 4 -39 16 0 11 6 14 20 9 19 -6 50 9 50 24 0 3 -14 6 -32 6 -43
0 -60 40 -34 79 14 22 24 26 61 26 l45 0 0 -58z m108 46 c7 -7 12 -20 12 -30
0 -14 -8 -18 -36 -18 -23 0 -33 -4 -28 -11 3 -6 17 -8 31 -4 20 5 24 2 21 -12
-2 -13 -13 -18 -38 -18 -27 0 -38 6 -49 26 -13 24 -13 29 2 53 19 28 63 36 85
14z m190 -45 c3 -48 1 -53 -17 -53 -18 0 -21 6 -21 40 0 22 -4 40 -10 40 -5 0
-10 -18 -10 -40 0 -33 -3 -40 -19 -40 -16 0 -20 8 -23 38 -4 46 -22 45 -26 -3
-2 -27 -8 -35 -23 -35 -16 0 -19 7 -19 54 l0 54 83 -1 82 -2 3 -52z m62 -38
c0 -8 -9 -15 -20 -15 -11 0 -20 7 -20 15 0 8 9 15 20 15 11 0 20 -7 20 -15z
m-3130 -270 c0 -87 -3 -105 -15 -105 -12 0 -15 18 -15 105 0 87 3 105 15 105
12 0 15 -18 15 -105z m685 96 c3 -5 1 -13 -5 -16 -15 -9 -43 3 -35 15 8 13 32
13 40 1z m102 -7 c3 -8 -9 -12 -32 -12 -30 0 -34 2 -24 14 14 17 50 15 56 -2z
m298 7 c3 -5 1 -13 -5 -16 -15 -9 -43 3 -35 15 8 13 32 13 40 1z m885 -71 c0
-73 -2 -80 -20 -80 -18 0 -20 7 -20 80 0 73 2 80 20 80 18 0 20 -7 20 -80z
m55 71 c3 -5 1 -13 -5 -16 -15 -9 -43 3 -35 15 8 13 32 13 40 1z m-2665 -31
c0 -25 4 -30 25 -30 21 0 25 5 25 30 0 23 4 30 20 30 18 0 20 -7 20 -75 0 -68
-2 -75 -20 -75 -16 0 -20 7 -20 30 0 25 -4 30 -25 30 -21 0 -25 -5 -25 -30 0
-23 -4 -30 -20 -30 -18 0 -20 7 -20 75 0 68 2 75 20 75 16 0 20 -7 20 -30z
m230 15 c0 -8 -9 -15 -20 -15 -18 0 -20 -7 -20 -60 0 -53 -2 -60 -20 -60 -18
0 -20 7 -20 60 0 57 -1 60 -25 60 -16 0 -25 6 -25 15 0 12 14 15 65 15 51 0
65 -3 65 -15z m81 -32 l15 -48 15 45 c13 37 21 46 42 48 l27 3 0 -75 c0 -69
-2 -76 -20 -76 -16 0 -20 7 -21 38 l-1 37 -12 -35 c-8 -23 -19 -35 -31 -35
-12 0 -23 12 -31 35 l-12 35 -1 -37 c-1 -31 -5 -38 -21 -38 -18 0 -20 7 -20
75 l0 75 28 0 c25 0 30 -6 43 -47z m169 -13 l0 -60 30 0 c20 0 30 -5 30 -15 0
-11 -12 -15 -50 -15 l-50 0 0 75 c0 68 2 75 20 75 18 0 20 -7 20 -60z m340 45
c0 -9 -9 -15 -25 -15 -16 0 -25 -6 -25 -15 0 -9 9 -15 25 -15 16 0 25 -6 25
-15 0 -9 -9 -15 -25 -15 -16 0 -25 -6 -25 -15 0 -10 10 -15 30 -15 17 0 30 -5
30 -12 0 -7 8 -2 17 11 15 23 15 26 0 53 -16 27 -16 28 8 28 13 0 26 -6 29
-12 5 -10 7 -10 12 0 3 6 17 12 30 12 24 0 24 0 7 -26 -16 -25 -16 -28 0 -55
16 -28 16 -29 -8 -29 -13 0 -25 6 -28 13 -4 10 -7 10 -18 0 -8 -8 -40 -13 -81
-13 l-68 0 0 75 0 75 45 0 c33 0 45 -4 45 -15z m-7384 -67 c-7 -5 -4 -8 7 -8
9 0 17 -4 17 -8 0 -5 11 -14 25 -20 15 -7 25 -8 25 -2 0 6 -4 10 -10 10 -5 0
-10 5 -10 11 0 7 7 8 18 4 30 -13 94 -17 88 -6 -7 11 10 9 154 -17 l45 -8 0
-94 c0 -52 -3 -119 -7 -147 -6 -46 -4 -56 16 -80 37 -46 37 -57 0 -97 -19 -20
-34 -40 -34 -46 0 -6 -9 -6 -24 0 -13 5 -27 6 -30 3 -3 -3 -16 1 -30 10 -13 9
-54 19 -91 23 -36 4 -61 10 -54 14 19 12 -27 23 -48 12 -10 -6 -21 -10 -26
-10 -28 -1 -67 -16 -67 -25 0 -7 -4 -6 -10 3 -8 13 -11 13 -22 1 -10 -10 -10
-12 0 -7 6 4 12 2 12 -3 0 -14 37 -14 45 -1 8 13 98 10 110 -5 5 -6 28 -17 50
-23 22 -7 54 -23 70 -37 25 -21 28 -26 15 -35 -9 -6 -40 -9 -75 -6 -35 3 -49
2 -35 -3 20 -6 14 -9 -35 -15 -33 -4 -69 -9 -80 -11 -11 -2 -26 -4 -32 -4 -7
-1 -13 -8 -13 -16 0 -17 27 -19 63 -6 20 8 27 6 31 -5 3 -8 10 -12 16 -9 5 3
10 1 10 -4 0 -16 56 -13 70 4 9 11 17 12 31 4 28 -15 23 -29 -10 -29 -17 0
-32 -4 -36 -10 -3 -5 9 -7 30 -5 46 6 47 -15 3 -38 l-33 -16 28 0 c43 -1 100
26 93 44 -3 9 -2 14 2 11 5 -3 21 15 37 39 15 25 31 45 34 45 4 0 17 -7 30
-17 13 -9 38 -19 55 -22 29 -6 32 -11 39 -61 4 -30 9 -69 12 -87 3 -25 1 -31
-10 -26 -23 8 -18 -11 10 -37 14 -13 30 -41 37 -62 15 -49 -1 -70 -51 -67 -55
4 -111 -19 -122 -49 -11 -29 6 -48 28 -30 8 6 16 8 20 4 4 -3 -8 -12 -25 -18
-20 -8 -32 -19 -32 -31 0 -10 -4 -16 -9 -13 -5 4 -15 -7 -23 -24 -7 -17 -17
-29 -23 -27 -5 2 -15 -3 -22 -12 -7 -9 -13 -11 -13 -6 0 12 -35 12 -62 0 -10
-4 -16 -11 -13 -15 3 -5 -4 -6 -15 -3 -11 3 -20 0 -20 -6 0 -6 -11 -11 -24
-11 -26 0 -36 -16 -36 -57 0 -23 -2 -24 -17 -12 -15 13 -15 12 -4 -8 6 -13 19
-23 29 -23 9 0 27 -3 40 -6 17 -5 21 -3 16 9 -7 20 24 37 73 38 26 0 32 3 20
7 -14 6 -9 12 28 30 54 26 59 27 52 7 -4 -8 -2 -17 4 -21 7 -4 6 -10 -1 -19
-8 -9 -7 -14 3 -18 9 -3 17 -28 22 -63 6 -52 5 -60 -14 -75 -25 -20 -29 -80
-7 -99 10 -8 12 -19 7 -33 -9 -26 -4 -57 10 -57 5 0 9 -11 9 -25 0 -14 -6 -25
-13 -25 -7 0 -23 -9 -36 -21 -16 -15 -25 -18 -35 -10 -10 8 -17 7 -26 -4 -12
-14 -15 -13 -30 10 -14 22 -18 24 -24 10 -4 -10 -2 -14 6 -9 7 4 8 3 4 -4 -10
-16 -46 -15 -47 1 0 6 -4 3 -9 -8 -5 -11 -9 -14 -9 -6 -1 7 -7 11 -16 7 -12
-4 -12 -1 2 22 17 27 17 27 -3 10 -11 -10 -31 -18 -45 -18 l-24 1 25 14 25 15
-25 -4 c-29 -4 -80 12 -80 25 0 5 -5 9 -11 9 -5 0 -7 -4 -4 -10 3 -5 -1 -10
-9 -10 -9 0 -16 4 -16 9 0 5 -10 13 -22 16 -13 4 -35 19 -50 33 -16 14 -28 22
-28 16 0 -5 -8 5 -16 23 -9 18 -19 32 -23 31 -25 -3 -34 3 -23 14 15 15 -13
49 -33 42 -19 -8 -30 16 -14 28 11 8 10 9 -3 4 -10 -3 -18 -1 -18 4 0 6 -4 10
-10 10 -14 0 -12 -27 3 -33 7 -3 5 -6 -5 -6 -10 -1 -18 6 -18 14 0 27 -15 16
-17 -13 -1 -22 5 -32 28 -46 16 -9 29 -23 29 -31 0 -7 9 -17 20 -20 11 -3 20
-10 20 -15 0 -11 52 -60 63 -60 4 0 5 5 1 12 -4 7 -3 8 5 4 9 -6 9 -11 1 -21
-8 -10 -8 -15 1 -21 8 -4 9 -3 5 4 -17 27 15 9 48 -28 20 -22 40 -40 45 -40 5
0 13 -9 16 -20 4 -11 11 -18 16 -15 8 6 14 -35 11 -75 -6 -86 -41 -100 -129
-51 -29 16 -53 28 -53 26 0 -4 235 -170 323 -228 23 -16 102 -64 175 -107 74
-43 151 -92 172 -109 45 -36 62 -41 33 -8 -11 12 -30 50 -43 85 -28 78 -37 77
-11 -1 11 -32 16 -57 10 -57 -5 0 -9 6 -9 13 0 14 -56 136 -72 154 -22 27 -26
0 -7 -49 11 -28 18 -55 16 -61 -3 -9 -57 123 -57 140 0 3 6 3 14 0 10 -4 16 5
20 29 4 19 10 34 14 34 11 0 98 -115 147 -194 11 -18 35 -51 54 -74 19 -23 36
-48 37 -57 3 -18 -17 -20 -34 -3 -6 6 -22 13 -34 15 -20 3 -19 0 10 -23 17
-15 32 -35 32 -45 0 -23 -9 -24 -38 -3 -13 9 -30 13 -38 10 -8 -3 -13 -2 -10
2 3 5 -9 16 -27 26 l-32 18 25 -22 c27 -23 22 -23 -23 0 -17 8 -26 19 -23 27
3 8 2 12 -3 9 -9 -6 -100 46 -203 116 -32 21 -58 37 -58 34 0 -2 42 -36 93
-75 93 -71 201 -170 193 -178 -2 -2 -28 11 -57 29 -82 51 -214 113 -232 109
-4 -1 -18 5 -30 14 -12 8 -28 15 -35 15 -8 0 21 -29 65 -64 43 -35 87 -73 97
-85 19 -21 19 -21 -10 -21 -29 0 -113 52 -140 87 -7 10 -14 14 -14 9 0 -6 -7
-1 -15 10 -8 10 -15 15 -15 10 0 -5 -8 -2 -17 7 -21 18 -174 95 -200 100 -10
2 -25 7 -33 10 -34 13 -45 13 -58 1 -11 -11 -10 -18 4 -41 12 -22 13 -24 1 -9
-15 17 -16 16 -15 -14 1 -27 7 -35 30 -44 15 -6 28 -16 28 -23 0 -7 4 -13 9
-13 5 0 24 -15 42 -33 18 -17 34 -31 36 -29 2 1 3 -1 2 -5 0 -4 8 -10 18 -14
60 -24 -369 1 -547 31 -216 37 -437 111 -515 174 l-29 24 26 38 c14 22 61 77
104 124 44 47 85 98 92 113 14 32 45 72 139 180 35 40 63 76 63 81 0 17 33 46
52 46 24 0 64 84 77 161 25 141 28 458 6 504 -8 17 -29 68 -46 115 -28 72 -33
99 -33 175 -1 81 2 96 29 150 49 99 110 102 170 10 37 -58 43 -63 64 -42 10
10 11 8 5 -6 -4 -12 -2 -17 7 -15 11 2 14 -14 12 -77 -1 -74 -1 -76 9 -37 7
31 14 42 24 38 10 -4 14 3 15 22 1 15 2 32 4 37 1 6 3 18 3 29 2 16 4 17 18 5
15 -12 16 -11 10 9 -5 16 -3 24 8 28 9 3 16 12 16 19 0 7 7 18 15 25 8 7 13
16 10 20 -3 5 2 16 11 24 8 9 11 16 6 16 -12 0 2 68 17 83 6 6 11 8 11 4 0 -3
16 5 36 18 20 14 40 25 44 25 5 0 6 9 3 20 -5 19 -6 20 -19 3 -18 -25 -17 -11
3 31 9 19 20 33 25 30 4 -3 5 2 2 10 -3 9 -2 16 3 16 5 0 9 10 9 23 -1 12 4
21 10 20 6 -1 17 16 23 39 10 32 15 38 23 27 7 -10 8 -6 4 14 -6 23 -3 27 17
27 13 0 27 -4 33 -9 5 -5 19 -5 34 1 24 9 24 10 6 23 -10 8 -23 16 -29 18 -5
1 -7 13 -3 24 7 21 8 21 25 5 11 -11 13 -20 7 -24z m6354 27 c26 -32 -13 -81
-47 -59 -35 22 -23 74 17 74 10 0 23 -7 30 -15z m1268 3 c29 -29 6 -98 -33
-98 -20 0 -25 -5 -25 -25 0 -18 -5 -25 -20 -25 -18 0 -20 7 -20 80 l0 80 43 0
c24 0 48 -5 55 -12z m122 -7 c17 -33 12 -41 -26 -41 -23 0 -33 -4 -28 -11 3
-6 17 -8 31 -4 20 5 24 2 21 -12 -5 -26 -68 -31 -85 -7 -18 24 -16 54 4 76 22
24 69 24 83 -1z m100 4 c0 -7 -9 -15 -20 -18 -15 -4 -20 -14 -20 -41 0 -29 -4
-36 -20 -36 -18 0 -20 7 -20 54 l0 55 40 -1 c25 0 40 -5 40 -13z m50 -40 c0
-48 -2 -55 -20 -55 -18 0 -20 7 -20 55 0 48 2 55 20 55 18 0 20 -7 20 -55z
m96 47 c6 -4 14 -17 18 -29 7 -21 4 -23 -29 -23 -23 0 -34 -4 -29 -11 3 -6 17
-8 31 -4 20 5 24 2 21 -12 -4 -22 -62 -30 -84 -12 -19 15 -18 64 2 83 16 17
51 21 70 8z m134 -12 c6 -10 10 -35 10 -54 0 -29 -4 -36 -19 -36 -16 0 -20 8
-23 38 -4 46 -22 45 -26 -3 -2 -27 -8 -35 -23 -35 -16 0 -19 7 -19 54 l0 54
45 0 c34 0 48 -4 55 -18z m110 2 c0 -13 -7 -18 -22 -18 -17 1 -23 -5 -23 -19
0 -14 6 -20 23 -19 15 0 22 -5 22 -18 0 -13 -8 -18 -29 -18 -54 0 -80 53 -44
92 22 24 73 24 73 0z m60 -37 c0 -48 -2 -55 -20 -55 -18 0 -20 7 -20 55 0 48
2 55 20 55 18 0 20 -7 20 -55z m98 43 c7 -7 12 -32 12 -56 l0 -43 -47 3 c-46
3 -48 4 -48 33 0 25 4 30 28 33 15 2 27 8 27 14 0 6 -10 8 -25 4 -18 -5 -25
-2 -25 9 0 19 60 21 78 3z m172 -6 c0 -13 -7 -18 -22 -18 -17 1 -23 -5 -23
-19 0 -14 6 -20 23 -19 15 0 22 -5 22 -18 0 -13 -8 -18 -29 -18 -54 0 -80 53
-44 92 22 24 73 24 73 0z m118 6 c17 -17 15 -73 -2 -87 -25 -21 -79 -9 -95 20
-13 24 -13 29 2 53 13 19 26 26 50 26 18 0 38 -5 45 -12z m190 -1 c6 -5 12
-29 12 -53 0 -37 -3 -44 -19 -44 -16 0 -20 8 -23 38 -2 20 -7 37 -13 37 -5 0
-11 -17 -13 -37 -3 -30 -7 -38 -23 -38 -16 0 -19 7 -19 40 0 22 -4 40 -10 40
-5 0 -10 -18 -10 -40 0 -33 -3 -40 -20 -40 -18 0 -20 7 -20 55 l0 55 73 -1
c39 -1 78 -6 85 -12z m170 1 c7 -7 12 -32 12 -56 l0 -43 -47 3 c-46 3 -48 4
-48 33 0 25 4 30 28 33 15 2 27 8 27 14 0 6 -10 8 -25 4 -18 -5 -25 -2 -25 9
0 19 60 21 78 3z m192 -43 c0 -48 -2 -55 -20 -55 -18 0 -20 7 -20 55 0 48 2
55 20 55 18 0 20 -7 20 -55z m118 -2 c3 -48 1 -53 -17 -53 -18 0 -21 6 -21 40
0 22 -4 40 -10 40 -5 0 -10 -18 -10 -40 0 -33 -3 -40 -20 -40 -18 0 -20 7 -20
56 l0 55 48 -3 47 -3 3 -52z m132 -7 c0 -45 -5 -69 -16 -80 -20 -21 -84 -22
-84 -2 0 10 9 14 26 13 15 -1 29 4 31 11 3 7 -4 12 -19 12 -30 0 -48 17 -48
48 0 46 17 62 65 62 l45 0 0 -64z m62 27 c2 -21 8 -38 13 -38 6 0 11 17 13 38
3 29 7 37 23 37 16 0 19 -7 19 -54 l0 -55 -42 1 c-56 0 -68 12 -68 64 0 37 3
44 19 44 16 0 20 -8 23 -37z m178 11 c6 -14 10 -38 10 -54 0 -29 -1 -29 -46
-27 -54 2 -77 24 -55 51 8 9 22 16 32 16 11 0 19 5 19 10 0 6 -11 8 -25 4 -14
-3 -25 -2 -25 3 0 17 13 23 47 23 27 0 35 -5 43 -26z m130 -38 c0 -45 -5 -69
-16 -80 -20 -21 -84 -22 -84 -2 0 10 9 14 26 13 15 -1 29 4 31 11 3 7 -4 12
-19 12 -30 0 -48 17 -48 48 0 46 17 62 65 62 l45 0 0 -64z m106 56 c6 -4 14
-17 18 -29 7 -21 4 -23 -29 -23 -23 0 -34 -4 -29 -11 3 -6 17 -8 31 -4 20 5
24 2 21 -12 -4 -22 -62 -30 -84 -12 -19 15 -18 64 2 83 16 17 51 21 70 8z
m202 -49 c3 -48 1 -53 -17 -53 -18 0 -21 6 -21 40 0 22 -4 40 -10 40 -5 0 -10
-18 -10 -40 0 -33 -3 -40 -19 -40 -16 0 -20 8 -23 38 -4 46 -22 45 -26 -3 -2
-27 -8 -35 -23 -35 -16 0 -19 7 -19 54 l0 54 83 -1 82 -2 3 -52z m-7223 25
c48 -22 55 -51 55 -238 l0 -170 -55 0 -55 0 0 75 0 75 -100 0 -100 0 0 -75 0
-75 -60 0 -60 0 0 176 0 176 34 34 34 34 141 0 c87 0 150 -4 166 -12z m507 1
c36 -19 48 -69 48 -203 0 -203 -3 -206 -255 -206 l-175 0 0 210 0 210 181 0
c110 0 188 -4 201 -11z m502 0 c47 -22 56 -61 56 -243 l0 -166 -60 0 -60 0 0
75 0 75 -95 0 -95 0 0 -75 0 -75 -60 0 -60 0 0 173 c1 184 6 208 51 233 31 17
287 19 323 3z m203 -30 c35 -23 82 -63 104 -88 38 -43 41 -44 51 -26 22 39
164 155 190 155 5 0 8 -94 8 -210 l0 -210 -55 0 -55 0 0 113 0 112 -40 -62
c-53 -83 -73 -84 -120 -6 l-35 57 -3 -107 -3 -107 -59 0 -60 0 0 210 c0 116 3
210 7 210 4 0 35 -19 70 -41z m6073 -34 c0 -8 -9 -15 -20 -15 -11 0 -20 7 -20
15 0 8 9 15 20 15 11 0 20 -7 20 -15z m-10350 -45 c0 -5 -5 -10 -11 -10 -5 0
-7 5 -4 10 3 6 8 10 11 10 2 0 4 -4 4 -10z m-120 -60 c0 -5 -5 -10 -11 -10 -5
0 -7 5 -4 10 3 6 8 10 11 10 2 0 4 -4 4 -10z m-10 -23 c0 -2 -10 -12 -22 -23
l-23 -19 19 23 c18 21 26 27 26 19z m7240 -152 c0 -98 -1 -105 -20 -105 -19 0
-20 7 -20 105 0 98 1 105 20 105 19 0 20 -7 20 -105z m680 90 c0 -8 -9 -15
-20 -15 -11 0 -20 7 -20 15 0 8 9 15 20 15 11 0 20 -7 20 -15z m99 1 c10 -12
6 -14 -24 -14 -33 0 -43 7 -28 21 11 12 40 8 52 -7z m301 -1 c0 -8 -9 -15 -20
-15 -11 0 -20 7 -20 15 0 8 9 15 20 15 11 0 20 -7 20 -15z m880 -65 c0 -73 -2
-80 -20 -80 -18 0 -20 7 -20 80 0 73 2 80 20 80 18 0 20 -7 20 -80z m60 65 c0
-8 -9 -15 -20 -15 -11 0 -20 7 -20 15 0 8 9 15 20 15 11 0 20 -7 20 -15z
m-2370 -16 c0 -16 -4 -19 -20 -14 -29 9 -60 -12 -60 -40 0 -28 31 -49 60 -40
16 5 20 2 20 -14 0 -18 -6 -21 -40 -21 -73 0 -108 74 -58 127 30 32 98 33 98
2z m110 0 c0 -16 -4 -19 -20 -14 -36 12 -41 -6 -8 -29 18 -12 34 -29 36 -38 5
-27 -27 -49 -67 -46 -29 2 -37 8 -39 26 -3 21 -1 21 22 10 40 -17 44 0 8 28
-53 42 -38 84 30 84 32 0 38 -3 38 -21z m120 1 c0 -16 -5 -19 -30 -13 -19 3
-30 1 -30 -5 0 -7 14 -18 30 -27 20 -10 30 -23 30 -38 0 -33 -19 -47 -62 -47
-34 0 -38 3 -38 25 0 22 3 24 19 15 11 -5 24 -10 30 -10 21 0 10 20 -19 35
-20 10 -30 23 -30 38 0 33 19 47 62 47 31 0 38 -4 38 -20z m300 5 c0 -9 -9
-15 -25 -15 -16 0 -25 -6 -25 -15 0 -9 9 -15 25 -15 16 0 25 -6 25 -15 0 -9
-9 -15 -25 -15 -16 0 -25 -6 -25 -15 0 -9 9 -15 25 -15 14 0 25 -6 25 -12 1
-7 10 -2 21 11 18 22 18 26 4 47 -19 30 -19 34 5 34 10 0 23 -7 28 -16 8 -15
10 -15 15 0 4 9 16 16 27 16 19 0 20 -2 6 -29 -13 -25 -13 -31 -1 -47 20 -26
18 -34 -5 -34 -11 0 -23 7 -27 16 -5 15 -7 15 -15 0 -7 -12 -25 -16 -78 -16
l-70 0 0 75 0 75 45 0 c33 0 45 -4 45 -15z m-810 -40 c26 -32 -13 -81 -47 -59
-35 22 -23 74 17 74 10 0 23 -7 30 -15z m1051 -11 c13 -37 -8 -78 -44 -82 -21
-3 -27 -9 -27 -28 0 -17 -5 -24 -20 -24 -18 0 -20 7 -20 79 l0 79 50 0 c45 1
52 -2 61 -24z m107 14 c7 -7 12 -20 12 -30 0 -13 -8 -18 -31 -18 -18 0 -28 -4
-24 -10 4 -6 15 -8 26 -5 15 5 19 1 19 -14 0 -17 -6 -21 -33 -21 -41 0 -57 15
-57 55 0 38 16 55 50 55 14 0 31 -5 38 -12z m102 -2 c0 -8 -7 -16 -15 -20 -9
-3 -15 -19 -15 -41 0 -28 -4 -35 -20 -35 -18 0 -20 7 -20 55 l0 55 35 0 c23 0
35 -5 35 -14z m50 -41 c0 -48 -2 -55 -20 -55 -18 0 -20 7 -20 55 0 48 2 55 20
55 18 0 20 -7 20 -55z m108 43 c7 -7 12 -20 12 -30 0 -14 -8 -18 -36 -18 -23
0 -33 -4 -28 -11 3 -6 17 -8 31 -4 20 5 24 2 21 -12 -2 -13 -13 -18 -38 -18
-27 0 -38 6 -49 26 -13 24 -13 29 2 53 19 28 63 36 85 14z m130 -45 c3 -48 1
-53 -17 -53 -18 0 -21 6 -21 41 0 52 -24 48 -28 -4 -3 -29 -7 -37 -23 -37 -16
0 -19 7 -19 55 l0 54 53 -2 52 -2 3 -52z m110 33 c3 -14 0 -17 -12 -13 -21 8
-46 -2 -46 -18 0 -16 25 -26 46 -18 12 4 15 1 12 -13 -6 -31 -68 -26 -87 7
-13 24 -13 29 3 53 14 22 24 27 49 24 22 -2 33 -9 35 -22z m52 -31 c0 -48 -2
-55 -20 -55 -18 0 -20 7 -20 55 0 48 2 55 20 55 18 0 20 -7 20 -55z m110 29
c6 -14 10 -38 10 -54 0 -29 -1 -29 -46 -27 -54 2 -77 24 -55 51 8 9 22 16 32
16 11 0 19 5 19 10 0 6 -11 8 -25 4 -14 -3 -25 -2 -25 3 0 17 13 23 47 23 27
0 35 -5 43 -26z m170 5 c0 -15 -5 -19 -19 -14 -25 8 -46 -18 -27 -34 7 -6 21
-8 31 -5 13 5 16 2 13 -12 -4 -23 -52 -31 -74 -13 -17 14 -19 70 -2 87 7 7 27
12 45 12 27 0 33 -4 33 -21z m108 9 c7 -7 12 -26 12 -43 0 -39 -16 -55 -55
-55 -39 0 -55 16 -55 55 0 39 16 55 55 55 17 0 36 -5 43 -12z m200 -45 c3 -48
1 -53 -17 -53 -18 0 -21 6 -21 40 0 22 -4 40 -10 40 -5 0 -10 -18 -10 -40 0
-33 -3 -40 -19 -40 -16 0 -20 8 -23 38 -4 46 -22 45 -26 -3 -2 -27 -8 -35 -23
-35 -16 0 -19 7 -19 54 l0 54 83 -1 82 -2 3 -52z m172 31 c6 -14 10 -38 10
-54 0 -29 -1 -29 -46 -27 -54 2 -77 24 -55 51 8 9 22 16 32 16 11 0 19 5 19
10 0 6 -11 8 -25 4 -14 -3 -25 -2 -25 3 0 17 13 23 47 23 27 0 35 -5 43 -26z
m180 -29 c0 -48 -2 -55 -20 -55 -18 0 -20 7 -20 55 0 48 2 55 20 55 18 0 20
-7 20 -55z m118 43 c6 -6 12 -30 12 -54 0 -37 -3 -44 -19 -44 -16 0 -20 8 -23
38 -4 46 -22 45 -26 -3 -2 -27 -8 -35 -23 -35 -16 0 -19 7 -19 54 l0 55 43 -1
c23 0 48 -5 55 -10z m142 -46 c0 -76 -18 -102 -71 -102 -29 0 -39 4 -39 16 0
11 6 14 20 9 19 -6 50 9 50 24 0 3 -14 6 -32 6 -43 0 -60 40 -34 79 14 22 24
26 61 26 l45 0 0 -58z m60 17 c0 -52 24 -48 28 4 3 29 7 37 23 37 16 0 19 -7
19 -55 l0 -54 -52 2 -53 2 -3 53 c-3 47 -1 52 17 52 18 0 21 -6 21 -41z m168
29 c7 -7 12 -32 12 -56 l0 -43 -47 3 c-46 3 -48 4 -48 33 0 25 4 30 28 33 15
2 27 8 27 14 0 6 -10 8 -25 4 -18 -5 -25 -2 -25 9 0 19 60 21 78 3z m142 -46
c0 -76 -18 -102 -71 -102 -29 0 -39 4 -39 16 0 11 6 14 20 9 19 -6 50 9 50 24
0 3 -14 6 -32 6 -43 0 -60 40 -34 79 14 22 24 26 61 26 l45 0 0 -58z m108 46
c7 -7 12 -20 12 -30 0 -14 -8 -18 -36 -18 -23 0 -33 -4 -28 -11 3 -6 17 -8 31
-4 20 5 24 2 21 -12 -2 -13 -13 -18 -38 -18 -27 0 -38 6 -49 26 -13 24 -13 29
2 53 19 28 63 36 85 14z m190 -45 c3 -48 1 -53 -17 -53 -18 0 -21 6 -21 40 0
22 -4 40 -10 40 -5 0 -10 -18 -10 -40 0 -33 -3 -40 -19 -40 -16 0 -20 8 -23
38 -4 46 -22 45 -26 -3 -2 -27 -8 -35 -23 -35 -16 0 -19 7 -19 54 l0 54 83 -1
82 -2 3 -52z m-10263 -33 c3 -5 1 -10 -4 -10 -6 0 -11 5 -11 10 0 6 2 10 4 10
3 0 8 -4 11 -10z m10325 -5 c0 -8 -9 -15 -20 -15 -11 0 -20 7 -20 15 0 8 9 15
20 15 11 0 20 -7 20 -15z m-10466 -158 c3 3 6 -1 6 -10 0 -22 -6 -21 -33 4
-21 21 -21 21 -1 11 12 -6 24 -8 28 -5z m1046 -3 c0 -9 -8 -29 -17 -45 -31
-53 -46 -28 -17 29 17 34 34 42 34 16z m1280 -181 c0 -83 -72 -513 -101 -601
-13 -40 -50 -52 -91 -29 -27 16 -27 16 -37 -19 -5 -19 -28 -57 -50 -85 -73
-91 -84 -161 -66 -410 l8 -116 -34 -57 c-18 -31 -36 -56 -39 -56 -4 0 -14 15
-23 34 -9 19 -54 75 -101 124 -59 63 -88 101 -95 128 -14 50 -55 111 -82 119
-33 11 -96 -60 -94 -105 2 -29 17 -85 41 -157 18 -52 24 -93 24 -153 0 -45 4
-111 9 -148 23 -162 24 -151 -22 -173 -84 -38 -78 -69 -76 379 0 218 -3 489
-7 602 -4 113 -3 253 1 312 6 94 10 110 30 130 22 21 118 62 475 198 74 28
173 67 220 85 47 19 91 34 98 35 7 0 12 -14 12 -37z m624 -33 c41 -28 88 -69
105 -92 17 -23 31 -37 31 -30 0 30 166 172 201 172 5 0 9 -94 9 -210 l0 -210
-60 0 -59 0 -3 108 -3 107 -33 -57 c-46 -80 -68 -79 -122 5 l-40 62 0 -112 0
-113 -60 0 -60 0 0 210 c0 121 4 210 9 210 5 0 43 -23 85 -50z m801 38 c48
-22 55 -51 55 -238 l0 -170 -55 0 -55 0 0 75 0 75 -100 0 -100 0 0 -75 0 -75
-60 0 -60 0 0 176 0 176 34 34 34 34 141 0 c87 0 150 -4 166 -12z m235 -163
l0 -175 95 0 c101 0 110 -5 81 -46 -13 -17 -29 -19 -150 -22 l-136 -4 0 211 0
211 55 0 55 0 0 -175z m635 163 c45 -20 55 -55 55 -191 0 -208 -9 -217 -214
-217 -76 0 -146 5 -159 11 -47 21 -57 56 -57 194 0 138 12 183 53 203 31 15
289 15 322 0z m545 -43 l0 -55 -51 0 c-36 0 -55 5 -63 16 -8 11 -28 15 -69 15
-31 0 -61 -2 -67 -6 -6 -3 16 -20 48 -37 130 -66 202 -141 202 -207 -1 -80
-30 -91 -244 -91 l-176 0 0 55 0 55 54 0 c30 0 56 -5 58 -11 5 -16 88 -31 133
-23 50 8 75 21 75 38 0 26 -97 101 -208 161 -111 60 -124 74 -99 106 27 34 51
38 230 39 l177 0 0 -55z m3610 -120 c0 -8 -9 -15 -20 -15 -11 0 -20 7 -20 15
0 8 9 15 20 15 11 0 20 -7 20 -15z m255 6 c3 -5 1 -13 -5 -16 -15 -9 -43 3
-35 15 8 13 32 13 40 1z m-1673 -58 c2 -44 7 -58 18 -58 11 0 16 14 18 58 3
49 6 57 22 57 18 0 20 -7 20 -59 0 -69 -15 -91 -64 -91 -46 0 -56 15 -56 87 0
56 2 63 20 63 16 0 19 -8 22 -57z m1598 33 c0 -8 6 -17 13 -20 10 -5 10 -7 0
-12 -15 -7 -18 -64 -3 -64 6 0 10 -7 10 -16 0 -11 -8 -14 -27 -12 -25 3 -28 8
-31 43 -2 22 -8 43 -14 46 -6 4 -3 14 8 28 21 24 44 28 44 7z m-1400 -29 c0
-8 3 -8 12 1 33 33 68 1 68 -62 0 -29 -4 -36 -19 -36 -16 0 -20 8 -23 38 -2
20 -7 37 -13 37 -5 0 -11 -17 -13 -37 -2 -29 -8 -38 -22 -38 -14 0 -20 9 -22
38 -4 46 -22 45 -26 -3 -2 -27 -8 -35 -23 -35 -16 0 -19 7 -19 54 l0 54 50 0
c31 1 50 -3 50 -11z m178 1 c7 -7 12 -32 12 -56 l0 -43 -47 3 c-46 3 -48 4
-48 33 0 25 4 30 28 33 15 2 27 8 27 14 0 6 -10 8 -25 4 -18 -5 -25 -2 -25 9
0 19 60 21 78 3z m190 0 c15 -13 16 -70 0 -86 -7 -7 -22 -12 -35 -12 -18 0
-23 -6 -23 -25 0 -18 -5 -25 -20 -25 -18 0 -20 7 -20 79 l0 80 43 -1 c23 0 48
-5 55 -10z m123 -4 c11 -14 13 -14 21 0 12 22 78 22 78 0 0 -11 -6 -14 -20 -9
-11 3 -20 3 -20 -2 0 -4 9 -14 20 -21 28 -17 26 -50 -4 -58 -32 -8 -58 -2 -64
14 -3 9 3 11 22 6 16 -4 26 -2 26 5 0 6 -4 11 -9 11 -5 0 -17 7 -25 16 -9 8
-16 11 -16 5 0 -6 -16 -11 -36 -11 -23 0 -33 -4 -28 -11 3 -6 17 -8 31 -4 20
5 24 2 21 -12 -2 -13 -13 -18 -38 -18 -27 0 -38 6 -49 26 -13 24 -13 29 2 53
20 30 67 36 88 10z m189 0 c0 -11 -6 -14 -20 -9 -11 4 -20 2 -20 -4 0 -6 4
-11 9 -11 5 0 17 -7 25 -16 15 -14 16 -14 16 5 0 28 27 51 60 51 53 0 78 -53
43 -92 -20 -23 -66 -23 -88 -1 -16 16 -18 16 -27 0 -12 -23 -78 -24 -78 -1 0
11 6 14 20 9 11 -3 20 -3 20 2 0 4 -9 14 -20 21 -22 14 -27 48 -7 55 28 12 67
7 67 -9z m228 4 c7 -7 12 -31 12 -55 l0 -42 -47 2 c-46 2 -48 3 -48 32 0 22 5
31 20 33 11 2 25 9 30 14 7 7 1 9 -17 4 -21 -5 -28 -3 -28 9 0 19 60 21 78 3z
m172 -8 c0 -15 -6 -19 -22 -17 -17 1 -23 -3 -23 -18 0 -15 6 -19 23 -18 16 2
22 -2 22 -17 0 -16 -7 -20 -33 -20 -40 0 -57 15 -57 51 0 36 24 59 61 59 22 0
29 -5 29 -20z m90 4 c0 -8 -6 -14 -14 -14 -16 0 -26 -21 -26 -56 0 -17 -6 -24
-20 -24 -18 0 -20 7 -20 54 l0 55 40 -1 c27 0 40 -5 40 -14z m50 -39 c0 -48
-2 -55 -20 -55 -18 0 -20 7 -20 55 0 48 2 55 20 55 18 0 20 -7 20 -55z m108
-1 l3 -51 -45 -1 c-37 -1 -46 2 -51 19 -8 24 10 49 36 49 11 0 19 5 19 11 0 7
-10 9 -25 5 -14 -4 -25 -3 -25 2 0 17 15 23 50 20 35 -3 35 -3 38 -54z m142 1
c0 -48 -2 -55 -20 -55 -18 0 -20 7 -20 55 0 48 2 55 20 55 18 0 20 -7 20 -55z
m58 28 c4 -30 18 -29 26 2 4 16 13 25 27 25 22 0 21 -8 -8 -77 -21 -52 -51
-42 -74 25 l-18 53 22 -3 c14 -2 23 -11 25 -25z m160 15 c7 -7 12 -31 12 -55
l0 -42 -47 2 c-46 2 -48 3 -48 32 0 22 5 31 20 33 11 2 25 9 30 14 7 7 1 9
-17 4 -21 -5 -28 -3 -28 9 0 19 60 21 78 3z m62 -87 c0 -21 -13 -41 -26 -41
-14 0 -19 31 -7 43 10 10 33 8 33 -2z m-8380 -37 c0 -10 -28 -34 -39 -34 -14
0 -14 13 1 28 12 12 38 17 38 6z m6610 -204 l0 -79 -52 2 c-47 2 -54 5 -62 29
-7 19 -6 35 2 54 10 22 18 25 42 22 27 -4 30 -2 30 24 0 21 5 28 20 28 18 0
20 -7 20 -80z m930 0 c0 -73 -2 -80 -20 -80 -18 0 -20 7 -20 80 0 73 2 80 20
80 18 0 20 -7 20 -80z m60 65 c0 -8 -9 -15 -20 -15 -11 0 -20 7 -20 15 0 8 9
15 20 15 11 0 20 -7 20 -15z m1120 -64 l0 -80 -42 1 c-53 0 -68 12 -68 52 0
38 15 56 47 56 18 0 23 6 23 25 0 18 5 25 20 25 18 0 20 -7 20 -79z m-1800 45
c0 -8 6 -17 13 -20 10 -5 10 -7 0 -12 -15 -7 -18 -64 -3 -64 6 0 10 -7 10 -16
0 -11 -8 -14 -27 -12 -25 3 -28 8 -31 43 -2 22 -9 44 -15 48 -9 6 -9 10 1 14
6 2 12 11 12 19 0 8 9 14 20 14 11 0 20 -6 20 -14z m-452 -28 c7 -7 12 -31 12
-55 l0 -42 -47 2 c-46 2 -48 3 -48 32 0 22 5 31 20 33 11 2 25 9 30 14 7 7 1
9 -17 4 -21 -5 -28 -3 -28 9 0 19 60 21 78 3z m252 -7 c17 -33 12 -41 -26 -41
-23 0 -33 -4 -28 -11 3 -6 17 -8 31 -4 20 5 24 2 21 -12 -5 -26 -68 -31 -85
-7 -18 24 -16 54 4 76 22 24 69 24 83 -1z m118 7 c15 -13 16 -70 0 -86 -7 -7
-22 -12 -35 -12 -18 0 -23 -6 -23 -25 0 -18 -5 -25 -20 -25 -18 0 -20 7 -20
79 l0 80 43 -1 c23 0 48 -5 55 -10z m210 0 c7 -7 12 -26 12 -43 0 -39 -16 -55
-55 -55 -39 0 -55 16 -55 55 0 39 16 55 55 55 17 0 36 -5 43 -12z m182 -7 c17
-33 12 -41 -26 -41 -23 0 -33 -4 -28 -11 3 -6 17 -8 31 -4 20 5 24 2 21 -12
-5 -26 -68 -31 -85 -7 -18 24 -16 54 4 76 22 24 69 24 83 -1z m188 -38 c3 -48
1 -53 -17 -53 -18 0 -21 6 -21 40 0 22 -4 40 -10 40 -5 0 -10 -18 -10 -40 0
-33 -3 -40 -19 -40 -16 0 -20 8 -23 38 -4 46 -22 45 -26 -3 -2 -27 -8 -35 -23
-35 -16 0 -19 7 -19 54 l0 54 83 -1 82 -2 3 -52z m182 2 c0 -48 -2 -55 -20
-55 -18 0 -20 7 -20 55 0 48 2 55 20 55 18 0 20 -7 20 -55z m120 35 c6 -10 10
-35 10 -54 0 -29 -4 -36 -19 -36 -16 0 -20 8 -23 38 -4 46 -22 45 -26 -3 -2
-27 -8 -35 -23 -35 -16 0 -19 7 -19 54 l0 54 45 0 c34 0 48 -4 55 -18z m138
-47 c-5 -74 -20 -93 -75 -93 -23 0 -33 5 -33 15 0 11 7 14 24 9 18 -4 27 -1
34 13 9 16 6 18 -21 18 -25 0 -33 5 -41 27 -6 19 -6 35 2 52 10 22 17 25 63
24 l51 0 -4 -65z m54 30 c4 -52 28 -56 28 -4 0 34 3 41 20 41 18 0 20 -7 20
-55 l0 -55 -45 0 c-51 0 -65 16 -65 74 0 29 4 36 19 36 16 0 20 -8 23 -37z
m176 25 c7 -7 12 -31 12 -55 l0 -42 -47 2 c-46 2 -48 3 -48 32 0 22 5 31 20
33 11 2 25 9 30 14 7 7 1 9 -17 4 -21 -5 -28 -3 -28 9 0 19 60 21 78 3z m140
-55 c-5 -74 -20 -93 -75 -93 -23 0 -33 5 -33 15 0 11 7 14 24 9 18 -4 27 -1
34 13 9 16 6 18 -21 18 -25 0 -33 5 -41 27 -6 19 -6 35 2 52 10 22 17 25 63
24 l51 0 -4 -65z m112 48 c17 -33 12 -41 -26 -41 -23 0 -33 -4 -28 -11 3 -6
17 -8 31 -4 20 5 24 2 21 -12 -5 -26 -68 -31 -85 -7 -18 24 -16 54 4 76 22 24
69 24 83 -1z m188 -38 c3 -48 1 -53 -17 -53 -18 0 -21 6 -21 40 0 22 -4 40
-10 40 -5 0 -10 -18 -10 -40 0 -33 -3 -40 -19 -40 -16 0 -20 8 -23 38 -4 46
-22 45 -26 -3 -2 -27 -8 -35 -23 -35 -16 0 -19 7 -19 54 l0 54 83 -1 82 -2 3
-52z m300 45 c7 -7 12 -20 12 -30 0 -13 -8 -18 -31 -18 -18 0 -28 -4 -24 -10
4 -6 15 -8 26 -5 15 5 19 1 19 -14 0 -17 -6 -21 -33 -21 -41 0 -57 15 -57 55
0 38 16 55 50 55 14 0 31 -5 38 -12z m-9592 -275 c-7 -7 -26 7 -26 19 0 6 6 6
15 -2 9 -7 13 -15 11 -17z m9654 -63 l0 -79 -52 2 c-47 2 -54 5 -62 29 -7 19
-6 35 2 54 10 22 18 25 42 22 27 -4 30 -2 30 24 0 21 5 28 20 28 18 0 20 -7
20 -80z m230 55 c0 -19 5 -25 23 -25 30 0 47 -18 47 -48 0 -46 -17 -62 -65
-62 l-45 0 0 80 c0 73 2 80 20 80 15 0 20 -7 20 -25z m720 -54 l0 -80 -42 1
c-53 0 -68 12 -68 52 0 38 15 56 47 56 18 0 23 6 23 25 0 18 5 25 20 25 18 0
20 -7 20 -79z m-2300 53 c0 -8 -14 -13 -39 -12 -29 0 -38 4 -34 14 6 17 73 16
73 -2z m530 -8 c0 -8 6 -17 13 -20 10 -5 10 -7 0 -12 -15 -7 -18 -64 -3 -64 6
0 10 -7 10 -16 0 -11 -8 -14 -27 -12 -25 3 -28 8 -31 43 -2 22 -9 44 -15 48
-9 6 -9 10 1 14 6 2 12 11 12 19 0 8 9 14 20 14 11 0 20 -6 20 -14z m290 0 c0
-8 6 -17 13 -20 10 -5 10 -7 0 -12 -15 -7 -18 -64 -3 -64 6 0 10 -7 10 -16 0
-11 -8 -14 -27 -12 -25 3 -28 8 -31 43 -2 22 -8 43 -14 46 -6 4 -3 14 8 28 21
24 44 28 44 7z m-9065 -22 c37 -37 24 -41 -16 -5 -18 17 -28 31 -22 31 7 0 24
-12 38 -26z m7199 -26 c7 -19 6 -35 -2 -54 -10 -22 -18 -25 -42 -22 -27 4 -30
2 -30 -24 0 -21 -5 -28 -20 -28 -18 0 -20 7 -20 80 l0 79 52 -2 c47 -2 54 -5
62 -29z m96 16 c0 -8 -6 -14 -14 -14 -16 0 -26 -21 -26 -56 0 -17 -6 -24 -20
-24 -18 0 -20 7 -20 54 l0 55 40 -1 c27 0 40 -5 40 -14z m104 0 c35 -34 6 -94
-45 -94 -34 0 -59 23 -59 55 0 32 25 55 60 55 16 0 36 -7 44 -16z m136 -48 c0
-45 -5 -69 -16 -80 -20 -21 -84 -22 -84 -2 0 10 9 14 26 13 15 -1 29 4 31 11
3 7 -4 12 -19 12 -30 0 -48 17 -48 48 0 46 17 62 65 62 l45 0 0 -64z m100 48
c0 -8 -6 -14 -14 -14 -16 0 -26 -21 -26 -56 0 -17 -6 -24 -20 -24 -18 0 -20 7
-20 54 l0 55 40 -1 c27 0 40 -5 40 -14z m98 -40 l3 -51 -45 -1 c-37 -1 -46 2
-51 19 -8 24 10 49 36 49 11 0 19 5 19 11 0 7 -10 9 -25 5 -14 -4 -25 -3 -25
2 0 17 15 23 50 20 35 -3 35 -3 38 -54z m190 -1 c3 -48 1 -53 -17 -53 -18 0
-21 6 -21 40 0 22 -4 40 -10 40 -5 0 -10 -18 -10 -40 0 -33 -3 -40 -19 -40
-16 0 -20 8 -23 38 -4 46 -22 45 -26 -3 -2 -27 -8 -35 -23 -35 -16 0 -19 7
-19 54 l0 54 83 -1 82 -2 3 -52z m110 45 c7 -7 12 -31 12 -55 l0 -42 -47 2
c-46 2 -48 3 -48 32 0 22 5 31 20 33 11 2 25 9 30 14 7 7 1 9 -17 4 -21 -5
-28 -3 -28 9 0 19 60 21 78 3z m112 -6 c0 -13 -7 -18 -22 -18 -17 1 -23 -5
-23 -19 0 -14 6 -20 23 -19 15 0 22 -5 22 -18 0 -10 -4 -18 -9 -18 -5 0 -7 -9
-4 -20 4 -15 0 -20 -16 -20 -12 0 -20 4 -16 9 3 5 -6 22 -20 37 -29 31 -32 60
-8 86 22 24 73 24 73 0z m98 6 c7 -7 12 -32 12 -56 l0 -43 -47 3 c-46 3 -48 4
-48 33 0 25 4 30 28 33 15 2 27 8 27 14 0 6 -10 8 -25 4 -18 -5 -25 -2 -25 9
0 19 60 21 78 3z m130 0 c17 -17 15 -73 -2 -87 -25 -21 -79 -9 -95 20 -13 24
-13 29 2 53 13 19 26 26 50 26 18 0 38 -5 45 -12z m226 6 c9 -3 16 -13 16 -22
0 -13 4 -11 16 6 18 26 74 31 74 6 0 -11 -6 -14 -20 -9 -29 9 -25 -10 5 -23
46 -21 24 -62 -32 -62 -24 0 -33 5 -33 16 0 11 5 14 16 10 26 -10 38 5 13 18
-27 13 -102 9 -93 -6 3 -5 17 -7 31 -3 20 5 24 2 21 -12 -2 -12 -14 -19 -36
-21 -41 -4 -62 12 -62 49 0 46 38 71 84 53z m328 -29 c4 -46 22 -46 26 0 2 27
8 35 23 35 16 0 19 -7 19 -54 l0 -55 -42 1 c-53 0 -68 12 -68 50 0 23 -4 29
-17 26 -13 -2 -19 -14 -21 -41 -3 -29 -7 -37 -23 -37 -16 0 -19 7 -19 54 l0
54 59 1 60 1 3 -35z m210 -2 c2 -21 8 -38 13 -38 6 0 11 17 13 38 3 29 7 37
23 37 16 0 19 -7 19 -54 l0 -55 -42 1 c-56 0 -68 12 -68 64 0 37 3 44 19 44
16 0 20 -8 23 -37z m168 22 c0 -7 -9 -15 -20 -18 -15 -4 -20 -14 -20 -41 0
-29 -4 -36 -20 -36 -18 0 -20 7 -20 54 l0 55 40 -1 c25 0 40 -5 40 -13z m88 3
c7 -7 12 -31 12 -55 l0 -42 -47 2 c-46 2 -48 3 -48 32 0 22 5 31 20 33 11 2
25 9 30 14 7 7 1 9 -17 4 -21 -5 -28 -3 -28 9 0 19 60 21 78 3z m312 -7 c17
-33 12 -41 -26 -41 -23 0 -33 -4 -28 -11 3 -6 17 -8 31 -4 20 5 24 2 21 -12
-5 -26 -68 -31 -85 -7 -18 24 -16 54 4 76 22 24 69 24 83 -1z m288 7 c7 -7 12
-31 12 -55 l0 -42 -47 2 c-46 2 -48 3 -48 32 0 22 5 31 20 33 11 2 25 9 30 14
7 7 1 9 -17 4 -21 -5 -28 -3 -28 9 0 19 60 21 78 3z m132 -8 c6 -10 10 -35 10
-54 0 -29 -4 -36 -19 -36 -16 0 -20 8 -23 38 -4 46 -22 45 -26 -3 -2 -27 -8
-35 -23 -35 -16 0 -19 7 -19 54 l0 54 45 0 c34 0 48 -4 55 -18z m110 0 c0 -15
-6 -19 -22 -17 -17 1 -23 -3 -23 -18 0 -15 6 -19 23 -18 16 2 22 -2 22 -17 0
-16 -7 -20 -33 -20 -40 0 -57 15 -57 51 0 36 24 59 61 59 22 0 29 -5 29 -20z
m114 4 c35 -34 6 -94 -45 -94 -34 0 -59 23 -59 55 0 32 25 55 60 55 16 0 36
-7 44 -16z m304 4 c7 -7 12 -20 12 -30 0 -13 -8 -18 -31 -18 -18 0 -28 -4 -24
-10 4 -6 15 -8 26 -5 15 5 19 1 19 -14 0 -17 -6 -21 -33 -21 -41 0 -57 15 -57
55 0 38 16 55 50 55 14 0 31 -5 38 -12z m-2218 -98 c0 -11 -7 -23 -15 -27 -21
-8 -28 1 -20 26 8 27 35 27 35 1z m-8165 -60 c3 -5 2 -10 -4 -10 -5 0 -13 5
-16 10 -3 6 -2 10 4 10 5 0 13 -4 16 -10z m49 -19 c4 -5 -3 -7 -14 -4 -23 6
-26 13 -6 13 8 0 17 -4 20 -9z m6876 -150 l0 -79 -42 0 c-50 -1 -68 11 -68 45
0 41 18 63 50 63 25 0 30 4 30 25 0 16 6 25 15 25 12 0 15 -15 15 -79z m250
-1 l0 -79 -52 2 c-47 2 -54 5 -62 29 -7 19 -6 35 2 54 10 22 18 25 42 22 27
-4 30 -2 30 24 0 21 5 28 20 28 18 0 20 -7 20 -80z m390 65 c0 -8 -9 -15 -20
-15 -11 0 -20 7 -20 15 0 8 9 15 20 15 11 0 20 -7 20 -15z m480 -65 c0 -73 -2
-80 -20 -80 -18 0 -20 7 -20 80 0 73 2 80 20 80 18 0 20 -7 20 -80z m317 56
c-4 -12 -77 -18 -77 -7 0 14 12 19 46 18 19 -1 33 -6 31 -11z m-507 -10 c0 -8
6 -17 13 -20 10 -5 10 -7 0 -12 -14 -6 -18 -64 -5 -64 4 0 13 9 20 20 7 11 21
20 32 20 11 0 20 5 20 10 0 6 -11 8 -26 4 -20 -5 -25 -3 -22 7 2 8 21 15 41
17 32 3 38 0 47 -23 6 -14 10 -39 10 -55 0 -27 -2 -29 -42 -28 -24 0 -49 5
-55 10 -9 7 -13 7 -13 -1 0 -8 -11 -11 -27 -9 -25 3 -28 8 -31 44 -3 40 -4 42
-35 39 -44 -4 -45 -5 -19 -15 51 -21 34 -70 -24 -70 -24 0 -34 5 -34 15 0 11
7 14 25 9 14 -3 25 -2 25 3 0 6 -11 15 -25 21 -49 23 -21 64 40 60 26 -1 40 3
46 15 12 21 39 23 39 3z m820 -1 c0 -8 7 -15 15 -15 8 0 15 -4 15 -10 0 -5 -7
-10 -15 -10 -10 0 -15 -10 -15 -30 0 -21 5 -30 16 -30 26 0 10 -25 -19 -28
-28 -3 -29 -1 -40 73 -3 16 -1 38 4 47 12 22 39 24 39 3z m290 1 c0 -8 6 -17
13 -20 10 -5 10 -7 0 -12 -15 -7 -18 -64 -3 -64 6 0 10 -7 10 -16 0 -11 -8
-14 -27 -12 -25 3 -28 8 -31 44 -3 40 -4 42 -35 39 -44 -4 -45 -5 -19 -15 51
-21 34 -70 -24 -70 -24 0 -34 5 -34 15 0 11 7 14 25 9 31 -8 33 9 3 22 -28 12
-109 3 -90 -9 7 -5 22 -5 33 -2 17 6 20 3 17 -12 -5 -26 -67 -31 -85 -7 -18
24 -16 54 4 76 20 22 71 24 80 3 5 -14 7 -14 23 0 11 10 32 15 55 13 26 -1 40
3 46 15 12 21 39 23 39 3z m-1932 -28 c7 -7 12 -31 12 -55 l0 -42 -47 2 c-46
2 -48 3 -48 32 0 22 5 31 20 33 11 2 25 9 30 14 7 7 1 9 -17 4 -21 -5 -28 -3
-28 9 0 19 60 21 78 3z m256 -4 c35 -34 6 -94 -45 -94 -34 0 -59 23 -59 55 0
32 25 55 60 55 16 0 36 -7 44 -16z m106 0 c0 -11 -6 -14 -20 -9 -11 4 -20 2
-20 -4 0 -6 4 -11 9 -11 5 0 17 -7 25 -16 12 -12 13 -20 6 -35 -14 -25 -80
-28 -80 -3 0 11 6 14 20 9 11 -3 20 -3 20 2 0 4 -9 14 -20 21 -22 14 -27 48
-7 55 28 12 67 7 67 -9z m170 -39 c0 -48 -2 -55 -20 -55 -18 0 -20 7 -20 55 0
48 2 55 20 55 18 0 20 -7 20 -55z m118 43 c6 -6 12 -30 12 -54 0 -37 -3 -44
-19 -44 -16 0 -20 8 -23 38 -4 46 -22 45 -26 -3 -2 -27 -8 -35 -23 -35 -16 0
-19 7 -19 54 l0 55 43 -1 c23 0 48 -5 55 -10z m460 0 c7 -7 12 -31 12 -55 l0
-42 -47 2 c-46 2 -48 3 -48 32 0 22 5 31 20 33 11 2 25 9 30 14 7 7 1 9 -17 4
-21 -5 -28 -3 -28 9 0 19 60 21 78 3z m120 -12 c3 -14 0 -17 -12 -13 -21 8
-46 -2 -46 -18 0 -24 33 -27 62 -5 15 11 34 20 43 20 8 0 15 5 15 11 0 7 -10
9 -26 5 -19 -5 -25 -3 -22 6 3 8 21 13 44 13 l39 0 3 -51 3 -51 -46 -1 c-25
-1 -45 3 -45 8 0 6 -9 5 -19 -2 -13 -8 -17 -16 -11 -24 13 -14 2 -24 -24 -23
-12 0 -16 3 -9 6 8 3 4 13 -12 31 -35 37 -39 59 -20 88 13 20 23 25 48 22 22
-2 33 -9 35 -22z m220 12 c7 -7 12 -26 12 -43 0 -39 -16 -55 -55 -55 -39 0
-55 16 -55 55 0 39 16 55 55 55 17 0 36 -5 43 -12z m598 4 c6 -4 14 -17 18
-29 7 -21 4 -23 -29 -23 -23 0 -34 -4 -29 -11 3 -6 17 -8 31 -4 20 5 24 2 21
-12 -4 -22 -62 -30 -84 -12 -19 15 -18 64 2 83 16 17 51 21 70 8z m170 0 c6
-4 14 -17 18 -29 7 -21 4 -23 -29 -23 -23 0 -34 -4 -29 -11 3 -6 17 -8 31 -4
20 5 24 2 21 -12 -4 -22 -62 -30 -84 -12 -19 15 -18 64 2 83 16 17 51 21 70 8z
m-9049 -19 c-3 -5 -1 -46 3 -93 8 -91 2 -107 -34 -88 -29 15 -36 28 -36 71 0
36 11 64 39 100 14 16 37 25 28 10z m7243 -72 c0 -21 -13 -41 -26 -41 -14 0
-19 31 -7 43 10 10 33 8 33 -2z m1100 -11 c0 -11 -7 -23 -15 -27 -21 -8 -28 1
-20 26 8 27 35 27 35 1z m-7928 -152 c133 -133 173 -180 182 -218 1 -3 7 -15
14 -27 22 -39 6 -25 -51 46 -31 38 -53 72 -49 76 4 5 1 5 -6 1 -14 -9 -185
142 -176 156 3 5 1 7 -4 6 -6 -2 -10 2 -10 7 1 12 9 35 13 35 2 0 41 -37 87
-82z m6688 -23 c0 -8 -9 -15 -20 -15 -11 0 -20 7 -20 15 0 8 9 15 20 15 11 0
20 -7 20 -15z m1240 -65 l0 -79 -52 2 c-47 2 -54 5 -62 29 -7 19 -6 35 2 54
10 22 18 25 42 22 27 -4 30 -2 30 24 0 21 5 28 20 28 18 0 20 -7 20 -80z m230
51 c0 -25 3 -28 21 -24 29 8 49 -20 49 -69 0 -31 -4 -38 -19 -38 -16 0 -20 8
-23 38 -4 46 -22 45 -26 -3 -2 -27 -8 -35 -23 -35 -17 0 -19 7 -19 80 0 73 2
80 20 80 15 0 20 -7 20 -29z m390 -51 l0 -79 -52 2 c-47 2 -54 5 -62 29 -12
35 14 78 49 78 20 0 25 5 25 25 0 18 5 25 20 25 18 0 20 -7 20 -80z m520 45
c0 -16 -6 -25 -15 -25 -9 0 -15 9 -15 25 0 16 6 25 15 25 9 0 15 -9 15 -25z
m-9075 -29 c54 -42 60 -48 74 -74 7 -12 17 -20 23 -16 6 4 8 3 4 -4 -3 -6 -2
-13 4 -17 5 -3 15 -16 21 -27 l11 -21 -29 21 c-55 39 -204 202 -162 177 8 -5
32 -23 54 -39z m6765 30 c0 -8 6 -17 13 -20 10 -5 10 -7 0 -12 -15 -7 -18 -64
-3 -64 6 0 10 -7 10 -16 0 -11 -8 -14 -27 -12 -25 3 -28 8 -31 43 -2 22 -8 43
-14 46 -6 4 -3 14 8 28 21 24 44 28 44 7z m840 0 c0 -8 6 -17 13 -20 10 -5 10
-7 0 -12 -15 -7 -18 -64 -3 -64 6 0 10 -7 10 -16 0 -11 -8 -14 -27 -12 -25 3
-28 8 -31 43 -2 22 -9 44 -15 48 -9 6 -9 10 1 14 6 2 12 11 12 19 0 8 9 14 20
14 11 0 20 -6 20 -14z m-1300 -29 c0 -8 3 -8 12 1 33 33 68 1 68 -62 0 -29 -4
-36 -19 -36 -16 0 -20 8 -23 38 -2 20 -7 37 -13 37 -5 0 -11 -17 -13 -37 -2
-29 -8 -38 -22 -38 -14 0 -20 9 -22 38 -4 46 -22 45 -26 -3 -2 -27 -8 -35 -23
-35 -16 0 -19 7 -19 54 l0 54 50 0 c31 1 50 -3 50 -11z m194 -3 c35 -34 6 -94
-45 -94 -34 0 -59 23 -59 55 0 32 25 55 60 55 16 0 36 -7 44 -16z m134 -41 c3
-48 1 -53 -17 -53 -18 0 -21 6 -21 41 0 52 -24 48 -28 -4 -3 -29 -7 -37 -23
-37 -16 0 -19 7 -19 55 l0 54 53 -2 52 -2 3 -52z m62 2 c0 -48 -2 -55 -20 -55
-18 0 -20 7 -20 55 0 48 2 55 20 55 18 0 20 -7 20 -55z m198 43 c7 -7 12 -26
12 -43 0 -39 -16 -55 -55 -55 -39 0 -55 16 -55 55 0 39 16 55 55 55 17 0 36
-5 43 -12z m112 -2 c0 -7 -9 -16 -20 -19 -15 -4 -20 -14 -20 -41 0 -29 -4 -36
-20 -36 -18 0 -20 7 -20 55 l0 55 40 0 c27 0 40 -4 40 -14z m88 2 c7 -7 12
-31 12 -55 l0 -42 -47 2 c-46 2 -48 3 -48 32 0 22 5 31 20 33 11 2 25 9 30 14
7 7 1 9 -17 4 -21 -5 -28 -3 -28 9 0 19 60 21 78 3z m190 -1 c6 -5 12 -29 12
-53 0 -37 -3 -44 -19 -44 -16 0 -20 8 -23 38 -2 20 -7 37 -13 37 -5 0 -11 -17
-13 -37 -3 -30 -7 -38 -23 -38 -16 0 -19 7 -19 40 0 22 -4 40 -10 40 -5 0 -10
-18 -10 -40 0 -33 -3 -40 -20 -40 -18 0 -20 7 -20 55 l0 55 73 -1 c39 -1 78
-6 85 -12z m120 1 c7 -7 12 -20 12 -30 0 -14 -8 -18 -36 -18 -23 0 -33 -4 -28
-11 3 -6 17 -8 31 -4 20 5 24 2 21 -12 -2 -13 -13 -18 -38 -18 -27 0 -38 6
-49 26 -13 24 -13 29 2 53 19 28 63 36 85 14z m120 0 c6 -6 12 -30 12 -54 0
-37 -3 -44 -19 -44 -16 0 -20 8 -23 38 -4 46 -22 45 -26 -3 -2 -27 -8 -35 -23
-35 -16 0 -19 7 -19 54 l0 55 43 -1 c23 0 48 -5 55 -10z m210 0 c17 -17 15
-73 -2 -87 -25 -21 -79 -9 -95 20 -13 24 -13 29 2 53 13 19 26 26 50 26 18 0
38 -5 45 -12z m312 -7 c17 -33 12 -41 -26 -41 -23 0 -33 -4 -28 -11 3 -6 17
-8 31 -4 20 5 24 2 21 -12 -5 -26 -68 -31 -85 -7 -18 24 -16 54 4 76 22 24 69
24 83 -1z m288 7 c7 -7 12 -31 12 -55 l0 -42 -47 2 c-46 2 -48 3 -48 32 0 22
5 31 20 33 11 2 25 9 30 14 7 7 1 9 -17 4 -21 -5 -28 -3 -28 9 0 19 60 21 78
3z m102 -2 c0 -8 -7 -16 -15 -20 -9 -3 -15 -19 -15 -41 0 -28 -4 -35 -20 -35
-18 0 -20 7 -20 55 l0 55 35 0 c23 0 35 -5 35 -14z m170 -5 c0 -29 18 -35 22
-9 2 15 11 24 26 26 18 3 22 -2 23 -25 l1 -28 11 28 c6 15 19 27 28 27 17 0
17 -3 4 -47 -8 -27 -15 -52 -15 -56 0 -21 -45 0 -51 23 l-6 25 -8 -27 c-5 -18
-14 -28 -26 -28 -20 0 -31 20 -44 78 -6 28 -4 32 14 32 14 0 21 -6 21 -19z
m218 7 c7 -7 12 -32 12 -56 l0 -43 -47 3 c-46 3 -48 4 -48 33 0 25 4 30 28 33
15 2 27 8 27 14 0 6 -10 8 -25 4 -18 -5 -25 -2 -25 9 0 19 60 21 78 3z m112
-3 c0 -7 -9 -15 -20 -18 -15 -4 -20 -14 -20 -41 0 -29 -4 -36 -20 -36 -18 0
-20 7 -20 54 l0 55 40 -1 c25 0 40 -5 40 -13z m86 7 c6 -4 14 -17 18 -29 7
-21 4 -23 -29 -23 -23 0 -34 -4 -29 -11 3 -6 17 -8 31 -4 20 5 24 2 21 -12 -4
-22 -62 -30 -84 -12 -19 15 -18 64 2 83 16 17 51 21 70 8z m144 -8 c0 -11 -6
-14 -20 -9 -11 4 -20 2 -20 -4 0 -6 4 -11 9 -11 5 0 17 -7 25 -16 12 -12 13
-20 6 -35 -14 -25 -80 -28 -80 -3 0 11 6 14 20 9 11 -3 20 -3 20 2 0 4 -9 14
-20 21 -22 14 -27 48 -7 55 28 12 67 7 67 -9z m55 -73 c3 -5 1 -13 -5 -16 -15
-9 -43 3 -35 15 8 13 32 13 40 1z m-10065 -2341 l0 -1100 -2225 0 -2225 0 0
1100 0 1100 2225 0 2225 0 0 -1100z"/>
<path d="M18250 10520 c0 -5 7 -10 15 -10 8 0 15 5 15 10 0 6 -7 10 -15 10 -8
0 -15 -4 -15 -10z"/>
<path d="M18252 10448 c4 -59 28 -63 28 -4 0 35 -4 46 -16 46 -12 0 -14 -9
-12 -42z"/>
<path d="M18300 10444 c0 -53 23 -58 28 -6 5 46 32 43 32 -3 0 -24 5 -35 15
-35 10 0 15 10 15 29 0 50 -9 61 -51 61 l-39 0 0 -46z"/>
<path d="M18652 10538 c-7 -7 -12 -37 -12 -68 0 -31 5 -61 12 -68 7 -7 37 -12
68 -12 31 0 61 5 68 12 16 16 16 120 0 136 -16 16 -120 16 -136 0z m129 -21
c-13 -13 -26 -3 -16 12 3 6 11 8 17 5 6 -4 6 -10 -1 -17z m-21 -18 c26 -47
-25 -100 -69 -72 -20 13 -26 60 -10 79 18 22 66 18 79 -7z"/>
<path d="M18694 10486 c-10 -26 4 -48 28 -44 17 2 23 10 23 28 0 18 -6 26 -23
28 -13 2 -25 -3 -28 -12z"/>
<path d="M270 10500 c0 -5 11 -10 25 -10 14 0 25 5 25 10 0 6 -11 10 -25 10
-14 0 -25 -4 -25 -10z"/>
<path d="M2950 10475 c0 -8 9 -15 20 -15 11 0 20 7 20 15 0 8 -9 15 -20 15
-11 0 -20 -7 -20 -15z"/>
<path d="M1480 10475 c0 -8 7 -15 15 -15 8 0 15 7 15 15 0 8 -7 15 -15 15 -8
0 -15 -7 -15 -15z"/>
<path d="M2530 10475 c0 -8 9 -15 20 -15 11 0 20 7 20 15 0 8 -9 15 -20 15
-11 0 -20 -7 -20 -15z"/>
<path d="M3590 10475 c0 -8 9 -15 20 -15 11 0 20 7 20 15 0 8 -9 15 -20 15
-11 0 -20 -7 -20 -15z"/>
<path d="M14413 8524 c-8 -21 13 -42 28 -27 13 13 5 43 -11 43 -6 0 -13 -7
-17 -16z"/>
<path d="M12824 8525 c-9 -23 14 -45 26 -25 5 8 8 19 7 24 -6 17 -27 18 -33 1z"/>
<path d="M12950 8540 c0 -5 5 -10 10 -10 6 0 10 5 10 10 0 6 -4 10 -10 10 -5
0 -10 -4 -10 -10z"/>
<path d="M13205 8540 c-3 -5 1 -10 9 -10 9 0 16 5 16 10 0 6 -4 10 -9 10 -6 0
-13 -4 -16 -10z"/>
<path d="M13600 8500 c0 -5 4 -10 9 -10 6 0 13 5 16 10 3 6 -1 10 -9 10 -9 0
-16 -4 -16 -10z"/>
<path d="M13883 8524 c-8 -21 13 -42 28 -27 13 13 5 43 -11 43 -6 0 -13 -7
-17 -16z"/>
<path d="M14103 8204 c-8 -21 13 -42 28 -27 13 13 5 43 -11 43 -6 0 -13 -7
-17 -16z"/>
<path d="M14546 8203 c-9 -22 10 -41 25 -26 13 13 5 43 -10 43 -5 0 -12 -8
-15 -17z"/>
<path d="M12002 8248 c-7 -7 -12 -24 -12 -39 0 -28 20 -42 45 -33 21 8 20 70
-1 78 -20 8 -18 8 -32 -6z"/>
<path d="M12674 8205 c-3 -8 -3 -19 1 -25 10 -16 35 7 28 26 -7 18 -22 18 -29
-1z"/>
<path d="M12795 8220 c-3 -5 1 -10 9 -10 9 0 16 5 16 10 0 6 -4 10 -9 10 -6 0
-13 -4 -16 -10z"/>
<path d="M13055 8220 c-3 -5 1 -10 10 -10 9 0 13 5 10 10 -3 6 -8 10 -10 10
-2 0 -7 -4 -10 -10z"/>
<path d="M13450 8180 c0 -5 4 -10 9 -10 6 0 13 5 16 10 3 6 -1 10 -9 10 -9 0
-16 -4 -16 -10z"/>
<path d="M13723 8204 c-8 -21 13 -42 28 -27 13 13 5 43 -11 43 -6 0 -13 -7
-17 -16z"/>
<path d="M14230 8180 c0 -5 4 -10 9 -10 6 0 13 5 16 10 3 6 -1 10 -9 10 -9 0
-16 -4 -16 -10z"/>
<path d="M14425 8180 c4 -6 11 -8 16 -5 14 9 11 15 -7 15 -8 0 -12 -5 -9 -10z"/>
<path d="M14665 8180 c4 -6 11 -8 16 -5 14 9 11 15 -7 15 -8 0 -12 -5 -9 -10z"/>
<path d="M14875 8220 c-3 -5 1 -10 9 -10 9 0 16 5 16 10 0 6 -4 10 -9 10 -6 0
-13 -4 -16 -10z"/>
<path d="M11880 7905 c0 -46 13 -58 38 -33 25 25 8 78 -25 78 -9 0 -13 -15
-13 -45z"/>
<path d="M12080 7870 c0 -5 5 -10 10 -10 6 0 10 5 10 10 0 6 -4 10 -10 10 -5
0 -10 -4 -10 -10z"/>
<path d="M12323 7894 c-8 -21 13 -42 28 -27 13 13 5 43 -11 43 -6 0 -13 -7
-17 -16z"/>
<path d="M12453 7894 c-8 -21 13 -42 28 -27 13 13 5 43 -11 43 -6 0 -13 -7
-17 -16z"/>
<path d="M13004 7895 c-3 -8 -3 -19 1 -25 10 -16 35 7 28 26 -7 18 -22 18 -29
-1z"/>
<path d="M13125 7910 c-3 -5 1 -10 9 -10 9 0 16 5 16 10 0 6 -4 10 -9 10 -6 0
-13 -4 -16 -10z"/>
<path d="M13385 7910 c-3 -5 1 -10 10 -10 9 0 13 5 10 10 -3 6 -8 10 -10 10
-2 0 -7 -4 -10 -10z"/>
<path d="M13780 7870 c0 -5 5 -10 10 -10 6 0 10 5 10 10 0 6 -4 10 -10 10 -5
0 -10 -4 -10 -10z"/>
<path d="M14053 7894 c-8 -21 13 -42 28 -27 13 13 5 43 -11 43 -6 0 -13 -7
-17 -16z"/>
<path d="M14620 7870 c0 -5 4 -10 9 -10 6 0 13 5 16 10 3 6 -1 10 -9 10 -9 0
-16 -4 -16 -10z"/>
<path d="M14935 7910 c-3 -5 1 -10 10 -10 9 0 13 5 10 10 -3 6 -8 10 -10 10
-2 0 -7 -4 -10 -10z"/>
<path d="M15213 7894 c-8 -21 13 -42 28 -27 13 13 5 43 -11 43 -6 0 -13 -7
-17 -16z"/>
<path d="M11880 7610 c0 -13 5 -20 13 -17 6 2 12 10 12 17 0 7 -6 15 -12 18
-8 2 -13 -5 -13 -18z"/>
<path d="M12323 7574 c-8 -21 13 -42 28 -27 13 13 5 43 -11 43 -6 0 -13 -7
-17 -16z"/>
<path d="M12994 7575 c-9 -23 14 -45 26 -25 5 8 8 19 7 24 -6 17 -27 18 -33 1z"/>
<path d="M13120 7590 c0 -5 5 -10 10 -10 6 0 10 5 10 10 0 6 -4 10 -10 10 -5
0 -10 -4 -10 -10z"/>
<path d="M13375 7590 c-3 -5 1 -10 9 -10 9 0 16 5 16 10 0 6 -4 10 -9 10 -6 0
-13 -4 -16 -10z"/>
<path d="M13770 7550 c0 -5 4 -10 9 -10 6 0 13 5 16 10 3 6 -1 10 -9 10 -9 0
-16 -4 -16 -10z"/>
<path d="M14048 7578 c-7 -19 2 -38 17 -38 15 0 24 19 18 38 -3 6 -11 12 -18
12 -7 0 -15 -6 -17 -12z"/>
<path d="M14420 7550 c0 -5 4 -10 9 -10 6 0 13 5 16 10 3 6 -1 10 -9 10 -9 0
-16 -4 -16 -10z"/>
<path d="M14843 7574 c-8 -21 13 -42 28 -27 13 13 5 43 -11 43 -6 0 -13 -7
-17 -16z"/>
<path d="M15095 7550 c4 -6 11 -8 16 -5 14 9 11 15 -7 15 -8 0 -12 -5 -9 -10z"/>
<path d="M15213 7574 c-8 -21 13 -42 28 -27 13 13 5 43 -11 43 -6 0 -13 -7
-17 -16z"/>
<path d="M15345 7590 c-3 -5 1 -10 9 -10 9 0 16 5 16 10 0 6 -4 10 -9 10 -6 0
-13 -4 -16 -10z"/>
<path d="M4677 6779 c-26 -15 -67 -107 -66 -149 0 -31 2 -28 18 25 19 68 47
115 67 115 7 0 16 5 19 10 8 13 -15 12 -38 -1z"/>
<path d="M5305 6670 c-25 -11 1 -11 35 0 20 6 21 8 5 8 -11 0 -29 -3 -40 -8z"/>
<path d="M4743 6632 c-24 -4 -32 -22 -10 -22 15 0 43 18 37 22 -3 2 -15 2 -27
0z"/>
<path d="M4611 6554 c0 -11 3 -14 6 -6 3 7 2 16 -1 19 -3 4 -6 -2 -5 -13z"/>
<path d="M4791 6246 l-24 -13 22 -13 c27 -14 34 -9 29 18 -3 19 -5 19 -27 8z"/>
<path d="M4838 6163 c7 -3 16 -2 19 1 4 3 -2 6 -13 5 -11 0 -14 -3 -6 -6z"/>
<path d="M4830 6118 c0 -11 12 -10 30 2 12 7 10 9 -8 7 -12 0 -22 -5 -22 -9z"/>
<path d="M4840 6069 c0 -5 5 -7 10 -4 6 3 10 8 10 11 0 2 -4 4 -10 4 -5 0 -10
-5 -10 -11z"/>
<path d="M4875 6051 c-3 -5 -1 -12 5 -16 5 -3 10 1 10 9 0 18 -6 21 -15 7z"/>
<path d="M4852 6021 c-11 -7 -11 -9 0 -14 9 -3 15 1 15 9 0 8 -1 14 -1 14 -1
0 -7 -4 -14 -9z"/>
<path d="M4900 5996 c0 -2 8 -10 18 -17 15 -13 16 -12 3 4 -13 16 -21 21 -21
13z"/>
<path d="M4891 5961 c-8 -6 -9 -11 -3 -15 6 -3 14 -1 17 5 9 14 2 20 -14 10z"/>
<path d="M4875 5920 c3 -5 14 -10 23 -10 15 0 15 2 2 10 -20 13 -33 13 -25 0z"/>
<path d="M4900 5880 c0 -5 5 -10 11 -10 5 0 7 5 4 10 -3 6 -8 10 -11 10 -2 0
-4 -4 -4 -10z"/>
<path d="M4942 5859 c1 -17 7 -33 12 -36 5 -3 6 -1 2 5 -4 8 0 12 11 12 17 1
17 2 -1 15 -19 15 -19 15 3 15 13 0 29 -7 35 -15 10 -14 13 -14 31 0 16 12 17
14 2 9 -9 -3 -23 -2 -30 4 -7 6 -25 13 -40 16 -25 4 -27 2 -25 -25z"/>
<path d="M5277 5699 c12 -12 24 -21 27 -18 2 2 -8 13 -22 23 l-27 19 22 -24z"/>
<path d="M5218 5666 c-10 -7 -18 -17 -18 -21 0 -4 7 -2 15 5 8 6 19 9 24 5 7
-3 8 0 5 9 -3 9 -7 16 -8 16 0 0 -9 -7 -18 -14z"/>
<path d="M5260 5666 c0 -3 9 -10 20 -16 11 -6 20 -8 20 -6 0 3 -9 10 -20 16
-11 6 -20 8 -20 6z"/>
<path d="M5390 5116 c0 -2 14 -14 30 -26 17 -12 30 -19 30 -16 0 2 -13 14 -30
26 -16 12 -30 19 -30 16z"/>
<path d="M5355 4990 c3 -5 8 -10 11 -10 2 0 4 5 4 10 0 6 -5 10 -11 10 -5 0
-7 -4 -4 -10z"/>
<path d="M12877 7267 c-3 -8 -1 -20 4 -28 11 -19 34 3 26 25 -8 20 -23 21 -30
3z"/>
<path d="M13005 7280 c-3 -5 1 -10 10 -10 9 0 13 5 10 10 -3 6 -8 10 -10 10
-2 0 -7 -4 -10 -10z"/>
<path d="M13265 7280 c-3 -5 1 -10 10 -10 9 0 13 5 10 10 -3 6 -8 10 -10 10
-2 0 -7 -4 -10 -10z"/>
<path d="M13660 7240 c0 -5 5 -10 10 -10 6 0 10 5 10 10 0 6 -4 10 -10 10 -5
0 -10 -4 -10 -10z"/>
<path d="M13933 7264 c-8 -21 13 -42 28 -27 13 13 5 43 -11 43 -6 0 -13 -7
-17 -16z"/>
<path d="M14310 7240 c0 -5 5 -10 10 -10 6 0 10 5 10 10 0 6 -4 10 -10 10 -5
0 -10 -4 -10 -10z"/>
<path d="M14733 7264 c-8 -22 15 -44 26 -25 10 16 4 41 -10 41 -5 0 -12 -7
-16 -16z"/>
<path d="M14980 7240 c0 -5 4 -10 9 -10 6 0 13 5 16 10 3 6 -1 10 -9 10 -9 0
-16 -4 -16 -10z"/>
<path d="M15103 7264 c-8 -22 15 -44 26 -25 10 16 4 41 -10 41 -5 0 -12 -7
-16 -16z"/>
<path d="M15235 7280 c-3 -5 1 -10 10 -10 9 0 13 5 10 10 -3 6 -8 10 -10 10
-2 0 -7 -4 -10 -10z"/>
<path d="M8000 7140 l0 -40 100 0 100 0 0 40 0 40 -100 0 -100 0 0 -40z"/>
<path d="M8500 7085 l0 -105 79 0 c103 0 111 7 111 105 0 94 -12 105 -117 105
l-73 0 0 -105z"/>
<path d="M9010 7140 l0 -40 95 0 95 0 0 40 0 40 -95 0 -95 0 0 -40z"/>
<path d="M12654 6945 c-9 -23 14 -45 26 -25 5 8 8 19 7 24 -6 17 -27 18 -33 1z"/>
<path d="M12780 6960 c0 -5 5 -10 10 -10 6 0 10 5 10 10 0 6 -4 10 -10 10 -5
0 -10 -4 -10 -10z"/>
<path d="M13035 6960 c-3 -5 1 -10 9 -10 9 0 16 5 16 10 0 6 -4 10 -9 10 -6 0
-13 -4 -16 -10z"/>
<path d="M13430 6920 c0 -5 4 -10 9 -10 6 0 13 5 16 10 3 6 -1 10 -9 10 -9 0
-16 -4 -16 -10z"/>
<path d="M13708 6948 c-7 -19 2 -38 17 -38 15 0 24 19 18 38 -3 6 -11 12 -18
12 -7 0 -15 -6 -17 -12z"/>
<path d="M14080 6920 c0 -5 4 -10 9 -10 6 0 13 5 16 10 3 6 -1 10 -9 10 -9 0
-16 -4 -16 -10z"/>
<path d="M14503 6944 c-8 -21 13 -42 28 -27 13 13 5 43 -11 43 -6 0 -13 -7
-17 -16z"/>
<path d="M14760 6920 c0 -5 5 -10 10 -10 6 0 10 5 10 10 0 6 -4 10 -10 10 -5
0 -10 -4 -10 -10z"/>
<path d="M14873 6944 c-8 -21 13 -42 28 -27 13 13 5 43 -11 43 -6 0 -13 -7
-17 -16z"/>
<path d="M15005 6960 c-3 -5 1 -10 9 -10 9 0 16 5 16 10 0 6 -4 10 -9 10 -6 0
-13 -4 -16 -10z"/>
<path d="M8340 6420 l0 -40 100 0 100 0 0 40 0 40 -100 0 -100 0 0 -40z"/>
<path d="M9210 6360 l0 -100 100 0 100 0 0 100 0 100 -100 0 -100 0 0 -100z"/>
<path d="M12530 6290 c0 -5 5 -10 10 -10 6 0 10 5 10 10 0 6 -4 10 -10 10 -5
0 -10 -4 -10 -10z"/>
<path d="M12714 6315 c-3 -8 -3 -19 1 -25 10 -16 35 7 28 26 -7 18 -22 18 -29
-1z"/>
<path d="M12835 6330 c-3 -5 1 -10 9 -10 9 0 16 5 16 10 0 6 -4 10 -9 10 -6 0
-13 -4 -16 -10z"/>
<path d="M13133 6314 c-8 -21 13 -42 28 -27 13 13 5 43 -11 43 -6 0 -13 -7
-17 -16z"/>
<path d="M13255 6290 c4 -6 11 -8 16 -5 14 9 11 15 -7 15 -8 0 -12 -5 -9 -10z"/>
<path d="M13670 6290 c0 -5 4 -10 9 -10 6 0 13 5 16 10 3 6 -1 10 -9 10 -9 0
-16 -4 -16 -10z"/>
<path d="M14035 6290 c4 -6 11 -8 16 -5 14 9 11 15 -7 15 -8 0 -12 -5 -9 -10z"/>
<path d="M12303 6004 c-8 -21 13 -42 28 -27 13 13 5 43 -11 43 -6 0 -13 -7
-17 -16z"/>
<path d="M14417 6007 c-3 -8 -1 -20 4 -28 11 -19 34 3 26 25 -8 20 -23 21 -30
3z"/>
<path d="M12185 5980 c4 -6 11 -8 16 -5 14 9 11 15 -7 15 -8 0 -12 -5 -9 -10z"/>
<path d="M12435 6020 c-3 -5 1 -10 10 -10 9 0 13 5 10 10 -3 6 -8 10 -10 10
-2 0 -7 -4 -10 -10z"/>
<path d="M12554 6005 c-3 -8 -3 -19 1 -25 10 -16 35 7 28 26 -7 18 -22 18 -29
-1z"/>
<path d="M12758 6008 c-7 -19 2 -38 17 -38 15 0 24 19 18 38 -3 6 -11 12 -18
12 -7 0 -15 -6 -17 -12z"/>
<path d="M12945 6020 c-3 -5 1 -10 10 -10 9 0 13 5 10 10 -3 6 -8 10 -10 10
-2 0 -7 -4 -10 -10z"/>
<path d="M13553 6004 c-8 -21 13 -42 28 -27 13 13 5 43 -11 43 -6 0 -13 -7
-17 -16z"/>
<path d="M13805 5980 c4 -6 11 -8 16 -5 14 9 11 15 -7 15 -8 0 -12 -5 -9 -10z"/>
<path d="M13923 6004 c-8 -21 13 -42 28 -27 13 13 5 43 -11 43 -6 0 -13 -7
-17 -16z"/>
<path d="M14055 6020 c-3 -5 1 -10 10 -10 9 0 13 5 10 10 -3 6 -8 10 -10 10
-2 0 -7 -4 -10 -10z"/>
<path d="M14550 6020 c0 -5 5 -10 10 -10 6 0 10 5 10 10 0 6 -4 10 -10 10 -5
0 -10 -4 -10 -10z"/>
<path d="M14583 5684 c-8 -21 13 -42 28 -27 13 13 5 43 -11 43 -6 0 -13 -7
-17 -16z"/>
<path d="M14886 5683 c-9 -22 10 -41 25 -26 13 13 5 43 -10 43 -5 0 -12 -8
-15 -17z"/>
<path d="M15537 5687 c-3 -8 -1 -20 4 -28 11 -19 34 3 26 25 -8 20 -23 21 -30
3z"/>
<path d="M12193 5684 c-8 -21 13 -42 28 -27 13 13 5 43 -11 43 -6 0 -13 -7
-17 -16z"/>
<path d="M12403 5684 c-8 -21 13 -42 28 -27 13 13 5 43 -11 43 -6 0 -13 -7
-17 -16z"/>
<path d="M12533 5684 c-8 -22 15 -44 26 -25 10 16 4 41 -10 41 -5 0 -12 -7
-16 -16z"/>
<path d="M12740 5660 c0 -5 4 -10 9 -10 6 0 13 5 16 10 3 6 -1 10 -9 10 -9 0
-16 -4 -16 -10z"/>
<path d="M13045 5660 c4 -6 11 -8 16 -5 14 9 11 15 -7 15 -8 0 -12 -5 -9 -10z"/>
<path d="M13260 5660 c0 -5 5 -10 10 -10 6 0 10 5 10 10 0 6 -4 10 -10 10 -5
0 -10 -4 -10 -10z"/>
<path d="M13373 5684 c-8 -21 13 -42 28 -27 13 13 5 43 -11 43 -6 0 -13 -7
-17 -16z"/>
<path d="M13625 5700 c-3 -5 1 -10 10 -10 9 0 13 5 10 10 -3 6 -8 10 -10 10
-2 0 -7 -4 -10 -10z"/>
<path d="M14405 5660 c4 -6 11 -8 16 -5 14 9 11 15 -7 15 -8 0 -12 -5 -9 -10z"/>
<path d="M14715 5700 c-3 -5 1 -10 10 -10 9 0 13 5 10 10 -3 6 -8 10 -10 10
-2 0 -7 -4 -10 -10z"/>
<path d="M15005 5660 c4 -6 11 -8 16 -5 14 9 11 15 -7 15 -8 0 -12 -5 -9 -10z"/>
<path d="M15353 5684 c-8 -21 13 -42 28 -27 13 13 5 43 -11 43 -6 0 -13 -7
-17 -16z"/>
<path d="M15670 5700 c0 -5 5 -10 10 -10 6 0 10 5 10 10 0 6 -4 10 -10 10 -5
0 -10 -4 -10 -10z"/>
<path d="M12193 5374 c-8 -22 15 -44 26 -25 10 16 4 41 -10 41 -5 0 -12 -7
-16 -16z"/>
<path d="M12433 5374 c-8 -21 13 -42 28 -27 13 13 5 43 -11 43 -6 0 -13 -7
-17 -16z"/>
<path d="M13250 5350 c0 -5 4 -10 9 -10 6 0 13 5 16 10 3 6 -1 10 -9 10 -9 0
-16 -4 -16 -10z"/>
<path d="M14085 5390 c-3 -5 1 -10 10 -10 9 0 13 5 10 10 -3 6 -8 10 -10 10
-2 0 -7 -4 -10 -10z"/>
<path d="M12315 5350 c4 -6 11 -8 16 -5 14 9 11 15 -7 15 -8 0 -12 -5 -9 -10z"/>
<path d="M12563 5374 c-8 -21 13 -42 28 -27 13 13 5 43 -11 43 -6 0 -13 -7
-17 -16z"/>
<path d="M13425 5350 c4 -6 11 -8 16 -5 14 9 11 15 -7 15 -8 0 -12 -5 -9 -10z"/>
<path d="M13640 5350 c0 -5 4 -10 9 -10 6 0 13 5 16 10 3 6 -1 10 -9 10 -9 0
-16 -4 -16 -10z"/>
<path d="M13758 5378 c-7 -19 2 -38 17 -38 15 0 24 19 18 38 -3 6 -11 12 -18
12 -7 0 -15 -6 -17 -12z"/>
<path d="M14375 5390 c-3 -5 1 -10 10 -10 9 0 13 5 10 10 -3 6 -8 10 -10 10
-2 0 -7 -4 -10 -10z"/>
<path d="M14545 5390 c-3 -5 1 -10 10 -10 9 0 13 5 10 10 -3 6 -8 10 -10 10
-2 0 -7 -4 -10 -10z"/>
<path d="M13803 5054 c-8 -21 13 -42 28 -27 13 13 5 43 -11 43 -6 0 -13 -7
-17 -16z"/>
<path d="M14423 5054 c-8 -21 13 -42 28 -27 13 13 5 43 -11 43 -6 0 -13 -7
-17 -16z"/>
<path d="M12383 5054 c-8 -21 13 -42 28 -27 13 13 5 43 -11 43 -6 0 -13 -7
-17 -16z"/>
<path d="M12778 5058 c-7 -19 2 -38 17 -38 15 0 24 19 18 38 -3 6 -11 12 -18
12 -7 0 -15 -6 -17 -12z"/>
<path d="M12985 5030 c4 -6 11 -8 16 -5 14 9 11 15 -7 15 -8 0 -12 -5 -9 -10z"/>
<path d="M13295 5070 c-3 -5 1 -10 9 -10 9 0 16 5 16 10 0 6 -4 10 -9 10 -6 0
-13 -4 -16 -10z"/>
<path d="M13613 5054 c-8 -21 13 -42 28 -27 13 13 5 43 -11 43 -6 0 -13 -7
-17 -16z"/>
<path d="M13935 5070 c-3 -5 1 -10 10 -10 9 0 13 5 10 10 -3 6 -8 10 -10 10
-2 0 -7 -4 -10 -10z"/>
<path d="M14225 5030 c4 -6 11 -8 16 -5 14 9 11 15 -7 15 -8 0 -12 -5 -9 -10z"/>
<path d="M14720 5030 c0 -5 5 -10 10 -10 6 0 10 5 10 10 0 6 -4 10 -10 10 -5
0 -10 -4 -10 -10z"/>
<path d="M14925 5070 c-3 -5 1 -10 10 -10 9 0 13 5 10 10 -3 6 -8 10 -10 10
-2 0 -7 -4 -10 -10z"/>
<path d="M1210 2670 l0 -940 1663 0 1662 0 0 940 0 940 -1662 0 -1663 0 0
-940z m105 911 c3 -5 1 -12 -5 -16 -5 -3 -10 1 -10 9 0 18 6 21 15 7z m1239
-12 c-3 -5 -10 -7 -15 -3 -5 3 -7 10 -3 15 3 5 10 7 15 3 5 -3 7 -10 3 -15z
m206 6 c0 -8 -4 -15 -10 -15 -5 0 -10 7 -10 15 0 8 5 15 10 15 6 0 10 -7 10
-15z m210 0 c0 -8 -7 -15 -15 -15 -8 0 -15 7 -15 15 0 8 7 15 15 15 8 0 15 -7
15 -15z m1021 2 c-1 -12 -15 -9 -19 4 -3 6 1 10 8 8 6 -3 11 -8 11 -12z m-594
-139 c-3 -8 -6 -5 -6 6 -1 11 2 17 5 13 3 -3 4 -12 1 -19z m323 1 c0 -5 -9 -9
-20 -9 -22 0 -27 16 -7 23 15 5 27 -1 27 -14z m-370 0 c0 -5 -20 -9 -45 -9
-25 0 -45 3 -45 8 0 4 20 8 45 8 25 1 45 -2 45 -7z m230 1 c0 -5 -38 -9 -85
-9 -47 -1 -85 3 -85 8 0 5 38 9 85 9 47 0 85 -4 85 -8z m75 0 c-3 -5 -20 -10
-36 -10 -18 0 -28 4 -24 10 3 6 20 10 36 10 18 0 28 -4 24 -10z m155 -2 c0 -4
-18 -8 -40 -8 -22 0 -40 4 -40 8 0 4 18 8 40 8 22 0 40 -3 40 -8z m-490 -53
c0 -8 -7 -15 -16 -15 -9 0 -12 5 -8 13 6 10 4 10 -7 0 -17 -17 -26 -16 -26 2
0 10 10 15 29 15 18 0 28 -5 28 -15z m27 -7 c-3 -8 -6 -5 -6 6 -1 11 2 17 5
13 3 -3 4 -12 1 -19z m63 10 c25 3 40 0 40 -7 0 -6 -19 -11 -45 -11 -36 0 -45
3 -44 18 0 9 3 12 5 7 2 -6 22 -9 44 -7z m80 -9 c0 -5 -7 -9 -15 -9 -15 0 -20
12 -9 23 8 8 24 -1 24 -14z m210 8 c0 -4 7 -4 15 0 18 10 85 5 85 -7 0 -4 -34
-8 -75 -8 -67 -1 -85 4 -70 19 8 8 45 5 45 -4z m-150 -8 c0 -5 -11 -9 -25 -9
-14 0 -25 4 -25 9 0 5 11 9 25 9 14 0 25 -4 25 -9z m90 3 c0 -4 -16 -8 -35 -9
-19 -1 -35 2 -35 6 0 4 16 8 35 9 19 1 35 -2 35 -6z m-303 -43 c23 0 43 -3 43
-9 0 -11 -4 -11 -62 -14 -28 -1 -38 3 -38 14 0 13 -1 13 -10 0 -5 -8 -10 -10
-10 -4 0 16 11 24 23 17 6 -3 30 -5 54 -4z m90 -11 c-3 -8 -6 -5 -6 6 -1 11 2
17 5 13 3 -3 4 -12 1 -19z m183 -1 c0 -4 -29 -7 -63 -6 -35 1 -69 -1 -75 -5
-7 -4 -12 -2 -12 4 0 6 -4 8 -10 5 -5 -3 -10 -1 -10 4 0 7 30 10 85 9 47 -2
85 -6 85 -11z m75 3 c-7 -12 -65 -10 -65 2 0 4 16 8 36 8 21 0 33 -4 29 -10z
m218 2 c-20 -12 -160 -15 -168 -3 -4 8 24 11 87 11 51 0 88 -4 81 -8z m-609
-52 c14 -5 26 -6 26 -1 0 4 14 6 30 3 53 -8 32 -21 -30 -19 -40 1 -60 6 -60
15 0 15 2 15 34 2z m160 -4 c20 3 121 6 144 5 6 -1 12 -5 12 -9 0 -4 -43 -8
-95 -8 -80 -1 -95 2 -95 15 0 10 3 12 8 5 4 -6 16 -10 26 -8z m233 -3 c-11
-11 -55 -15 -61 -5 -2 4 12 9 32 10 20 2 33 0 29 -5z m227 -1 c2 -4 -34 -8
-80 -9 -46 0 -87 3 -90 8 -3 5 32 9 80 9 47 0 87 -3 90 -8z m-560 -51 c3 -4
-6 -8 -20 -9 -15 -1 -24 4 -24 12 0 14 35 11 44 -3z m-706 -33 c2 -22 -1 -38
-7 -38 -6 0 -11 7 -11 15 0 8 -7 15 -15 15 -8 0 -15 -7 -15 -15 0 -8 -4 -15
-10 -15 -11 0 -14 63 -3 74 4 4 19 6 33 4 21 -3 25 -9 28 -40z m87 2 c0 -33
-2 -35 -37 -38 -37 -3 -38 -2 -38 31 0 42 7 49 45 45 27 -3 30 -6 30 -38z m83
28 c14 -14 16 -68 2 -68 -5 0 -10 7 -10 15 0 8 -9 15 -20 15 -11 0 -20 -7 -20
-15 0 -8 -4 -15 -10 -15 -11 0 -14 63 -3 73 11 11 48 8 61 -5z m472 8 c0 -2
-7 -6 -15 -10 -8 -3 -15 -1 -15 4 0 6 7 10 15 10 8 0 15 -2 15 -4z m140 -4 c0
-5 -7 -9 -15 -9 -8 0 -15 4 -15 9 0 4 7 8 15 8 8 0 15 -4 15 -8z m160 -4 c0
-5 -34 -8 -75 -7 -41 1 -75 6 -75 11 0 5 34 8 75 6 41 -1 75 -6 75 -10z m80 2
c0 -6 -16 -10 -35 -8 -19 1 -35 6 -35 10 0 4 16 8 35 8 19 0 35 -5 35 -10z
m224 2 c3 -5 -5 -9 -17 -9 -12 -1 -44 -3 -70 -6 -26 -2 -50 0 -53 5 -3 5 -10
6 -15 3 -5 -4 -9 -2 -9 3 0 11 157 14 164 4z m-1708 -10 c6 -4 11 -22 11 -39
0 -29 -4 -33 -26 -33 -21 0 -23 -2 -11 -10 12 -8 10 -10 -9 -10 -24 0 -24 -1
-6 -14 14 -10 23 -11 37 -3 20 13 23 11 32 -25 5 -21 3 -28 -9 -28 -8 0 -15
-7 -15 -15 0 -9 -11 -20 -25 -25 -32 -12 -32 -22 -1 -14 24 6 25 4 23 -32 -2
-27 -8 -40 -19 -42 -20 -4 -78 25 -78 38 0 6 -5 10 -12 10 -6 0 1 -13 16 -29
15 -16 26 -36 24 -46 -2 -11 12 -25 41 -43 36 -21 43 -23 38 -9 -10 27 9 20
21 -8 16 -35 16 -35 -18 -28 -20 3 -30 1 -30 -6 0 -8 -11 -4 -29 8 -35 25 -70
29 -51 6 11 -13 7 -15 -23 -15 -26 0 -46 9 -72 31 -19 17 -35 36 -35 43 0 6
14 27 31 46 l32 34 -7 88 c-6 93 1 112 33 84 16 -15 19 -13 35 24 10 22 24 47
32 55 16 16 52 20 70 7z m679 -2 c4 -7 13 -7 26 0 17 10 19 7 19 -25 0 -19 -4
-35 -10 -35 -5 0 -10 6 -10 13 0 8 -7 14 -15 14 -8 0 -15 -6 -15 -14 0 -7 -4
-13 -10 -13 -5 0 -10 16 -10 35 0 34 12 46 25 25z m455 -43 c0 -8 -7 -14 -15
-14 -8 0 -15 4 -15 9 0 4 -5 8 -11 8 -5 0 -7 -5 -3 -12 4 -7 3 -8 -4 -4 -22
13 -12 26 18 26 18 0 30 -5 30 -13z m47 -9 c-3 -8 -6 -5 -6 6 -1 11 2 17 5 13
3 -3 4 -12 1 -19z m468 3 c-11 -5 -42 -7 -70 -6 -77 3 -85 4 -85 13 0 4 39 5
87 3 53 -2 80 -6 68 -10z m-285 1 c0 -9 -157 -9 -166 1 -4 4 32 7 79 7 48 0
87 -3 87 -8z m68 1 c-10 -2 -28 -2 -40 0 -13 2 -5 4 17 4 22 1 32 -1 23 -4z
m-1160 -115 c-3 -29 -11 -54 -18 -56 -28 -10 -52 -44 -47 -68 2 -13 -1 -31 -8
-41 -11 -14 -14 -13 -35 15 -13 17 -27 29 -32 26 -5 -3 -8 24 -6 62 l3 67 60
23 c87 33 88 33 83 -28z m144 39 c17 15 18 14 18 -20 0 -21 -4 -37 -10 -37 -5
0 -10 5 -10 10 0 6 -7 10 -15 10 -8 0 -15 -4 -15 -10 0 -5 -4 -10 -10 -10 -5
0 -10 17 -10 37 0 35 1 36 17 20 16 -15 18 -15 35 0z m108 -22 c0 -19 -4 -35
-10 -35 -5 0 -10 5 -10 10 0 6 -7 10 -15 10 -8 0 -15 -4 -15 -10 0 -5 -4 -10
-10 -10 -5 0 -10 16 -10 35 0 33 2 35 35 35 33 0 35 -2 35 -35z m30 6 c0 -20
6 -31 18 -34 10 -3 6 -5 -10 -6 -25 -1 -28 2 -28 34 0 19 5 35 10 35 6 0 10
-13 10 -29z m120 -6 c0 -33 -2 -35 -35 -35 -33 0 -35 2 -35 35 0 33 2 35 35
35 33 0 35 -2 35 -35z m90 24 c0 -7 -9 -9 -21 -6 l-21 6 21 -23 c12 -12 18
-26 14 -29 -10 -10 -75 -8 -69 2 3 4 18 6 33 4 l28 -4 -27 23 c-37 31 -35 38
7 38 19 0 35 -5 35 -11z m439 -35 c2 -2 -12 -4 -32 -4 -20 0 -37 4 -37 10 0 8
58 3 69 -6z m131 -1 c0 -5 -25 -8 -55 -8 -30 0 -55 3 -55 8 0 4 25 7 55 7 30
0 55 -3 55 -7z m73 0 c-7 -2 -21 -2 -30 0 -10 3 -4 5 12 5 17 0 24 -2 18 -5z
m60 0 c-7 -2 -21 -2 -30 0 -10 3 -4 5 12 5 17 0 24 -2 18 -5z m-41 -44 c57 1
79 -2 71 -10 -9 -9 -62 -13 -145 -10 -18 1 -28 6 -28 17 0 8 5 12 11 9 5 -4
47 -6 91 -6z m-182 -8 c0 -12 -34 -17 -77 -12 -52 5 -38 17 22 20 31 1 55 -2
55 -8z m70 -1 c0 -5 -11 -10 -25 -10 -14 0 -25 5 -25 10 0 6 11 10 25 10 14 0
25 -4 25 -10z m220 0 c0 -5 -5 -10 -11 -10 -5 0 -7 5 -4 10 3 6 8 10 11 10 2
0 4 -4 4 -10z m-180 -59 c0 -4 -7 -8 -15 -8 -8 0 -15 6 -15 13 0 8 6 11 15 8
8 -4 15 -9 15 -13z m70 10 c0 -12 -39 -21 -45 -11 -3 5 5 11 17 13 13 2 24 5
26 6 1 0 2 -3 2 -8z m90 -2 c14 2 22 0 19 -3 -6 -6 -72 -11 -94 -6 -5 1 -1 5
10 9 11 5 25 6 30 3 6 -4 21 -5 35 -3z m70 -9 c0 -7 -13 -7 -38 -1 -2 1 -1 5
3 11 6 10 35 2 35 -10z m51 10 c6 0 8 -4 5 -9 -8 -13 -39 -7 -44 9 -3 9 1 11
12 7 10 -4 22 -7 27 -7z m114 -8 c-12 -12 -33 -10 -28 3 2 8 11 11 19 8 8 -3
12 -8 9 -11z m-531 -2 c-8 -8 -84 -6 -84 2 0 4 20 6 45 5 24 -1 42 -4 39 -7z
m46 6 c0 -2 -7 -6 -15 -10 -8 -3 -15 -1 -15 4 0 6 7 10 15 10 8 0 15 -2 15 -4z
m44 -5 c4 -5 -1 -8 -9 -7 -21 3 -31 16 -12 16 9 0 18 -4 21 -9z m396 5 c0 -3
-4 -8 -10 -11 -5 -3 -10 -1 -10 4 0 6 5 11 10 11 6 0 10 -2 10 -4z m-280 -58
c0 -10 -148 -10 -165 1 -14 8 70 17 123 12 23 -1 42 -7 42 -13z m-190 2 c0 -5
-22 -10 -50 -10 -27 0 -50 5 -50 10 0 6 23 10 50 10 28 0 50 -4 50 -10z m290
2 c0 -5 -18 -9 -40 -10 -22 -1 -40 3 -40 8 0 6 18 10 40 10 22 0 40 -4 40 -8z
m-1388 -27 c3 -14 1 -28 -3 -31 -5 -3 -9 9 -9 25 0 38 6 40 12 6z m-74 -30
c-3 -3 -9 2 -12 12 -6 14 -5 15 5 6 7 -7 10 -15 7 -18z m1190 -6 c-19 -13 -28
-11 -28 5 0 9 7 12 21 9 16 -4 17 -8 7 -14z m142 2 c0 -6 -66 -6 -80 -1 -3 1
9 5 25 9 31 7 55 4 55 -8z m45 -3 c-19 -11 -30 -5 -21 11 4 6 14 7 22 4 15 -5
14 -7 -1 -15z m128 13 c16 0 26 -4 23 -9 -2 -4 -28 -7 -58 -6 -66 2 -68 2 -68
12 0 4 17 6 38 6 20 -1 50 -2 65 -3z m-367 -10 c-18 -7 -66 -3 -66 5 0 2 19 4
43 3 30 0 36 -3 23 -8z m104 5 c0 -2 -7 -6 -15 -10 -8 -3 -15 -1 -15 4 0 6 7
10 15 10 8 0 15 -2 15 -4z m-1392 -463 l2 -233 -390 0 -390 0 0 235 0 235 388
-2 387 -3 3 -232z m-828 -608 c0 -8 -7 -15 -15 -15 -8 0 -15 7 -15 15 0 8 7
15 15 15 8 0 15 -7 15 -15z m1500 6 c0 -6 -4 -13 -10 -16 -5 -3 -10 1 -10 9 0
9 5 16 10 16 6 0 10 -4 10 -9z m90 -6 c0 -8 -7 -15 -15 -15 -8 0 -15 7 -15 15
0 8 7 15 15 15 8 0 15 -7 15 -15z m175 6 c7 -12 -12 -24 -25 -16 -11 7 -4 25
10 25 5 0 11 -4 15 -9z m170 0 c7 -12 -12 -24 -25 -16 -11 7 -4 25 10 25 5 0
11 -4 15 -9z m80 -1 c-3 -5 -13 -10 -21 -10 -8 0 -12 5 -9 10 3 6 13 10 21 10
8 0 12 -4 9 -10z m80 0 c3 -5 1 -10 -4 -10 -6 0 -11 5 -11 10 0 6 2 10 4 10 3
0 8 -4 11 -10z m1135 -5 c0 -9 -6 -12 -15 -9 -8 4 -15 10 -15 15 0 5 7 9 15 9
8 0 15 -7 15 -15z m-1390 -9 c-7 -7 -14 -6 -21 1 -9 9 -7 12 9 10 14 -1 18 -5
12 -11z"/>
<path d="M2600 3200 c0 -5 7 -10 15 -10 8 0 15 5 15 10 0 6 -7 10 -15 10 -8 0
-15 -4 -15 -10z"/>
<path d="M2687 3204 c-14 -14 -7 -35 11 -32 9 2 17 10 17 17 0 16 -18 25 -28
15z"/>
<path d="M2775 3200 c-3 -5 3 -10 15 -10 12 0 18 5 15 10 -3 6 -10 10 -15 10
-5 0 -12 -4 -15 -10z"/>
<path d="M2668 3073 c7 -3 16 -2 19 1 4 3 -2 6 -13 5 -11 0 -14 -3 -6 -6z"/>
<path d="M2810 3065 c0 -8 7 -15 15 -15 8 0 15 7 15 15 0 8 -7 15 -15 15 -8 0
-15 -7 -15 -15z"/>
<path d="M1427 2584 c-4 -4 -7 -99 -7 -211 l1 -203 290 0 289 0 -2 208 -3 207
-281 3 c-154 1 -283 -1 -287 -4z"/>
</g>
</svg>
